<?xml version="1.0" encoding="UTF-8"?>
<svg version="1.1" xmlns="http://www.w3.org/2000/svg" viewBox="0 0 512 512">
<path d="M0 0 C1.03878296 -0.00700928 2.07756592 -0.01401855 3.14782715 -0.02124023 C6.55195539 -0.03872052 9.95523958 -0.02723245 13.359375 -0.01367188 C15.74251463 -0.01636964 18.12565318 -0.02025442 20.50878906 -0.02526855 C25.49164357 -0.03115014 30.47421032 -0.02264355 35.45703125 -0.00390625 C41.82553009 0.01888199 48.19335448 0.00575177 54.56182861 -0.01819611 C59.47938058 -0.03269008 64.39677417 -0.02803151 69.31433105 -0.01768494 C71.66174399 -0.01502762 74.00917157 -0.01825216 76.35656738 -0.02760315 C79.64434585 -0.03782781 82.93105092 -0.02218403 86.21875 0 C87.65607483 -0.01214539 87.65607483 -0.01214539 89.12243652 -0.02453613 C97.05506 0.0740014 104.08994556 1.7551214 110.046875 7.20507812 C114.60816087 14.53077967 115.5527741 21.53073168 115.49755859 30.03515625 C115.50544403 31.55163002 115.50544403 31.55163002 115.51348877 33.09873962 C115.52661138 36.41559647 115.51797797 39.73196704 115.5078125 43.04882812 C115.50983545 45.3685312 115.51274873 47.68823366 115.51651001 50.00793457 C115.5209229 54.85968099 115.51453554 59.71126124 115.50048828 64.56298828 C115.48339725 70.7667285 115.49324396 76.97007928 115.51120567 83.17380524 C115.52207139 87.96090605 115.51858434 92.74791528 115.5108223 97.53501892 C115.50882801 99.82185411 115.51125232 102.10869775 115.51826096 104.39552307 C115.52592125 107.5972379 115.51420679 110.79833118 115.49755859 114 C115.50363129 114.93533066 115.50970398 115.87066132 115.51596069 116.83433533 C115.44632896 124.10127671 114.31218688 130.99174826 109.796875 136.89257812 C102.85975594 143.66836884 95.33749058 143.6667061 86.21484375 143.61523438 C85.26748856 143.61381943 84.32013336 143.61240448 83.34407043 143.61094666 C80.32830605 143.60536424 77.31261682 143.59281494 74.296875 143.58007812 C72.24804795 143.57506085 70.19921973 143.57049834 68.15039062 143.56640625 C63.13666674 143.5562529 58.12310467 143.53667401 53.109375 143.51757812 C53.109375 157.04757813 53.109375 170.57757813 53.109375 184.51757812 C58.47533936 184.50186768 63.84130371 184.48615723 69.36987305 184.4699707 C87.07165347 184.42032754 104.77343659 184.38699755 122.47526836 184.36214161 C133.21100599 184.3466667 143.94667772 184.32556522 154.68237305 184.29125977 C164.03860464 184.26137655 173.39478851 184.24200766 182.75106651 184.23531264 C187.70605457 184.23139856 192.6609061 184.22218692 197.61585045 184.20038795 C202.27874443 184.18003987 206.94144549 184.17374094 211.60437965 184.17825508 C213.31643853 184.17742913 215.02850379 184.17145348 216.74052429 184.1599617 C219.07743167 184.14504365 221.41360993 184.1486217 223.75053406 184.15681458 C225.0585583 184.1540492 226.36658255 184.15128382 227.71424389 184.14843464 C231.36966095 184.54587832 233.2151581 185.29190986 236.109375 187.51757812 C238.36717193 190.90427352 238.35424283 192.03448664 238.33642578 195.9987793 C238.33627472 197.11971481 238.33612366 198.24065033 238.33596802 199.39555359 C238.32564545 200.60500137 238.31532288 201.81444916 238.3046875 203.06054688 C238.30044266 204.91864738 238.30044266 204.91864738 238.29611206 206.81428528 C238.28680686 210.10395899 238.26884291 213.39343676 238.2467041 216.68304443 C238.2262277 220.04127607 238.21710652 223.3995364 238.20703125 226.7578125 C238.18495771 233.34447785 238.15147022 239.93101196 238.109375 246.51757812 C239.94713501 246.49401245 239.94713501 246.49401245 241.82202148 246.4699707 C246.40105523 246.41535392 250.98006061 246.38111323 255.55932617 246.3527832 C257.53496149 246.33776857 259.51056389 246.31735061 261.48608398 246.29125977 C264.33846195 246.2545524 267.19039629 246.23777819 270.04296875 246.22460938 C270.91521591 246.20912552 271.78746307 246.19364166 272.68614197 246.1776886 C279.88493307 246.17574714 287.44878117 247.33151951 292.984375 252.33007812 C293.51804687 252.79027344 294.05171875 253.25046875 294.6015625 253.72460938 C299.5515111 259.61068815 299.54541619 265.20439438 299.51342773 272.53662109 C299.52372261 274.18652039 299.52372261 274.18652039 299.53422546 275.86975098 C299.55250216 279.49988779 299.54865422 283.12959274 299.54296875 286.75976562 C299.5475304 289.28793478 299.55283592 291.81610269 299.55885315 294.3442688 C299.56778622 299.64184184 299.5655936 304.93925811 299.55541992 310.23681641 C299.54394695 316.3456206 299.55800406 322.45398534 299.5848164 328.56273162 C299.60970844 334.45632894 299.61214036 340.34979058 299.60569954 346.24344254 C299.60554636 348.7432338 299.61158789 351.24303354 299.62399101 353.74279404 C299.6389063 357.24210816 299.62821824 360.74046155 299.61108398 364.23974609 C299.62075195 365.26754181 299.63041992 366.29533752 299.64038086 367.35427856 C299.57668871 373.58182539 298.68661404 378.32331955 295.109375 383.51757812 C292.92578125 385.57617188 292.92578125 385.57617188 290.671875 386.95507812 C289.93066406 387.42816406 289.18945312 387.90125 288.42578125 388.38867188 C284.56909973 390.26823504 280.7498185 390.64168738 276.49980164 390.65802002 C275.60417511 390.66373016 274.70854858 390.66944031 273.78578186 390.67532349 C272.81579758 390.67644135 271.84581329 390.6775592 270.84643555 390.67871094 C269.81492371 390.68367584 268.78341187 390.68864075 267.72064209 390.6937561 C264.31245249 390.70834611 260.90430943 390.71517426 257.49609375 390.72070312 C255.12343851 390.72645689 252.75078328 390.73221459 250.37812805 390.73797607 C245.40418278 390.74847686 240.43025362 390.75432567 235.45629883 390.7578125 C229.09096158 390.76329723 222.72583822 390.78732895 216.36056805 390.81578445 C211.45943076 390.83443079 206.55834482 390.83961749 201.65717506 390.84114838 C199.3108891 390.84417058 196.96460395 390.85218445 194.61835289 390.86533356 C191.33223674 390.88243641 188.04664096 390.88050328 184.76049805 390.87402344 C183.79658646 390.88323822 182.83267487 390.892453 181.83955383 390.90194702 C174.4728987 390.85656856 169.12231758 389.48757904 162.859375 385.39257812 C156.49894955 378.74304243 155.51930757 371.52140382 155.60766602 362.61694336 C155.59956154 361.03953873 155.59956154 361.03953873 155.59129333 359.43026733 C155.57885799 355.97860966 155.59526213 352.52779451 155.61328125 349.07617188 C155.61312615 346.66439266 155.61163542 344.2526132 155.60887146 341.84083557 C155.60748982 336.79652838 155.62000752 331.75250633 155.64282227 326.70825195 C155.67122097 320.25329713 155.66846204 313.79881525 155.65573215 307.34382534 C155.64876685 302.36717207 155.65657383 297.3906275 155.66898918 292.41398811 C155.67349429 290.03422526 155.67384873 287.6544507 155.66992378 285.27468681 C155.66700291 281.94582187 155.68356082 278.61760168 155.70532227 275.28881836 C155.69856979 273.82432503 155.69856979 273.82432503 155.69168091 272.33024597 C155.78665564 263.55510264 157.79796157 256.82899156 164.109375 250.51757812 C170.8725317 246.43150429 177.11384734 246.37557855 184.78515625 246.41992188 C185.7103154 246.42133682 186.63547455 246.42275177 187.58866882 246.42420959 C190.53310427 246.42979098 193.47746267 246.44234007 196.421875 246.45507812 C198.42252494 246.46009553 200.42317608 246.46465802 202.42382812 246.46875 C207.31906372 246.47890188 212.21413348 246.49848095 217.109375 246.51757812 C217.109375 232.98757813 217.109375 219.45757812 217.109375 205.51757812 C162.989375 205.51757812 108.869375 205.51757812 53.109375 205.51757812 C53.109375 219.04757812 53.109375 232.57757813 53.109375 246.51757812 C56.10902344 246.48277344 59.10867188 246.44796875 62.19921875 246.41210938 C65.12832692 246.38866345 68.05742434 246.37047557 70.98657227 246.3527832 C73.01070899 246.33776567 75.03481355 246.31734551 77.05883789 246.29125977 C79.98071261 246.25456545 82.90215435 246.23778105 85.82421875 246.22460938 C86.71833969 246.20912552 87.61246063 246.19364166 88.53367615 246.1776886 C95.77405722 246.17578137 102.60962439 247.33353488 108.484375 251.83007812 C115.31506966 258.82340837 115.25978981 266.47738589 115.27050781 275.67285156 C115.27547272 276.69300354 115.28043762 277.71315552 115.28555298 278.76422119 C115.30014337 282.13513873 115.30697157 285.50600921 115.3125 288.87695312 C115.31825419 291.22479249 115.32401189 293.57263184 115.32977295 295.92047119 C115.34027417 300.84314187 115.34612254 305.76579626 115.34960938 310.68847656 C115.35509099 316.98421424 115.37911587 323.27973532 115.40758133 329.57540512 C115.42624109 334.42597068 115.4314151 339.27648441 115.43294525 344.12708282 C115.43596495 346.44742262 115.44397034 348.76776166 115.45713043 351.0880661 C115.47425974 354.34045203 115.47229363 357.59231334 115.46582031 360.84472656 C115.4750351 361.79569214 115.48424988 362.74665771 115.4937439 363.72644043 C115.44707649 371.24335314 114.04135298 377.4147044 110.046875 383.83007812 C103.20704066 390.0877989 95.17806903 391.11086244 86.21875 391.03515625 C84.66057556 391.04567017 84.66057556 391.04567017 83.07092285 391.05639648 C79.66679461 391.07387677 76.26351042 391.0623887 72.859375 391.04882812 C70.47623537 391.05152589 68.09309682 391.05541067 65.70996094 391.0604248 C60.72710643 391.06630639 55.74453968 391.0577998 50.76171875 391.0390625 C44.39321991 391.01627426 38.02539552 391.02940448 31.65692139 391.05335236 C26.73936942 391.06784633 21.82197583 391.06318776 16.90441895 391.05284119 C14.55700601 391.05018387 12.20957843 391.05340841 9.86218262 391.0627594 C6.57440415 391.07298406 3.28769908 391.05734028 0 391.03515625 C-0.95821655 391.04325317 -1.91643311 391.0513501 -2.90368652 391.05969238 C-10.83631 390.96115485 -17.87119556 389.28003485 -23.828125 383.83007812 C-28.40906123 376.47281691 -29.33370595 369.4481556 -29.27880859 360.90820312 C-29.28669403 359.377099 -29.28669403 359.377099 -29.29473877 357.81506348 C-29.30786287 354.46574262 -29.29922742 351.1169032 -29.2890625 347.76757812 C-29.29108541 345.42545481 -29.29399865 343.08333211 -29.29776001 340.74121094 C-29.3021731 335.84238667 -29.29578488 330.94372696 -29.28173828 326.04492188 C-29.26464724 319.78064879 -29.27449384 313.51676139 -29.29245567 307.25250244 C-29.30332084 302.41907877 -29.29983459 297.58574581 -29.2920723 292.75231934 C-29.29007785 290.44315545 -29.29250287 288.13398321 -29.29951096 285.8248291 C-29.30717032 282.59198333 -29.29545804 279.3597533 -29.27880859 276.12695312 C-29.28488129 275.18227173 -29.29095398 274.23759033 -29.29721069 273.26428223 C-29.22799054 265.971445 -28.10999107 259.0663706 -23.578125 253.14257812 C-16.64100594 246.36678741 -9.11874058 246.36845015 0.00390625 246.41992188 C0.95126144 246.42133682 1.89861664 246.42275177 2.87467957 246.42420959 C5.89044395 246.42979201 8.90613318 246.44234131 11.921875 246.45507812 C13.97070205 246.4600954 16.01953027 246.46465791 18.06835938 246.46875 C23.08208326 246.47890335 28.09564533 246.49848224 33.109375 246.51757812 C33.109375 232.98757813 33.109375 219.45757812 33.109375 205.51757812 C-21.010625 205.51757812 -75.130625 205.51757812 -130.890625 205.51757812 C-130.890625 219.04757812 -130.890625 232.57757813 -130.890625 246.51757812 C-117.47356873 246.3992827 -117.47356873 246.3992827 -104.05688477 246.24731445 C-102.35693939 246.23854085 -100.65698763 246.23089899 -98.95703125 246.22460938 C-98.09621948 246.20926147 -97.23540771 246.19391357 -96.34851074 246.17810059 C-89.1580747 246.17503952 -82.34603832 247.36508213 -76.515625 251.83007812 C-71.62171778 256.84050694 -69.78069402 262.20557256 -69.74345398 269.07609558 C-69.73272102 270.4405481 -69.73272102 270.4405481 -69.72177124 271.83256531 C-69.71908234 272.8232753 -69.71639343 273.81398529 -69.71362305 274.8347168 C-69.70705185 275.88398346 -69.70048065 276.93325012 -69.69371033 278.01431274 C-69.67399412 281.4880582 -69.66231807 284.96176044 -69.65234375 288.43554688 C-69.64826822 289.62319452 -69.6441927 290.81084217 -69.63999367 292.03447914 C-69.61913956 298.32124279 -69.60483525 304.60798465 -69.59545898 310.89477539 C-69.58439923 317.38005145 -69.55000194 323.86498397 -69.51028728 330.35013866 C-69.48411109 335.34396492 -69.4757662 340.33770946 -69.47217751 345.33159828 C-69.46731378 347.7217268 -69.45570598 350.11185172 -69.43713951 352.50191307 C-69.41272892 355.85270597 -69.41371714 359.20261175 -69.4206543 362.5534668 C-69.40143921 364.02435005 -69.40143921 364.02435005 -69.38183594 365.52494812 C-69.43523429 372.62851626 -70.71246413 378.9760762 -75.58214855 384.40248394 C-82.16342262 390.70612139 -89.69745774 390.81457505 -98.36474609 390.79223633 C-99.9100425 390.79990273 -99.9100425 390.79990273 -101.48655701 390.807724 C-104.87911857 390.8215804 -108.27147607 390.82066612 -111.6640625 390.81835938 C-114.03146439 390.82224855 -116.39886558 390.82658368 -118.76626587 390.8313446 C-123.72408309 390.83879839 -128.68182908 390.83852166 -133.63964844 390.83325195 C-139.98018747 390.82745946 -146.32043419 390.84438738 -152.66092491 390.86759663 C-157.54924208 390.8823577 -162.43748923 390.8832024 -167.32582474 390.8800869 C-169.6629049 390.88059894 -171.99998911 390.8858147 -174.33704758 390.89589882 C-177.61079428 390.90829123 -180.88397658 390.90145425 -184.15771484 390.88989258 C-185.11488907 390.89753632 -186.07206329 390.90518005 -187.0582428 390.91305542 C-194.28706553 390.85687673 -200.46034572 389.57574569 -206.703125 385.83007812 C-212.77797489 379.40809395 -213.47582769 372.82927154 -213.40820312 364.27148438 C-213.4152124 363.17125946 -213.42222168 362.07103455 -213.42944336 360.93746948 C-213.44697908 357.31807863 -213.43541552 353.69947627 -213.421875 350.08007812 C-213.42457116 347.55476736 -213.42845462 345.02945761 -213.43347168 342.50415039 C-213.43936075 337.21850613 -213.43120692 331.93306507 -213.41210938 326.64746094 C-213.39034368 320.55336696 -213.39739632 314.45980844 -213.419415 308.36572742 C-213.4398165 302.48170206 -213.43757796 296.59787874 -213.42588806 290.71383667 C-213.42322511 288.21963424 -213.42647528 285.72541809 -213.43580627 283.23123169 C-213.44599695 279.74168009 -213.43043377 276.25314782 -213.40820312 272.76367188 C-213.41630005 271.73901825 -213.42439697 270.71436462 -213.43273926 269.65866089 C-213.35954172 263.43745855 -212.45157709 258.71126048 -208.890625 253.51757812 C-206.7421875 251.45898438 -206.7421875 251.45898438 -204.515625 250.08007812 C-203.42121094 249.37044922 -203.42121094 249.37044922 -202.3046875 248.64648438 C-196.58013396 245.96946824 -190.30084813 246.38396995 -184.1171875 246.41992188 C-183.1934433 246.42133682 -182.2696991 246.42275177 -181.31796265 246.42420959 C-178.38381638 246.42978204 -175.44974799 246.44232944 -172.515625 246.45507812 C-170.51953236 246.46009669 -168.52343851 246.46465897 -166.52734375 246.46875 C-161.64840775 246.47974244 -156.76952955 246.49698802 -151.890625 246.51757812 C-151.89950745 245.82710892 -151.90838989 245.13663971 -151.9175415 244.42524719 C-152.00603316 237.23906736 -152.06636731 230.0530423 -152.11035156 222.86645508 C-152.12820825 220.18429989 -152.15603936 217.50252352 -152.19238281 214.82055664 C-152.24090042 210.96554746 -152.26359494 207.11111815 -152.28125 203.25585938 C-152.30189514 202.05673416 -152.32254028 200.85760895 -152.34381104 199.62214661 C-152.34604919 191.31929177 -152.34604919 191.31929177 -150.05371094 187.28393555 C-146.14221911 184.08984487 -142.65460006 184.39388778 -137.77229309 184.39732361 C-137.0428575 184.39646918 -136.3134219 184.39561476 -135.5618822 184.39473444 C-133.11129838 184.3930839 -130.66078262 184.39859407 -128.21020508 184.40405273 C-126.45609031 184.40433472 -124.70197542 184.40417664 -122.94786072 184.40361023 C-118.1795851 184.40332271 -113.41133452 184.40921207 -108.64306474 184.41618419 C-103.66224687 184.42242532 -98.68142847 184.42302213 -93.7006073 184.42420959 C-84.26588797 184.42732066 -74.83118019 184.43553104 -65.39646596 184.44555908 C-54.65657811 184.45672718 -43.91668972 184.46223243 -33.17679751 184.46725452 C-11.08139879 184.47771382 11.01398409 184.49605653 33.109375 184.51757812 C33.109375 171.31757813 33.109375 158.11757812 33.109375 144.51757812 C30.1703125 144.54078125 27.23125 144.56398437 24.203125 144.58789062 C21.33691845 144.603516 18.47071676 144.6156443 15.60449219 144.62744141 C13.62204849 144.63746028 11.63961941 144.65107913 9.65722656 144.66845703 C6.79748916 144.69288695 3.93794821 144.70410262 1.078125 144.71289062 C0.20071655 144.7232132 -0.67669189 144.73353577 -1.58068848 144.74417114 C-9.52672943 144.74559967 -16.60555926 143.82496697 -22.890625 138.51757812 C-28.67080684 131.06583018 -29.04107372 124.52868142 -29.05175781 115.36230469 C-29.05672272 114.34215271 -29.06168762 113.32200073 -29.06680298 112.27093506 C-29.08139337 108.90001752 -29.08822157 105.52914704 -29.09375 102.15820312 C-29.09950419 99.81036376 -29.10526189 97.46252441 -29.11102295 95.11468506 C-29.12152417 90.19201438 -29.12737254 85.26935999 -29.13085938 80.34667969 C-29.13634099 74.05094201 -29.16036587 67.75542093 -29.18883133 61.45975113 C-29.20749109 56.60918557 -29.2126651 51.75867184 -29.21419525 46.90807343 C-29.21721495 44.58773363 -29.22522034 42.26739459 -29.23838043 39.94709015 C-29.25550974 36.69470422 -29.25354363 33.44284291 -29.24707031 30.19042969 C-29.2562851 29.23946411 -29.26549988 28.28849854 -29.2749939 27.30871582 C-29.22832649 19.79180311 -27.82260298 13.62045185 -23.828125 7.20507812 C-16.98829066 0.94735735 -8.95931903 -0.07570619 0 0 Z M-7.890625 21.51757812 C-7.890625 54.51757812 -7.890625 87.51757812 -7.890625 121.51757812 C10.28454999 122.10387409 28.4421946 122.68641599 46.62109375 123.02026367 C49.90370856 123.08089701 53.18622293 123.1457426 56.46875 123.2109375 C58.63541199 123.25219954 60.80207852 123.29322392 62.96875 123.33398438 C63.91087341 123.3527211 64.85299683 123.37145782 65.82366943 123.39076233 C75.25599587 123.55934477 84.66975925 123.51757812 94.109375 123.51757812 C94.109375 89.85757813 94.109375 56.19757812 94.109375 21.51757812 C60.449375 21.51757812 26.789375 21.51757812 -7.890625 21.51757812 Z M-192.890625 267.51757812 C-192.890625 301.17757813 -192.890625 334.83757812 -192.890625 369.51757812 C-159.230625 369.51757812 -125.570625 369.51757812 -90.890625 369.51757812 C-90.890625 336.18757813 -90.890625 302.85757813 -90.890625 268.51757812 C-100.48125 268.35257812 -110.071875 268.18757813 -119.953125 268.01757812 C-122.88711182 267.96537109 -125.82109863 267.91316406 -128.84399414 267.859375 C-150.20296113 267.50692372 -171.51962118 267.51757812 -192.890625 267.51757812 Z M-7.890625 267.51757812 C-7.890625 301.17757813 -7.890625 334.83757812 -7.890625 369.51757812 C25.769375 369.51757812 59.429375 369.51757812 94.109375 369.51757812 C94.109375 336.18757813 94.109375 302.85757813 94.109375 268.51757812 C84.51875 268.35257812 74.928125 268.18757813 65.046875 268.01757812 C62.11288818 267.96537109 59.17890137 267.91316406 56.15600586 267.859375 C34.79703887 267.50692372 13.48037882 267.51757812 -7.890625 267.51757812 Z M177.109375 267.51757812 C177.109375 300.84757812 177.109375 334.17757812 177.109375 368.51757812 C211.14243619 368.61056463 245.08562078 368.29973339 279.109375 367.51757812 C279.109375 334.51757812 279.109375 301.51757812 279.109375 267.51757812 C245.449375 267.51757812 211.789375 267.51757812 177.109375 267.51757812 Z " fill="#2B0519" transform="translate(212.890625,60.482421875)"/>
</svg>
