<?xml version="1.0" encoding="UTF-8"?>
<svg version="1.1" xmlns="http://www.w3.org/2000/svg" viewBox="0 0 512 512">
<path d="M0 0 C0.99249756 -0.00671722 1.98499512 -0.01343445 3.00756836 -0.02035522 C6.28593972 -0.03934001 9.56410639 -0.04325977 12.8425293 -0.04541016 C15.12550439 -0.05183802 17.40847866 -0.05856638 19.69145203 -0.06558228 C24.47710072 -0.07755645 29.26267722 -0.08126298 34.04833984 -0.08007812 C40.17163828 -0.079875 46.29447229 -0.10717068 52.41766071 -0.14162254 C57.13352065 -0.16389349 61.84926888 -0.16791559 66.56517601 -0.16685867 C68.82215156 -0.16921458 71.0791302 -0.17803745 73.33605385 -0.19352341 C76.49780122 -0.21318547 79.65854798 -0.20734376 82.8203125 -0.1953125 C83.74682114 -0.20655151 84.67332977 -0.21779053 85.62791443 -0.22937012 C91.54129963 -0.17237841 96.21617727 0.81343871 101.10424805 4.29052734 C104.62770221 8.7174313 106.23317677 12.23154426 106.21777344 17.85375977 C106.21769791 18.77448776 106.21762238 19.69521576 106.21754456 20.6438446 C106.21238327 21.6345546 106.20722198 22.62526459 106.2019043 23.64599609 C106.19978188 25.17115593 106.19978188 25.17115593 106.19761658 26.72712708 C106.19201512 29.97745698 106.17946237 33.22771823 106.16674805 36.47802734 C106.16173324 38.68050031 106.1571703 40.88297435 106.15307617 43.08544922 C106.14204522 48.48716539 106.12530567 53.88884146 106.10424805 59.29052734 C107.84192192 59.27720367 107.84192192 59.27720367 109.61470032 59.26361084 C120.51837451 59.18261397 131.42198787 59.12260472 142.32589436 59.08327866 C147.93207118 59.06238118 153.53800565 59.0340239 159.14404297 58.98876953 C164.55161619 58.94538917 169.95895592 58.92140653 175.36668968 58.91101837 C177.43244288 58.90361297 179.49818294 58.88915238 181.56383705 58.86760712 C184.45169572 58.8386771 187.33858285 58.83456699 190.2265625 58.83642578 C191.08539536 58.82204468 191.94422821 58.80766357 192.8290863 58.79284668 C198.5195757 58.8326235 198.5195757 58.8326235 201.13781738 60.88317871 C202.4398536 64.1265103 202.46342984 66.7643496 202.44482422 70.26220703 C202.4452623 70.95529465 202.44570038 71.64838226 202.44615173 72.36247253 C202.44406702 74.64607222 202.42075206 76.92893142 202.3972168 79.21240234 C202.39161969 80.79851887 202.38735013 82.38464059 202.38435364 83.97076416 C202.37291384 88.14001857 202.34345431 92.30895813 202.3102417 96.47808838 C202.27952204 100.73453513 202.26584426 104.99103288 202.25073242 109.24755859 C202.21858354 117.59537524 202.16582287 125.94287582 202.10424805 134.29052734 C208.70424805 134.29052734 215.30424805 134.29052734 222.10424805 134.29052734 C222.08068237 131.04245239 222.08068237 131.04245239 222.05664062 127.72875977 C222.0069667 120.5802383 221.97380789 113.43170927 221.94881153 106.28306103 C221.93314493 101.94813609 221.91188871 97.61338775 221.87792969 93.27856445 C221.8453714 89.09644646 221.82740252 84.9144985 221.81961632 80.73226357 C221.81406643 79.13542313 221.80322899 77.53859216 221.78705788 75.94182396 C221.76532996 73.70783641 221.76227909 71.47455446 221.76367188 69.24047852 C221.75367912 67.33186287 221.75367912 67.33186287 221.7434845 65.38468933 C222.10424805 62.29052734 222.10424805 62.29052734 223.38358307 60.61968994 C226.42772405 58.26818143 230.28811502 58.9035616 233.98193359 58.94995117 C235.34321381 58.94929405 235.34321381 58.94929405 236.73199463 58.94862366 C239.73520331 58.95071566 242.7378555 58.97406622 245.7409668 58.99755859 C247.82175898 59.00315308 249.90255511 59.00742387 251.98335266 59.01042175 C257.46284881 59.02188209 262.94210681 59.05135961 268.42150879 59.08453369 C274.01168598 59.1152089 279.6019016 59.12892164 285.19213867 59.14404297 C296.16294649 59.17622807 307.13357747 59.22743887 318.10424805 59.29052734 C318.0953656 58.73200073 318.08648315 58.17347412 318.07733154 57.59802246 C317.98848181 51.75767301 317.9283586 45.91751718 317.88452148 40.07666016 C317.86447041 37.90014846 317.83722234 35.72369021 317.80249023 33.54736328 C317.75368593 30.40953342 317.73121367 27.27241899 317.71362305 24.13427734 C317.69297791 23.16937378 317.67233276 22.20447021 317.65106201 21.21032715 C317.6490622 15.1183688 318.47659201 10.31402284 322.10424805 5.29052734 C326.37861491 1.88848025 329.87535123 0.17453771 335.32145691 0.14335632 C336.61028778 0.13262337 336.61028778 0.13262337 337.92515564 0.12167358 C338.86492752 0.11898468 339.8046994 0.11629578 340.77294922 0.11352539 C341.76515472 0.10695419 342.75736023 0.100383 343.77963257 0.09361267 C347.06882807 0.07387518 350.35797787 0.06221533 353.6472168 0.05224609 C354.77083429 0.04817057 355.89445179 0.04409504 357.0521183 0.03989601 C363.00056398 0.01903223 368.94898658 0.00473246 374.89746094 -0.00463867 C381.03648319 -0.01569687 387.17514237 -0.05008948 393.31403637 -0.08981037 C398.03846401 -0.11597914 402.76280523 -0.12433082 407.48729897 -0.12792015 C409.74986533 -0.13278628 412.01242783 -0.14440096 414.27492332 -0.16295815 C417.44643119 -0.18735178 420.61700091 -0.18638366 423.78857422 -0.17944336 C424.71822495 -0.19225342 425.64787567 -0.20506348 426.60569763 -0.21826172 C432.58429028 -0.17072557 437.11643763 0.88818141 442.10424805 4.29052734 C445.81909156 8.19587566 447.22386127 11.24933775 447.24468994 16.59712219 C447.25040009 17.4760614 447.25611023 18.35500061 447.26199341 19.26057434 C447.26311127 20.22218979 447.26422913 21.18380524 447.26538086 22.17456055 C447.27034576 23.18948578 447.27531067 24.20441101 447.28042603 25.25009155 C447.29505301 28.61383742 447.3018506 31.97753612 447.30737305 35.34130859 C447.3131241 37.67677309 447.31888184 40.01223756 447.324646 42.34770203 C447.33515754 47.24783549 447.34099919 52.14795254 447.34448242 57.0480957 C447.34996712 63.32625063 447.3739942 69.60418868 447.40245438 75.88227558 C447.42108032 80.70784641 447.42628634 85.533365 447.4278183 90.35896873 C447.43084549 92.67341485 447.43887624 94.98786003 447.45200348 97.30227089 C447.4690625 100.54111849 447.46718383 103.77943621 447.46069336 107.01831055 C447.46990814 107.9738533 447.47912292 108.92939606 447.48861694 109.91389465 C447.45131605 115.85748478 446.78010866 120.35683642 442.60424805 124.93505859 C438.59391145 128.05769047 435.84267663 129.41131976 430.7976532 129.43096924 C429.91871399 129.43667938 429.03977478 129.44238953 428.13420105 129.44827271 C426.69177788 129.44994949 426.69177788 129.44994949 425.22021484 129.45166016 C424.20528961 129.45662506 423.19036438 129.46158997 422.14468384 129.46670532 C418.78093797 129.4813323 415.41723927 129.4881299 412.0534668 129.49365234 C409.7180023 129.4994034 407.38253783 129.50516114 405.04707336 129.51092529 C400.1469399 129.52143684 395.24682285 129.52727849 390.34667969 129.53076172 C384.06852476 129.53624642 377.79058671 129.56027349 371.51249981 129.58873367 C366.68692898 129.60735962 361.8614104 129.61256564 357.03580666 129.6140976 C354.72136054 129.61712479 352.40691536 129.62515554 350.0925045 129.63828278 C346.8536569 129.65534179 343.61533918 129.65346313 340.37646484 129.64697266 C339.42092209 129.65618744 338.46537933 129.66540222 337.48088074 129.67489624 C332.26230323 129.6421454 328.61093126 129.22359102 324.10424805 126.29052734 C318.04794462 119.89776261 317.82000196 114.15027249 317.90893555 105.73974609 C317.91094971 104.84050415 317.91296387 103.94126221 317.91503906 103.01477051 C317.92546994 99.66913725 317.95339248 96.32357695 317.97924805 92.97802734 C318.02049805 85.49115234 318.06174805 78.00427734 318.10424805 70.29052734 C290.38424805 70.29052734 262.66424805 70.29052734 234.10424805 70.29052734 C234.10424805 91.41052734 234.10424805 112.53052734 234.10424805 134.29052734 C254.89669323 134.13235397 254.89669323 134.13235397 275.6887207 133.93017578 C278.29857734 133.91849151 280.90844126 133.90829907 283.51831055 133.89990234 C284.19098969 133.88944885 284.86366882 133.87899536 285.55673218 133.8682251 C287.55366416 133.83876299 289.55094654 133.83716918 291.5480957 133.83642578 C293.23353989 133.82310211 293.23353989 133.82310211 294.95303345 133.80950928 C300.11342195 134.59721828 303.04224521 136.95620928 306.25001717 140.98650742 C308.40906906 144.83368231 308.60691141 147.11469575 308.61218262 151.50146484 C308.62154256 152.55636108 308.62154256 152.55636108 308.63109159 153.63256836 C308.64698238 155.9772342 308.63443368 158.32085473 308.62182617 160.66552734 C308.62724907 162.35124312 308.63437267 164.03695416 308.64306641 165.72265625 C308.66128287 170.29292447 308.6542392 174.86283102 308.64155006 179.43310547 C308.63141371 184.21892258 308.64081751 189.004709 308.64709473 193.79052734 C308.65436928 201.82704216 308.64478847 209.86340987 308.62573242 217.89990234 C308.60396405 227.18743682 308.61101555 236.47462003 308.63303804 245.762146 C308.65119752 253.74024459 308.65374769 261.71823751 308.64328337 269.6963501 C308.63705145 274.4595719 308.63620451 279.22262868 308.64942932 283.98583984 C308.66099517 288.46425801 308.65294877 292.94222389 308.62985229 297.42059326 C308.62456911 299.06287892 308.62607232 300.70520273 308.63490295 302.34747314 C308.64585817 304.59202359 308.63209738 306.83513099 308.61218262 309.07958984 C308.60992046 310.96218506 308.60992046 310.96218506 308.60761261 312.8828125 C307.82026528 318.21305499 305.34924378 321.26190662 301.26400757 324.637146 C297.69627002 326.50400665 295.55069042 326.77626997 291.5480957 326.74462891 C290.2494458 326.74414551 288.9507959 326.74366211 287.61279297 326.74316406 C286.24795751 326.72302771 284.88312975 326.70236175 283.51831055 326.68115234 C281.64018677 326.67510986 281.64018677 326.67510986 279.72412109 326.66894531 C275.05901377 326.64805972 270.39411578 326.59221436 265.72924805 326.54052734 C255.29299805 326.45802734 244.85674805 326.37552734 234.10424805 326.29052734 C234.10424805 347.41052734 234.10424805 368.53052734 234.10424805 390.29052734 C261.82424805 390.29052734 289.54424805 390.29052734 318.10424805 390.29052734 C317.94636769 375.51190884 317.94636769 375.51190884 317.74389648 360.73388672 C317.73220304 358.86735961 317.72201277 357.00082223 317.71362305 355.13427734 C317.69315918 354.18198242 317.67269531 353.2296875 317.65161133 352.24853516 C317.64841649 346.08250514 318.55339874 341.42366989 322.10424805 336.29052734 C326.02372505 332.56224434 329.08478534 331.17308319 334.44880676 331.14335632 C335.33616013 331.13620102 336.22351349 331.12904572 337.13775635 331.12167358 C338.59420563 331.11764023 338.59420563 331.11764023 340.08007812 331.11352539 C341.10475693 331.10695419 342.12943573 331.100383 343.18516541 331.09361267 C346.58137075 331.0738767 349.9775319 331.06221706 353.3737793 331.05224609 C354.53299078 331.04817057 355.69220226 331.04409504 356.88654137 331.03989601 C363.02071327 331.01903514 369.15486279 331.00473282 375.2890625 330.99536133 C381.62781473 330.98429007 387.96621659 330.94988156 394.30484486 330.91018963 C399.17673908 330.88405981 404.0485493 330.87567276 408.92050743 330.87207985 C411.25729428 330.86720541 413.59407717 330.85556717 415.93079567 330.83704185 C419.20089224 330.81272598 422.4700753 330.81360188 425.74023438 330.82055664 C427.18757462 330.80134155 427.18757462 330.80134155 428.66415405 330.78173828 C434.32730578 330.82563572 437.63300637 331.46771941 442.10424805 335.29052734 C445.47516175 339.11696993 447.22511419 341.43414039 447.24468994 346.51483154 C447.25040009 347.40081024 447.25611023 348.28678894 447.26199341 349.19961548 C447.26311127 350.17417694 447.26422913 351.1487384 447.26538086 352.15283203 C447.27034576 353.17736481 447.27531067 354.20189758 447.28042603 355.25747681 C447.29507392 358.6591254 447.30185455 362.06072734 447.30737305 365.46240234 C447.31312299 367.82171633 447.31888074 370.18103029 447.324646 372.54034424 C447.33516391 377.49353249 447.34100119 382.44670448 447.34448242 387.39990234 C447.34996427 393.74646629 447.37398257 400.09281538 447.40245438 406.43931198 C447.4210812 411.3154971 447.42628642 416.19163052 447.4278183 421.06784821 C447.43084599 423.40741397 447.43887842 425.7469788 447.45200348 428.0865097 C447.46906208 431.3613872 447.46718376 434.6357406 447.46069336 437.91064453 C447.46990814 438.87710907 447.47912292 439.84357361 447.48861694 440.83932495 C447.45607172 446.08275518 447.05754242 449.76498031 444.10424805 454.29052734 C437.92095496 460.14838395 432.35054772 460.58896791 424.20849609 460.58105469 C422.71974976 460.59113052 422.71974976 460.59113052 421.20092773 460.60140991 C417.92255637 460.62039469 414.6443897 460.62431446 411.3659668 460.62646484 C409.0829917 460.63289271 406.80001743 460.63962106 404.51704407 460.64663696 C399.73139537 460.65861114 394.94581887 460.66231766 390.16015625 460.66113281 C384.03685781 460.66092968 377.91402381 460.68822537 371.79083538 460.72267723 C367.07497545 460.74494818 362.35922722 460.74897027 357.64332008 460.74791336 C355.38634453 460.75026926 353.1293659 460.75909213 350.87244225 460.77457809 C347.71069488 460.79424016 344.54994812 460.78839845 341.38818359 460.77636719 C340.46167496 460.7876062 339.53516632 460.79884521 338.58058167 460.8104248 C332.66719646 460.7534331 327.99231882 459.76761597 323.10424805 456.29052734 C319.58079388 451.86362339 317.97531933 448.34951042 317.99072266 442.72729492 C317.99079819 441.80656693 317.99087372 440.88583893 317.99095154 439.93721008 C317.99611282 438.94650009 318.00127411 437.9557901 318.0065918 436.93505859 C318.00871422 435.40989876 318.00871422 435.40989876 318.01087952 433.85392761 C318.01648098 430.60359771 318.02903372 427.35333646 318.04174805 424.10302734 C318.04676286 421.90055438 318.0513258 419.69808034 318.05541992 417.49560547 C318.06645088 412.0938893 318.08319043 406.69221323 318.10424805 401.29052734 C316.9457988 401.29718918 315.78734955 401.30385101 314.59379578 401.31071472 C303.69009658 401.37146251 292.7864316 401.41646952 281.88260174 401.44596386 C276.2764806 401.46163681 270.67049579 401.4829049 265.06445312 401.5168457 C259.65689054 401.54938091 254.2494593 401.56736807 248.84180641 401.57515907 C246.77606958 401.58071308 244.71034014 401.59155835 242.64465904 401.60771751 C239.75692439 401.6294141 236.86973629 401.63249752 233.98193359 401.63110352 C232.69368431 401.64728226 232.69368431 401.64728226 231.37940979 401.66378784 C225.54787474 401.63321579 225.54787474 401.63321579 223.38358307 399.96136475 C221.31182427 397.25560587 221.74614311 394.68856973 221.76367188 391.34057617 C221.7632338 390.63788101 221.76279572 389.93518585 221.76234436 389.2111969 C221.76443357 386.88970099 221.78776986 384.56892826 221.8112793 382.24755859 C221.8168748 380.63759252 221.82114512 379.02762133 221.82414246 377.41764832 C221.83559486 373.18097827 221.86506526 368.94461695 221.89825439 364.70806885 C221.92894686 360.38468604 221.94264602 356.06125333 221.95776367 351.73779297 C221.98993481 343.25521366 222.04270579 334.77294447 222.10424805 326.29052734 C215.50424805 326.29052734 208.90424805 326.29052734 202.10424805 326.29052734 C202.12781372 329.48530762 202.12781372 329.48530762 202.15185547 332.74462891 C202.20156306 339.78138369 202.23470168 346.81814622 202.25968456 353.85503006 C202.27534103 358.1215468 202.29657881 362.38788366 202.33056641 366.65429688 C202.36316076 370.7715812 202.38110121 374.8886925 202.38887978 379.00609589 C202.39442317 380.5769905 202.40524809 382.14787563 202.42143822 383.71869659 C202.44321406 385.91895517 202.44621499 388.11849867 202.44482422 390.31884766 C202.45481697 392.19748505 202.45481697 392.19748505 202.4650116 394.11407471 C202.10424805 397.29052734 202.10424805 397.29052734 201.13781738 399.69787598 C197.84877535 402.27378878 194.22536197 401.81158856 190.2265625 401.74462891 C189.31904236 401.74521301 188.41152222 401.74579712 187.47650146 401.74639893 C184.4731233 401.74360943 181.47073433 401.71247649 178.4675293 401.68115234 C176.38673953 401.67369304 174.30594274 401.66799864 172.22514343 401.66400146 C166.74556114 401.64872078 161.2664022 401.60941776 155.7869873 401.56518555 C150.19683561 401.52428545 144.60661558 401.50600169 139.01635742 401.48583984 C128.04546817 401.44292606 117.0748933 401.37464511 106.10424805 401.29052734 C106.11313049 401.84905396 106.12201294 402.40758057 106.13116455 402.98303223 C106.22001428 408.82338168 106.2801375 414.66353751 106.32397461 420.50439453 C106.34402568 422.68090623 106.37127375 424.85736448 106.40600586 427.03369141 C106.45481017 430.17152127 106.47728243 433.30863569 106.49487305 436.44677734 C106.51551819 437.41168091 106.53616333 438.37658447 106.55743408 439.37072754 C106.55943389 445.46268589 105.73190409 450.26703185 102.10424805 455.29052734 C97.82988118 458.69257444 94.33314487 460.40651698 88.88703918 460.43769836 C87.59820831 460.44843132 87.59820831 460.44843132 86.28334045 460.4593811 C84.87368263 460.46341446 84.87368263 460.46341446 83.43554688 460.4675293 C82.44334137 460.47410049 81.45113586 460.48067169 80.42886353 460.48744202 C77.13966803 460.50717951 73.85051823 460.51883936 70.5612793 460.52880859 C69.4376618 460.53288412 68.3140443 460.53695965 67.15637779 460.54115868 C61.20793211 460.56202246 55.25950952 460.57632223 49.31103516 460.58569336 C43.1720129 460.59675155 37.03335373 460.63114417 30.89445972 460.67086506 C26.17003209 460.69703383 21.44569087 460.70538551 16.72119713 460.70897484 C14.45863076 460.71384097 12.19606826 460.72545565 9.93357277 460.74401283 C6.76206491 460.76840646 3.59149518 460.76743835 0.41992188 460.76049805 C-0.97455421 460.77971313 -0.97455421 460.77971313 -2.39720154 460.79931641 C-8.37579419 460.75178026 -12.90794154 459.69287328 -17.89575195 456.29052734 C-21.62403496 452.37105034 -23.01319611 449.30999005 -23.04292297 443.94596863 C-23.05007828 443.05861526 -23.05723358 442.1712619 -23.06460571 441.25701904 C-23.06729462 440.28605286 -23.06998352 439.31508667 -23.07275391 438.31469727 C-23.0826107 436.77767906 -23.0826107 436.77767906 -23.09266663 435.20960999 C-23.1124026 431.81340464 -23.12406224 428.41724349 -23.1340332 425.02099609 C-23.13810873 423.86178461 -23.14218426 422.70257313 -23.14638329 421.50823402 C-23.16724416 415.37406212 -23.18154647 409.2399126 -23.19091797 403.10571289 C-23.20198923 396.76696066 -23.23639774 390.4285588 -23.27608967 384.08993053 C-23.30221949 379.21803632 -23.31060654 374.34622609 -23.31419945 369.47426796 C-23.31907389 367.13748111 -23.33071213 364.80069822 -23.34923744 362.46397972 C-23.37355332 359.19388315 -23.37267741 355.92470009 -23.36572266 352.65454102 C-23.38493774 351.20720078 -23.38493774 351.20720078 -23.40454102 349.73062134 C-23.36064358 344.06746961 -22.71855989 340.76176902 -18.89575195 336.29052734 C-15.06930937 332.91961364 -12.7521389 331.1696612 -7.67144775 331.15008545 C-6.78546906 331.14437531 -5.89949036 331.13866516 -4.98666382 331.13278198 C-4.01210236 331.13166412 -3.03754089 331.13054626 -2.03344727 331.12939453 C-0.4966481 331.12194717 -0.4966481 331.12194717 1.07119751 331.11434937 C4.47284611 331.09970147 7.87444805 331.09292084 11.27612305 331.08740234 C13.63543703 331.0816524 15.994751 331.07589465 18.35406494 331.07012939 C23.3072532 331.05961148 28.26042519 331.0537742 33.21362305 331.05029297 C39.560187 331.04481112 45.90653609 331.02079282 52.25303268 330.99232101 C57.1292178 330.9736942 62.00535122 330.96848897 66.88156891 330.96695709 C69.22113467 330.9639294 71.5606995 330.95589697 73.90023041 330.94277191 C77.1751079 330.92571331 80.44946131 330.92759163 83.72436523 330.93408203 C84.69082977 330.92486725 85.65729431 330.91565247 86.65304565 330.90615845 C91.89647588 330.93870367 95.57870102 331.33723297 100.10424805 334.29052734 C106.16055148 340.68329208 106.38849413 346.4307822 106.29956055 354.84130859 C106.29754639 355.74055054 106.29553223 356.63979248 106.29345703 357.56628418 C106.28302615 360.91191743 106.25510361 364.25747774 106.22924805 367.60302734 C106.18799805 375.08990234 106.14674805 382.57677734 106.10424805 390.29052734 C133.82424805 390.29052734 161.54424805 390.29052734 190.10424805 390.29052734 C190.10424805 369.17052734 190.10424805 348.05052734 190.10424805 326.29052734 C169.31180286 326.44870072 169.31180286 326.44870072 148.51977539 326.65087891 C145.90991876 326.66256318 143.30005483 326.67275562 140.69018555 326.68115234 C140.01750641 326.69160583 139.34482727 326.70205933 138.65176392 326.71282959 C136.65483194 326.74229169 134.65754956 326.7438855 132.66040039 326.74462891 C131.53677094 326.75351135 130.41314148 326.7623938 129.25546265 326.77154541 C124.09507414 325.98383641 121.16625088 323.6248454 117.95847893 319.59454727 C115.79942703 315.74737238 115.60158468 313.46635894 115.59631348 309.07958984 C115.59007351 308.37632568 115.58383355 307.67306152 115.5774045 306.94848633 C115.56151371 304.60382049 115.57406242 302.26019996 115.58666992 299.91552734 C115.58124703 298.22981156 115.57412343 296.54410052 115.56542969 294.85839844 C115.54721322 290.28813021 115.5542569 285.71822367 115.56694603 281.14794922 C115.57708239 276.36213211 115.56767858 271.57634569 115.56140137 266.79052734 C115.55412682 258.75401253 115.56370762 250.71764482 115.58276367 242.68115234 C115.60453205 233.39361787 115.59748054 224.10643465 115.57545805 214.81890869 C115.55729857 206.8408101 115.55474841 198.86281717 115.56521273 190.88470459 C115.57144464 186.12148278 115.57229158 181.35842601 115.55906677 176.59521484 C115.54750092 172.11679668 115.55554732 167.6388308 115.5786438 163.16046143 C115.58392698 161.51817577 115.58242377 159.87585196 115.57359314 158.23358154 C115.56263792 155.98903109 115.57639871 153.7459237 115.59631348 151.50146484 C115.59782158 150.24640137 115.59932968 148.99133789 115.60088348 147.69824219 C116.38823081 142.3679997 118.85925232 139.31914806 122.94448853 135.94390869 C126.51222607 134.07704804 128.65780568 133.80478472 132.66040039 133.83642578 C133.95905029 133.83690918 135.2577002 133.83739258 136.59570312 133.83789062 C137.96053859 133.85802698 139.32536634 133.87869294 140.69018555 133.89990234 C142.56830933 133.90594482 142.56830933 133.90594482 144.484375 133.91210938 C149.14948232 133.93299497 153.81438031 133.98884033 158.47924805 134.04052734 C174.13362305 134.16427734 174.13362305 134.16427734 190.10424805 134.29052734 C190.10424805 113.17052734 190.10424805 92.05052734 190.10424805 70.29052734 C162.38424805 70.29052734 134.66424805 70.29052734 106.10424805 70.29052734 C106.2621284 85.06914585 106.2621284 85.06914585 106.46459961 99.84716797 C106.47629306 101.71369508 106.48648333 103.58023246 106.49487305 105.44677734 C106.51533691 106.39907227 106.53580078 107.35136719 106.55688477 108.33251953 C106.5600796 114.49854955 105.65509736 119.1573848 102.10424805 124.29052734 C98.18477104 128.01881035 95.12371075 129.4079715 89.75968933 129.43769836 C88.87233597 129.44485367 87.9849826 129.45200897 87.07073975 129.4593811 C86.09977356 129.46207001 85.12880737 129.46475891 84.12841797 129.4675293 C83.10373917 129.47410049 82.07906036 129.48067169 81.02333069 129.48744202 C77.62712534 129.50717799 74.23096419 129.51883763 70.8347168 129.52880859 C69.09589957 129.53492188 69.09589957 129.53492188 67.32195473 129.54115868 C61.18778282 129.56201955 55.0536333 129.57632186 48.91943359 129.58569336 C42.58068136 129.59676462 36.24227951 129.63117313 29.90365124 129.67086506 C25.03175702 129.69699488 20.1599468 129.70538193 15.28798866 129.70897484 C12.95120181 129.71384928 10.61441892 129.72548752 8.27770042 129.74401283 C5.00760385 129.76832871 1.73842079 129.7674528 -1.53173828 129.76049805 C-2.97907852 129.77971313 -2.97907852 129.77971313 -4.45565796 129.79931641 C-10.11880969 129.75541897 -13.42451028 129.11333528 -17.89575195 125.29052734 C-21.26666566 121.46408476 -23.01661809 119.14691429 -23.03619385 114.06622314 C-23.04190399 113.18024445 -23.04761414 112.29426575 -23.05349731 111.38143921 C-23.05461517 110.40687775 -23.05573303 109.43231628 -23.05688477 108.42822266 C-23.06184967 107.40368988 -23.06681458 106.3791571 -23.07192993 105.32357788 C-23.08657783 101.92192929 -23.09335846 98.52032734 -23.09887695 95.11865234 C-23.10462689 92.75933836 -23.11038465 90.4000244 -23.1161499 88.04071045 C-23.12666782 83.08752219 -23.13250509 78.1343502 -23.13598633 73.18115234 C-23.14146818 66.8345884 -23.16548648 60.4882393 -23.19395828 54.14174271 C-23.2125851 49.26555759 -23.21779033 44.38942417 -23.2193222 39.51320648 C-23.2223499 37.17364072 -23.23038232 34.83407589 -23.24350739 32.49454498 C-23.26056598 29.21966749 -23.25868767 25.94531408 -23.25219727 22.67041016 C-23.26141205 21.70394562 -23.27062683 20.73748108 -23.28012085 19.74172974 C-23.24757562 14.49829951 -22.84904633 10.81607437 -19.89575195 6.29052734 C-13.71245886 0.43267073 -8.14205163 -0.00791323 0 0 Z M-10.96353149 14.25341797 C-12.23659482 18.4009697 -12.31433625 22.18177963 -12.28393555 26.49951172 C-12.2891925 27.41879959 -12.29444946 28.33808746 -12.29986572 29.28523254 C-12.31304972 32.31842125 -12.30433318 35.35108347 -12.29418945 38.38427734 C-12.29621064 40.49507752 -12.29912246 42.60587702 -12.30288696 44.7166748 C-12.30730815 49.13833267 -12.30088574 53.55980861 -12.28686523 57.98144531 C-12.2697736 63.64762606 -12.27961586 69.31338049 -12.29758263 74.97954559 C-12.30842591 79.3375774 -12.30497159 83.69550823 -12.29719925 88.05354309 C-12.29519876 90.14272614 -12.29765121 92.23191837 -12.30463791 94.3210907 C-12.3122612 97.24148833 -12.30063558 100.16119664 -12.28393555 103.08154297 C-12.29000824 103.94403152 -12.29608093 104.80652008 -12.30233765 105.69514465 C-12.2528189 110.37216109 -11.94981698 113.49962757 -8.89575195 117.29052734 C-5.51002864 118.983389 -1.66049235 118.44694245 2.06445312 118.45166016 C3.45735817 118.45910751 3.45735817 118.45910751 4.87840271 118.46670532 C7.96020236 118.48134834 11.04195053 118.48813275 14.1237793 118.49365234 C16.26128644 118.49940234 18.39879356 118.50516009 20.53630066 118.51092529 C25.02290081 118.52144158 29.509483 118.52728004 33.99609375 118.53076172 C39.74639234 118.53624564 45.49645405 118.56026897 51.24667835 118.58873367 C55.66388136 118.60735422 60.08102727 118.61256536 64.49826622 118.6140976 C66.61816388 118.61712632 68.73806048 118.6251622 70.85791969 118.63828278 C73.82408296 118.65532974 76.78966705 118.65346614 79.75585938 118.64697266 C80.6324118 118.65618744 81.50896423 118.66540222 82.41207886 118.67489624 C85.91846312 118.65083983 88.78252972 118.38878463 92.15007019 117.36029053 C95.35251977 113.96842309 94.78429481 110.31148052 94.71948242 105.81787109 C94.72780594 104.36140671 94.72780594 104.36140671 94.73629761 102.8755188 C94.74812876 99.65918963 94.72378293 96.44425842 94.69799805 93.22802734 C94.69628783 90.99747787 94.69635172 88.76692638 94.69812012 86.53637695 C94.6964649 81.85885422 94.67772922 77.1818096 94.64624023 72.50439453 C94.6065623 66.50163212 94.60219375 60.49949646 94.60970306 54.49662781 C94.61276919 49.88987461 94.60066492 45.28326296 94.58357239 40.67654419 C94.57652933 38.46290983 94.57341943 36.24925942 94.57426453 34.03561401 C94.57247149 30.94450766 94.5511316 27.8541593 94.52416992 24.76318359 C94.52710052 23.8436087 94.53003113 22.92403381 94.53305054 21.97659302 C94.52170074 21.1353891 94.51035095 20.29418518 94.49865723 19.42749023 C94.49492851 18.69671768 94.4911998 17.96594513 94.48735809 17.21302795 C93.98262042 14.68018262 93.17791232 13.80470456 91.10424805 12.29052734 C89.14649532 11.83695309 89.14649532 11.83695309 86.96728516 11.89611816 C86.12608124 11.88476837 85.28487732 11.87341858 84.41818237 11.86172485 C83.49860748 11.86465546 82.57903259 11.86758606 81.6315918 11.87060547 C80.66061554 11.86213593 79.68963928 11.85366638 78.6892395 11.84494019 C75.47327653 11.82150258 72.25779003 11.82054956 69.04174805 11.82177734 C66.81119595 11.81468046 64.58064569 11.80698216 62.35009766 11.79870605 C57.67271856 11.78524611 52.9955083 11.78369958 48.31811523 11.78955078 C42.31520509 11.79545175 36.31310236 11.76484524 30.31034851 11.7244339 C25.70360934 11.69862492 21.0970664 11.69567325 16.49026489 11.69932556 C14.27660083 11.69762829 12.06292829 11.6879279 9.84933472 11.67018127 C6.75796942 11.64812363 3.66826239 11.65762623 0.5769043 11.67529297 C-0.34267059 11.66202972 -1.26224548 11.64876648 -2.20968628 11.63510132 C-7.08075808 11.62042133 -7.08075808 11.62042133 -10.96353149 14.25341797 Z M330.10424805 15.29052734 C329.6662104 18.54452037 329.6662104 18.54452037 329.76367188 22.33227539 C329.7632338 23.04472412 329.76279572 23.75717285 329.76234436 24.49121094 C329.76443374 26.84516849 329.7877709 29.19841303 329.8112793 31.55224609 C329.81687474 33.18463248 329.82114508 34.81702389 329.82414246 36.44941711 C329.83559534 40.74526892 329.86506618 45.0408163 329.89825439 49.33654785 C329.92894581 53.72025433 329.9426458 58.10401001 329.95776367 62.48779297 C329.9899356 71.08884411 330.04113712 79.68964785 330.10424805 88.29052734 C332.72872015 85.77121513 334.36907463 83.30285358 336.13549805 80.10693359 C336.69881836 79.09695312 337.26213867 78.08697266 337.8425293 77.04638672 C338.42389648 75.99257812 339.00526367 74.93876953 339.60424805 73.85302734 C340.75789655 71.76955349 341.91405279 69.68746576 343.07299805 67.60693359 C343.58282227 66.68340088 344.09264648 65.75986816 344.61791992 64.80834961 C346.10424805 62.29052734 346.10424805 62.29052734 347.79370117 60.08325195 C349.3009671 58.39154361 349.3009671 58.39154361 349.10424805 56.29052734 C349.88799805 55.98115234 350.67174805 55.67177734 351.47924805 55.35302734 C354.02754933 54.36177696 354.02754933 54.36177696 356.10424805 53.29052734 C358.49487305 53.05224609 358.49487305 53.05224609 361.35424805 52.97802734 C362.2875293 52.94064453 363.22081055 52.90326172 364.18237305 52.86474609 C368.07829878 53.43246789 370.06703375 54.80181266 373.10424805 57.29052734 C375.29956055 60.27880859 375.29956055 60.27880859 377.22924805 63.60302734 C377.56762695 64.17754639 377.90600586 64.75206543 378.25463867 65.34399414 C379.21754979 66.98525666 380.16145316 68.63762738 381.10424805 70.29052734 C381.56573242 71.08458984 382.0272168 71.87865234 382.50268555 72.69677734 C383.38315602 74.22042838 384.24660259 75.75391256 385.10424805 77.29052734 C387.401633 75.14092739 389.02369799 72.92365725 390.72924805 70.29052734 C393.59054062 66.46134074 396.11621897 64.76684607 400.7331543 63.56005859 C405.902024 62.9724935 410.23092701 63.99178834 414.49536133 66.94824219 C417.48100398 69.62878267 419.05131078 72.19173168 420.98706055 75.70068359 C421.49848099 76.61375526 421.49848099 76.61375526 422.02023315 77.54527283 C423.09987796 79.47584093 424.16539174 81.41372102 425.22924805 83.35302734 C426.30212259 85.29475201 427.37801265 87.23465615 428.45968628 89.17149353 C429.4378701 90.92500389 430.40633215 92.68392702 431.37426758 94.44311523 C432.83053017 96.8400092 434.1067489 98.39325571 436.10424805 100.29052734 C436.17376877 89.55506668 436.22706991 78.81965961 436.25968456 68.08401966 C436.27533823 63.09898233 436.29657116 58.11409906 436.33056641 53.12915039 C436.36317035 48.31809157 436.38110331 43.5071809 436.38887978 38.69602013 C436.39442141 36.86080277 436.40524288 35.02559349 436.42143822 33.19043922 C436.4432263 30.61921309 436.44621441 28.04859857 436.44482422 25.47729492 C436.45561005 24.71916 436.46639587 23.96102509 436.47750854 23.17991638 C436.45909763 20.03144749 436.11491448 17.32465578 435.17500305 14.31730652 C432.33533174 11.53794022 430.29610204 11.68677349 426.41818237 11.63510132 C425.49860748 11.64836456 424.57903259 11.66162781 423.6315918 11.67529297 C422.66061554 11.66974396 421.68963928 11.66419495 420.6892395 11.65847778 C417.47291033 11.64664663 414.25797913 11.67099246 411.04174805 11.69677734 C408.81119857 11.69848756 406.58064709 11.69842367 404.35009766 11.69665527 C399.67257492 11.69831049 394.9955303 11.71704617 390.31811523 11.74853516 C384.31535282 11.78821309 378.31321716 11.79258164 372.31034851 11.78507233 C367.70359532 11.7820062 363.09698366 11.79411047 358.49026489 11.811203 C356.27663053 11.81824606 354.06298012 11.82135596 351.84933472 11.82051086 C348.75822836 11.8223039 345.66788 11.84364379 342.5769043 11.87060547 C341.19754196 11.86620956 341.19754196 11.86620956 339.79031372 11.86172485 C338.9491098 11.87307465 338.10790588 11.88442444 337.24121094 11.89611816 C336.51043839 11.89984688 335.77966583 11.90357559 335.02674866 11.9074173 C332.5227271 12.40641106 331.63105066 13.27195446 330.10424805 15.29052734 Z M361.10424805 63.29052734 C357.33929935 66.02601974 355.11465697 68.46739182 352.9050293 72.55224609 C352.34009766 73.58140137 351.77516602 74.61055664 351.19311523 75.67089844 C350.31381348 77.30792725 350.31381348 77.30792725 349.41674805 78.97802734 C348.17991389 81.23533126 346.94162488 83.49183862 345.7019043 85.74755859 C345.09491699 86.85695801 344.48792969 87.96635742 343.86254883 89.109375 C341.43282389 93.50528113 338.91260183 97.84352196 336.35424805 102.16552734 C335.74577026 103.19746216 335.74577026 103.19746216 335.125 104.25024414 C333.50977721 106.97647781 331.86244188 109.65323659 330.10424805 112.29052734 C330.10894011 114.39283975 330.10894011 114.39283975 331.10424805 116.29052734 C334.40665679 118.46371337 337.17257491 118.53393774 341.06616211 118.51757812 C342.2671051 118.51742706 343.4680481 118.517276 344.7053833 118.51712036 C345.99716492 118.50679779 347.28894653 118.49647522 348.61987305 118.48583984 C349.95936878 118.48210768 351.29886725 118.47926167 352.6383667 118.4772644 C356.1565307 118.46964391 359.67452844 118.45000921 363.19262695 118.42785645 C366.78554028 118.40736377 370.37848057 118.39825539 373.97143555 118.38818359 C381.01577422 118.36676169 388.06000025 118.33264499 395.10424805 118.29052734 C389.61039171 107.11963219 389.61039171 107.11963219 383.47924805 96.29052734 C382.62976414 94.8728734 381.7808372 93.4548856 380.93237305 92.03662109 C380.48313477 91.28751465 380.03389648 90.5384082 379.57104492 89.76660156 C377.92538188 86.98858649 376.31830568 84.19006056 374.71362305 81.38818359 C374.13563965 80.38722656 373.55765625 79.38626953 372.9621582 78.35498047 C371.82377094 76.38293063 370.69298203 74.40647125 369.57055664 72.42529297 C368.78672607 71.07661133 368.78672607 71.07661133 367.98706055 69.70068359 C367.52702637 68.89767822 367.06699219 68.09467285 366.59301758 67.26733398 C364.95041317 65.08626348 363.6154783 64.29010075 361.10424805 63.29052734 Z M400.66674805 76.16552734 C397.20924763 80.02155584 393.00804736 85.19607182 393.17456055 90.55224609 C394.53584069 94.56173089 396.65927468 97.99654654 398.85424805 101.60302734 C399.50006836 102.68487305 399.50006836 102.68487305 400.15893555 103.78857422 C403.07925699 108.66306286 406.09168533 113.470427 409.10424805 118.29052734 C416.36424805 117.96052734 423.62424805 117.63052734 431.10424805 117.29052734 C426.27290834 107.31276055 421.02738098 97.7328645 415.28686523 88.25 C414.1951786 86.44118974 413.12101358 84.62308163 412.04956055 82.80224609 C411.14850586 81.31144531 411.14850586 81.31144531 410.22924805 79.79052734 C409.71620117 78.93458984 409.2031543 78.07865234 408.67456055 77.19677734 C407.24454395 75.16913449 407.24454395 75.16913449 405.0612793 74.39208984 C402.85127829 74.06482618 402.85127829 74.06482618 400.66674805 76.16552734 Z M128.72322845 146.90950775 C126.5785674 150.06364104 126.60115127 152.09100671 126.59631348 155.89477539 C126.59007351 156.55690631 126.58383355 157.21903723 126.5774045 157.90123272 C126.56145706 160.11860006 126.57408432 162.33487072 126.58666992 164.55224609 C126.58124953 166.14239137 126.57412734 167.73253163 126.56542969 169.32266235 C126.54718333 173.64086324 126.55426916 177.95868217 126.56694603 182.2768898 C126.57706695 186.79406012 126.56768288 191.31119755 126.56140137 195.82836914 C126.55412231 203.41444781 126.56371942 211.00037075 126.58276367 218.58642578 C126.60453295 227.35932361 126.59748176 236.13184961 126.57545805 244.90473843 C126.55731139 252.43436334 126.55474212 259.96387626 126.56521273 267.49351597 C126.57145172 271.99178221 126.57227221 276.48987363 126.55906677 280.98812866 C126.54751952 285.21700843 126.55551308 289.44540841 126.5786438 293.6742363 C126.58393696 295.22705666 126.5824067 296.77991734 126.57359314 298.33272171 C126.56267706 300.45112094 126.57635048 302.56797858 126.59631348 304.6862793 C126.59782158 305.87204056 126.59932968 307.05780182 126.60088348 308.27949524 C126.8972824 311.34309013 126.8972824 311.34309013 128.72322845 313.67154694 C131.87736174 315.81620799 133.90472742 315.79362412 137.70849609 315.79846191 C138.37062701 315.80470188 139.03275793 315.81094184 139.71495342 315.81737089 C141.93232076 315.83331833 144.14859142 315.82069107 146.3659668 315.80810547 C147.95611207 315.81352586 149.54625233 315.82064805 151.13638306 315.8293457 C155.45458395 315.84759206 159.77240287 315.84050623 164.0906105 315.82782936 C168.60778082 315.81770844 173.12491825 315.82709251 177.64208984 315.83337402 C185.22816851 315.84065308 192.81409146 315.83105597 200.40014648 315.81201172 C209.17304431 315.79024244 217.94557031 315.79729363 226.71845913 315.81931734 C234.24808404 315.837464 241.77759696 315.84003327 249.30723667 315.82956266 C253.80550291 315.82332367 258.30359433 315.82250318 262.80184937 315.83570862 C267.03072914 315.84725587 271.25912911 315.83926231 275.487957 315.81613159 C277.04077736 315.81083843 278.59363804 315.81236869 280.14644241 315.82118225 C282.26484164 315.83209833 284.38169928 315.81842491 286.5 315.79846191 C287.68576126 315.79695381 288.87152252 315.79544571 290.09321594 315.79389191 C293.15681083 315.49749299 293.15681083 315.49749299 295.48526764 313.67154694 C297.62992869 310.51741365 297.60734482 308.49004797 297.61218262 304.6862793 C297.61842258 304.02414838 297.62466254 303.36201746 297.63109159 302.67982197 C297.64703904 300.46245463 297.63441177 298.24618397 297.62182617 296.02880859 C297.62724656 294.43866332 297.63436876 292.84852306 297.64306641 291.25839233 C297.66131276 286.94019144 297.65422694 282.62237252 297.64155006 278.30416489 C297.63142915 273.78699457 297.64081321 269.26985714 297.64709473 264.75268555 C297.65437379 257.16660688 297.64477667 249.58068394 297.62573242 241.99462891 C297.60396314 233.22173108 297.61101433 224.44920508 297.63303804 215.67631626 C297.6511847 208.14669135 297.65375398 200.61717843 297.64328337 193.08753872 C297.63704438 188.58927248 297.63622389 184.09118106 297.64942932 179.59292603 C297.66097657 175.36404626 297.65298301 171.13564628 297.62985229 166.90681839 C297.62455914 165.35399803 297.62608939 163.80113735 297.63490295 162.24833298 C297.64581904 160.12993375 297.63214561 158.01307611 297.61218262 155.89477539 C297.61067451 154.70901413 297.60916641 153.52325287 297.60761261 152.30155945 C297.31121369 149.23796456 297.31121369 149.23796456 295.48526764 146.90950775 C292.33113435 144.7648467 290.30376868 144.78743057 286.5 144.78259277 C285.83786908 144.77635281 285.17573816 144.77011285 284.49354267 144.7636838 C282.27617533 144.74773635 280.05990467 144.76036362 277.8425293 144.77294922 C276.25238402 144.76752883 274.66224377 144.76040663 273.07211304 144.75170898 C268.75391215 144.73346263 264.43609322 144.74054845 260.11788559 144.75322533 C255.60071527 144.76334624 251.08357784 144.75396218 246.56640625 144.74768066 C238.98032758 144.7404016 231.39440464 144.74999872 223.80834961 144.76904297 C215.03545178 144.79081225 206.26292578 144.78376106 197.49003696 144.76173735 C189.96041205 144.74359069 182.43089913 144.74102141 174.90125942 144.75149202 C170.40299318 144.75773101 165.90490177 144.7585515 161.40664673 144.74534607 C157.17776696 144.73379882 152.94936698 144.74179238 148.72053909 144.7649231 C147.16771873 144.77021626 145.61485805 144.768686 144.06205368 144.75987244 C141.94365445 144.74895636 139.82679681 144.76262978 137.70849609 144.78259277 C136.52273483 144.78410088 135.33697357 144.78560898 134.11528015 144.78716278 C131.05168526 145.0835617 131.05168526 145.0835617 128.72322845 146.90950775 Z M-10.89575195 345.29052734 C-12.2253762 349.27940007 -12.0515383 353.11298662 -12.05688477 357.27246094 C-12.06184967 358.19145676 -12.06681458 359.11045258 -12.07192993 360.05729675 C-12.0865498 363.1011937 -12.09335298 366.14503854 -12.09887695 369.18896484 C-12.10462818 371.30262249 -12.11038592 373.41628013 -12.1161499 375.52993774 C-12.12665913 379.96348311 -12.13250244 384.39701034 -12.13598633 388.83056641 C-12.14147343 394.51245617 -12.1655065 400.19410659 -12.19395828 405.87592125 C-12.21257779 410.24250999 -12.21778988 414.60904096 -12.2193222 418.97566605 C-12.22235038 421.07044408 -12.23038446 423.16522106 -12.24350739 425.25996017 C-12.26055468 428.19009396 -12.25869086 431.11964149 -12.25219727 434.04980469 C-12.26141205 434.91543533 -12.27062683 435.78106598 -12.28012085 436.67292786 C-12.25594946 440.15328041 -11.98858231 442.98724962 -10.96551514 446.32962036 C-7.57571054 449.54114309 -3.92067061 448.9706313 0.5769043 448.90576172 C1.54788055 448.91131073 2.51885681 448.91685974 3.51925659 448.9225769 C6.73558576 448.93440806 9.95051697 448.91006222 13.16674805 448.88427734 C15.39729752 448.88256713 17.62784901 448.88263101 19.85839844 448.88439941 C24.53592117 448.8827442 29.21296579 448.86400852 33.89038086 448.83251953 C39.89314327 448.7928416 45.89527893 448.78847305 51.89814758 448.79598236 C56.50490078 448.79904849 61.11151243 448.78694422 65.7182312 448.76985168 C67.93186556 448.76280863 70.14551597 448.75969873 72.35916138 448.76054382 C75.45026773 448.75875079 78.54061609 448.7374109 81.6315918 448.71044922 C82.55116669 448.71337982 83.47074158 448.71631042 84.41818237 448.71932983 C85.25938629 448.70798004 86.10059021 448.69663025 86.96728516 448.68493652 C87.69805771 448.68120781 88.42883026 448.6774791 89.18174744 448.67363739 C91.71459277 448.16889971 92.59007084 447.36419162 94.10424805 445.29052734 C94.5578223 443.33277462 94.5578223 443.33277462 94.49865723 441.15356445 C94.51000702 440.31236053 94.52135681 439.47115662 94.53305054 438.60446167 C94.53011993 437.68488678 94.52718933 436.76531189 94.52416992 435.81787109 C94.53263947 434.84689484 94.54110901 433.87591858 94.54983521 432.8755188 C94.57327281 429.65955583 94.57422583 426.44406932 94.57299805 423.22802734 C94.58009493 420.99747525 94.58779323 418.76692499 94.59606934 416.53637695 C94.60952928 411.85899786 94.61107581 407.1817876 94.60522461 402.50439453 C94.59932364 396.50148439 94.62993015 390.49938166 94.67034149 384.49662781 C94.69615047 379.88988863 94.69910214 375.2833457 94.69544983 370.67654419 C94.6971471 368.46288013 94.70684749 366.24920759 94.72459412 364.03561401 C94.74665176 360.94424872 94.73714916 357.85454169 94.71948242 354.76318359 C94.73274567 353.8436087 94.74600891 352.92403381 94.75967407 351.97659302 C94.77341999 347.10822111 94.77341999 347.10822111 92.14808655 343.2227478 C87.96579423 341.94185906 84.14075533 341.87207689 79.78759766 341.90234375 C78.85694992 341.89708679 77.92630219 341.89182983 76.967453 341.88641357 C73.89699429 341.87322981 70.82705562 341.88194533 67.7565918 341.89208984 C65.62097575 341.89006882 63.48536038 341.88715714 61.3497467 341.88339233 C56.87681499 341.87897132 52.40406314 341.88539364 47.93115234 341.89941406 C42.19537277 341.91651604 36.46001402 341.90665677 30.72424984 341.88869667 C26.31564659 341.87786175 21.9071433 341.88130368 17.49853706 341.88908005 C15.38340772 341.89108232 13.26826933 341.88862185 11.15315056 341.88164139 C8.1990233 341.8740307 5.24558015 341.88562555 2.29150391 341.90234375 C0.97835205 341.89323471 0.97835205 341.89323471 -0.36132812 341.88394165 C-6.25793755 341.88976303 -6.25793755 341.88976303 -10.89575195 345.29052734 Z M330.10424805 345.29052734 C329.37096027 348.44597246 329.44247462 351.53651121 329.48901367 354.76318359 C329.48346466 355.73415985 329.47791565 356.70513611 329.47219849 357.70553589 C329.46036733 360.92186506 329.48471317 364.13679626 329.51049805 367.35302734 C329.51220826 369.58357682 329.51214438 371.8141283 329.51037598 374.04467773 C329.5120312 378.72220047 329.53076687 383.39924509 329.56225586 388.07666016 C329.60193379 394.07942257 329.60630234 400.08155823 329.59879303 406.08442688 C329.5957269 410.69118007 329.60783118 415.29779173 329.62492371 419.9045105 C329.63196676 422.11814486 329.63507666 424.33179527 329.63423157 426.54544067 C329.6360246 429.63654703 329.65736449 432.72689539 329.68432617 435.81787109 C329.68139557 436.73744598 329.67846497 437.65702087 329.67544556 438.60446167 C329.68679535 439.44566559 329.69814514 440.28686951 329.70983887 441.15356445 C329.71356758 441.88433701 329.7172963 442.61510956 329.721138 443.36802673 C330.22587568 445.90087207 331.03058377 446.77635013 333.10424805 448.29052734 C335.06200077 448.7441016 335.06200077 448.7441016 337.24121094 448.68493652 C338.08241486 448.69628632 338.92361877 448.70763611 339.79031372 448.71932983 C341.16967606 448.71493393 341.16967606 448.71493393 342.5769043 448.71044922 C343.54788055 448.71891876 344.51885681 448.72738831 345.51925659 448.7361145 C348.73521956 448.75955211 351.95070607 448.76050512 355.16674805 448.75927734 C357.39730014 448.76637423 359.6278504 448.77407252 361.85839844 448.78234863 C366.53577753 448.79580858 371.21298779 448.79735511 375.89038086 448.79150391 C381.893291 448.78560294 387.89539373 448.81620945 393.89814758 448.85662079 C398.50488676 448.88242977 403.11142969 448.88538144 407.7182312 448.88172913 C409.93189526 448.88342639 412.14556781 448.89312679 414.35916138 448.91087341 C417.45052668 448.93293106 420.5402337 448.92342845 423.6315918 448.90576172 C424.55116669 448.91902496 425.47074158 448.93228821 426.41818237 448.94595337 C431.28925417 448.96063336 431.28925417 448.96063336 435.17202759 446.32763672 C436.44509092 442.18008499 436.52283235 438.39927506 436.49243164 434.08154297 C436.4976886 433.1622551 436.50294556 432.24296722 436.50836182 431.29582214 C436.52154581 428.26263344 436.51282928 425.22997122 436.50268555 422.19677734 C436.50470674 420.08597717 436.50761855 417.97517767 436.51138306 415.86437988 C436.51580425 411.44272202 436.50938183 407.02124608 436.49536133 402.59960938 C436.4782697 396.93342863 436.48811196 391.2676742 436.50607872 385.60150909 C436.51692201 381.24347728 436.51346768 376.88554646 436.50569534 372.5275116 C436.50369485 370.43832855 436.50614731 368.34913631 436.513134 366.25996399 C436.5207573 363.33956636 436.50913167 360.41985804 436.49243164 357.49951172 C436.49850433 356.63702316 436.50457703 355.77453461 436.51083374 354.88591003 C436.46131499 350.2088936 436.15831307 347.08142711 433.10424805 343.29052734 C429.71852473 341.59766568 425.86898844 342.13411223 422.14404297 342.12939453 C421.21543961 342.12442963 420.28683624 342.11946472 419.33009338 342.11434937 C416.24829373 342.09970635 413.16654557 342.09292193 410.0847168 342.08740234 C407.94720966 342.08165235 405.80970253 342.0758946 403.67219543 342.07012939 C399.18559529 342.0596131 394.69901309 342.05377465 390.21240234 342.05029297 C384.46210375 342.04480905 378.71204204 342.02078572 372.96181774 341.99232101 C368.54461473 341.97370047 364.12746882 341.96848933 359.71022987 341.96695709 C357.59033222 341.96392837 355.47043562 341.95589249 353.3505764 341.94277191 C350.38441313 341.92572494 347.41882905 341.92758855 344.45263672 341.93408203 C343.57608429 341.92486725 342.69953186 341.91565247 341.79641724 341.90615845 C335.32294431 341.8705707 335.32294431 341.8705707 330.10424805 345.29052734 Z " fill="#2B051A" transform="translate(43.895751953125,25.70947265625)"/>
<path d="M0 0 C1.2114267 -0.00845947 2.42285339 -0.01691895 3.67098999 -0.02563477 C5.01544323 -0.01980171 6.35989516 -0.01365719 7.7043457 -0.00723267 C9.11862595 -0.01129724 10.53290303 -0.01663849 11.94717407 -0.02316284 C15.79012949 -0.03685594 19.63284367 -0.03152968 23.47580338 -0.02202559 C27.49429228 -0.01443926 31.5127603 -0.02147173 35.53125 -0.02618408 C42.28006709 -0.03164464 49.02878574 -0.02444218 55.77758789 -0.01016235 C63.58420672 0.00616478 71.39059051 0.00087648 79.19720364 -0.01564157 C85.89536523 -0.02924792 92.59345599 -0.03118029 99.29162693 -0.02332556 C103.29409705 -0.01864434 107.29645663 -0.01803646 111.29891968 -0.02793503 C115.06151731 -0.0365901 118.82381141 -0.03060983 122.58637619 -0.01325226 C123.96868765 -0.00927956 125.35102457 -0.01043485 126.73332596 -0.01704025 C128.61729277 -0.02521405 130.50131529 -0.01315567 132.38525391 0 C133.44049759 0.00113108 134.49574127 0.00226215 135.58296204 0.00342751 C138.19262695 0.38095093 138.19262695 0.38095093 140.03033447 1.68564415 C142.00386676 4.56421621 141.63958086 7.85381574 141.6262207 11.22470093 C141.63146255 11.99020264 141.63670441 12.75570435 141.6421051 13.54440308 C141.64852377 15.16161893 141.64719025 16.77888149 141.63867188 18.39608765 C141.63015651 20.8723544 141.65892974 23.34631812 141.69067383 25.82235718 C141.69228581 27.39397107 141.69170836 28.96558905 141.6887207 30.53720093 C141.69995468 31.27788818 141.71118866 32.01857544 141.72276306 32.78170776 C141.67803327 36.07562582 141.62844742 37.90371503 139.36083984 40.3868103 C136.33284477 41.77516701 134.35166718 41.22336165 131.19262695 40.38095093 C130.86262695 40.05095093 130.53262695 39.72095093 130.19262695 39.38095093 C130.19262695 30.14095093 130.19262695 20.90095093 130.19262695 11.38095093 C87.95262695 11.38095093 45.71262695 11.38095093 2.19262695 11.38095093 C2.19262695 53.62095093 2.19262695 95.86095093 2.19262695 139.38095093 C44.43262695 139.38095093 86.67262695 139.38095093 130.19262695 139.38095093 C130.19262695 119.58095093 130.19262695 99.78095093 130.19262695 79.38095093 C133.19262695 77.38095093 133.19262695 77.38095093 136.25512695 77.63095093 C139.19262695 78.38095093 139.19262695 78.38095093 141.19262695 80.38095093 C141.45332336 83.14485168 141.45332336 83.14485168 141.46728516 86.71078491 C141.47239609 87.35974731 141.47750702 88.00870972 141.48277283 88.67733765 C141.4966981 90.82733323 141.49570988 92.9770093 141.4934082 95.12704468 C141.49729367 96.6191571 141.50162803 98.11126842 141.50639343 99.6033783 C141.51386204 102.73312971 141.51355988 105.86276833 141.50830078 108.99252319 C141.50250662 113.00553992 141.51943231 117.01809504 141.54264545 121.03103542 C141.55736998 124.11338506 141.55825625 127.19562321 141.55513573 130.27800179 C141.55564963 131.75759864 141.56090042 133.23720162 141.57094765 134.71676445 C141.58326993 136.78538967 141.57654681 138.8531119 141.56494141 140.92172241 C141.56557083 142.09927597 141.56620026 143.27682953 141.56684875 144.49006653 C141.19262695 147.38095093 141.19262695 147.38095093 140.03219891 149.03782177 C137.43640874 150.93308955 135.5833735 150.75847391 132.38525391 150.76190186 C131.17382721 150.77036133 129.96240051 150.7788208 128.71426392 150.78753662 C127.36981067 150.78170357 126.02535875 150.77555905 124.6809082 150.76913452 C123.26662795 150.7731991 121.85235088 150.77854034 120.43807983 150.7850647 C116.59512442 150.7987578 112.75241024 150.79343154 108.90945053 150.78392744 C104.89096163 150.77634112 100.87249361 150.78337359 96.85400391 150.78808594 C90.10518682 150.7935465 83.35646816 150.78634404 76.60766602 150.77206421 C68.80104719 150.75573707 60.9946634 150.76102537 53.18805027 150.77754343 C46.48988868 150.79114977 39.79179792 150.79308214 33.09362698 150.78522742 C29.09115686 150.78054619 25.08879728 150.77993831 21.08633423 150.78983688 C17.3237366 150.79849196 13.5614425 150.79251169 9.79887772 150.77515411 C8.41656626 150.77118141 7.03422933 150.77233671 5.65192795 150.77894211 C3.76796113 150.7871159 1.88393861 150.77505752 0 150.76190186 C-1.58286552 150.76020524 -1.58286552 150.76020524 -3.19770813 150.75847435 C-5.80737305 150.38095093 -5.80737305 150.38095093 -7.64652443 149.22010231 C-9.29474615 146.60879778 -9.18502339 144.65287082 -9.18832397 141.57357788 C-9.19678345 140.36215118 -9.20524292 139.15072449 -9.21395874 137.90258789 C-9.20812568 136.55813465 -9.20198117 135.21368273 -9.19555664 133.86923218 C-9.19962122 132.45495193 -9.20496246 131.04067485 -9.21148682 129.62640381 C-9.22517992 125.7834484 -9.21985366 121.94073421 -9.21034956 118.09777451 C-9.20276324 114.0792856 -9.20979571 110.06081758 -9.21450806 106.04232788 C-9.21996862 99.29351079 -9.21276615 92.54479214 -9.19848633 85.79598999 C-9.18215919 77.98937116 -9.18744749 70.18298737 -9.20396554 62.37637424 C-9.21757189 55.67821266 -9.21950426 48.98012189 -9.21164954 42.28195095 C-9.20696831 38.27948083 -9.20636043 34.27712125 -9.216259 30.2746582 C-9.22491407 26.51206057 -9.21893381 22.74976647 -9.20157623 18.98720169 C-9.19760353 17.60489023 -9.19875883 16.22255331 -9.20536423 14.84025192 C-9.21353802 12.95628511 -9.20147964 11.07226259 -9.18832397 9.18832397 C-9.1871929 8.13308029 -9.18606182 7.07783661 -9.18489647 5.99061584 C-8.80737305 3.38095093 -8.80737305 3.38095093 -7.64652443 1.54179955 C-5.0352199 -0.10642217 -3.07929294 0.00330058 0 0 Z " fill="#2B0519" transform="translate(189.807373046875,180.61904907226563)"/>
<path d="M0 0 C9.97351291 7.15955748 17.60318523 16.59750293 20.0625 28.9453125 C21.58003055 42.93504726 19.98713979 55.56871679 11.2890625 66.96875 C2.67287784 76.91312123 -7.76560965 83.50356149 -21.0625 84.50390625 C-33.75246782 84.90696875 -44.74134113 82.35848761 -54.6875 74.25 C-55.37457031 73.69828125 -56.06164063 73.1465625 -56.76953125 72.578125 C-63.89477571 66.20218923 -70.01328543 55.89791811 -70.86450195 46.2421875 C-71.32251699 30.4178591 -69.62994562 18.53195189 -58.6875 6.25 C-42.76683565 -9.22842367 -18.82968827 -11.66102522 0 0 Z M-52.5625 17.6875 C-58.21057671 25.46667973 -60.71554401 33.63561662 -59.6875 43.25 C-57.42017295 53.09667745 -53.65713929 60.68821864 -45.3125 66.5625 C-36.41367725 72.04787148 -27.59814854 74.43088776 -17.26953125 72.03515625 C-8.35056483 69.32303484 -0.96266996 64.83905627 3.81640625 56.68359375 C8.47001608 47.57524631 10.04244985 38.38604314 7.59375 28.28515625 C6.65129859 25.81882171 5.59122174 23.55845145 4.3125 21.25 C3.97347656 20.61707031 3.63445312 19.98414063 3.28515625 19.33203125 C-1.45178809 11.69560497 -9.68580974 6.83564295 -18.25390625 4.68359375 C-31.6020198 2.30535843 -44.03142559 7.18909187 -52.5625 17.6875 Z " fill="#2B0519" transform="translate(110.6875,382.75)"/>
<path d="M0 0 C3.70600211 0.72312236 4.42557963 2.41557009 6.5625 5.5 C7.97654011 8.26131865 9.1691399 11.09950213 10.35546875 13.96484375 C10.70330414 14.78699875 11.05113953 15.60915375 11.40951538 16.45622253 C12.5311617 19.11330382 13.64108339 21.77508374 14.75 24.4375 C15.51443237 26.25979598 16.27932594 28.08189857 17.04467773 29.90380859 C18.54532896 33.48027353 20.04077782 37.0588485 21.53222656 40.63916016 C23.22895559 44.70919706 24.94896461 48.76853084 26.6796875 52.82421875 C27.49551781 54.75750623 28.31070303 56.69106618 29.125 58.625 C29.48811279 59.46796631 29.85122559 60.31093262 30.2253418 61.17944336 C31.99303154 65.43985707 33.07805112 68.79559606 32.5625 73.5 C31.5 75.4375 31.5 75.4375 29.5625 76.5 C26.21875 76.625 26.21875 76.625 22.5625 75.5 C20.49021221 72.76543862 19.34865445 69.74986339 18.125 66.5625 C17.77501953 65.72525391 17.42503906 64.88800781 17.06445312 64.02539062 C14.5625 57.93942637 14.5625 57.93942637 14.5625 55.5 C5.3225 55.83 -3.9175 56.16 -13.4375 56.5 C-15.94504001 62.32953444 -15.94504001 62.32953444 -18.43286133 68.16748047 C-18.7502124 68.89338379 -19.06756348 69.61928711 -19.39453125 70.3671875 C-19.71397705 71.11081543 -20.03342285 71.85444336 -20.36254883 72.62060547 C-21.4375 74.5 -21.4375 74.5 -24.4375 76.5 C-27.5 76.3125 -27.5 76.3125 -30.4375 75.5 C-32.4375 72.5 -32.4375 72.5 -32.28125 69.35375977 C-31.30451256 64.89259062 -29.76977724 61.00706173 -27.9375 56.83984375 C-27.58555573 56.02038269 -27.23361145 55.20092163 -26.8710022 54.35662842 C-25.7341734 51.71353349 -24.58602095 49.07553242 -23.4375 46.4375 C-21.87963085 42.82949324 -20.32672902 39.21935435 -18.7734375 35.609375 C-18.39351654 34.72879929 -18.01359558 33.84822357 -17.62216187 32.94096375 C-14.2892025 25.20090969 -11.09423327 17.41077993 -8.0390625 9.55639648 C-7.7296875 8.77852783 -7.4203125 8.00065918 -7.1015625 7.19921875 C-6.84842285 6.54783936 -6.5952832 5.89645996 -6.33447266 5.2253418 C-4.77462348 2.22494601 -3.33675447 0.68446245 0 0 Z M-0.4375 22.5 C-1.77662585 25.62254943 -3.10780658 28.74842358 -4.4375 31.875 C-5.00984375 33.20917969 -5.00984375 33.20917969 -5.59375 34.5703125 C-5.9546875 35.42109375 -6.315625 36.271875 -6.6875 37.1484375 C-7.19023437 38.32672119 -7.19023437 38.32672119 -7.703125 39.52880859 C-8.55387101 41.46176935 -8.55387101 41.46176935 -8.4375 43.5 C-2.8275 43.5 2.7825 43.5 8.5625 43.5 C7.65862479 38.98062397 6.33034297 34.99495444 4.625 30.75 C4.36009766 30.06550781 4.09519531 29.38101563 3.82226562 28.67578125 C2.52806863 24.89398029 2.52806863 24.89398029 -0.4375 22.5 Z " fill="#2B0519" transform="translate(242.4375,217.5)"/>
<path d="M0 0 C3.15410148 1.25179985 6.01755976 2.90506896 8.9375 4.625 C10.07735352 5.26501953 10.07735352 5.26501953 11.24023438 5.91796875 C24.85345955 13.70691911 24.85345955 13.70691911 27 18 C27.36745016 23.60361495 27.27939226 26.29307605 24 31 C20.5249398 33.65020187 16.68370096 35.67724702 12.875 37.8125 C11.86695312 38.40998047 10.85890625 39.00746094 9.8203125 39.62304688 C3.5397336 43.18231277 -0.76814173 44.92367299 -8 44 C-10.87029869 42.20606332 -12.49131638 41.01736724 -14 38 C-14.28186639 33.64855386 -14.31369605 29.29342041 -14.35009766 24.93408203 C-14.36661943 23.48502499 -14.39386032 22.03604819 -14.43212891 20.58740234 C-14.48720676 18.4901333 -14.50881703 16.39477212 -14.5234375 14.296875 C-14.54325684 13.04229492 -14.56307617 11.78771484 -14.58349609 10.49511719 C-13.81231886 5.87579784 -12.27280898 4.29068644 -9 1 C-5.8350183 -0.58249085 -3.52165403 -0.31474564 0 0 Z M-3 13 C-3 19.27 -3 25.54 -3 32 C-0.751875 30.906875 1.49625 29.81375 3.8125 28.6875 C4.51608643 28.34936279 5.21967285 28.01122559 5.94458008 27.6628418 C9.13566495 26.08860992 11.58585139 24.59321129 14 22 C11.54481265 20.49462965 9.0861548 18.99555574 6.625 17.5 C5.57699219 16.85611328 5.57699219 16.85611328 4.5078125 16.19921875 C1.00662334 13.83987694 1.00662334 13.83987694 -3 13 Z " fill="#2B0519" transform="translate(82,399)"/>
<path d="M0 0 C2.875 0.9375 2.875 0.9375 4.875 3.9375 C5.14242554 6.85289001 5.14242554 6.85289001 5.16552734 10.45678711 C5.17560318 11.44267067 5.17560318 11.44267067 5.18588257 12.44847107 C5.20487698 14.62067223 5.20878729 16.79256472 5.2109375 18.96484375 C5.21736402 20.47555163 5.22409227 21.98625825 5.23110962 23.4969635 C5.24308567 26.66361375 5.24679007 29.83015487 5.24560547 32.99682617 C5.24540216 37.0535439 5.27271424 41.109562 5.30714989 45.16611385 C5.32939198 48.28625194 5.33344387 51.40622087 5.33238602 54.52643013 C5.33474566 56.02196224 5.34358973 57.51749876 5.35905075 59.0129528 C5.3786597 61.10540601 5.37289507 63.19634042 5.36083984 65.28881836 C5.36368988 66.47889999 5.36653992 67.66898163 5.36947632 68.89512634 C4.77479479 72.55403444 3.84247438 73.77105254 0.875 75.9375 C-2.25 75.875 -2.25 75.875 -5.125 74.9375 C-7.5227202 71.34091971 -7.38810933 69.69544161 -7.41552734 65.41821289 C-7.42224457 64.76095718 -7.42896179 64.10370148 -7.43588257 63.42652893 C-7.45487698 61.25432777 -7.45878729 59.08243528 -7.4609375 56.91015625 C-7.46736402 55.39944837 -7.47409227 53.88874175 -7.48110962 52.3780365 C-7.49308567 49.21138625 -7.49679007 46.04484513 -7.49560547 42.87817383 C-7.49540216 38.8214561 -7.52271424 34.765438 -7.55714989 30.70888615 C-7.57939198 27.58874806 -7.58344387 24.46877913 -7.58238602 21.34856987 C-7.58474566 19.85303776 -7.59358973 18.35750124 -7.60905075 16.8620472 C-7.6286597 14.76959399 -7.62289507 12.67865958 -7.61083984 10.58618164 C-7.6151149 8.80105919 -7.6151149 8.80105919 -7.61947632 6.97987366 C-6.84377936 2.20722855 -4.91641045 -0.09832821 0 0 Z " fill="#2C061A" transform="translate(297.125,218.0625)"/>
<path d="M0 0 C0.65900803 -0.00365067 1.31801605 -0.00730133 1.99699402 -0.01106262 C4.16875214 -0.01914887 6.33975965 -0.00557641 8.51147461 0.0090332 C10.02314758 0.00955198 11.53482123 0.00903359 13.04649353 0.00752258 C16.21143695 0.00761222 19.37612516 0.01802425 22.54101562 0.03613281 C26.59874436 0.05883923 30.65610096 0.05935967 34.71387577 0.05261517 C37.83397228 0.04927494 40.95398385 0.05590594 44.07406425 0.0657444 C45.57039381 0.06959431 47.06673282 0.07074548 48.56306648 0.06915855 C50.65290486 0.06878793 52.74226473 0.08140587 54.83203125 0.09765625 C56.02131729 0.10226364 57.21060333 0.10687103 58.43592834 0.11161804 C61.35131836 0.37231445 61.35131836 0.37231445 64.35131836 2.37231445 C65.00622476 8.37562315 65.00622476 8.37562315 63.2353363 11.07070923 C60.44407378 12.9990995 58.20185399 12.75373515 54.83203125 12.76049805 C54.17477554 12.765755 53.51751984 12.77101196 52.84034729 12.77642822 C50.66798118 12.78963034 48.49634817 12.78088908 46.32397461 12.77075195 C44.8132666 12.77277289 43.30255953 12.77568449 41.79185486 12.77944946 C38.62513952 12.78387328 35.45867802 12.77744105 32.29199219 12.76342773 C28.23535695 12.74635016 24.17931778 12.75616716 20.12270451 12.77414513 C17.00255354 12.78499406 13.88254348 12.78153133 10.76238823 12.77376175 C9.26687995 12.77176204 7.77135884 12.774211 6.27586555 12.78120041 C4.18356663 12.78883185 2.09222756 12.77718791 0 12.76049805 C-1.19008163 12.75811127 -2.38016327 12.75572449 -3.60630798 12.75326538 C-6.92540384 12.33766467 -8.33280805 11.75631676 -10.64868164 9.37231445 C-11.14868164 6.37231445 -11.14868164 6.37231445 -10.64868164 3.37231445 C-7.37713582 0.00251752 -4.5601459 -0.00241183 0 0 Z " fill="#2B051A" transform="translate(399.648681640625,441.627685546875)"/>
<path d="M0 0 C1.03437447 -0.00525696 1.03437447 -0.00525696 2.08964539 -0.01062012 C4.37431843 -0.01943923 6.65868306 -0.01358781 8.94335938 -0.00683594 C10.52754781 -0.00818254 12.11173584 -0.01012303 13.69592285 -0.01263428 C17.01818776 -0.01558578 20.34034522 -0.01128711 23.66259766 -0.00195312 C27.92672528 0.00944149 32.19060116 0.00288214 36.45471954 -0.00909805 C39.72660223 -0.01631599 42.99842498 -0.01402904 46.27030945 -0.00884247 C47.84282969 -0.00750578 49.41535532 -0.00915435 50.98786926 -0.01380157 C53.1834663 -0.01886579 55.37865241 -0.01115843 57.57421875 0 C59.45046936 0.00238678 59.45046936 0.00238678 61.36462402 0.00482178 C64.28710938 0.25878906 64.28710938 0.25878906 66.28710938 2.25878906 C66.53710938 5.75878906 66.53710938 5.75878906 66.28710938 9.25878906 C63.4646227 12.08127574 61.63609478 11.51863604 57.68188477 11.53344727 C57.00366165 11.5385582 56.32543854 11.54366913 55.62666321 11.54893494 C53.37927485 11.56286254 51.13219208 11.5618718 48.88476562 11.55957031 C47.32539251 11.56345563 45.76602045 11.56778996 44.20664978 11.57255554 C40.93566459 11.58002464 37.66478732 11.57972161 34.39379883 11.57446289 C30.1991874 11.56866853 26.00501756 11.58559476 21.81047916 11.60880756 C18.58916129 11.62353025 15.3679501 11.62441861 12.14660454 11.62129784 C10.600022 11.62181183 9.05343362 11.62706422 7.50688362 11.63710976 C5.34487239 11.64942843 3.18372561 11.64271089 1.02172852 11.63110352 C-0.82454384 11.63204765 -0.82454384 11.63204765 -2.70811462 11.63301086 C-5.71289062 11.25878906 -5.71289062 11.25878906 -7.61427307 9.92692566 C-9.30938989 7.35306691 -9.03145209 5.25326684 -8.71289062 2.25878906 C-5.87110997 -0.58299159 -3.98044296 0.00506352 0 0 Z " fill="#2C0519" transform="translate(397.712890625,415.7412109375)"/>
<path d="M0 0 C1.01996315 -0.005476 1.01996315 -0.005476 2.06053162 -0.01106262 C4.30745439 -0.01916683 6.55365576 -0.0055613 8.80053711 0.0090332 C10.36087544 0.00955177 11.92121444 0.0090342 13.48155212 0.00752258 C16.75082152 0.0076123 20.01984427 0.01804078 23.2890625 0.03613281 C27.48479831 0.05883888 31.68017426 0.05936066 35.87595463 0.05261517 C39.09723626 0.04927813 42.31843545 0.05589991 45.53970146 0.0657444 C47.08709723 0.06959988 48.63450217 0.07074318 50.18190193 0.06915855 C52.34149873 0.06878876 54.50062932 0.08138256 56.66015625 0.09765625 C57.89020889 0.10226364 59.12026154 0.10687103 60.3875885 0.11161804 C63.26538086 0.37231445 63.26538086 0.37231445 65.26538086 2.37231445 C65.51538086 5.87231445 65.51538086 5.87231445 65.26538086 9.37231445 C62.42360021 12.2140951 60.53293319 11.62603999 56.55249023 11.63110352 C55.51811577 11.63636047 55.51811577 11.63636047 54.46284485 11.64172363 C52.17817181 11.65054274 49.89380718 11.64469132 47.60913086 11.63793945 C46.02494243 11.63928606 44.4407544 11.64122655 42.85656738 11.64373779 C39.53430248 11.64668929 36.21214501 11.64239063 32.88989258 11.63305664 C28.62576495 11.62166203 24.36188907 11.62822137 20.09777069 11.64020157 C16.825888 11.6474195 13.55406525 11.64513256 10.28218079 11.63994598 C8.70966055 11.6386093 7.13713491 11.64025786 5.56462097 11.64490509 C3.36902393 11.64996931 1.17383782 11.64226195 -1.02172852 11.63110352 C-2.89797913 11.62871674 -2.89797913 11.62871674 -4.81213379 11.62628174 C-7.73461914 11.37231445 -7.73461914 11.37231445 -9.73461914 9.37231445 C-10.2841504 4.20672057 -10.2841504 4.20672057 -8.63600159 1.70417786 C-5.78628429 -0.29196668 -3.45227173 -0.00176541 0 0 Z " fill="#2C0519" transform="translate(398.734619140625,388.627685546875)"/>
<path d="M0 0 C4.8846525 2.26787438 7.73212562 5.1153475 10 10 C10.75381535 15.5997712 10.77303575 20.33499991 8.375 25.5 C3.80134327 30.3143755 0.6912538 32.25156236 -6 32.5 C-12.6912538 32.25156236 -15.80134327 30.3143755 -20.375 25.5 C-22.77303575 20.33499991 -22.75381535 15.5997712 -22 10 C-17.52212837 0.3553534 -9.85292056 -1.32635469 0 0 Z M-9.25 12.9375 C-10.11625 13.9584375 -10.11625 13.9584375 -11 15 C-9.94525335 18.69460876 -9.94525335 18.69460876 -7.125 21.0625 C-4.77383252 21.21665306 -4.77383252 21.21665306 -2.75 19.0625 C-2.1725 18.381875 -1.595 17.70125 -1 17 C-2.05474665 13.30539124 -2.05474665 13.30539124 -4.875 10.9375 C-7.22616748 10.78334694 -7.22616748 10.78334694 -9.25 12.9375 Z " fill="#2B0519" transform="translate(438,48)"/>
<path d="M0 0 C3.5 0.25 3.5 0.25 5.5 2.25 C5.76742554 4.86204529 5.76742554 4.86204529 5.79052734 8.21264648 C5.8096669 10.08985634 5.8096669 10.08985634 5.82919312 12.00498962 C5.83225033 13.37702277 5.83447833 14.74905798 5.8359375 16.12109375 C5.842362 17.52352537 5.84909009 18.92595563 5.85610962 20.3283844 C5.8680941 23.26981718 5.87178924 26.21113241 5.87060547 29.15258789 C5.87040217 32.92359907 5.89770917 36.69385752 5.93214989 40.46469021 C5.9543768 43.36175505 5.95844433 46.2586375 5.95738602 49.15577888 C5.95974816 50.54607807 5.96860622 51.93638181 5.98405075 53.32659721 C6.00362236 55.27028603 5.99537296 57.21419501 5.98583984 59.15795898 C5.98868988 60.26445297 5.99153992 61.37094696 5.99447632 62.51097107 C5.5 65.25 5.5 65.25 3.66885376 67.14637756 C0.63933692 68.68794889 -1.28461124 68.107437 -4.5 67.25 C-6.30044957 65.44955043 -5.63706544 62.72076589 -5.64526367 60.29321289 C-5.65164352 59.01841568 -5.65802338 57.74361847 -5.66459656 56.43019104 C-5.66612511 55.02767983 -5.66723914 53.62516811 -5.66796875 52.22265625 C-5.67117965 50.79398057 -5.67454359 49.36530522 -5.67805481 47.93663025 C-5.68405239 44.93797035 -5.68589407 41.9393393 -5.68530273 38.94067383 C-5.68520109 35.09242051 -5.69885297 31.2443516 -5.71607494 27.39614201 C-5.72717706 24.44424078 -5.7292225 21.49238438 -5.72869301 18.5404644 C-5.72987585 17.12144777 -5.73431454 15.70243009 -5.74202538 14.28343391 C-5.75178854 12.30104051 -5.74769253 10.31859334 -5.74291992 8.33618164 C-5.74434494 7.20668594 -5.74576996 6.07719025 -5.74723816 4.91346741 C-5.35231977 0.65905839 -4.16376042 0.29741146 0 0 Z " fill="#2B0519" transform="translate(85.5,56.75)"/>
<path d="M0 0 C2.42812122 2.3420784 2.97113671 3.77537209 3.40405273 7.14453125 C3.41380127 8.35496094 3.4235498 9.56539062 3.43359375 10.8125 C3.4388356 11.46323486 3.44407745 12.11396973 3.44947815 12.78442383 C3.45588282 14.15607276 3.45458142 15.52777674 3.44604492 16.89941406 C3.43752508 18.99383521 3.46632474 21.08553497 3.49804688 23.1796875 C3.49965892 24.51562419 3.49908128 25.85156568 3.49609375 27.1875 C3.49794678 28.39792969 3.4997998 29.60835937 3.50170898 30.85546875 C2.90721232 34.58155979 2.02687956 35.80384779 -1 38 C-4.125 37.9375 -4.125 37.9375 -7 37 C-10.24964548 32.12553178 -9.33300751 26.39855582 -9.31567383 20.69384766 C-9.31251104 18.50763231 -9.33598905 16.32276708 -9.36132812 14.13671875 C-9.36360094 12.74739754 -9.3643047 11.35807269 -9.36328125 9.96875 C-9.36626221 8.70482422 -9.36924316 7.44089844 -9.37231445 6.13867188 C-9 3 -9 3 -7.66479492 1.09179688 C-5.02145485 -0.64174423 -3.06731075 -0.44731615 0 0 Z " fill="#2B0519" transform="translate(69,72)"/>
<path d="M0 0 C3.4375 -0.4375 3.4375 -0.4375 7 0 C9.40135957 2.29368616 9.96283688 3.7312372 10.41992188 7.03686523 C10.5106629 13.58156154 10.5106629 13.58156154 10.50097656 16.41723633 C10.50000425 18.42870326 10.54163877 20.43634935 10.5859375 22.44726562 C10.58851562 23.72150391 10.59109375 24.99574219 10.59375 26.30859375 C10.60083984 27.47189209 10.60792969 28.63519043 10.61523438 29.83374023 C9.81906145 33.93118734 8.23348177 35.44616153 5 38 C1.55383944 37.91985673 0.4443896 37.4443896 -2 35 C-2.25878906 31.88305664 -2.25878906 31.88305664 -2.265625 27.91015625 C-2.26753845 27.20982773 -2.2694519 26.50949921 -2.27142334 25.78794861 C-2.27278493 24.30597576 -2.2690903 22.82399098 -2.26074219 21.34204102 C-2.25005777 19.07475915 -2.26062953 16.80827251 -2.2734375 14.54101562 C-2.27211559 13.10156075 -2.26955253 11.66210637 -2.265625 10.22265625 C-2.26336914 8.91047119 -2.26111328 7.59828613 -2.25878906 6.24633789 C-2 3 -2 3 0 0 Z " fill="#2B0519" transform="translate(101,72)"/>
<path d="M0 0 C2.875 0.875 2.875 0.875 4.875 2.875 C5.32126783 6.00046156 5.19910302 9.1587984 5.1875 12.3125 C5.20361328 13.18455078 5.21972656 14.05660156 5.23632812 14.95507812 C5.23697266 15.79361328 5.23761719 16.63214844 5.23828125 17.49609375 C5.24275269 18.64742798 5.24275269 18.64742798 5.24731445 19.82202148 C4.77557004 22.4232666 3.96777526 23.29905031 1.875 24.875 C-1.125 25.3125 -1.125 25.3125 -4.125 24.875 C-6.94355364 22.33498578 -7.14104068 20.72817723 -7.55859375 16.90625 C-7.57578653 15.39593063 -7.57660345 13.88535138 -7.5625 12.375 C-7.58248047 11.61574219 -7.60246094 10.85648438 -7.62304688 10.07421875 C-7.61988611 6.4646229 -7.42986937 4.29752685 -5.29296875 1.3359375 C-3.125 -0.125 -3.125 -0.125 0 0 Z " fill="#2B0519" transform="translate(125.125,78.125)"/>
<path d="M0 0 C2.8199387 2.8199387 2.28962838 4.92904159 2.32226562 8.78320312 C2.31904297 9.65912109 2.31582031 10.53503906 2.3125 11.4375 C2.32861328 12.30955078 2.34472656 13.18160156 2.36132812 14.08007812 C2.36197266 14.91861328 2.36261719 15.75714844 2.36328125 16.62109375 C2.36775269 17.77242798 2.36775269 17.77242798 2.37231445 18.94702148 C1.89799595 21.56246036 1.15172656 22.4661356 -1 24 C-4.625 23.8125 -4.625 23.8125 -8 23 C-9.76482638 19.47034724 -9.26958055 15.45100224 -9.3125 11.5625 C-9.34150391 10.69044922 -9.37050781 9.81839844 -9.40039062 8.91992188 C-9.46426278 2.52779347 -9.46426278 2.52779347 -7.14453125 -0.109375 C-4.33454631 -1.27636328 -2.85062719 -0.97521457 0 0 Z " fill="#2B051A" transform="translate(50,79)"/>
<path d="M0 0 C2.92980811 2.92980811 2.36810632 6.01844476 2.375 9.9375 C2.39949219 10.66646484 2.42398437 11.39542969 2.44921875 12.14648438 C2.47855739 17.4812277 2.47855739 17.4812277 0.140625 20.015625 C-2.67303728 21.3094989 -4.10472122 20.99049011 -7 20 C-9.92980811 17.07019189 -9.36810632 13.98155524 -9.375 10.0625 C-9.39949219 9.33353516 -9.42398437 8.60457031 -9.44921875 7.85351562 C-9.47855739 2.5187723 -9.47855739 2.5187723 -7.140625 -0.015625 C-4.32696272 -1.3094989 -2.89527878 -0.99049011 0 0 Z " fill="#2C051A" transform="translate(329,230)"/>
</svg>
