<?xml version="1.0" encoding="UTF-8"?>
<svg xmlns="http://www.w3.org/2000/svg" viewBox="0 0 512 512" width="512" height="512">
<path d="M249 36.43C253.67 36.43 258.33 36.43 263 36.43C298.04 38.42 329.56 69.92 331.57 105C331.57 109.5 331.57 114 331.57 118.5C330.68 134.01 323.75 147.63 314.73 159.98C311.66 164.19 306.3 166.97 303.5 171.25C305.22 172.97 308.8 173.89 311.17 175.08C316.67 177.83 322.05 180.67 326.98 184.27C337.01 191.58 342.75 199.5 351.25 208C362.48 202.38 372.75 197.12 385.5 196.43C390 196.43 394.5 196.43 399 196.43C434.13 198.42 465.54 230.07 467.57 265C467.57 269.5 467.57 274 467.57 278.5C466.77 292.48 460.97 306.2 452.73 317.48C450.64 320.36 447.52 324.3 444.75 326.5C442.98 327.91 440.75 329.35 439.5 331.25C441.78 333.53 446.18 334.61 449.16 336.09C454.8 338.91 460.36 342.53 465.48 346.27C489.82 364.02 505.9 394.4 507.57 424C507.57 438.17 507.57 452.33 507.57 466.5C505.87 478.82 486.12 478.83 484.44 466.5C485.4 458.28 484.6 449.53 484.6 441.25C484.6 438.65 485.45 433.82 483.9 431.93C484.24 428.01 483.6 424.5 483.02 420.73C478.37 391.09 458.11 361.64 427.84 352.91C419.24 350.42 410.27 347.26 401.07 348.11C399.67 346.96 384.33 346.96 382.93 348.11C373.73 347.26 364.76 350.42 356.16 352.91C328.47 360.9 307.4 387.69 301.91 415.16C300.8 420.67 299.6 426.16 300.1 431.93C298.55 433.82 299.4 438.65 299.4 441.25C299.4 449.53 298.61 458.28 299.57 466.5C297.87 478.82 278.12 478.83 276.44 466.5C276.43 452.33 276.43 438.17 276.43 424C278.07 394.39 294.14 364.05 318.52 346.27C323.64 342.53 329.21 338.91 334.84 336.09C337.63 334.7 342.55 333.65 344.5 331.25C341.73 327.02 336.48 323.5 333.09 319.66C323.6 308.89 317.25 293.15 316.43 279C316.43 274.5 316.43 270 316.43 265.5C317 255.17 320.6 245.32 325.09 236.34C327.08 232.37 331.64 228.55 332.5 224.25C327.55 219.3 323.92 213 318.25 208.5C305.21 198.14 291.71 191.56 275.27 188.98C271.83 188.45 268.65 187.77 265.07 188.11C263.68 186.96 249.34 186.95 247.93 188.1C229.33 186.5 209.55 196.66 195.02 207.27C188.67 211.9 184.9 218.85 179.5 224.25C180.36 228.55 184.92 232.37 186.91 236.34C191.33 245.19 194.99 254.91 195.57 265C195.57 269.5 195.57 274 195.57 278.5C194.77 292.48 188.97 306.2 180.73 317.48C178.64 320.36 175.52 324.3 172.75 326.5C170.98 327.91 168.75 329.35 167.5 331.25C169.78 333.53 174.18 334.61 177.16 336.09C182.8 338.91 188.36 342.53 193.48 346.27C217.82 364.02 233.9 394.4 235.57 424C235.57 438.17 235.57 452.33 235.57 466.5C233.87 478.82 214.12 478.83 212.44 466.5C213.4 458.28 212.6 449.53 212.6 441.25C212.6 438.65 213.45 433.82 211.9 431.93C212.24 428.01 211.6 424.5 211.02 420.73C206.37 391.09 186.11 361.64 155.84 352.91C147.24 350.42 138.27 347.26 129.07 348.11C127.67 346.96 112.33 346.96 110.93 348.11C101.73 347.26 92.76 350.42 84.16 352.91C56.47 360.9 35.4 387.69 29.91 415.16C28.8 420.67 27.6 426.16 28.1 431.93C26.55 433.82 27.4 438.65 27.4 441.25C27.4 449.53 26.61 458.28 27.57 466.5C25.87 478.82 6.12 478.83 4.44 466.5C4.43 452.33 4.43 438.17 4.43 424C6.07 394.39 22.14 364.05 46.52 346.27C51.64 342.53 57.21 338.91 62.84 336.09C65.63 334.7 70.55 333.65 72.5 331.25C69.73 327.02 64.48 323.5 61.09 319.66C51.6 308.89 45.25 293.15 44.43 279C44.43 274.33 44.43 269.67 44.43 265C46.44 229.91 78.06 198.41 113 196.43C117.5 196.43 122 196.43 126.5 196.43C139.28 197.13 149.55 202.4 160.75 208C164.2 204.55 167.45 200.51 170.5 196.75C174.68 191.59 181.18 187.16 186.52 183.27C191.2 179.85 196.59 177.14 201.83 174.58C203.95 173.54 206.93 172.82 208.5 171.25C205.73 167.02 200.48 163.5 197.09 159.66C187.6 148.89 181.25 133.15 180.43 119C180.43 114.33 180.43 109.67 180.43 105C182.41 69.91 214.03 38.41 249 36.43ZM250.84 60.09C224.41 65.18 208.26 80.17 204.02 107.27C203.31 111.79 204.31 116.43 204.98 120.77C208.33 142.12 225.81 159.66 247.23 163.02C251.57 163.69 256.21 164.69 260.73 163.98C286.88 159.89 303.89 142.88 307.98 116.73C308.69 112.21 307.69 107.57 307.02 103.23C303.66 81.82 286.18 64.34 264.77 60.98C260.34 60.29 255.45 59.21 250.84 60.09ZM114.84 220.09C88.41 225.18 72.26 240.17 68.02 267.27C67.31 271.79 68.31 276.43 68.98 280.77C72.33 302.12 89.81 319.66 111.23 323.02C115.57 323.69 120.21 324.69 124.73 323.98C150.88 319.89 167.89 302.88 171.98 276.73C172.69 272.21 171.69 267.57 171.02 263.23C167.66 241.82 150.18 224.34 128.77 220.98C124.34 220.29 119.45 219.21 114.84 220.09ZM386.84 220.09C360.41 225.18 344.26 240.17 340.02 267.27C339.31 271.79 340.31 276.43 340.98 280.77C344.33 302.12 361.81 319.66 383.23 323.02C387.57 323.69 392.21 324.69 396.73 323.98C422.88 319.89 439.89 302.88 443.98 276.73C444.69 272.21 443.69 267.57 443.02 263.23C439.66 241.82 422.18 224.34 400.77 220.98C396.34 220.29 391.45 219.21 386.84 220.09Z" fill="#ffffff" fill-rule="evenodd" stroke="#ffffff" stroke-width="0.25" stroke-linejoin="round"/>
<path d="M263 36.43C258.33 36.43 253.67 36.43 249 36.43C250.32 34.83 261.68 34.83 263 36.43ZM180.43 105C180.43 109.67 180.43 114.33 180.43 119C178.83 117.68 178.83 106.32 180.43 105ZM331.57 105C331.9 105.25 332.22 105.5 332.55 105.75C332.55 109.75 332.55 113.75 332.55 117.75C332.22 118 331.9 118.25 331.57 118.5C331.57 114 331.57 109.5 331.57 105ZM265.07 188.11C259.36 188.11 253.64 188.11 247.93 188.1C249.34 186.95 263.68 186.96 265.07 188.11ZM126.5 196.43C122 196.43 117.5 196.43 113 196.43C113.25 196.1 113.5 195.78 113.75 195.45C117.75 195.45 121.75 195.45 125.75 195.44C126 195.77 126.25 196.1 126.5 196.43ZM399 196.43C394.5 196.43 390 196.43 385.5 196.43C385.75 196.1 386 195.77 386.25 195.44C390.25 195.44 394.25 195.45 398.25 195.45C398.5 195.78 398.75 196.1 399 196.43ZM44.43 265C44.43 269.67 44.43 274.33 44.43 279C42.83 277.68 42.83 266.32 44.43 265ZM195.57 265C195.9 265.25 196.22 265.5 196.55 265.75C196.55 269.75 196.55 273.75 196.55 277.75C196.22 278 195.9 278.25 195.57 278.5C195.57 274 195.57 269.5 195.57 265ZM467.57 265C467.9 265.25 468.22 265.5 468.54 265.75C468.54 269.75 468.55 273.75 468.55 277.75C468.22 278 467.9 278.25 467.57 278.5C467.57 274 467.57 269.5 467.57 265ZM316.43 265.5C316.43 270 316.43 274.5 316.43 279C316.1 278.75 315.78 278.5 315.46 278.25C315.45 274.25 315.45 270.25 315.45 266.25C315.78 266 316.1 265.75 316.43 265.5ZM129.07 348.11C123.02 348.11 116.98 348.11 110.93 348.11C112.33 346.96 127.67 346.96 129.07 348.11ZM401.07 348.11C395.02 348.11 388.98 348.11 382.93 348.11C384.33 346.96 399.67 346.96 401.07 348.11ZM4.43 424C4.43 438.17 4.43 452.33 4.44 466.5C2.45 464.91 3.4 459.83 3.4 457.25C3.4 449.08 3.39 440.92 3.4 432.75C3.4 430.26 2.54 425.55 4.43 424ZM235.57 424C237.46 425.56 236.6 430.26 236.6 432.75C236.61 440.92 236.6 449.08 236.6 457.25C236.6 459.83 237.55 464.91 235.57 466.5C235.57 452.33 235.57 438.17 235.57 424ZM276.43 424C276.43 438.17 276.43 452.33 276.44 466.5C274.45 464.91 275.4 459.83 275.4 457.25C275.4 449.08 275.39 440.92 275.4 432.75C275.4 430.26 274.54 425.55 276.43 424ZM507.57 424C509.46 425.56 508.6 430.26 508.6 432.75C508.61 440.92 508.6 449.08 508.6 457.25C508.6 459.83 509.55 464.91 507.57 466.5C507.57 452.33 507.57 438.17 507.57 424ZM28.1 431.93C30.01 436.98 28.6 452.06 28.6 458.25C28.6 460.68 29.44 464.99 27.57 466.5C26.61 458.28 27.4 449.53 27.4 441.25C27.4 438.65 26.55 433.82 28.1 431.93ZM211.9 431.93C213.45 433.82 212.6 438.65 212.6 441.25C212.6 449.53 213.4 458.28 212.44 466.5C210.56 465 211.4 460.68 211.4 458.25C211.4 452.06 209.99 436.98 211.9 431.93ZM300.1 431.93C302.01 436.98 300.6 452.06 300.6 458.25C300.6 460.68 301.44 464.99 299.57 466.5C298.61 458.28 299.4 449.53 299.4 441.25C299.4 438.65 298.55 433.82 300.1 431.93ZM483.9 431.93C485.45 433.82 484.6 438.65 484.6 441.25C484.6 449.53 485.4 458.28 484.44 466.5C482.56 465 483.4 460.68 483.4 458.25C483.4 452.06 481.99 436.98 483.9 431.93Z" fill="#e3e3e3" fill-rule="evenodd" stroke="#e3e3e3" stroke-width="0.25" stroke-linejoin="round"/>
</svg>