<?xml version="1.0" encoding="UTF-8"?>
<svg version="1.1" xmlns="http://www.w3.org/2000/svg" width="512" height="512">
<path d="M0 0 C0.53093262 0.43844238 1.06186523 0.87688477 1.60888672 1.32861328 C8.62606094 7.21742045 14.42174727 13.75928775 20 21 C21.09248047 22.35158203 21.09248047 22.35158203 22.20703125 23.73046875 C46.36253297 54.40076428 56.58002676 94.52214735 52.23071289 133.11499023 C46.98288519 173.83337879 27.41408022 207.29860551 -4.43359375 232.89453125 C-19.84303792 245.53637357 -29.56294788 264.02485211 -31.52734375 283.88256836 C-32.09434089 290.3015681 -32.11725914 296.6812062 -32.10546875 303.12109375 C-32.11891887 305.62826385 -32.13394093 308.13542591 -32.15039062 310.64257812 C-32.1732145 314.54398879 -32.18747777 318.44447838 -32.17504883 322.34594727 C-32.16618826 326.14665035 -32.19522004 329.94557528 -32.23046875 333.74609375 C-32.21823776 334.89645615 -32.20600677 336.04681854 -32.19340515 337.23204041 C-32.33965398 347.12021899 -35.52549294 355.51576911 -42.1875 362.9375 C-52.0379233 371.67022744 -62.79716425 371.74893005 -75.22265625 371.6640625 C-76.97660151 371.66743848 -78.73054448 371.67229757 -80.48448181 371.67855835 C-84.14328496 371.685891 -87.80147387 371.67534052 -91.46020508 371.65185547 C-96.12613515 371.62334818 -100.7906281 371.63980636 -105.45650578 371.66971779 C-109.07277564 371.68787106 -112.68871026 371.68199657 -116.30499077 371.66907883 C-118.02441012 371.66576803 -119.74386094 371.66974903 -121.46324348 371.68147659 C-132.42697112 371.7398755 -140.46265188 370.74533386 -149.55078125 364.1484375 C-156.73940688 356.91199396 -161.06751493 348.00929733 -161.17358398 337.75097656 C-161.18707382 336.7017804 -161.20056366 335.65258423 -161.21446228 334.57159424 C-161.23011986 332.87326447 -161.23011986 332.87326447 -161.24609375 331.140625 C-161.27907148 328.720049 -161.31228238 326.29947617 -161.34570312 323.87890625 C-161.39278966 320.08124281 -161.43714926 316.28358835 -161.47680664 312.48583984 C-161.79467646 283.45119163 -163.59307488 260.4443315 -184 238 C-187.22429592 234.86568444 -190.57517622 231.91249242 -194 229 C-224.38705412 202.99513964 -242.30364055 168.37755227 -246.6875 128.5625 C-249.45877894 88.88014417 -237.61136291 49.25412504 -211.62646484 18.84179688 C-201.86594215 7.78905247 -191.35693984 -1.9380026 -179 -10 C-178.34451172 -10.43006348 -177.68902344 -10.86012695 -177.01367188 -11.30322266 C-122.14915917 -46.72225239 -50.07902892 -41.36597829 0 0 Z M-190.40234375 29.39453125 C-205.44434537 45.33535195 -215.00042305 65.110962 -221 86 C-221.34160156 87.15113281 -221.68320313 88.30226563 -222.03515625 89.48828125 C-229.67365092 120.29095511 -222.289717 155.3552916 -206.11083984 182.2578125 C-202.78792741 187.46930769 -198.94448603 192.25142132 -195 197 C-193.99646484 198.23363281 -193.99646484 198.23363281 -192.97265625 199.4921875 C-188.70270691 204.53928509 -183.96442883 208.63622267 -178.80078125 212.75 C-154.67057986 232.13493166 -143.68256203 254.56334678 -139 285 C-111.28 285 -83.56 285 -55 285 C-54.34 281.7 -53.68 278.4 -53 275 C-46.70482537 246.7761365 -32.09030916 226.08818639 -10.15625 207.6640625 C12.43719915 188.67342387 27.13447375 159.3092989 30 130 C31.04592223 113.12563552 30.96544401 96.28695866 26 80 C25.78569336 79.2771582 25.57138672 78.55431641 25.35058594 77.80957031 C15.68012215 45.98290567 -6.05252805 19.29358292 -35 3 C-36.06605469 2.39285156 -37.13210938 1.78570312 -38.23046875 1.16015625 C-51.28711086 -5.83502012 -66.24796482 -10.49235345 -81 -12 C-82.25425781 -12.13277344 -83.50851562 -12.26554687 -84.80078125 -12.40234375 C-125.78801877 -16.08702562 -161.8487985 0.93384306 -190.40234375 29.39453125 Z M-139 307 C-141.78270038 328.86653465 -141.78270038 328.86653465 -134.24327087 347.8497467 C-131.11566767 349.45344777 -128.61627479 349.38873205 -125.10766602 349.40405273 C-124.42260986 349.41091599 -123.73755371 349.41777924 -123.03173828 349.42485046 C-120.77224875 349.44311816 -118.51345363 349.43928121 -116.25390625 349.43359375 C-114.6797615 349.43815575 -113.10561874 349.44346137 -111.53147888 349.44947815 C-108.23371282 349.45840927 -104.93618892 349.45598643 -101.63842773 349.44604492 C-97.41702279 349.43455769 -93.19645465 349.45476213 -88.97515965 349.48396206 C-85.72457082 349.50232899 -82.47418232 349.50203063 -79.22355461 349.49632454 C-77.66745772 349.49617137 -76.11134722 349.50221223 -74.55529976 349.51461601 C-72.3769125 349.52953377 -70.20006825 349.51884555 -68.02172852 349.50170898 C-66.78358902 349.50154282 -65.54544952 349.50137665 -64.26979065 349.50120544 C-60.40360936 348.90858307 -58.75766639 347.71871132 -56 345 C-50.33333333 333.66666667 -55 319.67105187 -55 307 C-82.72 307 -110.44 307 -139 307 Z " fill="#FFFFFF" transform="translate(353,141)"/>
<path d="M0 0 C25.95771301 9.07760958 45.37308204 26.99590779 57.3125 51.5 C62.4440564 63.14578217 65.16541271 74.88357601 65.3125 87.5625 C65.35600586 88.81836914 65.35600586 88.81836914 65.40039062 90.09960938 C65.44322483 94.26111674 65.36212398 96.42134827 63.10546875 100.02734375 C59.61872692 103.29414268 56.96131576 103.39283319 52.328125 103.35546875 C48.37230319 102.75147582 46.69341577 100.89542195 44 98 C42.99669899 94.99009698 42.72004657 92.24425338 42.45629883 89.09814453 C40.67521096 68.82535976 32.71247356 50.28593178 17.25 36.55859375 C2.56828085 25.02016819 -13.01251557 19.37085505 -31.5 18.265625 C-34.87166311 17.90738579 -37.2420823 16.95957311 -40 15 C-42.56514509 10.83163924 -42.71395574 6.76820439 -42 2 C-34.40680282 -10.14911549 -11.56559228 -3.70518974 0 0 Z " fill="#FFFFFF" transform="translate(287,164)"/>
<path d="M0 0 C7.60503493 5.16850409 14.0348591 12.88289652 20.51147461 19.38110352 C22.45377265 21.32881803 24.4014314 23.2710593 26.34960938 25.21289062 C27.58625875 26.45019983 28.82259842 27.68781868 30.05859375 28.92578125 C30.64080185 29.50596512 31.22300995 30.08614899 31.82286072 30.68391418 C35.26018058 34.14149832 36.82687662 35.7448555 37.5 40.625 C37.42146319 45.38956667 35.39775687 48.14051468 32.125 51.47265625 C29.10212837 53.64534523 26.93155286 54.07185713 23.25390625 53.7109375 C18.86176321 52.32554749 16.12170002 49.2595102 13 46 C12.25621094 45.278125 11.51242188 44.55625 10.74609375 43.8125 C6.50845564 39.68241616 2.5326276 35.39722671 -1.3125 30.90234375 C-3.00930566 28.98950959 -4.78792753 27.21518435 -6.625 25.4375 C-14.66419291 17.43460142 -14.66419291 17.43460142 -15.5 11.375 C-14.79842757 6.63938611 -13.47468526 4.18794091 -9.75 1.1875 C-6.04702691 -0.41151111 -4.01023427 -0.67970072 0 0 Z " fill="#FFFFFF" transform="translate(86,71)"/>
<path d="M0 0 C1.53718437 -0.01925285 1.53718437 -0.01925285 3.10542297 -0.03889465 C4.21685165 -0.04628159 5.32828033 -0.05366852 6.47338867 -0.0612793 C7.61289474 -0.06935104 8.75240082 -0.07742279 9.92643738 -0.08573914 C12.34156773 -0.09958792 14.75671772 -0.1103065 17.171875 -0.11816406 C20.86585567 -0.1353792 24.55894214 -0.17925999 28.25268555 -0.22338867 C30.59708 -0.2335151 32.94148206 -0.24203136 35.28588867 -0.2487793 C36.39124466 -0.26628738 37.49660065 -0.28379547 38.63545227 -0.30183411 C46.31575407 -0.28010887 46.31575407 -0.28010887 50.25341797 2.07861328 C53.52877963 5.84372409 53.40685261 8.84496814 53.37182617 13.69262695 C52.96423615 17.1489903 51.6160924 18.86364065 49.07885742 21.17700195 C46.6052435 22.41380891 44.92481966 22.32387962 42.15771484 22.35400391 C41.13292526 22.36683914 40.10813568 22.37967438 39.05229187 22.39289856 C37.38514885 22.40397896 37.38514885 22.40397896 35.68432617 22.4152832 C34.5448201 22.42335495 33.40531403 22.4314267 32.23127747 22.43974304 C29.81614711 22.45359182 27.40099712 22.46431041 24.98583984 22.47216797 C21.29185918 22.48938311 17.59877271 22.53326389 13.9050293 22.57739258 C11.56063485 22.58751901 9.21623278 22.59603527 6.87182617 22.6027832 C5.21379219 22.62904533 5.21379219 22.62904533 3.52226257 22.65583801 C-4.15803923 22.63411277 -4.15803923 22.63411277 -8.09570312 20.27539062 C-11.37106479 16.51027982 -11.24913776 13.50903577 -11.21411133 8.66137695 C-10.80652131 5.20501361 -9.45837756 3.49036326 -6.92114258 1.17700195 C-4.44752866 -0.05980501 -2.76710482 0.03012429 0 0 Z " fill="#FFFFFF" transform="translate(458.921142578125,244.822998046875)"/>
<path d="M0 0 C1.53718437 -0.01925285 1.53718437 -0.01925285 3.10542297 -0.03889465 C4.21685165 -0.04628159 5.32828033 -0.05366852 6.47338867 -0.0612793 C7.61289474 -0.06935104 8.75240082 -0.07742279 9.92643738 -0.08573914 C12.34156773 -0.09958792 14.75671772 -0.1103065 17.171875 -0.11816406 C20.86585567 -0.1353792 24.55894214 -0.17925999 28.25268555 -0.22338867 C30.59708 -0.2335151 32.94148206 -0.24203136 35.28588867 -0.2487793 C36.39124466 -0.26628738 37.49660065 -0.28379547 38.63545227 -0.30183411 C46.31575407 -0.28010887 46.31575407 -0.28010887 50.25341797 2.07861328 C53.52877963 5.84372409 53.40685261 8.84496814 53.37182617 13.69262695 C52.96423615 17.1489903 51.6160924 18.86364065 49.07885742 21.17700195 C46.6052435 22.41380891 44.92481966 22.32387962 42.15771484 22.35400391 C41.13292526 22.36683914 40.10813568 22.37967438 39.05229187 22.39289856 C37.38514885 22.40397896 37.38514885 22.40397896 35.68432617 22.4152832 C34.5448201 22.42335495 33.40531403 22.4314267 32.23127747 22.43974304 C29.81614711 22.45359182 27.40099712 22.46431041 24.98583984 22.47216797 C21.29185918 22.48938311 17.59877271 22.53326389 13.9050293 22.57739258 C11.56063485 22.58751901 9.21623278 22.59603527 6.87182617 22.6027832 C5.21379219 22.62904533 5.21379219 22.62904533 3.52226257 22.65583801 C-4.15803923 22.63411277 -4.15803923 22.63411277 -8.09570312 20.27539062 C-11.37106479 16.51027982 -11.24913776 13.50903577 -11.21411133 8.66137695 C-10.80652131 5.20501361 -9.45837756 3.49036326 -6.92114258 1.17700195 C-4.44752866 -0.05980501 -2.76710482 0.03012429 0 0 Z " fill="#FFFFFF" transform="translate(10.921142578125,244.822998046875)"/>
<path d="M0 0 C2.93423195 1.79646854 4.47205355 2.9441071 6 6 C6.11051179 7.63771719 6.15913334 9.27979827 6.17700195 10.92114258 C6.18983719 11.94593216 6.20267242 12.97072174 6.21589661 14.02656555 C6.22328354 15.13799423 6.23067047 16.24942291 6.23828125 17.39453125 C6.246353 18.53403732 6.25442474 19.6735434 6.26274109 20.84757996 C6.27658987 23.26271031 6.28730846 25.6778603 6.29516602 28.09301758 C6.31238115 31.78699824 6.35626194 35.48008471 6.40039062 39.17382812 C6.41051706 41.51822257 6.41903331 43.86262464 6.42578125 46.20703125 C6.44328934 47.31238724 6.46079742 48.41774323 6.47883606 49.55659485 C6.45711082 57.23689665 6.45711082 57.23689665 4.09838867 61.17456055 C0.33327787 64.44992221 -2.66796618 64.32799519 -7.515625 64.29296875 C-10.97198834 63.88537873 -12.68663869 62.53723498 -15 60 C-16.23680696 57.52638608 -16.14687766 55.84596224 -16.17700195 53.07885742 C-16.18983719 52.05406784 -16.20267242 51.02927826 -16.21589661 49.97343445 C-16.22328354 48.86200577 -16.23067047 47.75057709 -16.23828125 46.60546875 C-16.246353 45.46596268 -16.25442474 44.3264566 -16.26274109 43.15242004 C-16.27658987 40.73728969 -16.28730846 38.3221397 -16.29516602 35.90698242 C-16.31238115 32.21300176 -16.35626194 28.51991529 -16.40039062 24.82617188 C-16.41051706 22.48177743 -16.41903331 20.13737536 -16.42578125 17.79296875 C-16.45204338 16.13493477 -16.45204338 16.13493477 -16.47883606 14.44340515 C-16.45711082 6.76310335 -16.45711082 6.76310335 -14.09838867 2.82543945 C-9.86059024 -0.8611247 -5.41729549 -0.63883201 0 0 Z " fill="#FFFFFF" transform="translate(261,0)"/>
<path d="M0 0 C1.66967773 1.09228516 1.66967773 1.09228516 3.37109375 2.6640625 C4.06267578 3.30053711 4.75425781 3.93701172 5.46679688 4.59277344 C6.30275391 5.3871582 7.13871094 6.18154297 8 7 C8.77126221 7.72443298 8.77126221 7.72443298 9.55810547 8.46350098 C13.24995463 11.93372212 16.89436302 15.4485754 20.51147461 18.99658203 C21.80015027 20.25340425 23.09680744 21.50209212 24.40112305 22.74267578 C26.30661733 24.55672735 28.18439374 26.39588657 30.05859375 28.2421875 C30.64080185 28.78624237 31.22300995 29.33029724 31.82286072 29.89083862 C35.56206629 33.64839073 36.73183067 36.5959229 37.17933655 41.87210083 C36.86495718 45.60233654 35.12442401 47.9743052 33 51 C31.08364783 51.05423638 29.16685075 51.09289963 27.25 51.125 C26.18265625 51.14820313 25.1153125 51.17140625 24.015625 51.1953125 C21.07529894 51.00487687 19.47638122 50.52670104 17 49 C17 48.34 17 47.68 17 47 C16.34 47 15.68 47 15 47 C15 46.34 15 45.68 15 45 C13.68 44.34 12.36 43.68 11 43 C11 42.34 11 41.68 11 41 C10.401875 40.731875 9.80375 40.46375 9.1875 40.1875 C7.00152146 39.00082594 5.58667406 37.90400887 4 36 C4 35.34 4 34.68 4 34 C3.34 34 2.68 34 2 34 C0.58984375 32.56640625 0.58984375 32.56640625 -1.0625 30.5625 C-4.55732115 26.43493228 -8.30479777 22.65262047 -12.1796875 18.8828125 C-15.14036827 15.82047746 -15.39032124 13.35284052 -15.359375 9.10546875 C-14.72418186 5.38406547 -12.66020984 3.59687151 -10 1 C-6.68873293 -0.65563353 -3.55449211 -0.73287673 0 0 Z " fill="#FFFFFF" transform="translate(402,389)"/>
<path d="M0 0 C3.02508145 1.73602105 5.41790069 3.83580137 7 7 C7.90995934 13.59720522 7.90995934 13.59720522 5.90551758 16.68725586 C0.12458298 22.98842973 -5.89750694 29.04878696 -11.95385742 35.08422852 C-13.82914563 36.95409753 -15.69895465 38.82932899 -17.56835938 40.70507812 C-18.76009565 41.89615461 -19.95214155 43.0869214 -21.14453125 44.27734375 C-21.70284134 44.83767807 -22.26115143 45.39801239 -22.83638 45.97532654 C-26.43903246 49.55604813 -28.24542284 51.14780685 -33.3125 51.25 C-37.3460816 51.19812114 -39.83706906 50.68369898 -43 48 C-44.80133965 45.5982138 -45.0461553 43.73332492 -45.5625 40.75 C-44.15585727 31.37238179 -32.17485674 23.02270226 -25.61889648 16.48852539 C-23.67118197 14.54622735 -21.7289407 12.5985686 -19.78710938 10.65039062 C-18.54980017 9.41374125 -17.31218132 8.17740158 -16.07421875 6.94140625 C-15.49403488 6.35919815 -14.91385101 5.77699005 -14.31608582 5.17713928 C-9.73330286 0.62121519 -6.5860196 -1.12414435 0 0 Z " fill="#FFFFFF" transform="translate(116,389)"/>
<path d="M0 0 C3.97827098 2.14214591 6.34891844 3.78780909 8 8 C8.45022058 12.0623166 7.90491106 15.62491598 5.64239502 19.06298828 C3.78063016 21.1760708 1.83032756 23.12229687 -0.2109375 25.0625 C-0.93487701 25.77986328 -1.65881653 26.49722656 -2.4046936 27.23632812 C-3.93048291 28.74135351 -5.4657357 30.23683837 -7.00976562 31.72314453 C-9.37804511 34.00293132 -11.71826374 36.30871131 -14.0546875 38.62109375 C-15.54272999 40.08229996 -17.03226294 41.54199023 -18.5234375 43 C-19.57825821 44.03265991 -19.57825821 44.03265991 -20.65438843 45.08618164 C-21.64023422 46.03352173 -21.64023422 46.03352173 -22.64599609 47 C-23.22255951 47.556875 -23.79912292 48.11375 -24.39315796 48.6875 C-27.20928379 50.98776665 -29.94150313 51.15802279 -33.4375 51.1875 C-34.58025391 51.20876953 -34.58025391 51.20876953 -35.74609375 51.23046875 C-38.26611365 50.97278907 -39.84488007 50.30997486 -42 49 C-44.24490899 46.08161832 -44.61860251 42.74205547 -44.48168945 39.10083008 C-42.58750824 30.83958865 -30.57862827 22.39256851 -24.67382812 16.48852539 C-22.73538765 14.54787096 -20.80512138 12.59931506 -18.875 10.65039062 C-17.64111374 9.41357473 -16.40675582 8.17722914 -15.171875 6.94140625 C-14.59685242 6.35919815 -14.02182983 5.77699005 -13.42938232 5.17713928 C-9.06961039 0.84231043 -6.1813002 -0.60600982 0 0 Z " fill="#FFFFFF" transform="translate(431,73)"/>
</svg>
