<?xml version="1.0" encoding="UTF-8"?>
<svg version="1.1" xmlns="http://www.w3.org/2000/svg" viewBox="0 0 512 512">
<path d="M0 0 C15.85470031 14.12347926 28.84090292 29.6540068 40.10327148 47.63671875 C40.67126465 48.53583984 40.67126465 48.53583984 41.25073242 49.453125 C53.07860159 68.45157573 60.37855471 89.86334532 65.10327148 111.63671875 C65.36793213 112.77415527 65.36793213 112.77415527 65.63793945 113.93457031 C71.05909608 137.90801021 70.7012704 167.74085813 65.10327148 191.63671875 C64.80525635 192.97645752 64.80525635 192.97645752 64.5012207 194.34326172 C59.40649143 216.87837508 51.12389737 239.47987102 37.93920898 258.62109375 C36.86335907 260.58398583 36.86335907 260.58398583 37.72294235 262.42126274 C39.55927495 265.36861349 41.89170994 267.6802229 44.3526001 270.09963989 C44.89318802 270.6391144 45.43377594 271.1785889 45.99074531 271.73441112 C47.80383563 273.54142829 49.62396303 275.34118792 51.4440918 277.14111328 C52.74543747 278.43534631 54.04631412 279.73005109 55.34675598 281.02519226 C58.1492409 283.81457129 60.9547021 286.60091023 63.76239777 289.3850441 C68.20637524 293.79242804 72.64164507 298.20850412 77.07537842 302.62619019 C89.68514551 315.18766545 102.30651284 327.73744618 114.93676758 340.27832031 C121.91148743 347.20383557 128.87891658 354.13660412 135.83869815 361.07713211 C140.2394373 365.46482734 144.64901617 369.84337416 149.06545973 374.21525884 C151.82000354 376.94623251 154.56604102 379.68563888 157.30982018 382.42742348 C158.57769169 383.69102345 159.84897831 384.95120813 161.12402534 386.20756721 C171.37762571 396.31674566 180.17841577 405.89556241 180.48388672 421.09399414 C180.4528026 433.78577699 178.11237124 443.19946376 169.10327148 452.63671875 C159.87613972 461.44522828 150.25282825 464.26246176 137.73852539 464.10742188 C120.07380216 463.4081235 109.67819634 451.51052722 97.96435547 439.72485352 C96.66298193 438.42291492 95.36116604 437.12141837 94.0589447 435.82032776 C90.54683416 432.30878805 87.04089882 428.79114227 83.53608584 425.27232099 C79.86417243 421.58785502 76.18654626 417.90909999 72.50953674 414.22972107 C65.55720035 407.27118317 58.60997542 400.30756546 51.66459757 393.34208292 C43.75315336 385.40823825 35.83598934 377.48011184 27.91835296 369.55244744 C11.64031178 353.25353438 -4.6305763 336.94749628 -20.89672852 320.63671875 C-24.41483814 321.99101384 -27.56622237 323.56591266 -30.80371094 325.50463867 C-48.12730563 335.79669615 -67.28323111 343.12425775 -86.89672852 347.63671875 C-87.78714844 347.84554688 -88.67756836 348.054375 -89.5949707 348.26953125 C-139.62693066 359.44669586 -194.50788077 349.53684122 -237.89672852 322.63671875 C-264.94929902 305.3055078 -286.88595373 282.79795586 -303.89672852 255.63671875 C-304.27539062 255.03730469 -304.65405273 254.43789063 -305.04418945 253.8203125 C-316.87205862 234.82186177 -324.17201175 213.41009218 -328.89672852 191.63671875 C-329.07316895 190.87842773 -329.24960937 190.12013672 -329.43139648 189.33886719 C-340.27513026 141.38570555 -328.50793412 86.89616989 -302.89672852 45.63671875 C-285.49863216 18.59026148 -263.10209066 -3.32487145 -235.89672852 -20.36328125 C-234.99760742 -20.93127441 -234.99760742 -20.93127441 -234.08032227 -21.51074219 C-215.08187153 -33.33861135 -193.67010194 -40.63856448 -171.89672852 -45.36328125 C-171.1384375 -45.53972168 -170.38014648 -45.71616211 -169.59887695 -45.89794922 C-110.49264329 -59.26374702 -44.98949065 -39.17382303 0 0 Z M-261.43969727 27.16308594 C-283.70793835 49.5601279 -299.50262966 78.99279622 -306.89672852 109.63671875 C-307.09282715 110.41772949 -307.28892578 111.19874023 -307.4909668 112.00341797 C-313.73334061 137.85593093 -313.44749291 167.89045776 -306.89672852 193.63671875 C-306.68773926 194.48250488 -306.47875 195.32829102 -306.26342773 196.19970703 C-294.24253696 243.51789504 -262.52111774 283.01655483 -220.91772461 307.81640625 C-203.08540426 318.14745162 -184.04623121 324.58845676 -163.89672852 328.63671875 C-162.74043945 328.87132812 -161.58415039 329.1059375 -160.39282227 329.34765625 C-116.23011867 337.13112125 -69.05906916 326.25218974 -32.09741211 301.19775391 C9.28851694 272.19263487 36.66968127 230.33653392 45.6652832 180.5246582 C47.21737743 170.89572036 47.50294128 161.42646853 47.47827148 151.69921875 C47.47772766 150.88856964 47.47718384 150.07792053 47.47662354 149.2427063 C47.43502699 135.70669105 46.43267209 122.80634781 43.10327148 109.63671875 C42.89428223 108.78948242 42.68529297 107.94224609 42.4699707 107.06933594 C30.44735728 59.75337271 -1.27391433 20.25594379 -42.87573242 -4.54296875 C-60.70805277 -14.87401412 -79.74722582 -21.31501926 -99.89672852 -25.36328125 C-101.05301758 -25.59789062 -102.20930664 -25.8325 -103.40063477 -26.07421875 C-162.039493 -36.40903668 -219.95588687 -13.87437966 -261.43969727 27.16308594 Z M22.10327148 279.63671875 C20.18098249 281.57700109 18.35449851 283.53633899 16.54077148 285.57421875 C15.45622643 286.77079481 14.37027813 287.96610043 13.28295898 289.16015625 C12.74509766 289.75151367 12.20723633 290.34287109 11.65307617 290.95214844 C6.81881474 296.20678043 1.84992223 301.37307465 -3.89672852 305.63671875 C-2.29299703 309.64189271 0.52441134 312.31382855 3.54858398 315.27734375 C4.07845917 315.80438904 4.60833435 316.33143433 5.15426636 316.87445068 C6.84094974 318.5499755 8.53446712 320.21839597 10.22827148 321.88671875 C11.37586537 323.02427726 12.5230061 324.16229311 13.66967773 325.30078125 C16.47565286 328.0847534 19.28777612 330.86237635 22.10327148 333.63671875 C26.06083266 331.79024575 29.0001621 329.22486818 32.16577148 326.26171875 C32.72997803 325.73803711 33.29418457 325.21435547 33.87548828 324.67480469 C39.60560023 319.28572307 44.89378857 313.52479163 50.10327148 307.63671875 C48.49904149 303.65681287 45.72080451 300.96479559 42.72827148 297.99609375 C42.20313965 297.46904846 41.67800781 296.94200317 41.13696289 296.39898682 C40.02988266 295.29054947 38.92028818 294.18461829 37.80834961 293.08105469 C36.10220173 291.38565574 34.40703101 289.67980265 32.71264648 287.97265625 C31.63516256 286.89649317 30.55705881 285.82095024 29.47827148 284.74609375 C28.96989746 284.23367126 28.46152344 283.72124878 27.93774414 283.19329834 C25.48012641 280.45099797 25.48012641 280.45099797 22.10327148 279.63671875 Z M63.80322266 322.9309082 C63.25641846 323.5312085 62.70961426 324.13150879 62.14624023 324.75 C61.53337158 325.41644531 60.92050293 326.08289063 60.2890625 326.76953125 C59.29990845 327.84847656 59.29990845 327.84847656 58.29077148 328.94921875 C51.86516498 335.89398022 45.2093923 342.39074291 38.10327148 348.63671875 C42.62788982 354.0546643 47.41400064 359.10119295 52.40014648 364.09472656 C53.21068481 364.9102298 54.02122314 365.72573303 54.85632324 366.56594849 C57.51920562 369.24335167 60.18589195 371.91692128 62.85327148 374.58984375 C64.71362365 376.45595236 66.5739752 378.32206158 68.43432617 380.18817139 C71.8297447 383.59313094 75.2269723 386.99627508 78.62564468 390.39798665 C83.61701404 395.39384577 88.60175612 400.39619595 93.58089828 405.40424085 C97.90887748 409.75646285 102.24509917 414.10038613 106.58435059 418.4413681 C108.42403035 420.28407405 110.26120926 422.12928029 112.0958252 423.97702789 C114.65899471 426.55724162 117.23144918 429.12783639 119.80639648 431.69628906 C120.5608606 432.45996796 121.31532471 433.22364685 122.09265137 434.01046753 C127.48964767 439.36491266 132.07063738 443.05281812 139.97827148 443.13671875 C146.92724179 442.93005792 150.9756312 440.94788805 155.70092773 435.9453125 C159.28624787 431.16155666 159.68771452 426.62171159 159.76733398 420.76171875 C157.98825132 412.38956505 151.34786926 406.45748558 145.47338867 400.65039062 C144.61595062 399.7909082 143.75851257 398.93142578 142.87509155 398.04589844 C140.54196863 395.7102975 138.20241388 393.38153397 135.85947323 391.05580711 C133.40447759 388.61593245 130.95767197 386.16786963 128.50982666 383.7208252 C124.40600814 379.62068671 120.29661569 375.52620647 116.18334961 371.43554688 C110.89756855 366.17875675 105.6211941 360.91262737 100.34766769 355.64354706 C95.81251894 351.11236984 91.27311683 346.5854607 86.73301792 342.05924416 C85.27273206 340.60306111 83.81303617 339.1462886 82.35341644 337.68943787 C79.6439504 334.98575331 76.9300654 332.28653234 74.21557617 329.58789062 C73.40416168 328.77759399 72.59274719 327.96729736 71.75674438 327.13244629 C71.02214996 326.40356201 70.28755554 325.67467773 69.53070068 324.92370605 C68.88917431 324.28515434 68.24764793 323.64660263 67.58668137 322.98870087 C65.65157131 321.17838487 65.65157131 321.17838487 63.80322266 322.9309082 Z " fill="#2B0519" transform="translate(331.896728515625,48.36328125)"/>
<path d="M0 0 C1.1088707 -0.01058945 1.1088707 -0.01058945 2.24014282 -0.02139282 C32.97641168 -0.24840581 32.97641168 -0.24840581 45.9765625 3.203125 C47.16427246 3.50911621 47.16427246 3.50911621 48.37597656 3.82128906 C74.61487163 10.73579651 97.8146255 22.75872863 117.80078125 41.21484375 C119.54657624 42.81019321 121.30944352 44.30248232 123.1640625 45.765625 C149.93098244 68.96362228 166.45794596 107.56365743 169.9765625 142.203125 C170.09730544 144.83881852 170.18526983 147.45011045 170.21484375 150.0859375 C170.22967049 151.17813095 170.22967049 151.17813095 170.24479675 152.29238892 C170.42045476 168.60138386 170.34300898 184.36185764 165.9765625 200.203125 C165.58186768 201.63906006 165.58186768 201.63906006 165.17919922 203.10400391 C158.1942917 227.59268645 146.60561684 249.30884325 129.15234375 267.875 C127.45722439 269.68880815 125.88409715 271.5054221 124.3515625 273.453125 C121.19090181 277.11283738 117.7091129 280.13818524 113.9765625 283.203125 C113.04972656 283.96753906 112.12289063 284.73195313 111.16796875 285.51953125 C93.10235916 300.07991637 72.35330466 310.26243556 49.9765625 316.203125 C49.18024414 316.41630371 48.38392578 316.62948242 47.56347656 316.84912109 C23.25217387 323.02738645 -5.84961799 322.86633488 -30.0234375 316.203125 C-31.45937256 315.80843018 -31.45937256 315.80843018 -32.92431641 315.40576172 C-57.59752772 308.36822106 -79.18686065 296.61769335 -97.953125 279.12109375 C-99.65925404 277.54051005 -101.3862674 276.07838862 -103.2109375 274.640625 C-106.88924967 271.45275445 -109.93823278 267.96035451 -113.0234375 264.203125 C-113.78785156 263.27628906 -114.55226562 262.34945313 -115.33984375 261.39453125 C-130.82474884 242.18723419 -140.9637717 220.02896427 -147.0234375 196.203125 C-147.29244873 195.18605469 -147.29244873 195.18605469 -147.56689453 194.1484375 C-152.92358351 172.95573751 -152.62486047 145.30081971 -147.0234375 124.203125 C-146.71744629 123.01541504 -146.71744629 123.01541504 -146.40527344 121.80371094 C-139.49076599 95.56481587 -127.46783387 72.365062 -109.01171875 52.37890625 C-107.41636929 50.63311126 -105.92408018 48.87024398 -104.4609375 47.015625 C-80.00630178 18.79873763 -36.94917535 0.23599172 0 0 Z M-86.0234375 59.203125 C-86.96703125 60.07195312 -87.910625 60.94078125 -88.8828125 61.8359375 C-113.2739718 84.74691552 -128.10302199 118.59619798 -129.40234375 151.91015625 C-130.40075102 189.82358215 -119.71777776 225.66534409 -93.40625 253.71875 C-92.61992188 254.53859375 -91.83359375 255.3584375 -91.0234375 256.203125 C-90.15460938 257.14671875 -89.28578125 258.0903125 -88.390625 259.0625 C-64.6516275 284.33517361 -29.91289105 298.43352897 4.45361328 300.18188477 C40.74027914 301.16502103 76.92760394 288.50108614 103.4921875 263.5859375 C104.31203125 262.79960937 105.131875 262.01328125 105.9765625 261.203125 C106.92015625 260.33429688 107.86375 259.46546875 108.8359375 258.5703125 C133.2270968 235.65933448 148.05614699 201.81005202 149.35546875 168.49609375 C150.35387602 130.58266785 139.67090276 94.74090591 113.359375 66.6875 C112.57304687 65.86765625 111.78671875 65.0478125 110.9765625 64.203125 C109.67332031 62.78773437 109.67332031 62.78773437 108.34375 61.34375 C82.72617287 34.07112968 47.46629007 22.42035928 10.9765625 20.203125 C-25.36902547 20.203125 -59.87582984 34.1244447 -86.0234375 59.203125 Z " fill="#2B0519" transform="translate(190.0234375,39.796875)"/>
<path d="M0 0 C0.92643311 0.01659668 1.85286621 0.03319336 2.80737305 0.05029297 C34.39536763 1.08808052 63.02009999 16.07001175 84.71875 38.56640625 C94.00188866 48.8171124 100.58617312 60.07082093 106.375 72.5625 C106.76816406 73.28179687 107.16132813 74.00109375 107.56640625 74.7421875 C109.10921409 78.21536843 108.92997929 81.85603118 108.375 85.5625 C106.58106332 88.43279869 105.39236724 90.05381638 102.375 91.5625 C95.40343838 92.25965616 95.40343838 92.25965616 91.35546875 89.515625 C87.95722767 86.48817907 86.27795858 83.03823068 84.4375 78.9375 C83.75153801 77.50061936 83.06140548 76.06572255 82.3671875 74.6328125 C82.03041992 73.93575195 81.69365234 73.23869141 81.34667969 72.52050781 C70.16133503 49.98119521 48.9527325 34.40836787 25.47949219 26.43774414 C18.33191937 24.12686864 11.36527736 22.80062785 3.87890625 22.18359375 C2.67415649 22.0748291 2.67415649 22.0748291 1.44506836 21.96386719 C-0.15002588 21.82434621 -1.74710509 21.70551742 -3.34545898 21.61035156 C-7.41099672 21.26125668 -9.27488259 20.8264557 -12.625 18.30078125 C-14.75176494 15.38894097 -15.30549015 14.11386964 -15.25 10.5625 C-15.26289063 9.7375 -15.27578125 8.9125 -15.2890625 8.0625 C-13.1523784 0.0185128 -7.05313072 -0.21425609 0 0 Z " fill="#2B0519" transform="translate(204.625,79.4375)"/>
<path d="M0 0 C3.125 1.875 3.125 1.875 5 5 C5.98876625 10.02622846 5.7769173 13.70513784 3.125 18.125 C-1.29486216 20.7769173 -4.97377154 20.98876625 -10 20 C-13.125 18.125 -13.125 18.125 -15 15 C-15.98876625 9.97377154 -15.7769173 6.29486216 -13.125 1.875 C-8.70513784 -0.7769173 -5.02622846 -0.98876625 0 0 Z " fill="#2B051A" transform="translate(315,190)"/>
</svg>
