<?xml version="1.0" encoding="UTF-8"?>
<svg version="1.1" xmlns="http://www.w3.org/2000/svg" viewBox="0 0 512 512">
<path d="M0 0 C1.479761 -0.00418119 2.9595188 -0.00966299 4.43927073 -0.01631981 C8.47449861 -0.03069055 12.50952078 -0.0265561 16.54475951 -0.019153 C20.90892274 -0.01440267 25.27304265 -0.0269477 29.63719177 -0.03717041 C38.17544635 -0.05432818 46.71362723 -0.05520459 55.25189456 -0.04995751 C62.19608212 -0.04590841 69.14024798 -0.04736814 76.08443451 -0.05270576 C77.56959837 -0.0538284 77.56959837 -0.0538284 79.08476554 -0.05497371 C81.09649843 -0.05650527 83.10823133 -0.05804362 85.11996421 -0.05958868 C103.96780463 -0.07330316 122.81560348 -0.06788376 141.66344294 -0.05640347 C158.88197211 -0.04647543 176.10039375 -0.05940622 193.31890634 -0.08333766 C211.02440896 -0.10775935 228.72986157 -0.11732879 246.4353807 -0.11068493 C256.36540208 -0.10719912 266.29534083 -0.10938239 276.22534943 -0.12693596 C284.67983906 -0.14169651 293.13418789 -0.14224336 301.58867487 -0.12486505 C305.89654544 -0.1163837 310.2041649 -0.11413474 314.51202202 -0.1295166 C318.46628082 -0.14346023 322.42007569 -0.13847811 326.37430832 -0.11927737 C327.79414286 -0.11554638 329.21401544 -0.11835417 330.6338158 -0.12888902 C353.58720637 -0.28690217 373.00139247 8.04653549 389.5668335 23.79393005 C407.64213803 42.85966223 412.51995178 65.75289344 412.42376709 91.03440857 C412.42784266 92.85625013 412.43319002 94.67808921 412.43969727 96.49992371 C412.45325862 101.40277448 412.44811916 106.30543378 412.43856001 111.20828748 C412.43090611 116.36533409 412.43802469 121.52236551 412.44271851 126.67941284 C412.448159 135.33472097 412.4410289 143.98995202 412.42669678 152.64524841 C412.41036842 162.62064747 412.41566706 172.59586256 412.43217599 182.57125717 C412.44583348 191.17129853 412.44768991 199.77128483 412.43985999 208.37133354 C412.4352075 213.4923532 412.43449144 218.61328666 412.44446945 223.73430061 C412.45319937 228.55012154 412.4470083 233.36570749 412.42978668 238.1815033 C412.42585401 239.93815663 412.4268999 241.69483009 412.43357468 243.45147514 C412.51898722 268.23379242 405.70836169 288.4059372 388.0355835 306.38768005 C387.42198975 307.01416443 386.808396 307.6406488 386.1762085 308.28611755 C373.22857219 320.51444073 354.5305112 327.49837461 336.8078537 327.51910782 C335.57141916 327.52294896 334.33498462 327.52679011 333.06108236 327.53074765 C331.69707324 327.52996751 330.33306418 327.52908874 328.96905518 327.52812195 C327.51367441 327.53070719 326.05829436 327.53372079 324.60291529 327.53712535 C320.60733927 327.54518016 316.61178124 327.54698408 312.61619806 327.54772282 C308.30515214 327.54957606 303.9941155 327.55712484 299.68307495 327.56385803 C290.25717229 327.57743188 280.83127389 327.58346482 271.40536308 327.58786869 C265.51658412 327.59063316 259.62780679 327.59487093 253.73902893 327.59937286 C237.426207 327.61156513 221.11338638 327.62186398 204.80056 327.62524796 C203.75675821 327.62546752 202.71295642 327.62568709 201.63752428 327.62591331 C200.59125772 327.62613158 199.54499116 327.62634986 198.46701956 327.62657475 C196.34697056 327.62701822 194.22692156 327.62746478 192.10687256 327.62791443 C191.05526028 327.62813586 190.00364801 327.62835729 188.9201687 327.62858543 C171.89069105 327.63253113 154.86125626 327.64997842 137.83179516 327.67327395 C120.33668391 327.6970127 102.84159415 327.70945098 85.34646654 327.71061587 C75.52821042 327.7115313 65.71001012 327.71725018 55.89176941 327.73543549 C47.52896494 327.75087067 39.16623352 327.75593688 30.8034175 327.74769738 C26.54042541 327.74380274 22.27758029 327.74466216 18.01460648 327.75875473 C14.1034674 327.77156532 10.19258465 327.77023401 6.28144556 327.75816402 C4.87492236 327.75621931 3.46838054 327.75922801 2.06188339 327.76800838 C-21.85493909 327.90772707 -41.91297212 320.16231527 -58.9644165 303.38768005 C-59.737854 302.62713318 -60.5112915 301.8665863 -61.3081665 301.08299255 C-74.9785043 286.80404382 -82.12950418 268.31225959 -82.1048584 248.5788269 C-82.10931508 247.44536122 -82.10931508 247.44536122 -82.1138618 246.28899723 C-82.12248928 243.77297056 -82.12405198 241.2569918 -82.12554932 238.74095154 C-82.13018179 236.93014424 -82.13520702 235.11933792 -82.14059448 233.30853271 C-82.15368097 228.39907324 -82.16015635 223.48962741 -82.16460514 218.58015323 C-82.16754252 215.50770877 -82.17164862 212.43526799 -82.17610931 209.36282539 C-82.18977567 199.73488713 -82.19944599 190.10695733 -82.2033112 180.47901005 C-82.20778702 169.39319716 -82.22531646 158.30750788 -82.2543118 147.22173256 C-82.27598617 138.63460461 -82.28601858 130.04751128 -82.28735232 121.4603563 C-82.28839642 116.34031765 -82.29421951 111.22039533 -82.31217194 106.10038567 C-82.32875195 101.27812991 -82.33076033 96.45607667 -82.32203293 91.63380241 C-82.32126778 89.87392125 -82.32553542 88.11402874 -82.33549118 86.35417557 C-82.46535812 61.94645834 -75.72469161 40.24711556 -58.26519775 22.5009613 C-42.08465504 6.82319016 -22.39041145 -0.10400636 0 0 Z M-45.9644165 39.38768005 C-55.9673276 52.01981482 -60.07672973 65.79283878 -60.09812927 81.86795044 C-60.10039483 82.57615159 -60.10266039 83.28435275 -60.1049946 84.01401454 C-60.11127408 86.36344029 -60.11050915 88.71280745 -60.10968018 91.0622406 C-60.1126755 92.75659255 -60.11607888 94.45094381 -60.11985779 96.14529419 C-60.12866516 100.73232756 -60.13103456 105.31934226 -60.13167357 109.90638328 C-60.13238606 112.77764627 -60.13452416 115.64890457 -60.13717079 118.5201664 C-60.14641423 128.55274887 -60.15050703 138.58531808 -60.14971924 148.61790466 C-60.14911909 157.9438724 -60.15966123 167.26978217 -60.1754629 176.59573525 C-60.18857579 184.62321228 -60.19390155 192.65067046 -60.19326383 200.6781581 C-60.19300989 205.4633331 -60.19580294 210.24845658 -60.20644188 215.03362083 C-60.21618587 219.53903805 -60.21615923 224.04435516 -60.20892525 228.54977608 C-60.20788711 230.19396996 -60.21019589 231.83817028 -60.21628571 233.48235321 C-60.28824353 254.2735426 -57.31380084 271.18445971 -42.64801025 286.86424255 C-27.33920533 301.55872946 -9.30814228 303.54605942 10.89978027 303.52139282 C12.28436668 303.52326421 13.66895255 303.52556622 15.05353761 303.52825814 C18.83485042 303.53434198 22.61614101 303.53424661 26.3974576 303.53306377 C30.48484413 303.5328589 34.57222369 303.53838675 38.65960693 303.54312134 C46.65869103 303.55140958 54.65776776 303.55417535 62.65685579 303.55473372 C69.16202856 303.55520972 75.66719891 303.5572687 82.17237091 303.56043434 C100.63578092 303.56923576 119.09918512 303.57385449 137.56259724 303.57310387 C138.5568956 303.57306391 139.55119395 303.57302396 140.57562256 303.57298279 C141.57114176 303.57294191 142.56666096 303.57290103 143.59234741 303.57285891 C159.72271382 303.57245253 175.85305687 303.5820212 191.98341653 303.59612115 C208.56560434 303.61050113 225.14778078 303.61739045 241.72997499 303.61652738 C251.03172178 303.61619598 260.33344408 303.61891803 269.63518524 303.62970543 C277.55504971 303.63883176 285.47487858 303.64096818 293.39474604 303.63419601 C297.43090593 303.63094161 301.46699762 303.63083484 305.50315094 303.63954926 C309.20683912 303.64746321 312.91040556 303.64593343 316.61409095 303.63726512 C318.56969752 303.63502558 320.52530802 303.64252013 322.48089957 303.65050477 C342.23980548 303.57428214 358.78675798 299.86248816 373.50823975 286.0712738 C389.15354141 269.79911531 390.18882941 250.4850834 390.18084717 229.13865662 C390.18384526 227.5259239 390.18724927 225.9131919 390.19102478 224.30046082 C390.19980276 219.94900027 390.20220026 215.59755943 390.20284057 211.24609089 C390.20355459 208.51935691 390.20569554 205.79262783 390.20833778 203.06589508 C390.21757063 193.53024989 390.22167525 183.99461862 390.22088623 174.45896912 C390.22028597 165.60728838 390.23083302 156.75566868 390.24662989 147.90400338 C390.25975706 140.27303416 390.26506797 132.64208476 390.26443082 125.01110435 C390.26417736 120.46735974 390.26694405 115.92366945 390.27760887 111.37993622 C390.28737753 107.10182627 390.28730978 102.82382163 390.28009224 98.5457077 C390.2790572 96.98781681 390.28134384 95.42991905 390.2874527 93.87203979 C390.35590485 75.18492647 388.61103737 58.8117503 377.0355835 43.38768005 C376.42843506 42.57170349 375.82128662 41.75572693 375.19573975 40.9150238 C366.32341353 30.53456257 353.37155319 24.45138685 340.0355835 22.38768005 C335.33309625 22.10812414 330.64132918 22.1262009 325.9316864 22.14717102 C324.5091116 22.14629777 323.08653711 22.14454458 321.66396433 22.14199269 C317.77351701 22.1375387 313.88318063 22.1454959 309.99274743 22.15554881 C305.79041251 22.16420921 301.58808352 22.16126132 297.38574219 22.15974426 C290.11108361 22.15869705 282.83646098 22.16495655 275.56181145 22.17621994 C265.04397556 22.19249415 254.52615702 22.19768491 244.00830991 22.20019592 C226.94260284 22.20457001 209.87691493 22.21787135 192.81121826 22.23680115 C176.23634944 22.25516735 159.66148583 22.26932024 143.08660889 22.27781677 C142.06443391 22.27834222 141.04225894 22.27886767 139.98910897 22.27940904 C134.86100827 22.28201917 129.73290754 22.28454657 124.60480678 22.28703284 C82.08171909 22.30775643 39.55865228 22.34297417 -2.9644165 22.38768005 C-2.9644165 21.72768005 -2.9644165 21.06768005 -2.9644165 20.38768005 C-19.42488598 19.43803758 -35.10429694 27.21063569 -45.9644165 39.38768005 Z " fill="#2C0519" transform="translate(89.96441650390625,176.61231994628906)"/>
<path d="M0 0 C8.04495995 7.21112533 13.32119682 17.92789532 14.0859375 28.671875 C14.3575139 42.26498858 11.2330352 53.36185707 1.84765625 63.48046875 C-3.24565122 68.35549161 -10.73980267 74.32421875 -18.15234375 74.32421875 C-18.15234375 80.59421875 -18.15234375 86.86421875 -18.15234375 93.32421875 C-25.41234375 93.32421875 -32.67234375 93.32421875 -40.15234375 93.32421875 C-40.15234375 87.05421875 -40.15234375 80.78421875 -40.15234375 74.32421875 C-43.12234375 73.33421875 -46.09234375 72.34421875 -49.15234375 71.32421875 C-60.50645463 65.54487402 -67.30706677 55.86004969 -71.26953125 43.97265625 C-74.13989851 32.11016503 -72.32581803 20.72342052 -66.46484375 10.19921875 C-59.73158631 -0.30400435 -50.72405306 -6.94223941 -38.52734375 -10.05078125 C-24.13706953 -12.55680746 -11.44216626 -8.90869206 0 0 Z M-44.02734375 15.51171875 C-48.20871408 20.11995752 -49.81303111 24.65819087 -50.58984375 30.76171875 C-49.80199615 37.17704921 -47.6087897 42.36949516 -42.77734375 46.76171875 C-37.40709002 50.8777731 -31.88624283 52.16105281 -25.15234375 51.32421875 C-19.13446323 49.3528441 -14.11464888 46.64595213 -10.85546875 41.12890625 C-8.07047121 35.04387738 -7.4157453 29.81954802 -9.15234375 23.32421875 C-12.2985091 17.03188805 -17.27248161 12.39806565 -23.83984375 9.94921875 C-31.50723077 8.50254195 -38.28390471 10.17068626 -44.02734375 15.51171875 Z " fill="#2B0519" transform="translate(285.15234375,20.67578125)"/>
<path d="M0 0 C4.32504836 1.65863505 7.09418825 4.871041 10.25 8.125 C10.80429687 8.68832031 11.35859375 9.25164062 11.9296875 9.83203125 C13.29104485 11.21686028 14.64614859 12.60783204 16 14 C7.38397726 32.90638303 -18.25265093 46.35340433 -36.77734375 53.49609375 C-68.4129223 64.68307168 -102.95471548 62.37350422 -133.17285156 47.96386719 C-142.93884878 43.04706841 -151.5754085 36.93028547 -160 30 C-160.77859375 29.37480469 -161.5571875 28.74960937 -162.359375 28.10546875 C-163.95486207 26.79397838 -165.48779312 25.40670408 -167 24 C-167 23.34 -167 22.68 -167 22 C-167.66 22 -168.32 22 -169 22 C-170.6875 20.75 -170.6875 20.75 -172 19 C-171.59333243 15.6872919 -170.41710988 14.05544648 -168.05859375 11.765625 C-167.18364258 10.90517578 -167.18364258 10.90517578 -166.29101562 10.02734375 C-165.67935547 9.44082031 -165.06769531 8.85429687 -164.4375 8.25 C-163.82197266 7.64800781 -163.20644531 7.04601562 -162.57226562 6.42578125 C-161.05485187 4.94365619 -159.52829404 3.4709033 -158 2 C-153.53487606 3.44194828 -150.50016805 5.92438647 -147.0625 9 C-124.80906658 28.27374723 -100.38905597 38.53278415 -70.56494141 37.19970703 C-42.1521064 34.98747602 -19.42332564 19.68899423 0 0 Z " fill="#2B0519" transform="translate(334,354)"/>
<path d="M0 0 C3.50790671 2.83272351 6.77933743 5.84678586 10 9 C10.64582031 9.63035156 11.29164063 10.26070313 11.95703125 10.91015625 C13.31888622 12.25925379 14.66222533 13.62702073 16 15 C14.32357676 19.25314786 11.2824091 22.12101814 8.125 25.3125 C7.59519531 25.87517578 7.06539063 26.43785156 6.51953125 27.01757812 C4.9453125 28.61328125 4.9453125 28.61328125 2 31 C-2.18667128 30.5516423 -3.85997529 28.29422916 -6.625 25.25 C-13.54836202 18.10165428 -21.12491434 13.97654977 -31.1875 13.75 C-41.45680057 13.92058639 -49.08661778 17.92463815 -56.1328125 25.203125 C-57.48983494 26.63525938 -58.82785154 28.08579212 -60.140625 29.55859375 C-62 31 -62 31 -63.9140625 30.77392578 C-66.30385677 29.88726288 -67.46557628 28.88045643 -69.234375 27.05859375 C-69.80800781 26.47529297 -70.38164062 25.89199219 -70.97265625 25.29101562 C-71.55917969 24.67935547 -72.14570313 24.06769531 -72.75 23.4375 C-73.35199219 22.82197266 -73.95398438 22.20644531 -74.57421875 21.57226562 C-76.05634381 20.05485187 -77.5290967 18.52829404 -79 17 C-73.66726778 5.70234275 -61.49127245 -2.10311237 -50.125 -6.375 C-33.42691449 -12.10717861 -14.62844511 -9.89508293 0 0 Z " fill="#2C0519" transform="translate(392,285)"/>
<path d="M0 0 C3.22847975 2.45799045 6.30541459 5.07300253 9.37109375 7.73046875 C11.52567809 9.59051853 13.69809078 11.32934721 16 13 C14.32357676 17.25314786 11.2824091 20.12101814 8.125 23.3125 C7.59519531 23.87517578 7.06539063 24.43785156 6.51953125 25.01757812 C4.9453125 26.61328125 4.9453125 26.61328125 2 29 C-2.89308893 28.47426657 -6.30113937 24.78085324 -9.95898438 21.76953125 C-17.75262142 15.53094103 -26.05043373 13.14718003 -36 14 C-46.6249937 15.94078832 -53.12093604 21.68319891 -60.140625 29.55859375 C-62 31 -62 31 -63.9140625 30.77392578 C-66.30385677 29.88726288 -67.46557628 28.88045643 -69.234375 27.05859375 C-69.80800781 26.47529297 -70.38164063 25.89199219 -70.97265625 25.29101562 C-71.55917969 24.67935547 -72.14570312 24.06769531 -72.75 23.4375 C-73.35199219 22.82197266 -73.95398438 22.20644531 -74.57421875 21.57226562 C-76.05634381 20.05485187 -77.5290967 18.52829404 -79 17 C-73.66726778 5.70234275 -61.49127245 -2.10311237 -50.125 -6.375 C-33.37628431 -12.12455912 -14.69061786 -9.84823061 0 0 Z " fill="#2B0519" transform="translate(185,285)"/>
<path d="M0 0 C19.8 0 39.6 0 60 0 C60 7.26 60 14.52 60 22 C40.2 22 20.4 22 0 22 C0 14.74 0 7.48 0 0 Z " fill="#2B061A" transform="translate(226,147)"/>
<path d="M0 0 C19.8 0 39.6 0 60 0 C60 7.26 60 14.52 60 22 C40.2 22 20.4 22 0 22 C0 14.74 0 7.48 0 0 Z " fill="#2B061A" transform="translate(226,119)"/>
</svg>
