<?xml version="1.0" encoding="UTF-8"?>
<svg version="1.1" xmlns="http://www.w3.org/2000/svg" width="512" height="512">
<path d="M0 0 C2.48537741 1.145202 4.91095528 2.3746495 7.33900452 3.63685608 C8.25259232 4.09908066 9.16618011 4.56130524 10.10745239 5.03753662 C13.03556806 6.52164024 15.9550473 8.02185393 18.87416077 9.52357483 C22.67268736 11.46161184 26.47446481 13.39322206 30.27650452 15.32435608 C31.24086426 15.81551407 32.205224 16.30667206 33.19880676 16.81271362 C39.72704216 20.12656748 46.30125486 23.32632574 52.91712952 26.46107483 C62.05020215 30.7918911 71.11173987 35.25620776 80.14759827 39.78529358 C80.80522974 40.11484354 81.46286121 40.4443935 82.14042091 40.78392982 C86.86561034 43.15260748 91.58883645 45.52518582 96.31166077 47.89857483 C101.058124 50.28377468 105.80515362 52.66783206 110.55400848 55.04826736 C111.85963921 55.70289423 113.16505644 56.35794709 114.47025299 57.01343918 C122.6072601 61.0983226 130.76049619 65.13766029 139.10081482 68.79522705 C142.73243767 70.43377521 145.40958823 72.1026912 147.93666077 75.21107483 C148.49916077 78.14857483 148.49916077 78.14857483 147.93666077 81.21107483 C144.06171245 85.89992839 139.65284832 88.14902168 134.26869202 90.67982483 C133.43383774 91.08261658 132.59898346 91.48540833 131.73883057 91.90040588 C129.08021837 93.18051115 126.41499474 94.44608871 123.74916077 95.71107483 C121.97720654 96.56035563 120.20571727 97.41060725 118.43470764 98.26185608 C115.87484448 99.49189957 113.31438737 100.72053364 110.75090027 101.94300842 C105.6668718 104.36784976 100.61881096 106.84833464 95.62294006 109.4513092 C93.93666077 110.21107483 93.93666077 110.21107483 91.93666077 110.21107483 C91.93666077 110.87107483 91.93666077 111.53107483 91.93666077 112.21107483 C92.6994635 112.43094055 93.46226624 112.65080627 94.2481842 112.87733459 C99.34643412 114.72084395 104.10507042 117.13263736 108.95228577 119.55091858 C110.00446289 120.07367874 111.05664001 120.5964389 112.14070129 121.13504028 C114.35726738 122.23827287 116.57276151 123.34366148 118.7872467 124.45106506 C122.18433177 126.14741184 125.58761414 127.83085178 128.99134827 129.5138092 C131.1453851 130.58789523 133.29904429 131.66273899 135.45228577 132.73841858 C136.98348053 133.49323769 136.98348053 133.49323769 138.54560852 134.26330566 C139.4870874 134.73712173 140.42856628 135.21093781 141.39857483 135.69911194 C142.22875122 136.11277512 143.05892761 136.52643829 143.91426086 136.95263672 C145.93666077 138.21107483 145.93666077 138.21107483 147.93666077 141.21107483 C148.31166077 144.14857483 148.31166077 144.14857483 147.93666077 147.21107483 C145.28997945 150.33661376 142.56680566 152.14486556 138.92445374 153.96009827 C137.93017365 154.46031494 136.93589355 154.96053162 135.91148376 155.47590637 C134.31132919 156.26520538 134.31132919 156.26520538 132.67884827 157.07044983 C131.57944916 157.61969116 130.48005005 158.1689325 129.34733582 158.7348175 C127.02759999 159.89166882 124.70592462 161.04463796 122.38246155 162.19398499 C118.8137879 163.96002217 115.25184902 165.73878194 111.69056702 167.51966858 C109.43703758 168.64151957 107.18314369 169.76263883 104.92884827 170.88294983 C103.85803009 171.41724609 102.78721191 171.95154236 101.6839447 172.50202942 C100.69596893 172.98963745 99.70799316 173.47724548 98.69007874 173.97962952 C97.81834015 174.41168701 96.94660156 174.84374451 96.04844666 175.28889465 C93.93666077 176.21107483 93.93666077 176.21107483 91.93666077 176.21107483 C91.93666077 176.87107483 91.93666077 177.53107483 91.93666077 178.21107483 C92.78180237 178.47065979 93.62694397 178.73024475 94.49769592 178.99769592 C98.13842006 180.28226209 101.52659508 181.8797476 104.96009827 183.62513733 C105.62393524 183.95847076 106.28777222 184.2918042 106.97172546 184.63523865 C109.08696149 185.69841127 111.19935819 186.76708795 113.31166077 187.83607483 C115.37964764 188.87760856 117.44819878 189.91801518 119.51679993 190.95832825 C120.89469615 191.65237938 122.27177442 192.34805677 123.64802551 193.04536438 C127.24215345 194.86512911 130.8462891 196.65875137 134.47279358 198.41322327 C135.20672333 198.77121002 135.94065308 199.12919678 136.69682312 199.49803162 C138.10047968 200.18163279 139.50724256 200.85890334 140.91746521 201.52885437 C144.23414945 203.15158084 145.84298478 204.07056084 147.93666077 207.21107483 C148.43666077 210.08607483 148.43666077 210.08607483 147.93666077 213.21107483 C143.79857173 217.18046385 139.5093254 219.67007884 134.35072327 222.08998108 C133.60147583 222.45067688 132.85222839 222.81137268 132.08027649 223.18299866 C130.44228491 223.97089018 128.80251933 224.75510184 127.16120911 225.53605652 C122.59284014 227.7108344 118.03868272 229.91502085 113.48353577 232.11732483 C112.4980777 232.59311478 111.51261963 233.06890472 110.49729919 233.55911255 C102.49294218 237.43337352 94.52830801 241.3850598 86.57728577 245.36732483 C85.96630917 245.6733003 85.35533257 245.97927578 84.72584152 246.29452324 C79.23811324 249.04368046 73.75282208 251.79767665 68.26899719 254.55461121 C55.46492164 260.9910631 42.63709522 267.35461755 29.69116211 273.50144958 C21.65886566 277.32132499 13.73910037 281.33158327 5.87220764 285.4825592 C4.91250061 285.97433655 3.95279358 286.46611389 2.96400452 286.97279358 C2.13634583 287.40551575 1.30868713 287.83823792 0.45594788 288.28407288 C-3.53857073 289.75390398 -6.34049388 289.88807963 -10.36300659 288.30740356 C-13.20553651 286.9804547 -15.99180595 285.57019884 -18.77818298 284.12904358 C-19.82494705 283.60023087 -20.87171112 283.07141815 -21.95019531 282.52658081 C-25.30625437 280.82848536 -28.65373376 279.11424091 -32.00083923 277.39857483 C-36.3619319 275.17941045 -40.72622233 272.96657516 -45.09068298 270.75404358 C-46.72871635 269.9215937 -46.72871635 269.9215937 -48.39984131 269.07232666 C-55.34076508 265.55481285 -62.32112433 262.13770159 -69.35240173 258.80482483 C-82.53087901 252.55713663 -95.56200918 246.01935044 -108.59660339 239.47877502 C-112.41494524 237.56342357 -116.23483201 235.65115496 -120.05452919 233.73850822 C-123.11137499 232.20764297 -126.16766963 230.67570062 -129.22261047 229.14103699 C-134.239702 226.62177651 -139.25825428 224.10754363 -144.30210876 221.64222717 C-145.43121422 221.08779182 -145.43121422 221.08779182 -146.58312988 220.52215576 C-147.9081745 219.87291066 -149.23554203 219.2283704 -150.56588745 218.59005737 C-153.51031701 217.14391404 -156.04329708 215.84327739 -158.06333923 213.21107483 C-158.56333923 210.33607483 -158.56333923 210.33607483 -158.06333923 207.21107483 C-154.19850893 202.51769396 -149.7760028 200.27147154 -144.39537048 197.74232483 C-143.5605162 197.33953308 -142.72566193 196.93674133 -141.86550903 196.52174377 C-139.20689684 195.24163851 -136.54167321 193.97606095 -133.87583923 192.71107483 C-132.103885 191.86179403 -130.33239573 191.01154241 -128.56138611 190.16029358 C-126.00152295 188.93025009 -123.44106584 187.70161601 -120.87757874 186.47914124 C-115.79355026 184.0542999 -110.74548942 181.57381501 -105.74961853 178.97084045 C-104.06333923 178.21107483 -104.06333923 178.21107483 -102.06333923 178.21107483 C-102.06333923 177.55107483 -102.06333923 176.89107483 -102.06333923 176.21107483 C-102.82614197 175.99120911 -103.5889447 175.77134338 -104.37486267 175.54481506 C-109.47311259 173.70130571 -114.23174889 171.2895123 -119.07896423 168.87123108 C-120.13114136 168.34847092 -121.18331848 167.82571075 -122.26737976 167.28710938 C-124.48394585 166.18387679 -126.69943998 165.07848817 -128.91392517 163.97108459 C-132.31101024 162.27473782 -135.71429261 160.59129788 -139.11802673 158.90834045 C-141.27206356 157.83425443 -143.42572275 156.75941066 -145.57896423 155.68373108 C-146.59976074 155.18051834 -147.62055725 154.6773056 -148.67228699 154.15884399 C-149.61376587 153.68502792 -150.55524475 153.21121185 -151.5252533 152.72303772 C-152.77051788 152.10254295 -152.77051788 152.10254295 -154.04093933 151.46951294 C-156.06333923 150.21107483 -156.06333923 150.21107483 -158.06333923 147.21107483 C-158.43833923 144.27357483 -158.43833923 144.27357483 -158.06333923 141.21107483 C-155.41665792 138.0855359 -152.69348412 136.2772841 -149.0511322 134.46205139 C-148.05685211 133.96183472 -147.06257202 133.46161804 -146.03816223 132.94624329 C-144.43800766 132.15694427 -144.43800766 132.15694427 -142.80552673 131.35169983 C-141.70612762 130.8024585 -140.60672852 130.25321716 -139.47401428 129.68733215 C-137.15427846 128.53048084 -134.83260309 127.3775117 -132.50914001 126.22816467 C-128.94046637 124.46212749 -125.37852749 122.68336772 -121.81724548 120.90248108 C-119.56371604 119.78063009 -117.30982216 118.65951083 -115.05552673 117.53919983 C-113.98470856 117.00490356 -112.91389038 116.4706073 -111.81062317 115.92012024 C-110.32865952 115.18870819 -110.32865952 115.18870819 -108.8167572 114.44252014 C-107.94501862 114.01046265 -107.07328003 113.57840515 -106.17512512 113.133255 C-104.06333923 112.21107483 -104.06333923 112.21107483 -102.06333923 112.21107483 C-102.06333923 111.55107483 -102.06333923 110.89107483 -102.06333923 110.21107483 C-103.31534119 109.82955261 -103.31534119 109.82955261 -104.59263611 109.44032288 C-108.41932996 108.08499061 -111.98272242 106.37691219 -115.59458923 104.54310608 C-116.30756165 104.18520493 -117.02053406 103.82730377 -117.75511169 103.45855713 C-120.02644091 102.31733282 -122.29493255 101.1705954 -124.56333923 100.02357483 C-126.79594627 98.89975166 -129.02911257 97.77704547 -131.26231384 96.65440369 C-132.72879765 95.91607264 -134.19446274 95.1761131 -135.6592865 94.43449402 C-139.16200818 92.6619593 -142.67143093 90.90913324 -146.20787048 89.20472717 C-146.85445618 88.89041245 -147.50104187 88.57609772 -148.16722107 88.2522583 C-149.91563602 87.40427361 -151.66806371 86.56457669 -153.42076111 85.72547913 C-156.06333923 84.21107483 -156.06333923 84.21107483 -158.06333923 81.21107483 C-158.56333923 78.33607483 -158.56333923 78.33607483 -158.06333923 75.21107483 C-154.0534557 71.38104413 -149.86329118 68.86112222 -144.84458923 66.51576233 C-144.13435608 66.17457367 -143.42412292 65.83338501 -142.69236755 65.4818573 C-141.13949953 64.7365197 -139.58485803 63.99486834 -138.02867126 63.25648499 C-133.68726014 61.19541102 -129.36016696 59.1046543 -125.03208923 57.01576233 C-124.0937323 56.56352295 -123.15537537 56.11128357 -122.18858337 55.64533997 C-108.60284747 49.08025579 -95.13503862 42.27560084 -81.65489197 35.49714661 C-69.1581292 29.21386189 -56.63455119 23.01059621 -43.9987793 17.01116943 C-38.59367373 14.43949616 -33.22558376 11.81309418 -27.90318298 9.07435608 C-26.74109314 8.47816467 -25.5790033 7.88197327 -24.38169861 7.26771545 C-22.65767415 6.37831405 -20.93384563 5.48847945 -19.21543884 4.58827209 C-17.4711852 3.67687524 -15.71853149 2.78161142 -13.96568298 1.88685608 C-12.97044617 1.37034485 -11.97520935 0.85383362 -10.94981384 0.32167053 C-6.92563134 -1.22666798 -4.09962892 -1.56750785 0 0 Z M-11.80039978 16.97401428 C-12.68176353 17.41568184 -12.68176353 17.41568184 -13.58093262 17.86627197 C-15.53916393 18.84865129 -17.49454042 19.83658736 -19.45005798 20.82435608 C-20.82678966 21.51586272 -22.20373121 22.20695167 -23.58087158 22.89764404 C-27.23161422 24.72969093 -30.88012298 26.56613967 -34.52799988 28.40388489 C-40.97866806 31.65321924 -47.43218847 34.8968728 -53.88755798 38.13685608 C-54.58909248 38.48908926 -55.29062698 38.84132244 -56.0134201 39.20422935 C-65.65078595 44.04000252 -75.32690896 48.78019948 -85.06854248 53.40327454 C-94.03977426 57.66152371 -102.94728409 62.04302597 -111.83335876 66.47596741 C-114.51272356 67.81062756 -117.19624633 69.13670356 -119.87974548 70.46302795 C-121.59484755 71.31732725 -123.30970193 72.17212406 -125.02427673 73.02748108 C-125.82191437 73.4201265 -126.619552 73.81277191 -127.44136047 74.21731567 C-131.42657585 75.96927714 -131.42657585 75.96927714 -134.06333923 79.21107483 C-127.16033248 82.67436064 -120.25612798 86.13524693 -113.35053921 89.59338093 C-110.14121829 91.20060899 -106.9322585 92.80854802 -103.72422791 94.41835022 C-90.37379064 101.1170465 -77.00466681 107.75518658 -63.50572205 114.15139771 C-56.45269619 117.50886676 -49.48245671 121.01344689 -42.52818298 124.57044983 C-40.44290261 125.63296177 -38.35761617 126.69546181 -36.27232361 127.75794983 C-33.09754919 129.37649148 -29.92570156 130.99993153 -26.76036072 132.63685608 C-23.62773835 134.25442663 -20.48542613 135.85160146 -17.34068298 137.44544983 C-16.39386154 137.94107422 -15.4470401 138.43669861 -14.4715271 138.94734192 C-13.5852211 139.39241089 -12.6989151 139.83747986 -11.78575134 140.29603577 C-11.01573288 140.69143555 -10.24571442 141.08683533 -9.45236206 141.49421692 C-4.10325677 143.09928674 0.37971222 140.7354596 5.12782288 138.33460999 C5.71598282 138.04001892 6.30414276 137.74542786 6.91012573 137.44190979 C8.84859294 136.46874641 10.78117136 135.48443642 12.71400452 134.50013733 C14.0848397 133.8097042 15.45606855 133.1200522 16.82766724 132.43113708 C20.44728891 130.61086556 24.06219803 128.78143329 27.67597961 126.94960022 C33.37994771 124.06015988 39.09074048 121.18420438 44.80139732 118.30801201 C46.2038649 117.60155524 47.60616875 116.89477335 49.00831032 116.18766975 C58.61716248 111.3433247 68.26859268 106.60663901 77.99281311 101.99703979 C87.5224246 97.47656785 96.95054525 92.76009568 106.37416077 88.02357483 C108.09997508 87.15814669 109.82588642 86.29291203 111.55189514 85.4278717 C115.681261 83.35781203 119.80934467 81.28521812 123.93666077 79.21107483 C121.4598359 76.39135322 118.79666082 74.95669537 115.45326233 73.29115295 C114.32648071 72.7262616 113.1996991 72.16137024 112.03877258 71.57936096 C110.80169696 70.96684055 109.56453213 70.35450029 108.32728577 69.74232483 C107.04122373 69.10082676 105.75540038 68.45884998 104.46980286 67.81642151 C101.76134108 66.46449502 99.05096523 65.11651525 96.33900452 63.7716217 C92.93558708 62.08378534 89.53548913 60.38940431 86.13666058 58.69234943 C72.84386361 52.05618778 59.52161216 45.49562994 46.10025024 39.12249756 C34.89889212 33.79050143 23.83781143 28.17850096 12.76844788 22.57899475 C10.01763018 21.18861916 7.264427 19.80306561 4.51087952 18.41810608 C3.25654366 17.78084343 3.25654366 17.78084343 1.97686768 17.13070679 C0.82714226 16.55331001 0.82714226 16.55331001 -0.34580994 15.96424866 C-1.01812149 15.62436417 -1.69043304 15.28447968 -2.38311768 14.93429565 C-6.06643679 13.3488779 -8.41909583 15.27150317 -11.80039978 16.97401428 Z M-90.54771423 121.92201233 C-91.70174744 122.50321838 -92.85578064 123.08442444 -94.04478455 123.6832428 C-94.66019104 123.99404785 -95.27559753 124.30485291 -95.90965271 124.62507629 C-108.54303985 131.00252678 -121.25360186 137.19438 -134.06333923 143.21107483 C-134.06333923 143.87107483 -134.06333923 144.53107483 -134.06333923 145.21107483 C-133.26482544 145.60093567 -133.26482544 145.60093567 -132.45018005 145.99867249 C-105.42455072 159.19613809 -78.43441576 172.45507233 -51.56919861 185.97669983 C-39.23232996 192.17769875 -26.83906168 198.25043567 -14.33274841 204.10371399 C-12.43649698 205.02899208 -10.59990477 206.07523745 -8.7830658 207.14808655 C-6.1121757 208.46691356 -6.1121757 208.46691356 -3.33970642 207.71131897 C1.2595052 205.60534614 5.82322052 203.44781177 10.35853577 201.20716858 C11.39117554 200.70053177 12.42381531 200.19389496 13.48774719 199.67190552 C16.88933751 198.001401 20.28804848 196.32512876 23.68666077 194.64857483 C26.05898023 193.48175288 28.43137711 192.31508831 30.80384827 191.14857483 C49.24561057 182.0739517 67.63774949 172.90008079 85.9981842 163.66200256 C98.56755796 157.34526495 111.2083814 151.20137972 123.93666077 145.21107483 C123.93666077 144.55107483 123.93666077 143.89107483 123.93666077 143.21107483 C117.36033193 139.52239227 110.72780645 135.95537624 104.04530334 132.46278381 C101.78426581 131.26377076 99.53695102 130.03847383 97.30506897 128.786026 C85.46719907 121.62365478 85.46719907 121.62365478 72.21855164 119.48197937 C66.97119598 121.01616466 62.57331344 123.75434367 58.08030701 126.80943298 C54.7880617 128.96209638 51.27658557 130.53674449 47.70619202 132.16810608 C46.38541251 132.80328041 45.06630979 133.44195335 43.74891663 134.0841217 C40.9945396 135.42020486 38.238652 136.75309771 35.48182678 138.0841217 C28.86627338 141.28475626 22.27982948 144.5241665 15.75697327 147.91029358 C14.67053528 148.47063293 13.58409729 149.03097229 12.46473694 149.60829163 C10.46794204 150.64383618 8.47792722 151.69260932 6.49647522 152.75721741 C5.60919739 153.21636536 4.72191956 153.67551331 3.80775452 154.14857483 C3.05421692 154.54947327 2.30067932 154.9503717 1.52430725 155.36341858 C-5.79386486 157.7606913 -10.69841774 155.84700282 -17.3079834 152.52911377 C-18.33197739 151.99490311 -19.35597137 151.46069244 -20.41099548 150.91029358 C-21.49932175 150.35928482 -22.58764801 149.80827606 -23.70895386 149.24057007 C-27.18911879 147.47488228 -30.65763601 145.68762569 -34.12583923 143.89857483 C-37.53005007 142.15994979 -40.93657374 140.42592607 -44.34346008 138.69255066 C-46.59037343 137.54932443 -48.83649323 136.40453715 -51.08180237 135.25816345 C-58.73665807 131.35931936 -66.4355505 127.56401752 -74.18443298 123.85560608 C-75.66134361 123.147873 -75.66134361 123.147873 -77.16809082 122.42584229 C-83.84612157 119.08280374 -83.84612157 119.08280374 -90.54771423 121.92201233 Z M-90.81016541 187.41419983 C-91.77093491 187.89469788 -92.73170441 188.37519592 -93.72158813 188.87025452 C-94.75604568 189.39522522 -95.79050323 189.92019592 -96.85630798 190.46107483 C-97.9174733 190.99377991 -98.97863861 191.52648499 -100.07196045 192.07533264 C-103.46777037 193.78164829 -106.85931823 195.49625276 -110.25083923 197.21107483 C-112.54939192 198.36787229 -114.84821669 199.52412928 -117.14732361 200.67982483 C-122.78917026 203.51730584 -128.42753788 206.36160725 -134.06333923 209.21107483 C-131.62376225 211.97310047 -129.04821294 213.40313453 -125.76353455 215.03919983 C-124.67679443 215.58407043 -123.59005432 216.12894104 -122.47038269 216.69032288 C-121.2893396 217.27467102 -120.10829651 217.85901917 -118.89146423 218.46107483 C-117.65024262 219.08015248 -116.40925982 219.69970914 -115.16850281 220.31971741 C-112.55419723 221.62456589 -109.93797963 222.92546748 -107.32017517 224.22328186 C-104.03782025 225.85059668 -100.75877776 227.48443852 -97.48100948 229.12096882 C-84.48476227 235.60868714 -71.45399535 242.00891146 -58.32794189 248.23101807 C-51.62343381 251.42501023 -45.00355244 254.76468387 -38.40318298 258.16810608 C-36.50025677 259.14415126 -34.59726246 260.12006366 -32.69419861 261.09584045 C-29.80794648 262.57637123 -26.92556801 264.06295811 -24.05137634 265.56678772 C-21.1985512 267.05650437 -18.33380635 268.52061109 -15.46568298 269.98060608 C-14.60635666 270.4376442 -13.74703033 270.89468231 -12.86166382 271.36557007 C-11.65232933 271.97322456 -11.65232933 271.97322456 -10.41856384 272.59315491 C-9.71960495 272.95524551 -9.02064606 273.31733612 -8.30050659 273.69039917 C-3.43780346 274.82213889 1.31833535 271.64258476 5.57704163 269.49647522 C7.2068119 268.67905602 7.2068119 268.67905602 8.86950684 267.84512329 C10.61784569 266.96085915 10.61784569 266.96085915 12.40150452 266.05873108 C13.63799549 265.43733935 14.87469935 264.81637108 16.11160278 264.19580078 C19.3743203 262.55780198 22.6347923 260.91538747 25.89460754 259.2716217 C31.66517731 256.36222828 37.43866589 253.45864527 43.21400452 250.55873108 C43.84445427 250.24204027 44.47490402 249.92534946 45.12445831 249.59906197 C54.27056291 245.00799399 63.46346945 240.52565038 72.70803833 236.13578796 C82.04372005 231.69964978 91.31245997 227.13333864 100.56117249 222.51893616 C103.3853886 221.1118418 106.21376748 219.71332913 109.04212952 218.31459045 C110.8483777 217.41471871 112.6543778 216.5143488 114.46009827 215.61341858 C115.72217606 214.99163979 115.72217606 214.99163979 117.00975037 214.3572998 C117.77630951 213.97251968 118.54286865 213.58773956 119.33265686 213.19129944 C120.00718903 212.85585617 120.68172119 212.5204129 121.37669373 212.17480469 C123.11704219 211.28854712 123.11704219 211.28854712 123.93666077 209.21107483 C117.20217586 205.75515497 110.45684999 202.32115632 103.70350647 198.90223694 C101.40699861 197.7363725 99.11302788 196.56549645 96.82167053 195.38954163 C93.52929469 193.70094271 90.22824141 192.03052555 86.92494202 190.36341858 C85.90080704 189.83328659 84.87667206 189.3031546 83.82150269 188.75695801 C82.38057503 188.03609764 82.38057503 188.03609764 80.91053772 187.30067444 C80.06892593 186.87209641 79.22731415 186.44351837 78.36019897 186.00195312 C73.24054045 184.33124424 69.20565633 186.89410118 64.63685608 189.19862366 C64.02635406 189.50445877 63.41585205 189.81029388 62.78684998 190.12539673 C60.77664855 191.13407981 58.77079377 192.15111266 56.76478577 193.16810608 C55.3588905 193.87512656 53.95269657 194.58155342 52.54621887 195.28741455 C48.84485574 197.14664655 45.14697503 199.01269655 41.44996643 200.88056946 C35.54862404 203.86084126 29.64223782 206.83109695 23.73551178 209.80068016 C21.68450262 210.83309695 19.635085 211.86861717 17.58589172 212.90463257 C14.04518444 214.69212525 10.49418692 216.4572772 6.93666077 218.21107483 C5.59976196 218.87663895 5.59976196 218.87663895 4.2358551 219.5556488 C-0.00436245 221.57364554 -3.28263905 222.97876105 -8.06333923 222.21107483 C-10.79335592 221.13200114 -13.30820723 220.00774622 -15.91490173 218.68763733 C-16.67525726 218.31426743 -17.43561279 217.94089752 -18.2190094 217.55621338 C-20.71445363 216.32728079 -23.20121409 215.08174533 -25.68833923 213.83607483 C-27.4192693 212.98045812 -29.15072171 212.12589737 -30.88267517 211.27235413 C-39.79058887 206.87302534 -48.6659506 202.4088707 -57.53990173 197.94154358 C-58.36974579 197.52441101 -59.19958984 197.10727844 -60.05458069 196.67750549 C-64.03319602 194.67734666 -68.00822467 192.67077164 -71.97593689 190.64906311 C-73.40603185 189.92608421 -74.83620333 189.20325664 -76.26646423 188.48060608 C-77.23877487 187.98043221 -77.23877487 187.98043221 -78.23072815 187.47015381 C-83.3879533 184.87690265 -85.72179798 184.84998318 -90.81016541 187.41419983 Z " fill="#FFFFFF" transform="translate(261.06333923339844,111.78892517089844)"/>
<path d="M0 0 C5.45550697 4.95210182 8.26859513 11.03785804 9.26171875 18.296875 C9.61534156 26.45301409 7.14655287 32.0651526 2.7578125 38.77734375 C-2.36244198 43.67497847 -8.88750104 47.1169009 -16.0546875 47.59375 C-24.09339165 47.33492809 -29.50896406 44.91574524 -36.1171875 40.52734375 C-49.19628193 47.72754354 -62.24825961 54.95591204 -75.1171875 62.52734375 C-83.99320721 67.74495838 -92.9335831 72.83318 -101.9296875 77.83984375 C-102.52257568 78.17089111 -103.11546387 78.50193848 -103.72631836 78.84301758 C-105.40314874 79.7784927 -107.0823824 80.70965601 -108.76171875 81.640625 C-109.72440674 82.17469971 -110.68709473 82.70877441 -111.67895508 83.2590332 C-114.1171875 84.52734375 -114.1171875 84.52734375 -117.1171875 85.52734375 C-117.1171875 169.34734375 -117.1171875 253.16734375 -117.1171875 339.52734375 C-115.4671875 340.18734375 -113.8171875 340.84734375 -112.1171875 341.52734375 C-110.25220679 342.4942569 -108.40291548 343.49176388 -106.56640625 344.51171875 C-105.48794434 345.10992432 -104.40948242 345.70812988 -103.29833984 346.32446289 C-102.1336589 346.97519027 -100.96911154 347.62615678 -99.8046875 348.27734375 C-99.20827454 348.60958954 -98.61186157 348.94183533 -97.99737549 349.28414917 C-88.62690266 354.50491242 -79.3399187 359.85827355 -70.0925293 365.29443359 C-58.86569217 371.88056943 -47.49583308 378.20813165 -36.1171875 384.52734375 C-35.60857178 384.1830835 -35.09995605 383.83882324 -34.57592773 383.48413086 C-27.37628639 378.76996972 -20.04166192 376.53173436 -11.3671875 378.08984375 C-3.0457619 380.48244171 2.43149051 385.17680547 6.8828125 392.52734375 C9.85606612 398.60899888 9.80901745 405.7116012 8.23046875 412.21484375 C5.7224117 419.27615458 2.03973386 424.43647435 -4.734375 427.84375 C-12.83380959 431.06333134 -19.58719367 431.65567196 -27.875 428.64453125 C-34.05723617 425.56418361 -39.63151612 420.2332501 -42.21337891 413.79296875 C-43.16902249 410.34005448 -43.11293379 407.68595495 -42.9765625 404.125 C-43.25333041 400.02755578 -43.4464457 398.1964968 -46.38476562 395.26513672 C-49.61640404 393.25299443 -52.92504783 391.57260751 -56.3671875 389.96484375 C-57.61212048 389.33720651 -58.85437665 388.70423352 -60.09399414 388.06616211 C-62.59021978 386.78615088 -65.09577023 385.52865695 -67.61181641 384.28808594 C-72.36763056 381.89924824 -76.96059006 379.27293953 -81.5546875 376.58984375 C-83.22452428 375.62892798 -84.89511901 374.66932831 -86.56640625 373.7109375 C-87.87230713 372.96046143 -87.87230713 372.96046143 -89.20458984 372.19482422 C-91.94642743 370.62510497 -94.69268325 369.06352776 -97.4410553 367.5052948 C-99.96226179 366.07571567 -102.4820181 364.64358994 -105.0017395 363.21139526 C-106.22544026 362.51667628 -107.44976493 361.82305487 -108.67477417 361.13064575 C-126.71178068 350.93275057 -126.71178068 350.93275057 -131.1171875 346.52734375 C-131.3724885 344.56627625 -131.3724885 344.56627625 -131.38004303 342.10975933 C-131.38772532 341.17531071 -131.39540761 340.2408621 -131.4033227 339.27809685 C-131.40158973 338.24455899 -131.39985677 337.21102113 -131.39807129 336.14616394 C-131.40401353 335.05359089 -131.40995578 333.96101783 -131.41607809 332.83533651 C-131.43351493 329.1495526 -131.43647383 325.46389813 -131.43945312 321.77807617 C-131.44870502 319.14553039 -131.45875373 316.51298731 -131.46954346 313.88044739 C-131.49673284 306.71104412 -131.50876314 299.54166319 -131.51756477 292.37221694 C-131.52308598 287.8973078 -131.53156003 283.42240733 -131.54057312 278.94750404 C-131.56496178 266.56286123 -131.58555952 254.17822538 -131.5923233 241.79355907 C-131.59276244 241.00056731 -131.59320157 240.20757555 -131.59365401 239.39055373 C-131.59409056 238.59564117 -131.59452712 237.8007286 -131.5949769 236.98172778 C-131.59586384 235.37087516 -131.59675697 233.76002254 -131.59765625 232.14916992 C-131.59809911 231.35012772 -131.59854197 230.55108551 -131.59899825 229.72782991 C-131.60689524 216.7787784 -131.64180471 203.82995193 -131.68837529 190.88098737 C-131.73577994 177.59307509 -131.76072598 164.30527577 -131.76305914 151.01727754 C-131.76489399 143.55385071 -131.77643158 136.09071702 -131.81269836 128.62737083 C-131.8434706 122.27224616 -131.85375956 115.91750518 -131.83722216 109.5623202 C-131.82939761 106.31890232 -131.83457089 103.07642072 -131.85933685 99.83306503 C-131.88460956 96.31786293 -131.87311712 92.80466025 -131.85217285 89.28947449 C-131.86828566 88.26262879 -131.88439847 87.23578309 -131.90099955 86.17782086 C-131.80682503 79.4448847 -131.80682503 79.4448847 -129.83383369 76.81988204 C-128.25165558 75.46909046 -128.25165558 75.46909046 -125.1171875 73.52734375 C-123.68838257 72.62145508 -123.68838257 72.62145508 -122.23071289 71.69726562 C-121.23547607 71.13587891 -120.24023926 70.57449219 -119.21484375 69.99609375 C-117.52681641 69.03799805 -117.52681641 69.03799805 -115.8046875 68.06054688 C-114.5964136 67.38270654 -113.38807875 66.70497485 -112.1796875 66.02734375 C-110.91765729 65.31370157 -109.65594276 64.59950084 -108.39453125 63.88476562 C-105.22632042 62.09131875 -102.05439079 60.30457401 -98.88116455 58.52001953 C-96.30029917 57.06764091 -93.72236857 55.61008858 -91.14453125 54.15234375 C-88.39372468 52.59680809 -85.64267863 51.04172102 -82.89013672 49.48925781 C-73.59737648 44.24568382 -64.33647993 38.94658789 -55.078125 33.64257812 C-53.93988281 32.99095703 -52.80164063 32.33933594 -51.62890625 31.66796875 C-50.61272217 31.08563477 -49.59653809 30.50330078 -48.54956055 29.90332031 C-47.09049421 29.07793661 -45.61655612 28.27702806 -44.1171875 27.52734375 C-43.7601014 24.74951616 -43.7601014 24.74951616 -43.6796875 21.46484375 C-43.18744348 13.71624388 -41.89083632 7.15295029 -36.1171875 1.52734375 C-24.53825668 -6.5190319 -12.18304745 -8.47418614 0 0 Z M-25.1171875 11.52734375 C-27.90664149 14.75723784 -29.01237776 16.79367555 -29.6171875 21.02734375 C-28.93728738 25.78664461 -27.17014277 28.91430747 -23.3671875 31.90234375 C-18.94633446 33.13035848 -15.18897304 33.60689483 -11.078125 31.46484375 C-7.73440411 28.93297279 -5.742019 26.71994996 -4.9921875 22.52734375 C-4.83195972 18.53690903 -5.86858353 15.86148067 -8.1171875 12.52734375 C-13.09138188 7.37549957 -19.47490874 7.6404406 -25.1171875 11.52734375 Z M-28.4921875 398.33984375 C-29.83049665 403.02392576 -29.67503447 406.41164981 -27.4921875 410.77734375 C-24.81036926 413.88260698 -23.00699271 415.23074201 -19.1171875 416.52734375 C-13.83886361 416.43474158 -10.80486392 415.32038235 -7.1171875 411.52734375 C-4.93977532 407.96430563 -4.71679052 404.66044499 -5.390625 400.53125 C-6.79978788 396.64468787 -9.52496845 394.42016686 -13.1171875 392.52734375 C-19.37267716 390.96347133 -24.63632243 393.25711251 -28.4921875 398.33984375 Z " fill="#FFFFFF" transform="translate(187.1171875,43.47265625)"/>
<path d="M0 0 C6.46742935 4.42990293 10.51261405 9.53784214 13 17 C12.96447021 17.94883057 12.92894043 18.89766113 12.89233398 19.87524414 C12.80078401 23.53484099 12.99152376 26.47271538 14 30 C17.48943039 33.51855369 21.6036279 35.36185992 26.0625 37.4375 C27.2990041 38.05895203 28.53270682 38.68600657 29.76367188 39.31835938 C32.2834204 40.60997454 34.81200196 41.8810522 37.34814453 43.14013672 C42.71462475 45.83611275 47.84792515 48.91921173 53 52 C59.35913457 55.75467797 65.7485614 59.4405844 72.21875 63 C72.82678467 63.33491455 73.43481934 63.6698291 74.0612793 64.01489258 C77.0086518 65.63635959 79.96010519 67.24924556 82.91796875 68.8515625 C96.03516667 76.03516667 96.03516667 76.03516667 101 81 C101.10196579 82.42863639 101.13473455 83.86227501 101.1398077 85.29453659 C101.14549894 86.22699416 101.15119018 87.15945173 101.15705389 88.12016559 C101.15823376 89.15661629 101.15941364 90.19306699 101.16062927 91.26092529 C101.16571709 92.35264392 101.17080491 93.44436255 101.17604691 94.56916356 C101.19184807 98.25802176 101.20031655 101.94686027 101.20874023 105.63574219 C101.21827245 108.26813891 101.22816332 110.90053435 101.23838806 113.53292847 C101.26770401 121.4554685 101.28686564 129.37802012 101.30378041 137.30059516 C101.30857311 139.53724283 101.31355671 141.77389 101.31858563 144.01053715 C101.34955581 157.89089953 101.37624995 171.77126602 101.39300442 185.65165329 C101.39695412 188.86868039 101.40095709 192.08570742 101.4050293 195.30273438 C101.40603766 196.10234208 101.40704602 196.90194979 101.40808494 197.72578803 C101.42509481 210.68136036 101.46620524 223.63674177 101.51705229 236.59222087 C101.56879364 249.884612 101.59794213 263.17690487 101.6052013 276.46939588 C101.60986816 283.93620383 101.62466685 291.40269924 101.6649456 298.86940765 C101.69920542 305.22820251 101.71320169 311.58662848 101.70052146 317.94551036 C101.69468453 321.19095662 101.70188472 324.43545674 101.7286911 327.68082047 C101.75619731 331.19824693 101.74694009 334.71370051 101.72825623 338.23114014 C101.74505115 339.25866795 101.76184608 340.28619577 101.77914995 341.34486079 C101.68937416 348.08279252 101.68937416 348.08279252 99.71594155 350.70843077 C98.13290501 352.05966568 98.13290501 352.05966568 95 354 C94.05793701 354.59868896 93.11587402 355.19737793 92.14526367 355.81420898 C91.16275635 356.36923096 90.18024902 356.92425293 89.16796875 357.49609375 C87.49492676 358.44669678 87.49492676 358.44669678 85.78808594 359.41650391 C84.58795937 360.09029173 83.38776226 360.76395392 82.1875 361.4375 C80.93363943 362.14712946 79.68006299 362.85726119 78.42675781 363.56787109 C69.3747845 368.6930033 60.28952066 373.75922547 51.203125 378.82299805 C42.60847903 383.62576676 34.09819409 388.56698609 25.61230469 393.55908203 C24.20126465 394.38835205 24.20126465 394.38835205 22.76171875 395.234375 C21.93631592 395.72131836 21.11091309 396.20826172 20.26049805 396.70996094 C18 398 18 398 15.73168945 399.00268555 C15.16023193 399.33179932 14.58877441 399.66091309 14 400 C13.44110869 402.81081808 13.44110869 402.81081808 13.5 406.0625 C13.03581695 415.21497876 10.57004397 421.31034403 3.796875 427.5625 C-1.74391249 431.99512999 -7.68560563 433.40587229 -14.69140625 433.2734375 C-22.03488976 432.40365096 -28.63159769 429.61003386 -33.5625 424.0390625 C-38.57216122 416.93296696 -40.03131826 409.57283307 -39 401 C-37.55215094 393.74782745 -33.08082767 387.88400652 -27.08203125 383.64453125 C-19.79377689 379.6148976 -12.67916966 379.58462909 -4.65234375 381.0390625 C-0.75029506 382.45276497 2.55344374 384.71439462 6 387 C19.07909443 379.79980021 32.13107211 372.57143171 45 365 C53.87601971 359.78238537 62.8163956 354.69416375 71.8125 349.6875 C72.70183228 349.19092896 72.70183228 349.19092896 73.60913086 348.68432617 C75.28596124 347.74885105 76.9651949 346.81768774 78.64453125 345.88671875 C79.60721924 345.35264404 80.56990723 344.81856934 81.56176758 344.26831055 C84 343 84 343 87 342 C87 258.18 87 174.36 87 88 C85.35 87.34 83.7 86.68 82 86 C80.32749163 85.12972154 78.67055965 84.22908479 77.02734375 83.3046875 C76.05974121 82.76191162 75.09213867 82.21913574 74.09521484 81.65991211 C73.05316895 81.07089111 72.01112305 80.48187012 70.9375 79.875 C69.84131348 79.25826416 68.74512695 78.64152832 67.61572266 78.00610352 C58.17724122 72.68670501 48.7694257 67.31361308 39.36791992 61.92919922 C28.27075695 55.57427683 17.14059345 49.27841294 6 43 C5.49138428 43.34426025 4.98276855 43.68852051 4.45874023 44.04321289 C-2.74090111 48.75737403 -10.07552558 50.99560939 -18.75 49.4375 C-27.0714256 47.04490204 -32.54867801 42.35053828 -37 35 C-39.97325362 28.91834487 -39.92620495 21.81574255 -38.34765625 15.3125 C-35.8395992 8.25118917 -32.15692136 3.0908694 -25.3828125 -0.31640625 C-16.54458811 -3.82966165 -8.68871764 -4.29128637 0 0 Z M-22.875 15.6875 C-24.51822235 19.06523482 -25.11996164 22.24370099 -25 26 C-23.31159746 30.1272062 -20.81281825 32.71230905 -17 35 C-13.01881649 35.72678807 -9.90913261 35.38385599 -6.1875 33.8125 C-2.49725434 30.75486788 -1.1695145 28.33189965 -0.5625 23.5625 C-1.09120375 19.2573409 -2.17342768 17.27287321 -5 14 C-11.53572315 9.99853685 -16.9742619 10.37683571 -22.875 15.6875 Z M-24 401 C-25.61046825 405.16244102 -25.30543124 408.14800758 -23.8125 412.3125 C-21.09587645 416.34059699 -19.35347424 417.64909927 -14.625 418.875 C-10.34570193 419.022562 -8.51233792 418.41961057 -5 416 C-2.21054601 412.77010591 -1.10480974 410.7336682 -0.5 406.5 C-1.17990012 401.74069914 -2.94704473 398.61303628 -6.75 395.625 C-14.1632669 393.56575919 -19.37520365 394.70921072 -24 401 Z " fill="#FFFFFF" transform="translate(355,41)"/>
</svg>
