<?xml version="1.0" encoding="UTF-8"?>
<svg version="1.1" xmlns="http://www.w3.org/2000/svg" viewBox="0 0 512 512">
<path d="M0 0 C8.83284029 7.70065526 16.90833307 15.63518839 24 25 C24.72316406 25.9075 25.44632812 26.815 26.19140625 27.75 C40.65313795 46.26101657 51.34323769 68.18198342 57 91 C57.19464844 91.76779785 57.38929688 92.5355957 57.58984375 93.32666016 C63.70507456 118.64191712 63.54033861 147.80599227 57 173 C56.81808105 173.74507812 56.63616211 174.49015625 56.44873047 175.2578125 C53.61140846 186.73895107 49.14592914 197.37559819 44 208 C43.68160156 208.66273926 43.36320312 209.32547852 43.03515625 210.00830078 C22.81067469 251.53772115 -15.50655765 282.05084437 -58.54931641 297.16748047 C-64.29630669 299.1197854 -70.07017657 300.68859674 -76 302 C-77.2065625 302.29777344 -78.413125 302.59554688 -79.65625 302.90234375 C-102.47267059 307.97518418 -129.48649833 306.86364513 -152 301 C-152.82242188 300.79632813 -153.64484375 300.59265625 -154.4921875 300.3828125 C-181.26222174 293.62775713 -205.57074741 280.49561963 -226 262 C-226.86753906 261.25234375 -227.73507813 260.5046875 -228.62890625 259.734375 C-253.18118385 238.37120388 -275.77858084 205.76646349 -280.98046875 173.01171875 C-281.01684866 169.26458836 -280.00987312 167.17689621 -278 164 C-275.29013532 161.72957283 -273.54816936 161.08164224 -270.0625 160.5625 C-266.23012182 161.1099826 -263.65549041 162.2148013 -261 165 C-259.28760821 168.45317832 -258.23074491 172.0648759 -257.125 175.75 C-253.89476801 185.73442445 -250.05208297 194.81812102 -245 204 C-244.43667969 205.051875 -243.87335938 206.10375 -243.29296875 207.1875 C-232.95366614 225.78371641 -218.20149746 241.61360262 -201 254 C-200.42588379 254.4223291 -199.85176758 254.8446582 -199.26025391 255.27978516 C-167.4668482 278.49387633 -127.77710714 287.83610963 -89 282 C-47.51469663 274.61541128 -11.04654644 251.54296283 13.265625 217.078125 C34.87064556 185.45427556 44.84314135 144.71377924 37.875 106.6875 C37.29926545 104.09536795 36.68720454 101.55991537 36 99 C35.71793701 97.86908936 35.71793701 97.86908936 35.43017578 96.71533203 C29.24583561 72.2288873 17.39307727 51.06385952 1 32 C0.39414062 31.27167969 -0.21171875 30.54335937 -0.8359375 29.79296875 C-4.85544314 25.03685688 -9.17491864 20.93095109 -14 17 C-14.94746094 16.2265625 -15.89492188 15.453125 -16.87109375 14.65625 C-49.26425662 -11.27042394 -88.98117564 -23.25217922 -130.24609375 -18.7890625 C-169.89653039 -13.79865681 -206.98675211 8.06688482 -231.63671875 39.3203125 C-244.05508413 55.4303886 -252.74298297 73.12512187 -258.78833008 92.53051758 C-259.0386499 93.33255615 -259.28896973 94.13459473 -259.546875 94.9609375 C-259.86736816 96.03480713 -259.86736816 96.03480713 -260.19433594 97.13037109 C-261.61804955 100.43424954 -263.82397378 101.56767445 -267 103 C-270.91069858 103.6517831 -272.66449435 103.1613008 -276.25 101.4375 C-279.68366032 98.39402835 -280.12105624 96.46410907 -281 92 C-276.53494537 55.0538617 -246.73184185 17.62745279 -218.7109375 -4.64453125 C-197.67267024 -20.89885025 -173.81771263 -31.9169225 -148 -38 C-146.08960938 -38.47953125 -146.08960938 -38.47953125 -144.140625 -38.96875 C-93.74192819 -50.21840337 -38.55227855 -33.07490564 0 0 Z " fill="#2B0519" transform="translate(368,124)"/>
<path d="M0 0 C8.64822802 6.87119486 15.44311132 18.01837448 17 29 C18.40895106 46.55709566 15.56638733 59.95954698 4.4140625 73.99609375 C-1.78141329 80.78089529 -10.28674186 85.34588719 -19 88 C-17.25976562 88.05607422 -17.25976562 88.05607422 -15.484375 88.11328125 C6.53121042 88.96658019 23.5819011 95.01349193 39 111 C39.66386719 111.63292969 40.32773437 112.26585937 41.01171875 112.91796875 C45.03006327 117.00855317 47.64371483 121.69273569 50.25 126.75 C50.57967773 127.38123779 50.90935547 128.01247559 51.24902344 128.6628418 C56.75377266 139.89348805 57.53489513 151.15414092 57.50097656 163.4387207 C57.49999187 165.95831424 57.54201133 168.47497505 57.5859375 170.99414062 C57.5911373 172.60936873 57.59383281 174.22460728 57.59375 175.83984375 C57.61014526 176.5857225 57.62654053 177.33160126 57.64343262 178.1000824 C57.59405744 181.82312553 57.20833564 183.73246983 54.90039062 186.69617271 C51.30882191 189.54901396 49.52462833 189.62802102 44.97851562 189.63491821 C43.93609333 189.64661814 43.93609333 189.64661814 42.872612 189.65855443 C40.5499479 189.6784575 38.22892548 189.66271855 35.90625 189.64697266 C34.23875982 189.65374961 32.57127712 189.66265318 30.90380859 189.67352295 C26.37893315 189.69631392 21.85462782 189.68748092 17.32974243 189.67162752 C12.59416163 189.65896744 7.8586296 189.67070893 3.12304688 189.67855835 C-4.82951623 189.6876546 -12.78184715 189.67566766 -20.734375 189.65185547 C-29.92825171 189.62464421 -39.12157404 189.63345839 -48.31543732 189.6609875 C-56.20944209 189.68367827 -64.10327998 189.68687881 -71.99730682 189.67379415 C-76.71192004 189.66599946 -81.42627267 189.66495852 -86.14086914 189.68147659 C-90.57340441 189.69592169 -95.00522503 189.6858993 -99.43768311 189.65700531 C-101.06425795 189.65039465 -102.69089295 189.65229191 -104.31744385 189.66331863 C-106.53861249 189.67698798 -108.75749279 189.65984651 -110.97851562 189.63491821 C-112.22105103 189.63303308 -113.46358643 189.63114796 -114.74377441 189.6292057 C-118.92427314 188.82140122 -120.41305026 187.32198141 -123 184 C-123.47672817 181.07587803 -123.65776362 178.75205071 -123.59375 175.83984375 C-123.59379028 175.05412491 -123.59383057 174.26840607 -123.59387207 173.45887756 C-123.58852251 171.79712932 -123.57096349 170.13538124 -123.54199219 168.47387695 C-123.50052811 165.96939852 -123.50089668 163.46765098 -123.5078125 160.96289062 C-123.46146164 148.87630309 -122.06399115 137.90947854 -116.5 127 C-116.16033203 126.328479 -115.82066406 125.65695801 -115.47070312 124.96508789 C-111.71494227 117.92136259 -106.70899378 112.50600734 -101 107 C-100.36707031 106.33613281 -99.73414063 105.67226563 -99.08203125 104.98828125 C-85.06451689 91.21831682 -65.67274008 88.60167718 -47 88 C-47.76183594 87.72027344 -48.52367187 87.44054687 -49.30859375 87.15234375 C-63.77260953 81.53647745 -72.93497348 72.91354729 -79.73828125 59.02734375 C-84.71432258 47.0879257 -85.18167816 31.77157795 -80.328125 19.671875 C-73.21396853 5.35986609 -63.65763227 -4.22320677 -48.5 -9.9375 C-31.15922583 -14.42702082 -14.16405817 -10.55009087 0 0 Z M-57 21 C-62.09105238 29.00442917 -62.71612339 36.62901394 -62 46 C-60.19183983 53.36335107 -55.28636615 60.27374506 -48.875 64.3515625 C-40.8371213 68.45915493 -32.23604399 69.53133625 -23.359375 67.3515625 C-15.39234902 64.0923246 -9.20308232 58.67058816 -5.69140625 50.796875 C-2.88285304 43.49781017 -2.5687491 34.44305775 -5.5625 27.125 C-10.31664256 18.16719455 -16.49614479 13.16795174 -26 10 C-38.88681747 8.989594 -48.22519621 11.15316136 -57 21 Z M-75.25 114.5625 C-75.92401855 114.91328613 -76.59803711 115.26407227 -77.29248047 115.62548828 C-89.59089095 122.32698188 -96.82341732 133.20648223 -101.25390625 146.27734375 C-103.31147724 153.78586197 -103 161.22168562 -103 169 C-96.4 169 -89.8 169 -83 169 C-82.90912109 166.34517578 -82.90912109 166.34517578 -82.81640625 163.63671875 C-82.73200248 161.32030405 -82.64735439 159.00389824 -82.5625 156.6875 C-82.52318359 155.52025391 -82.48386719 154.35300781 -82.44335938 153.15039062 C-82.40146484 152.03212891 -82.35957031 150.91386719 -82.31640625 149.76171875 C-82.27974854 148.73006592 -82.24309082 147.69841309 -82.20532227 146.63549805 C-82 144 -82 144 -81 141 C-78.05173237 140.01724412 -76.07347496 139.86585275 -73 139.875 C-72.13375 139.87242187 -71.2675 139.86984375 -70.375 139.8671875 C-68 140 -68 140 -65 141 C-62.0410212 149.87693641 -63.37398543 159.65036415 -63 169 C-43.2 169 -23.4 169 -3 169 C-2.67 160.75 -2.34 152.5 -2 144 C-1.67 143.01 -1.34 142.02 -1 141 C1.94826763 140.01724412 3.92652504 139.86585275 7 139.875 C7.86625 139.87242187 8.7325 139.86984375 9.625 139.8671875 C12 140 12 140 15 141 C16.03714522 144.11143567 16.20031861 146.49468096 16.31640625 149.76171875 C16.35830078 150.87998047 16.40019531 151.99824219 16.44335938 153.15039062 C16.48267578 154.31763672 16.52199219 155.48488281 16.5625 156.6875 C16.60568359 157.86634766 16.64886719 159.04519531 16.69335938 160.25976562 C16.79951094 163.17303626 16.90026629 166.0865026 17 169 C23.6 169 30.2 169 37 169 C37 150.87150108 34.33061485 136.56851705 21.3203125 123.1171875 C17.79792306 119.90315538 14.16400118 117.31495171 10 115 C8.95585937 114.41605469 8.95585937 114.41605469 7.890625 113.8203125 C-3.81250006 107.96874997 -17.46374408 108.68090798 -30.2109375 108.73925781 C-32.99501317 108.74998079 -35.7784438 108.73930642 -38.5625 108.7265625 C-57.50867385 108.60006003 -57.50867385 108.60006003 -75.25 114.5625 Z " fill="#2B0519" transform="translate(289,157)"/>
<path d="M0 0 C6.02760374 3.83928765 7.41991829 7.85917275 9.3125 14.5625 C23.13105629 59.27119805 53.98738115 99.04939864 92 126 C92.63260742 126.45068848 93.26521484 126.90137695 93.91699219 127.36572266 C113.36008615 141.08634894 134.8222058 152.1796913 157.92919922 158.2355957 C161.69924603 159.62725057 163.00046494 161.53413922 165 165 C165.55724601 168.9703778 165.38142821 171.18265383 163.6875 174.8125 C161.78688542 177.27625964 160.20184471 178.82679341 157.03491211 179.28320312 C151.44573641 179.27823 146.81105789 178.3795231 141.5625 176.5 C140.79172119 176.23227783 140.02094238 175.96455566 139.22680664 175.6887207 C107.96282581 164.55903533 79.78812871 147.10403947 55.6171875 124.4296875 C53.51938621 122.48217645 51.39690227 120.62911965 49.1875 118.8125 C46.08681637 116.18999408 43.48643533 113.26614988 40.86328125 110.171875 C38.90460514 107.88880599 36.86239992 105.70133397 34.8125 103.5 C14.18385154 80.4978353 -15.04137493 40.41313167 -14.32421875 8.0859375 C-13.82236009 4.85711192 -12.36720701 3.16430355 -10 1 C-6.34711807 -0.21762731 -3.84245864 -0.39075851 0 0 Z " fill="#2B0519" transform="translate(42,305)"/>
<path d="M0 0 C2.905894 0.60264468 5.6458393 1.50029858 8.4375 2.5 C9.20827881 2.76772217 9.97905762 3.03544434 10.77319336 3.3112793 C42.03717419 14.44096467 70.21187129 31.89596053 94.3828125 54.5703125 C96.48061379 56.51782355 98.60309773 58.37088035 100.8125 60.1875 C103.91318363 62.81000592 106.51356467 65.73385012 109.13671875 68.828125 C111.09539486 71.11119401 113.13760008 73.29866603 115.1875 75.5 C135.81614846 98.5021647 165.04137493 138.58686833 164.32421875 170.9140625 C163.82236009 174.14288808 162.36720701 175.83569645 160 178 C156.34711807 179.21762731 153.84245864 179.39075851 150 179 C143.97239626 175.16071235 142.58008171 171.14082725 140.6875 164.4375 C126.86894371 119.72880195 96.01261885 79.95060136 58 53 C57.36739258 52.54931152 56.73478516 52.09862305 56.08300781 51.63427734 C36.63991385 37.91365106 15.1777942 26.8203087 -7.92919922 20.7644043 C-11.69924603 19.37274943 -13.00046494 17.46586078 -15 14 C-15.55724601 10.0296222 -15.38142821 7.81734617 -13.6875 4.1875 C-9.80246686 -0.84865407 -5.83995943 -0.53700776 0 0 Z " fill="#2B0519" transform="translate(320,28)"/>
<path d="M0 0 C3.5386994 1.65139305 4.81070153 2.71605229 7 6 C7.87005883 12.09797098 6.59946224 17.60065965 4.5625 23.3125 C4.29663086 24.07884766 4.03076172 24.84519531 3.75683594 25.63476562 C-7.56162163 57.34695592 -25.5833643 85.87476088 -48.5703125 110.3828125 C-50.51782355 112.48061379 -52.37088035 114.60309773 -54.1875 116.8125 C-56.81000592 119.91318363 -59.73385012 122.51356467 -62.828125 125.13671875 C-65.11119401 127.09539486 -67.29866603 129.13760008 -69.5 131.1875 C-81.59117555 142.04375366 -94.97349146 150.86481602 -109 159 C-109.77585449 159.46341797 -110.55170898 159.92683594 -111.35107422 160.40429688 C-117.04775554 163.72431094 -121.35165043 165.42713263 -128 164 C-131.73325038 161.48577015 -132.74796824 159.86635918 -134 155.5625 C-134 151.21825756 -133.43471044 149.61381236 -131 146 C-127.90457758 143.75302854 -124.57060899 142.02364007 -121.1875 140.25 C-112.28679 135.37918388 -104.05124995 130.16177799 -96 124 C-95.12472656 123.33613281 -94.24945313 122.67226563 -93.34765625 121.98828125 C-78.17784297 110.17356096 -63.6451311 96.30941452 -52 81 C-51.51031738 80.3596582 -51.02063477 79.71931641 -50.51611328 79.05957031 C-42.28602269 68.22457722 -35.19137082 57.11343903 -29 45 C-28.60828613 44.24106445 -28.21657227 43.48212891 -27.81298828 42.70019531 C-22.71349237 32.71990351 -18.59514598 22.74607987 -15.55786133 11.94018555 C-13.14204721 3.8794217 -9.28262436 -1.35019991 0 0 Z " fill="#2B0519" transform="translate(477,305)"/>
<path d="M0 0 C3.73325038 2.51422985 4.74796824 4.13364082 6 8.4375 C6 12.7730674 5.42362572 14.39159071 3 18 C-0.03269352 20.20590716 -3.3060668 21.89047034 -6.625 23.625 C-33.23593483 38.19857879 -57.78861459 58.59933591 -76 83 C-76.72364746 83.94963623 -76.72364746 83.94963623 -77.46191406 84.91845703 C-85.70098908 95.76131988 -92.80322188 106.87598159 -99 119 C-99.5875708 120.13840332 -99.5875708 120.13840332 -100.18701172 121.29980469 C-105.28650763 131.28009649 -109.40485402 141.25392013 -112.44213867 152.05981445 C-114.17350112 157.83679195 -115.86464987 160.71390808 -121 164 C-124.9703778 164.55724601 -127.18265383 164.38142821 -130.8125 162.6875 C-133.27840283 160.7852321 -134.82865402 159.2009105 -135.28100586 156.03051758 C-135.27178514 150.49501467 -134.41765446 145.88953364 -132.5625 140.6875 C-132.29663086 139.92115234 -132.03076172 139.15480469 -131.75683594 138.36523438 C-120.45279183 106.6934279 -102.45859157 78.16119418 -79.49609375 53.68359375 C-77.36940178 51.39715027 -75.32927439 49.07012916 -73.3125 46.6875 C-70.54842951 43.51465852 -67.61126069 40.74162541 -64.3984375 38.02734375 C-62.56681173 36.47911284 -60.76707051 34.91099072 -58.9765625 33.31640625 C-46.88255513 22.6189519 -33.92575082 13.51995522 -20.0625 5.25 C-19.21099365 4.7240625 -18.3594873 4.198125 -17.48217773 3.65625 C-11.71175754 0.31491903 -6.68975128 -1.21067958 0 0 Z " fill="#2B0519" transform="translate(163,43)"/>
<path d="M0 0 C3.58598889 2.54054385 6.15992797 5.04327701 8.4921875 8.765625 C8.90210938 9.38695312 9.31203125 10.00828125 9.734375 10.6484375 C13.58244889 17.62804738 13.74273274 26.02607545 12.4921875 33.765625 C10.09120579 41.34186763 6.27912589 47.51322792 -0.5078125 51.765625 C-1.12914062 52.17554688 -1.75046875 52.58546875 -2.390625 53.0078125 C-9.37023488 56.85588639 -17.76826295 57.01617024 -25.5078125 55.765625 C-33.08405513 53.36464329 -39.25541542 49.55256339 -43.5078125 42.765625 C-43.91773438 42.14429688 -44.32765625 41.52296875 -44.75 40.8828125 C-48.59807389 33.90320262 -48.75835774 25.50517455 -47.5078125 17.765625 C-45.10683079 10.18938237 -41.29475089 4.01802208 -34.5078125 -0.234375 C-33.88648438 -0.64429688 -33.26515625 -1.05421875 -32.625 -1.4765625 C-22.455808 -7.08315125 -9.72162164 -5.63801363 0 0 Z M-26.5078125 21.765625 C-27.20628375 24.6053114 -27.20628375 26.9259386 -26.5078125 29.765625 C-24.51859364 32.7494533 -23.12278682 34.36839341 -19.5703125 35.2421875 C-15.64717758 35.52453433 -13.83668879 34.98487586 -10.5078125 32.765625 C-8.28856164 29.43674871 -7.74890317 27.62625992 -8.03125 23.703125 C-8.90504409 20.15065068 -10.5239842 18.75484386 -13.5078125 16.765625 C-19.32444453 15.33492115 -23.11596156 16.67784859 -26.5078125 21.765625 Z " fill="#2C051A" transform="translate(273.5078125,456.234375)"/>
<path d="M0 0 C3.58598889 2.54054385 6.15992797 5.04327701 8.4921875 8.765625 C8.90210938 9.38695312 9.31203125 10.00828125 9.734375 10.6484375 C13.58244889 17.62804738 13.74273274 26.02607545 12.4921875 33.765625 C10.09120579 41.34186763 6.27912589 47.51322792 -0.5078125 51.765625 C-1.12914062 52.17554688 -1.75046875 52.58546875 -2.390625 53.0078125 C-9.37023488 56.85588639 -17.76826295 57.01617024 -25.5078125 55.765625 C-33.08405513 53.36464329 -39.25541542 49.55256339 -43.5078125 42.765625 C-43.91773438 42.14429688 -44.32765625 41.52296875 -44.75 40.8828125 C-48.59807389 33.90320262 -48.75835774 25.50517455 -47.5078125 17.765625 C-45.10683079 10.18938237 -41.29475089 4.01802208 -34.5078125 -0.234375 C-33.88648438 -0.64429688 -33.26515625 -1.05421875 -32.625 -1.4765625 C-22.455808 -7.08315125 -9.72162164 -5.63801363 0 0 Z M-26.5078125 21.765625 C-27.20628375 24.6053114 -27.20628375 26.9259386 -26.5078125 29.765625 C-24.51859364 32.7494533 -23.12278682 34.36839341 -19.5703125 35.2421875 C-15.64717758 35.52453433 -13.83668879 34.98487586 -10.5078125 32.765625 C-8.28856164 29.43674871 -7.74890317 27.62625992 -8.03125 23.703125 C-8.90504409 20.15065068 -10.5239842 18.75484386 -13.5078125 16.765625 C-19.32444453 15.33492115 -23.11596156 16.67784859 -26.5078125 21.765625 Z " fill="#2C051A" transform="translate(499.5078125,230.234375)"/>
<path d="M0 0 C3.58598889 2.54054385 6.15992797 5.04327701 8.4921875 8.765625 C8.90210938 9.38695312 9.31203125 10.00828125 9.734375 10.6484375 C13.58244889 17.62804738 13.74273274 26.02607545 12.4921875 33.765625 C10.09120579 41.34186763 6.27912589 47.51322792 -0.5078125 51.765625 C-1.12914062 52.17554688 -1.75046875 52.58546875 -2.390625 53.0078125 C-9.37023488 56.85588639 -17.76826295 57.01617024 -25.5078125 55.765625 C-33.08405513 53.36464329 -39.25541542 49.55256339 -43.5078125 42.765625 C-43.91773438 42.14429688 -44.32765625 41.52296875 -44.75 40.8828125 C-48.59807389 33.90320262 -48.75835774 25.50517455 -47.5078125 17.765625 C-45.10683079 10.18938237 -41.29475089 4.01802208 -34.5078125 -0.234375 C-33.88648438 -0.64429688 -33.26515625 -1.05421875 -32.625 -1.4765625 C-22.455808 -7.08315125 -9.72162164 -5.63801363 0 0 Z M-26.5078125 21.765625 C-27.20628375 24.6053114 -27.20628375 26.9259386 -26.5078125 29.765625 C-24.51859364 32.7494533 -23.12278682 34.36839341 -19.5703125 35.2421875 C-15.64717758 35.52453433 -13.83668879 34.98487586 -10.5078125 32.765625 C-8.28856164 29.43674871 -7.74890317 27.62625992 -8.03125 23.703125 C-8.90504409 20.15065068 -10.5239842 18.75484386 -13.5078125 16.765625 C-19.32444453 15.33492115 -23.11596156 16.67784859 -26.5078125 21.765625 Z " fill="#2C051A" transform="translate(47.5078125,230.234375)"/>
<path d="M0 0 C3.58598889 2.54054385 6.15992797 5.04327701 8.4921875 8.765625 C8.90210938 9.38695312 9.31203125 10.00828125 9.734375 10.6484375 C13.58244889 17.62804738 13.74273274 26.02607545 12.4921875 33.765625 C10.09120579 41.34186763 6.27912589 47.51322792 -0.5078125 51.765625 C-1.12914062 52.17554688 -1.75046875 52.58546875 -2.390625 53.0078125 C-9.37023488 56.85588639 -17.76826295 57.01617024 -25.5078125 55.765625 C-33.08405513 53.36464329 -39.25541542 49.55256339 -43.5078125 42.765625 C-43.91773438 42.14429688 -44.32765625 41.52296875 -44.75 40.8828125 C-48.59807389 33.90320262 -48.75835774 25.50517455 -47.5078125 17.765625 C-45.10683079 10.18938237 -41.29475089 4.01802208 -34.5078125 -0.234375 C-33.88648438 -0.64429688 -33.26515625 -1.05421875 -32.625 -1.4765625 C-22.455808 -7.08315125 -9.72162164 -5.63801363 0 0 Z M-26.5078125 21.765625 C-27.20628375 24.6053114 -27.20628375 26.9259386 -26.5078125 29.765625 C-24.51859364 32.7494533 -23.12278682 34.36839341 -19.5703125 35.2421875 C-15.64717758 35.52453433 -13.83668879 34.98487586 -10.5078125 32.765625 C-8.28856164 29.43674871 -7.74890317 27.62625992 -8.03125 23.703125 C-8.90504409 20.15065068 -10.5239842 18.75484386 -13.5078125 16.765625 C-19.32444453 15.33492115 -23.11596156 16.67784859 -26.5078125 21.765625 Z " fill="#2C051A" transform="translate(273.5078125,4.234375)"/>
<path d="M0 0 C3.125 1.875 3.125 1.875 5 5 C5.98876625 10.02622846 5.7769173 13.70513784 3.125 18.125 C-1.29486216 20.7769173 -4.97377154 20.98876625 -10 20 C-13.125 18.125 -13.125 18.125 -15 15 C-15.98876625 9.97377154 -15.7769173 6.29486216 -13.125 1.875 C-8.70513784 -0.7769173 -5.02622846 -0.98876625 0 0 Z " fill="#2B051A" transform="translate(321,462)"/>
<path d="M0 0 C3.125 1.875 3.125 1.875 5 5 C5.98876625 10.02622846 5.7769173 13.70513784 3.125 18.125 C-1.29486216 20.7769173 -4.97377154 20.98876625 -10 20 C-13.125 18.125 -13.125 18.125 -15 15 C-15.98876625 9.97377154 -15.7769173 6.29486216 -13.125 1.875 C-8.70513784 -0.7769173 -5.02622846 -0.98876625 0 0 Z " fill="#2B051A" transform="translate(98,246)"/>
<path d="M0 0 C3.125 1.875 3.125 1.875 5 5 C5.98876625 10.02622846 5.7769173 13.70513784 3.125 18.125 C-1.29486216 20.7769173 -4.97377154 20.98876625 -10 20 C-13.125 18.125 -13.125 18.125 -15 15 C-15.98876625 9.97377154 -15.7769173 6.29486216 -13.125 1.875 C-8.70513784 -0.7769173 -5.02622846 -0.98876625 0 0 Z " fill="#2B051A" transform="translate(201,30)"/>
</svg>
