<?xml version="1.0" encoding="UTF-8"?>
<svg version="1.1" xmlns="http://www.w3.org/2000/svg" width="512" height="512">
<path d="M0 0 C3.56975159 3.00183656 3.56975159 3.00183656 4.0234375 6.30078125 C4.05695313 7.06777344 4.09046875 7.83476562 4.125 8.625 C4.17398437 9.38425781 4.22296875 10.14351562 4.2734375 10.92578125 C3.47907688 14.54782854 1.5482196 15.94622034 -1.25 18.3125 C-3.5445891 19.74839529 -5.81899929 21.07646575 -8.1875 22.375 C-16.29578606 26.99649073 -24.12403394 32.01966805 -31.90847778 37.16183472 C-33.25117916 38.04736291 -34.59642818 38.92904132 -35.94430542 39.80667114 C-48.79628685 47.70483901 -48.79628685 47.70483901 -56.25 60.3125 C-57.80982268 70.70584479 -54.11335293 79.76886037 -48 88.0625 C-41.38522404 95.95431513 -34.89912286 102.27041444 -24.46875 103.69140625 C-18.89487394 104.02899926 -14.89401477 103.48511595 -10.03515625 100.671875 C-9.08358643 100.12732666 -8.1320166 99.58277832 -7.15161133 99.02172852 C-5.71531372 98.1756604 -5.71531372 98.1756604 -4.25 97.3125 C-3.35756592 96.79550537 -2.46513184 96.27851074 -1.5456543 95.74584961 C1.14507314 94.17842356 3.82339717 92.5914092 6.5 91 C7.45084473 90.43966064 8.40168945 89.87932129 9.38134766 89.30200195 C13.7027172 86.74952663 18.00060939 84.17675464 22.2265625 81.46875 C22.89333008 81.04762939 23.56009766 80.62650879 24.24707031 80.19262695 C25.99370898 79.0833797 27.72787753 77.95456349 29.4609375 76.82421875 C33.6974302 74.87704218 36.12243652 74.85592642 40.75 75.3125 C43.45327174 76.61027562 44.62226706 78.08097521 46.75 80.3125 C48.44146061 85.38688183 47.97526129 90.71303686 47.99023438 96.02661133 C47.99991783 98.10734373 48.03094366 100.18707832 48.0625 102.26757812 C48.06903307 103.60155667 48.07428235 104.93554224 48.078125 106.26953125 C48.0874707 107.47585205 48.09681641 108.68217285 48.10644531 109.92504883 C47.51079812 115.58573708 44.75057378 119.57526085 41.34375 124 C40.68793945 124.85650146 40.03212891 125.71300293 39.35644531 126.59545898 C38.66131836 127.49208252 37.96619141 128.38870605 37.25 129.3125 C36.53166992 130.24586182 35.81333984 131.17922363 35.07324219 132.14086914 C32.97067495 134.86879726 30.86089774 137.59101629 28.75 140.3125 C27.7238 141.64440928 26.69773829 142.97642512 25.671875 144.30859375 C19.75935821 151.94876655 13.60321188 159.36018323 7.23193359 166.62207031 C6.24922375 167.7430395 5.27032931 168.86736579 4.29541016 169.99511719 C-1.88105558 177.12553417 -8.05587802 184.24779267 -17.25 187.3125 C-18.81685543 187.42214862 -20.38773953 187.47851194 -21.95825195 187.50195312 C-23.39168694 187.52702942 -23.39168694 187.52702942 -24.8540802 187.5526123 C-25.88836655 187.56618774 -26.92265289 187.57976318 -27.98828125 187.59375 C-29.06063522 187.61215942 -30.1329892 187.63056885 -31.23783875 187.64953613 C-34.67933616 187.70832648 -38.12088596 187.76102132 -41.5625 187.8125 C-44.9648296 187.86426669 -48.36710231 187.91753498 -51.76933289 187.97546387 C-53.8853321 188.01143683 -56.00139334 188.0440017 -58.11750793 188.0723877 C-60.12440519 188.10626678 -62.1310372 188.16380289 -64.13659668 188.24452209 C-67.25 188.3125 -67.25 188.3125 -70.59973145 188.07273865 C-78.57463109 187.85175377 -82.88292803 189.80730013 -88.53076172 195.11743164 C-91.14088038 197.68033533 -93.66135745 200.31996946 -96.1796875 202.97265625 C-97.54685908 204.36411243 -98.91695771 205.75269811 -100.28982544 207.13853455 C-103.87359353 210.77164209 -107.41658045 214.44206092 -110.95214844 218.12200928 C-114.57553077 221.87902928 -118.23658574 225.59894438 -121.89453125 229.32226562 C-129.05012445 236.61675424 -136.16313385 243.95126557 -143.25 251.3125 C-142.29947729 252.4289222 -141.3478835 253.54443255 -140.39584351 254.65956116 C-139.86604071 255.28085938 -139.33623791 255.90215761 -138.79038048 256.54228306 C-136.85584709 258.76546352 -134.81770808 260.85760139 -132.7265625 262.93359375 C-131.53740234 264.11791992 -131.53740234 264.11791992 -130.32421875 265.32617188 C-129.51597656 266.12603516 -128.70773437 266.92589844 -127.875 267.75 C-126.62783203 268.99040039 -126.62783203 268.99040039 -125.35546875 270.25585938 C-123.3225896 272.27705531 -121.28740037 274.29586335 -119.25 276.3125 C-114.0494284 271.97419934 -109.23927083 267.3967462 -104.5 262.5625 C-103.19508065 261.23204406 -101.88788029 259.90382052 -100.578125 258.578125 C-100.0099707 257.99836914 -99.44181641 257.41861328 -98.85644531 256.82128906 C-95.9075751 254.05168148 -93.66102278 252.91201208 -89.6875 252.625 C-85.14196964 252.8118729 -83.1250465 253.81290409 -79.84448242 256.92944336 C-78.97471771 257.75072723 -78.104953 258.57201111 -77.20883179 259.41818237 C-76.22073319 260.38108946 -75.23456524 261.34598037 -74.25 262.3125 C-73.7117371 262.83767841 -73.1734742 263.36285683 -72.6189003 263.90394974 C-68.14542676 268.27827321 -63.72118087 272.70106253 -59.30078125 277.12890625 C-57.8746725 278.55433974 -56.44841547 279.97962489 -55.02201843 281.4047699 C-52.04943023 284.37589257 -49.0786357 287.34879379 -46.10913086 290.32299805 C-42.320077 294.11775893 -38.52653618 297.90799753 -34.73164082 301.69691563 C-31.79145268 304.63347602 -28.85366789 307.5724315 -25.91658592 310.51209831 C-24.51919941 311.91014743 -23.1210821 313.30746652 -21.72219276 314.70401192 C-9.03575296 327.37384488 -9.03575296 327.37384488 -3.77537537 333.56251526 C-0.85586991 336.91191379 2.32407748 340.00851787 5.4765625 343.13671875 C6.18726898 343.84601028 6.89797546 344.55530182 7.63021851 345.28608704 C9.87611477 347.52644485 12.12547627 349.76328512 14.375 352 C15.89085837 353.5108336 17.40648534 355.0218994 18.921875 356.53320312 C21.70120954 359.30441632 24.48185116 362.07430255 27.26416016 364.8425293 C28.42610717 365.9991858 29.58805382 367.15584267 30.75 368.3125 C31.24840897 368.80795319 31.74681793 369.30340637 32.2603302 369.81387329 C45.50079757 383.00304026 51.9230105 398.98780345 52.1875 417.625 C52.02447926 437.64474259 44.76176464 454.2758397 30.6953125 468.4375 C29.7154719 469.3978068 28.73382923 470.35627994 27.75 471.3125 C26.57050781 472.488125 26.57050781 472.488125 25.3671875 473.6875 C10.8127731 487.459419 -7.49029324 491.99588626 -26.94140625 491.625 C-49.85313105 490.64324425 -65.56350847 477.32042855 -81.00195312 461.81933594 C-82.1426145 460.68139104 -83.28369949 459.54387064 -84.4251709 458.40673828 C-87.49538944 455.34556172 -90.55933976 452.27818497 -93.62185097 449.20930004 C-96.83697351 445.98908219 -100.05700889 442.77378264 -103.27624512 439.55767822 C-108.67278805 434.16476155 -114.06512726 428.76766863 -119.45507812 423.36816406 C-125.6851045 417.12722258 -131.92234763 410.8935631 -138.16332293 404.66357207 C-143.53280136 399.30316529 -148.89837819 393.93887654 -154.26070356 388.5713141 C-157.45889276 385.3700088 -160.65841361 382.17006585 -163.86146545 378.97362518 C-166.86689375 375.97396907 -169.86739706 372.96947245 -172.864151 369.96115112 C-173.96456408 368.85809222 -175.06668513 367.75673418 -176.17062378 366.65720367 C-177.67607804 365.15720838 -179.17524624 363.65119848 -180.67297363 362.14349365 C-181.51356575 361.30214748 -182.35415787 360.46080132 -183.22022247 359.59395981 C-186.41332393 356.00492971 -187.26363263 354.28573505 -187.19555664 349.42578125 C-186.49271831 345.02513657 -184.32184727 342.46851464 -181.12109375 339.5 C-180.35745262 338.75121582 -180.35745262 338.75121582 -179.5783844 337.98730469 C-177.96388971 336.41169577 -176.32673389 334.86231237 -174.6875 333.3125 C-173.58238629 332.24253354 -172.47885248 331.17093271 -171.37695312 330.09765625 C-168.68586805 327.48335166 -165.97418804 324.89227401 -163.25 322.3125 C-164.8347358 318.44921373 -167.30956887 316.02373077 -170.2578125 313.109375 C-170.74329559 312.6267218 -171.22877869 312.1440686 -171.72897339 311.64678955 C-173.27299866 310.11391438 -174.82384824 308.58815996 -176.375 307.0625 C-177.42624009 306.02129639 -178.47702657 304.97963459 -179.52734375 303.9375 C-182.09633004 301.39050536 -184.67148161 298.84984823 -187.25 296.3125 C-191.93754946 300.23393391 -196.39516064 304.30527056 -200.72021484 308.62158203 C-201.62642075 309.52034058 -201.62642075 309.52034058 -202.55093384 310.43725586 C-204.5236768 312.39553902 -206.49263571 314.35756608 -208.4609375 316.3203125 C-209.1372887 316.99383633 -209.81363991 317.66736015 -210.5104866 318.36129379 C-214.08049418 321.9163848 -217.6476738 325.47428387 -221.21240234 329.03466797 C-224.89445839 332.71120981 -228.58572179 336.37836203 -232.27916527 340.04345894 C-235.12198388 342.86768639 -237.95810394 345.6985678 -240.79240799 348.53133774 C-242.15112032 349.88702168 -243.5123354 351.24020204 -244.87607956 352.59082413 C-246.77656462 354.47430191 -248.66741201 356.36696208 -250.55615234 358.26220703 C-251.12130554 358.81814545 -251.68645874 359.37408386 -252.26873779 359.9468689 C-257.00079372 364.73030266 -257.35615932 367.90045771 -257.48364258 374.45458984 C-257.52422539 376.31704849 -257.52422539 376.31704849 -257.56562805 378.21713257 C-257.57824488 378.87787151 -257.5908617 379.53861046 -257.60386086 380.2193718 C-257.64499065 382.29663982 -257.69417902 384.3735651 -257.74601746 386.45059204 C-257.89331143 392.35451455 -258.03719872 398.25836332 -258.14868164 404.16308594 C-258.2175561 407.77976433 -258.30522704 411.39557362 -258.40506554 415.0115242 C-258.43947732 416.38520416 -258.466969 417.75907638 -258.48725319 419.13303757 C-258.68744258 432.33570121 -258.68744258 432.33570121 -263.25 437.3125 C-263.91257812 438.12332031 -264.57515625 438.93414062 -265.2578125 439.76953125 C-273.57172422 449.01914152 -282.75611671 456.83742828 -292.55859375 464.43359375 C-295.01113309 466.33637011 -297.43909646 468.26451482 -299.84765625 470.22265625 C-328.5323143 493.53230992 -328.5323143 493.53230992 -345.17041016 493.66259766 C-346.71646207 493.67912431 -348.26243861 493.70637144 -349.80810547 493.74462891 C-352.04434583 493.79966157 -354.27879685 493.82131095 -356.515625 493.8359375 C-357.2002179 493.85860687 -357.88481079 493.88127625 -358.59014893 493.90463257 C-362.37934783 493.88811414 -364.75182504 493.27999778 -367.66699219 490.95947266 C-370.25 488.3125 -370.25 488.3125 -371.3125 485.4375 C-371.16731689 478.1783443 -366.17123164 471.43704802 -362.625 465.3125 C-362.09447021 464.38985352 -361.56394043 463.46720703 -361.01733398 462.51660156 C-357.83517756 456.99965096 -354.60014774 451.51711917 -351.3125 446.0625 C-350.94954834 445.4550293 -350.58659668 444.84755859 -350.21264648 444.22167969 C-348.71122856 441.71174239 -347.1927435 439.22540561 -345.5859375 436.78125 C-341.95881026 431.02647828 -341.20609472 426.05398174 -342.25 419.3125 C-345.76437171 407.15944923 -354.23594627 399.75582206 -364.9765625 393.80078125 C-371.30882022 390.54125626 -376.9777659 388.22913636 -384.25 389.3125 C-391.30694105 391.74104607 -396.03153184 395.24780738 -400.25 401.3125 C-400.95253906 402.31796875 -401.65507812 403.3234375 -402.37890625 404.359375 C-410.32435642 415.95274652 -417.79898208 427.95277144 -424.87133789 440.09643555 C-425.3946167 440.99273682 -425.91789551 441.88903809 -426.45703125 442.8125 C-426.92343018 443.62332031 -427.3898291 444.43414062 -427.87036133 445.26953125 C-429.90964633 448.28930419 -431.75145368 449.38431424 -435.25 450.3125 C-438.7273265 450.43669023 -440.99794107 450.23474828 -443.8515625 448.1328125 C-455.19497517 436.44037175 -456.81224982 415.98582026 -456.6875 400.6875 C-456.68065186 399.38224365 -456.67380371 398.0769873 -456.66674805 396.73217773 C-456.48819044 385.87761409 -455.18896047 375.75220921 -452.25 365.3125 C-452.06808105 364.65330566 -451.88616211 363.99411133 -451.69873047 363.31494141 C-445.03798222 339.90410776 -432.43769831 312.78325471 -410.6875 299.9375 C-395.79179196 293.66429777 -376.59054729 293.46842882 -360.70385742 291.28930664 C-357.45421154 290.84231696 -354.20559396 290.38837899 -350.95703125 289.93359375 C-349.9695137 289.80021103 -348.98199615 289.66682831 -347.96455383 289.52940369 C-347.03886093 289.39909256 -346.11316803 289.26878143 -345.15942383 289.13452148 C-344.35354324 289.02365707 -343.54766266 288.91279266 -342.71736145 288.79856873 C-335.70657089 287.41744719 -332.21032159 284.84125636 -327.32666016 279.84326172 C-326.6625412 279.17972687 -325.99842224 278.51619202 -325.31417847 277.83255005 C-323.12951991 275.64511307 -320.95935793 273.44386798 -318.7890625 271.2421875 C-317.27393612 269.71959794 -315.75792202 268.19789127 -314.24105835 266.67703247 C-310.25705854 262.67778273 -306.28521867 258.66666556 -302.3157959 254.6529541 C-298.26077815 250.55697043 -294.19436977 246.47232999 -290.12890625 242.38671875 C-282.15808443 234.37303727 -274.20006336 226.34677184 -266.25 218.3125 C-269.81605099 214.09330766 -273.44201772 209.97380589 -277.27050781 205.98803711 C-277.9646151 205.26479752 -277.9646151 205.26479752 -278.67274475 204.52694702 C-282.8852202 200.14759241 -287.1325439 195.80206566 -291.39108658 191.46753597 C-294.24160096 188.56539252 -297.07915831 185.65265562 -299.89013672 182.7121582 C-302.62634277 179.85046774 -305.39096061 177.01933047 -308.17794037 174.20709419 C-309.22978929 173.13565778 -310.27121063 172.05387599 -311.30149078 170.96168327 C-316.69818495 164.81591303 -316.69818495 164.81591303 -324.00637817 162.11688232 C-326.55718039 162.63125995 -328.82703917 163.37600964 -331.25 164.3125 C-348.96702385 166.10437986 -363.7201633 162.87634388 -377.7421875 151.58203125 C-381.35415005 148.431222 -383.67359979 144.99492861 -386.0625 140.875 C-386.92771084 139.43891142 -387.79494613 138.00404084 -388.6640625 136.5703125 C-389.3122998 135.49378418 -389.3122998 135.49378418 -389.97363281 134.39550781 C-391.87707919 131.28911828 -393.89837522 128.26840816 -395.9375 125.25 C-400.11652154 119.03474606 -404.22592689 112.77641556 -408.3125 106.5 C-409.25802734 105.04835449 -409.25802734 105.04835449 -410.22265625 103.56738281 C-411.54404849 101.53847865 -412.86533498 99.50950562 -414.18652344 97.48046875 C-417.04092487 93.09822633 -419.89756656 88.71745685 -422.75756836 84.33886719 C-424.20316972 82.12472852 -425.64671537 79.90924624 -427.08813477 77.69238281 C-430.31408584 72.74246736 -433.56509373 67.82240213 -436.95703125 62.984375 C-437.51753174 62.17653564 -438.07803223 61.36869629 -438.65551758 60.53637695 C-439.67549329 59.07380269 -440.70929121 57.62071091 -441.76049805 56.18041992 C-444.91009627 51.64339804 -447.11165162 46.95256655 -446.25 41.3125 C-443.0347472 35.28840759 -437.98852073 30.77980593 -433.1796875 26.01171875 C-432.30224884 25.13473831 -431.42481018 24.25775787 -430.52078247 23.35420227 C-428.20065903 21.03785981 -425.87601218 18.72618032 -423.54943848 16.4163208 C-421.17761801 14.05801701 -418.81418786 11.6913456 -416.44921875 9.32617188 C-414.65151416 7.53338025 -412.85335294 5.74104637 -411.0546875 3.94921875 C-410.20260712 3.09825119 -409.35052673 2.24728363 -408.47262573 1.37052917 C-407.68485748 0.58914078 -406.89708923 -0.19224762 -406.08544922 -0.99731445 C-405.39135956 -1.68759232 -404.6972699 -2.37787018 -403.98214722 -3.08906555 C-400.67405101 -6.14179392 -397.59817195 -6.29300849 -393.22363281 -6.24121094 C-387.04819436 -5.09130171 -382.13455553 -0.90931244 -377.125 2.6875 C-375.91401657 3.53054216 -374.70118778 4.37093948 -373.48657227 5.20874023 C-371.11297839 6.84708508 -368.74557136 8.49374516 -366.38232422 10.14697266 C-362.71936451 12.679354 -358.9921492 15.06349222 -355.1875 17.375 C-345.41787695 23.37722618 -335.86828551 29.72223441 -326.28443909 36.01467896 C-322.44646905 38.53285516 -318.59884269 41.03571279 -314.74609375 43.53125 C-313.71492432 44.20003174 -312.68375488 44.86881348 -311.62133789 45.55786133 C-309.68572753 46.81246741 -307.74880581 48.06505367 -305.81030273 49.31518555 C-291.21951828 58.78588 -279.77088835 68.34593704 -275.6184082 86.16162109 C-274.96414819 89.98138961 -274.96212775 93.7588748 -275 97.625 C-274.99226562 98.40294922 -274.98453125 99.18089844 -274.9765625 99.98242188 C-274.99833482 106.61753702 -274.99833482 106.61753702 -276.12954712 109.74133301 C-277.19738247 112.86080523 -277.55930714 115.01252231 -277.25 118.3125 C-274.03453345 123.40349662 -269.77263098 127.30513929 -265.4140625 131.41796875 C-264.17527239 132.63249305 -262.93933558 133.84993391 -261.70614624 135.07014465 C-258.46245649 138.26434522 -255.1816582 141.41758561 -251.89141846 144.5637207 C-248.53701112 147.78481276 -245.2193913 151.0433188 -241.8984375 154.29882812 C-235.38432976 160.67377675 -228.83038573 167.0060382 -222.25 173.3125 C-221.35974121 172.54534668 -220.46948242 171.77819336 -219.55224609 170.98779297 C-216.7090258 168.54534929 -213.8387188 166.13815502 -210.95660019 163.74179363 C-202.71955629 156.86976395 -194.72053749 149.75299185 -186.875 142.4375 C-185.88498112 141.51447145 -185.88498112 141.51447145 -184.87496185 140.57279587 C-158.75313026 116.00341823 -150.63013291 94.65942755 -149.5078125 59.28515625 C-149.50725965 56.99617473 -149.50859796 54.70719163 -149.51220703 52.41821289 C-149.34346908 39.87228037 -143.91191572 31.02828292 -135.4375 22.125 C-131.07342304 17.95357903 -126.32130026 14.56943477 -121.25 11.3125 C-120.39148438 10.74789063 -119.53296875 10.18328125 -118.6484375 9.6015625 C-86.93565789 -10.14075945 -33.22253791 -22.89113893 0 0 Z M-125.62109375 42.80859375 C-129.86518037 49.3324775 -130.04144227 58.29099713 -131.03652763 65.82748795 C-131.31383506 67.92240796 -131.59787321 70.01631744 -131.88380432 72.1100769 C-132.69518483 78.05725867 -133.49787195 84.00556664 -134.28833008 89.95556641 C-134.77430531 93.61002051 -135.27071409 97.2629337 -135.77360725 100.91509628 C-135.9621435 102.29955785 -136.14673072 103.68456349 -136.32717705 105.07010269 C-136.57996611 107.00914028 -136.84720649 108.94627705 -137.11499023 110.88330078 C-137.26218002 111.9828006 -137.40936981 113.08230042 -137.5610199 114.21511841 C-139.09257337 121.10037607 -142.68298842 125.17412691 -147.55737305 129.96044922 C-148.19179321 130.59530746 -148.82621338 131.23016571 -149.4798584 131.88426208 C-151.56677608 133.96909921 -153.66409825 136.04312388 -155.76171875 138.1171875 C-157.2154014 139.56527162 -158.66842065 141.01402198 -160.12080383 142.46340942 C-163.93644638 146.26762358 -167.76101348 150.06274035 -171.58752441 153.85601807 C-175.49413 157.73187975 -179.39220703 161.61629804 -183.29101562 165.5 C-190.93569862 173.1125542 -198.58983942 180.7155226 -206.25 188.3125 C-204.80695686 191.32659306 -203.38408132 193.41722016 -200.9921875 195.765625 C-200.05439453 196.69375 -200.05439453 196.69375 -199.09765625 197.640625 C-198.12119141 198.59195313 -198.12119141 198.59195313 -197.125 199.5625 C-196.46628906 200.2121875 -195.80757813 200.861875 -195.12890625 201.53125 C-193.50702872 203.12962206 -191.87981741 204.72223706 -190.25 206.3125 C-185.62347988 202.46103565 -181.28342545 198.45579494 -177.10620117 194.12353516 C-175.92609334 192.91048357 -174.74584516 191.69756851 -173.56547546 190.48477173 C-172.95111822 189.85169727 -172.33676098 189.21862282 -171.70378685 188.56636429 C-168.41401779 185.18365395 -165.10306629 181.82175659 -161.79492188 178.45703125 C-157.60073154 174.1907376 -153.41363121 169.91832089 -149.25463867 165.61767578 C-145.87731293 162.12645863 -142.47594268 158.66036474 -139.05712318 155.20978928 C-137.76398762 153.89573437 -136.47980419 152.5728048 -135.20509911 151.2408638 C-125.2699824 140.87387883 -125.2699824 140.87387883 -120.27261353 139.48504639 C-116.56051979 139.4270849 -113.75779779 140.14323407 -110.25 141.3125 C-108.73431877 145.85954368 -108.13472521 149.58663775 -109.25 154.3125 C-112.13673045 158.58198832 -115.78061514 161.98579679 -119.50390625 165.5078125 C-120.56556315 166.54823146 -121.62493052 167.59099131 -122.68211365 168.63595581 C-125.46437551 171.3745322 -128.2748336 174.08221629 -131.09295654 176.78381348 C-134.49298254 180.0536216 -137.85914482 183.35820033 -141.23006344 186.65795708 C-143.85778065 189.22899035 -146.49002072 191.79467994 -149.13856506 194.3442688 C-153.91082764 198.9490294 -158.54594869 203.58995859 -162.83154297 208.65682983 C-164.99138621 211.17787061 -167.32406889 213.48144465 -169.6875 215.8125 C-170.55246094 216.6684375 -171.41742188 217.524375 -172.30859375 218.40625 C-172.94925781 219.0353125 -173.58992188 219.664375 -174.25 220.3125 C-172.59136495 224.63754836 -169.378959 227.40668825 -166.125 230.5625 C-165.56167969 231.11679688 -164.99835938 231.67109375 -164.41796875 232.2421875 C-163.03313972 233.60354485 -161.64216796 234.95864859 -160.25 236.3125 C-149.97671719 231.99105525 -141.04895159 220.23925171 -133.25755119 212.36465073 C-131.54060762 210.62994193 -129.81982361 208.89912197 -128.09803772 207.16921997 C-123.21370434 202.26072664 -118.33545604 197.3462159 -113.46118164 192.42773438 C-110.45601471 189.39583876 -107.44603483 186.36879141 -104.43301582 183.34469986 C-103.29202226 182.19750365 -102.15292904 181.04841407 -101.01579094 179.89739609 C-99.43682471 178.29927978 -97.85185408 176.70735834 -96.26538086 175.11669922 C-95.36669785 174.21055878 -94.46801483 173.30441833 -93.542099 172.37081909 C-89.61213538 168.84168743 -85.47642741 169.05102842 -80.4453125 168.8125 C-79.66202576 168.7728009 -78.87873901 168.73310181 -78.07171631 168.69219971 C-76.38479179 168.60737857 -74.6977751 168.52437491 -73.01068115 168.44299316 C-70.36079864 168.31179689 -67.71198635 168.16645935 -65.06298828 168.01855469 C-56.91707292 167.57895774 -48.82919563 167.23355611 -40.671875 167.453125 C-26.35895604 168.2800563 -26.35895604 168.2800563 -14.20556641 161.95068359 C-12.09407037 159.51173281 -10.26372843 156.97720029 -8.52246094 154.26318359 C-6.88159435 151.74773386 -5.02057984 149.4613325 -3.12524414 147.13525391 C-1.74228266 145.42797286 -0.40109934 143.69441896 0.93359375 141.94921875 C3.98173891 137.9850058 7.14561107 134.11951207 10.3125 130.25 C11.93620693 128.25190692 13.55757287 126.25194526 15.17773438 124.25097656 C16.21516978 122.97190248 17.25547873 121.69515303 18.29882812 120.42089844 C19.73228874 118.66504935 21.14925329 116.89713396 22.5625 115.125 C23.37332031 114.12082031 24.18414062 113.11664063 25.01953125 112.08203125 C26.91778656 109.04396576 26.91127373 107.78225158 26.75 104.3125 C18.43263615 108.28805975 10.61598979 112.90723397 2.78515625 117.75976562 C-8.18061778 124.39290866 -19.04019449 126.19101601 -31.79296875 123.58984375 C-49.13165197 118.5691465 -60.98573051 107.88083928 -69.97265625 92.33203125 C-76.68453897 79.58440142 -79.86344661 66.40297778 -75.8125 52.1875 C-68.94223355 34.34849779 -53.01340195 25.41855298 -37.53320312 15.83959961 C-35.73948641 14.71433965 -33.9895768 13.51977056 -32.25 12.3125 C-32.25 11.6525 -32.25 10.9925 -32.25 10.3125 C-66.933413 9.57551999 -100.89961771 16.48896168 -125.62109375 42.80859375 Z M-396.93383789 19.8828125 C-398.11601217 21.06514608 -399.29541539 22.25025415 -400.47265625 23.4375 C-401.09273056 24.05898926 -401.71280487 24.68047852 -402.35166931 25.32080078 C-404.34096015 27.3157106 -406.32675501 29.31406118 -408.3125 31.3125 C-409.65667301 32.66168556 -411.00107106 34.01064695 -412.34570312 35.359375 C-415.64975707 38.67448312 -418.95067866 41.99268206 -422.25 45.3125 C-421.07567837 48.42952242 -419.83392654 51.17894025 -417.95703125 53.9296875 C-417.49965576 54.60668701 -417.04228027 55.28368652 -416.57104492 55.98120117 C-416.0732251 56.70927979 -415.57540527 57.4373584 -415.0625 58.1875 C-413.97025064 59.80524507 -412.87915943 61.42377251 -411.7890625 63.04296875 C-411.21188477 63.89938965 -410.63470703 64.75581055 -410.04003906 65.63818359 C-406.96508177 70.23216644 -403.95193243 74.86616628 -400.9375 79.5 C-400.3089209 80.46518555 -399.6803418 81.43037109 -399.03271484 82.42480469 C-396.46881634 86.36275492 -393.90692815 90.30200975 -391.34570312 94.24169922 C-387.61265506 99.98284977 -383.8723722 105.71915361 -380.12158203 111.44873047 C-378.84874968 113.39633332 -377.57900526 115.34595701 -376.31201172 117.29736328 C-374.42417438 120.20344546 -372.52574724 123.10235031 -370.625 126 C-370.0570874 126.87930176 -369.4891748 127.75860352 -368.90405273 128.66455078 C-363.4125052 136.99025977 -357.28325314 141.20252406 -347.75 144.0625 C-346.925 144.145 -346.1 144.2275 -345.25 144.3125 C-344.61835938 144.37566406 -343.98671875 144.43882812 -343.3359375 144.50390625 C-333.25345703 145.05612691 -325.24830566 141.02418402 -317.73046875 134.58203125 C-310.63695934 128.09174942 -303.96026401 121.78475704 -299.25 113.3125 C-298.74146484 112.39791016 -298.74146484 112.39791016 -298.22265625 111.46484375 C-294.64071325 103.69021171 -294.98383615 93.79848251 -297.875 85.875 C-301.27720625 77.7475073 -307.72846095 72.92552831 -315 68.4375 C-316.79479988 67.30031372 -318.58904294 66.16224828 -320.3828125 65.0234375 C-321.33446289 64.42370117 -322.28611328 63.82396484 -323.26660156 63.20605469 C-328.5058095 59.88074399 -333.6867959 56.46661349 -338.875 53.0625 C-341.08182964 51.61818149 -343.28886323 50.17417455 -345.49609375 48.73046875 C-346.32540154 48.18783134 -346.32540154 48.18783134 -347.17146301 47.63423157 C-351.16606555 45.02058389 -355.16275746 42.41014968 -359.16015625 39.80078125 C-360.86226969 38.68940745 -362.56432506 37.57794483 -364.2663269 36.46640015 C-365.91649987 35.38871464 -367.56676982 34.31117765 -369.21704102 33.23364258 C-375.89337427 28.86908046 -382.55077522 24.47817023 -389.15307617 20.00219727 C-393.18079039 16.76102228 -393.18079039 16.76102228 -396.93383789 19.8828125 Z M-292.67041016 137.50585938 C-293.47164307 138.32280273 -293.47164307 138.32280273 -294.2890625 139.15625 C-294.86914062 139.74277344 -295.44921875 140.32929688 -296.046875 140.93359375 C-296.65015625 141.55363281 -297.2534375 142.17367187 -297.875 142.8125 C-298.48601562 143.43253906 -299.09703125 144.05257812 -299.7265625 144.69140625 C-301.23887719 146.22735086 -302.74502114 147.76936675 -304.25 149.3125 C-300.30431773 154.0369205 -296.19661371 158.50858641 -291.83389282 162.84886169 C-291.21623342 163.46737552 -290.59857402 164.08588935 -289.96219766 164.72314602 C-287.91026712 166.77671204 -285.85480458 168.82670441 -283.79931641 170.87670898 C-282.32040277 172.3553403 -280.84170978 173.83419234 -279.36322021 175.31324768 C-275.36180667 179.31494747 -271.35732314 183.31356221 -267.35227251 187.31162143 C-263.16244763 191.49518398 -258.97546509 195.68158923 -254.78817749 199.86769104 C-246.864288 207.7884757 -238.93785341 215.70670834 -231.0104965 223.62402254 C-221.98315869 232.64017287 -212.95866908 241.65917173 -203.9344151 250.6784085 C-185.37610616 269.22627226 -166.81423138 287.77056404 -148.25 306.3125 C-147.12879843 305.3574028 -146.00843599 304.40132049 -144.88842773 303.44482422 C-144.26443588 302.9125119 -143.64044403 302.38019958 -142.99754333 301.83175659 C-141.01775864 300.11059702 -139.14845846 298.310927 -137.3125 296.4375 C-136.43271484 295.54417969 -136.43271484 295.54417969 -135.53515625 294.6328125 C-135.11105469 294.19710937 -134.68695313 293.76140625 -134.25 293.3125 C-135.9046988 289.0430187 -139.10170004 286.1826806 -142.28552246 283.02301025 C-142.91060369 282.39480904 -143.53568492 281.76660783 -144.179708 281.11937022 C-146.27847525 279.01261649 -148.3843301 276.91309438 -150.49023438 274.81347656 C-151.99507003 273.30593139 -153.49947976 271.79796096 -155.00349426 270.28959656 C-159.09167198 266.19228944 -163.18616501 262.10134797 -167.28207588 258.01177311 C-171.56160575 253.73729849 -175.8362632 249.45795584 -180.11169434 245.17938232 C-187.29075585 237.99668057 -194.47402823 230.81821025 -201.65966797 223.64208984 C-209.97839038 215.33426035 -218.28987192 207.01923899 -226.59764433 198.70046067 C-233.72179531 191.56724834 -240.84981821 184.43792273 -247.98112154 177.3118608 C-252.24439118 173.05171615 -256.5062815 168.79021526 -260.76469421 164.52521515 C-264.76561512 160.51853786 -268.77135664 156.51674472 -272.78095055 152.51874733 C-274.25573759 151.04661569 -275.72880519 149.5727593 -277.20006752 148.09710503 C-279.20030319 146.09144733 -281.20652638 144.09198401 -283.21447754 142.09405518 C-283.80260271 141.50146857 -284.39072787 140.90888196 -284.99667501 140.29833817 C-288.42174651 136.23109148 -288.42174651 136.23109148 -292.67041016 137.50585938 Z M-252.59147072 234.44418812 C-253.36502435 235.24583409 -253.36502435 235.24583409 -254.15420532 236.06367493 C-254.74806534 236.67357269 -255.34192535 237.28347046 -255.95378113 237.91184998 C-256.60405777 238.58974075 -257.25433441 239.26763153 -257.92431641 239.96606445 C-259.34819423 241.43264138 -260.77215876 242.89913413 -262.19619751 244.36555481 C-262.95371937 245.14915689 -263.71124123 245.93275898 -264.49171829 246.74010658 C-268.50653434 250.88393341 -272.55274709 254.99696972 -276.59375 259.11523438 C-281.73537094 264.35847511 -286.86729081 269.61014286 -291.96386719 274.8972168 C-296.08080273 279.16637256 -300.2294902 283.40232242 -304.40055466 287.61858177 C-305.97910504 289.2260077 -307.54593629 290.84503605 -309.10014725 292.47600746 C-319.0207194 302.87184886 -325.64330864 308.47687948 -340.25 309.3125 C-342.53467721 309.63648212 -344.81691405 309.97828887 -347.09594727 310.33984375 C-349.33565265 310.64651615 -351.57581935 310.94983589 -353.81640625 311.25 C-356.28455375 311.59079443 -358.75265135 311.93195047 -361.22070312 312.2734375 C-365.0382717 312.79748039 -368.85619784 313.31838862 -372.67504883 313.83300781 C-376.41093699 314.33819827 -380.14495517 314.85571264 -383.87890625 315.375 C-385.01751602 315.52509521 -386.15612579 315.67519043 -387.32923889 315.82983398 C-399.09491272 317.48360683 -405.4576148 321.15798132 -413.25 330.3125 C-428.04180064 350.48559557 -436.31404485 376.0449887 -436.5 400.875 C-436.50942627 401.85227051 -436.51885254 402.82954102 -436.52856445 403.83642578 C-436.52429443 404.75794434 -436.52002441 405.67946289 -436.515625 406.62890625 C-436.51336914 407.45849854 -436.51111328 408.28809082 -436.50878906 409.14282227 C-436.38083748 411.60618286 -436.38083748 411.60618286 -434.25 414.3125 C-433.57195312 413.24773437 -432.89390625 412.18296875 -432.1953125 411.0859375 C-408.86445003 374.61086766 -408.86445003 374.61086766 -391.59375 369.53125 C-376.07062129 366.14114143 -361.36971074 370.97059875 -348.25 379.3125 C-335.63123739 388.18125886 -325.30776884 399.7456768 -322.25 415.3125 C-319.98034428 430.3627413 -323.20885459 440.47683291 -330.92529297 453.13037109 C-332.80626634 456.22881193 -334.62736653 459.36140257 -336.45507812 462.49145508 C-338.37404813 465.7726867 -340.3116006 469.04271563 -342.25 472.3125 C-340.38823458 472.97745688 -340.38823458 472.97745688 -338.25 473.3125 C-336.10068779 471.97759954 -334.30493948 470.66781496 -332.375 469.0625 C-331.80692627 468.60721924 -331.23885254 468.15193848 -330.65356445 467.68286133 C-329.44995535 466.71796281 -328.25024486 465.74818387 -327.05419922 464.77392578 C-324.77649174 462.9289519 -322.46407484 461.13122904 -320.14941406 459.33300781 C-317.16810014 457.01156257 -314.20812002 454.66339037 -311.25 452.3125 C-310.59563965 451.79252441 -309.9412793 451.27254883 -309.26708984 450.73681641 C-300.28410206 443.57583957 -291.5737537 436.23594051 -283.25 428.3125 C-282.71781357 427.90283997 -282.18562714 427.49317993 -281.63731384 427.07110596 C-279.56484922 424.4439797 -279.79604094 422.24607778 -279.69750977 418.93261719 C-279.65058487 417.61404724 -279.60365997 416.29547729 -279.55531311 414.93695068 C-279.53688921 414.2321331 -279.51846531 413.52731552 -279.49948311 412.80113983 C-279.44085961 410.58874534 -279.36358822 408.37770707 -279.28123474 406.16607666 C-279.08000496 400.67034685 -278.90643326 395.17384029 -278.74047852 389.67694092 C-278.60025633 385.0358967 -278.44534416 380.39584679 -278.26923943 375.75601959 C-278.19276578 373.58546266 -278.13796328 371.41504197 -278.08363342 369.24383545 C-278.03420405 367.89916771 -277.98367749 366.55453972 -277.93188477 365.20996094 C-277.87883934 363.46147858 -277.87883934 363.46147858 -277.82472229 361.67767334 C-276.52230448 354.05162199 -271.681892 349.31432111 -266.37011719 344.09204102 C-265.34511612 343.06638283 -265.34511612 343.06638283 -264.29940796 342.02000427 C-262.05560611 339.77828011 -259.80139178 337.54734961 -257.546875 335.31640625 C-255.98251976 333.75765057 -254.41882878 332.19822798 -252.85577393 330.63816833 C-248.75245403 326.54626876 -244.64020318 322.46346123 -240.52600098 318.38250732 C-236.32438259 314.21165031 -232.1313093 310.03222202 -227.9375 305.85351562 C-219.71665487 297.66478503 -211.48634533 289.48563804 -203.25 281.3125 C-204.64596486 278.40630865 -205.98064201 276.34128234 -208.2890625 274.078125 C-209.15917969 273.21767578 -209.15917969 273.21767578 -210.046875 272.33984375 C-210.65015625 271.75332031 -211.2534375 271.16679687 -211.875 270.5625 C-212.48601562 269.96050781 -213.09703125 269.35851562 -213.7265625 268.73828125 C-215.22988624 267.25844695 -216.73934856 265.78485324 -218.25 264.3125 C-223.08094133 268.32758419 -227.59156844 272.54119663 -231.97631836 277.03637695 C-233.28438102 278.36741277 -234.59248317 279.69840976 -235.90061951 281.02937317 C-236.58302641 281.7256312 -237.26543331 282.42188923 -237.96851921 283.13924599 C-241.61385896 286.85368489 -245.27615668 290.55136509 -248.93554688 294.25195312 C-253.57762515 298.9480284 -258.21443913 303.64895867 -262.83276367 308.3684082 C-266.57980066 312.19659961 -270.34373285 316.00743123 -274.11953926 319.80724144 C-275.551152 321.25426984 -276.97645759 322.70756714 -278.39518547 324.16723061 C-280.3789171 326.20655805 -282.38351734 328.22297241 -284.39428711 330.2355957 C-284.97167633 330.8397229 -285.54906555 331.4438501 -286.14395142 332.06628418 C-290.37057378 336.23076665 -293.28974714 337.24565781 -299.25 337.3125 C-302.87090756 335.73819236 -304.04255284 334.62367074 -306.25 331.3125 C-306.8125 328.125 -306.8125 328.125 -306.25 324.3125 C-304.90475368 322.435112 -304.90475368 322.435112 -303.14317322 320.50964355 C-302.50576139 319.81020126 -301.86834957 319.11075897 -301.21162224 318.39012146 C-298.31935189 315.32681864 -295.38477082 312.31559819 -292.39672852 309.34570312 C-291.75197067 308.70079926 -291.10721283 308.05589539 -290.44291687 307.39144897 C-288.34061182 305.28983287 -286.23480223 303.1917673 -284.12890625 301.09375 C-282.65895544 299.625667 -281.18922728 298.15736103 -279.7197113 296.68884277 C-275.87344055 292.84636864 -272.02417494 289.0069086 -268.17425537 285.16809082 C-264.2373866 281.24149789 -260.30338869 277.31203094 -256.36914062 273.3828125 C-248.66555078 265.68990957 -240.95879065 258.00019113 -233.25 250.3125 C-234.19279028 249.20488567 -235.13669408 248.09821911 -236.08105469 246.99194336 C-236.60656921 246.37556503 -237.13208374 245.75918671 -237.67352295 245.12413025 C-239.85790401 242.61391876 -242.15643254 240.2365396 -244.5 237.875 C-245.35078125 237.01003906 -246.2015625 236.14507812 -247.078125 235.25390625 C-249.75541834 232.80091178 -249.75541834 232.80091178 -252.59147072 234.44418812 Z M-95.0045929 282.81825256 C-95.66130478 283.482155 -96.31801666 284.14605743 -96.99462891 284.83007812 C-97.68742447 285.52258163 -98.38022003 286.21508514 -99.0940094 286.92857361 C-101.3929632 289.22892571 -103.68474365 291.53629108 -105.9765625 293.84375 C-107.5651062 295.43602205 -109.15409074 297.0278544 -110.74349976 298.6192627 C-114.93350258 302.81691601 -119.1174659 307.02053999 -123.30023193 311.22540283 C-127.56633971 315.51193858 -131.83808738 319.7928455 -136.109375 324.07421875 C-144.49513709 332.48145572 -152.87453454 340.89500615 -161.25 349.3125 C-159.51798575 353.01692254 -157.42198443 355.35767135 -154.48828125 358.234375 C-154.01939987 358.69805481 -153.55051849 359.16173462 -153.06742859 359.63946533 C-151.57048402 361.11867025 -150.06704251 362.59102701 -148.5625 364.0625 C-147.07662216 365.52047061 -145.59234309 366.97997816 -144.11112976 368.44268799 C-142.75491833 369.78126681 -141.39384157 371.11491101 -140.0324707 372.44824219 C-137.94974133 374.59219068 -135.99454683 376.74234375 -134.05088806 379.00566101 C-130.40178959 383.19012497 -126.57031194 387.15342783 -122.65332031 391.08618164 C-121.92869598 391.81737717 -121.20407166 392.54857269 -120.45748901 393.30192566 C-118.08390945 395.69504499 -115.70648023 398.08428354 -113.328125 400.47265625 C-112.50979942 401.29505735 -111.69147385 402.11745846 -110.84835052 402.96478081 C-106.5203549 407.31354994 -102.18915119 411.65909556 -97.85546875 416.00219727 C-93.40102181 420.46771986 -88.95838103 424.94479998 -84.51826859 429.42456913 C-81.08124422 432.88782321 -77.63528239 436.34208091 -74.18691254 439.79403496 C-72.54583751 441.43995551 -70.90811844 443.08922975 -69.27396393 444.74202156 C-56.16124835 457.99500543 -42.59202014 471.15834731 -22.6875 471.5625 C-7.46349352 471.35891002 4.21483897 464.81405605 14.75 454.3125 C15.54792969 453.53777344 16.34585938 452.76304687 17.16796875 451.96484375 C27.45190552 441.37083854 31.0425543 429.98582881 31.06689453 415.66430664 C30.81126098 399.04970366 21.48813217 387.43177172 10.09472656 376.17138672 C9.02236518 375.09687482 7.9508714 374.02149647 6.88017273 372.94532776 C3.99492573 370.05046355 1.09746421 367.16812711 -1.80277157 364.28828955 C-4.84203113 361.26669653 -7.87064214 358.23446323 -10.9006958 355.2036438 C-15.98119973 350.1250067 -21.06935563 345.05414186 -26.16259766 339.98828125 C-32.05545457 334.12698713 -37.93767909 328.25519162 -43.81404281 322.37736499 C-50.07591416 316.11414528 -56.34536156 309.85855222 -62.61709309 303.60520792 C-64.42430897 301.80225928 -66.23009499 299.99788891 -68.03557587 298.19320297 C-70.86428348 295.36649777 -73.69801267 292.54492492 -76.53578758 289.72732353 C-77.57840058 288.69057102 -78.61930878 287.65210096 -79.65841866 286.61183739 C-81.07159566 285.1976849 -82.49150728 283.79027174 -83.9118042 282.38327026 C-85.10305468 281.19704732 -85.10305468 281.19704732 -86.31837082 279.98686028 C-90.28141268 276.55164614 -91.84563439 279.67376536 -95.0045929 282.81825256 Z " fill="#FFFFFF" transform="translate(459.25,14.6875)"/>
<path d="M0 0 C5.36615621 2.45472118 9.23730564 6.95705587 13.33862305 11.07983398 C14.16519409 11.90290039 14.99176514 12.7259668 15.84338379 13.57397461 C18.57121167 16.29300769 21.29166792 19.01928232 24.01171875 21.74609375 C25.90521033 23.63823817 27.79899531 25.53008525 29.69306946 27.42164612 C33.66006808 31.38501053 37.62284089 35.35256346 41.58325195 39.32250977 C46.15963372 43.90978253 50.74318596 48.48979586 55.33051461 53.06611961 C59.27315738 56.99968295 63.21188492 60.93713476 67.1473735 64.87785584 C69.4960922 67.22968966 71.84652353 69.57975995 74.19971275 71.92712212 C76.82119409 74.54353473 79.43619574 77.16625516 82.04956055 79.79077148 C82.82932755 80.56649002 83.60909454 81.34220856 84.41249084 82.14143372 C85.12321747 82.85779999 85.83394409 83.57416626 86.56620789 84.3122406 C87.49393021 85.241094 87.49393021 85.241094 88.4403944 86.18871212 C91.33036904 89.54505813 92 91.44126449 92 95.9375 C91.44006701 99.42080405 90.86356231 100.15592879 88.375 103 C84.40424436 105.35304038 82.53806072 105.72933119 78 105 C72.43632233 101.84222426 68.21435019 97.49079659 63.73144531 92.97436523 C62.92423538 92.16905365 62.11702545 91.36374207 61.28535461 90.5340271 C58.62803877 87.88040528 55.97797363 85.21967056 53.328125 82.55859375 C51.48097606 80.71025233 49.6334569 78.86228083 47.7855835 77.0146637 C43.91890286 73.14704864 40.05610283 69.27559238 36.19580078 65.40161133 C31.73429969 60.92435931 27.2675677 56.45238123 22.79781842 51.98336452 C18.4918484 47.67800488 14.18879836 43.36974151 9.88722992 39.05998421 C8.05854124 37.22810932 6.22924271 35.39684303 4.39933014 33.56619072 C1.8473496 31.01204783 -0.7013142 28.45464275 -3.24902344 25.89624023 C-4.38826515 24.7576783 -4.38826515 24.7576783 -5.55052185 23.59611511 C-6.24297501 22.89939697 -6.93542816 22.20267883 -7.64886475 21.48484802 C-8.25129879 20.88073813 -8.85373283 20.27662825 -9.47442245 19.654212 C-13.02636316 15.80277688 -13.42613209 13.24125881 -13.328125 8.2265625 C-12.84491788 4.94765703 -11.37190247 3.23237879 -9 1 C-5.93570224 -0.53214888 -3.3834358 -0.22938548 0 0 Z " fill="#FFFFFF" transform="translate(360,342)"/>
</svg>
