<?xml version="1.0" encoding="UTF-8"?>
<svg version="1.1" xmlns="http://www.w3.org/2000/svg" viewBox="0 0 512 512">
<path d="M0 0 C1.06444336 0.13849365 1.06444336 0.13849365 2.15039062 0.27978516 C19.73667244 3.08536365 35.7977086 12.04594842 51.505656 19.93179846 C54.03104745 21.198109 56.55959372 22.45805108 59.08812386 23.71807969 C65.05697729 26.69260627 71.02075631 29.67712075 76.98120117 32.66845703 C83.09533316 35.73673066 89.21732948 38.78885467 95.34347194 41.83306777 C100.64345992 44.46737975 105.93867307 47.11111199 111.23018795 49.76240265 C114.3732799 51.33716697 117.51790412 52.90862368 120.66708183 54.47118759 C124.1761856 56.21301437 127.6752081 57.97451172 131.17358398 59.73779297 C132.19560913 60.24194733 133.21763428 60.74610168 134.27062988 61.26553345 C150.72550248 69.6248666 162.10500366 81.69579072 168.48078346 99.03199482 C171.24536976 107.81817426 171.11105045 116.47643838 171.07568359 125.5769043 C171.0797557 127.34565046 171.08510115 129.11439407 171.09161377 130.88313293 C171.10522218 135.66032715 171.10001426 140.4373257 171.09047651 145.21452308 C171.08284025 150.23586 171.08993704 155.25718104 171.09463501 160.27851868 C171.10008358 168.71394837 171.09292722 177.14929911 171.07861328 185.5847168 C171.06231502 195.30096941 171.06755838 205.01703286 171.0840925 214.73328084 C171.09776477 223.10652352 171.09959832 231.47970967 171.09177649 239.85295993 C171.08712797 244.83996441 171.0863961 249.82688041 171.09638596 254.81387901 C171.10513636 259.50982186 171.09888842 264.20552433 171.08170319 268.90144157 C171.07777987 270.61209975 171.0787998 272.32277861 171.08549118 274.03342819 C171.1913241 303.87131365 161.67094685 329.71930641 140.75 351.375 C133.26281954 358.83125995 124.61645877 364.31145523 115.6875 369.875 C113.80569324 371.06072774 111.92419476 372.24694483 110.04296875 373.43359375 C104.96807708 376.6247225 99.87823513 379.79123724 94.78417969 382.95166016 C89.7449234 386.08152937 84.7166854 389.22898432 79.6875 392.375 C77.68755489 393.62508782 75.68755484 394.87508774 73.6875 396.125 C72.6975 396.74375 71.7075 397.3625 70.6875 398 C67.6875 399.875 64.6875 401.75 61.6875 403.625 C60.69637207 404.2444751 59.70524414 404.8639502 58.68408203 405.50219727 C56.69554849 406.74499023 54.70694239 407.9876671 52.71826172 409.23022461 C47.54220635 412.46451614 42.3676434 415.70116129 37.1953125 418.94140625 C36.12667969 419.61042969 35.05804688 420.27945312 33.95703125 420.96875 C31.93051583 422.23752487 29.90444003 423.50700232 27.87890625 424.77734375 C25.1527259 426.48357623 22.4212968 428.1810031 19.6875 429.875 C18.79877197 430.4306665 17.91004395 430.98633301 16.99438477 431.55883789 C12.55313249 434.29277982 8.39305293 436.64609538 3.375 438.1875 C2.40949219 438.49300781 1.44398438 438.79851562 0.44921875 439.11328125 C-15.19257747 443.42749661 -31.61852464 441.37882205 -45.89453125 433.84375 C-52.60260806 429.97989776 -59.09663902 425.78164389 -65.60986328 421.60058594 C-70.3842343 418.55223414 -75.19346064 415.55977069 -80 412.5625 C-82.04561176 411.28521845 -84.09118435 410.00787418 -86.13671875 408.73046875 C-87.15813965 408.09286621 -88.17956055 407.45526367 -89.23193359 406.79833984 C-95.25623399 403.03709095 -101.27803882 399.27184818 -107.30029297 395.50732422 C-113.38891081 391.70156554 -119.47892534 387.89805408 -125.56982422 384.09594727 C-128.57775649 382.21701115 -131.58396147 380.33533849 -134.58984375 378.453125 C-138.28380515 376.1402757 -141.98444592 373.83882388 -145.69140625 371.546875 C-162.24212838 361.27768054 -162.24212838 361.27768054 -169.3125 354.875 C-170.27285156 354.00746094 -171.23320312 353.13992188 -172.22265625 352.24609375 C-190.20795325 335.43238426 -202.5364016 311.06453602 -203.44672108 286.21041012 C-203.45099456 284.89291554 -203.45526804 283.57542097 -203.45967102 282.21800232 C-203.46334771 281.47869274 -203.4670244 280.73938316 -203.4708125 279.97767025 C-203.48176638 277.51692593 -203.48567897 275.05622394 -203.48950195 272.59545898 C-203.49577292 270.82405974 -203.50242028 269.05266179 -203.50941467 267.28126526 C-203.53038369 261.47788395 -203.54081097 255.67450259 -203.55078125 249.87109375 C-203.55483161 247.86702015 -203.55894861 245.86294669 -203.56313133 243.85887337 C-203.58216798 234.44024041 -203.59640171 225.02161521 -203.6047433 215.60296673 C-203.61450757 204.75935754 -203.64081244 193.91595292 -203.68124419 183.07241577 C-203.71148262 174.67212363 -203.72621952 166.27188989 -203.72952431 157.87154442 C-203.7318661 152.86324436 -203.74071255 147.85516321 -203.76598549 142.84692192 C-203.78940667 138.12968093 -203.79344346 133.41280084 -203.78322411 128.69551659 C-203.78273202 126.97433007 -203.78895462 125.25312492 -203.80278015 123.53199387 C-203.95242314 103.7812468 -198.970436 88.68659089 -185.58203125 73.796875 C-178.42340409 66.88386798 -168.87201154 62.43162128 -160.05224609 58.03491211 C-158.98554688 57.49732773 -157.91884766 56.95974335 -156.81982422 56.40586853 C-153.92913764 54.95092038 -151.03586321 53.50130812 -148.14094496 52.05480266 C-145.70522706 50.83700419 -143.27126574 49.61571582 -140.83723128 48.39455706 C-135.08259923 45.50767012 -129.32476411 42.62724727 -123.56494141 39.75073242 C-117.66901607 36.80608331 -111.77908042 33.84970596 -105.89192522 30.88756746 C-100.79702704 28.32465265 -95.69819453 25.76968627 -90.5963217 23.22068411 C-87.5671104 21.70710055 -84.53992933 20.18980599 -81.51563644 18.66639519 C-48.54373083 2.07117002 -48.54373083 2.07117002 -32.625 0 C-31.83158203 -0.11166504 -31.03816406 -0.22333008 -30.22070312 -0.33837891 C-19.98141562 -1.68337006 -10.20734113 -1.4365734 0 0 Z M-25.51171875 32.1328125 C-33.47958181 33.25705746 -40.10319466 35.967273 -47.26171875 39.4921875 C-48.30580902 39.99996735 -49.34989929 40.50774719 -50.42562866 41.03091431 C-54.39346028 42.96783186 -58.35337959 44.92035972 -62.3125 46.875 C-64.05035727 47.73170346 -65.78822185 48.58839209 -67.52609253 49.44506836 C-78.88049508 55.04588042 -90.22095531 60.67434365 -101.55120754 66.32384491 C-107.07852597 69.07984979 -112.60779653 71.83175434 -118.14208984 74.57373047 C-123.56996769 77.26301817 -128.99287467 79.9620833 -134.4123497 82.66826248 C-136.45908933 83.68828898 -138.50752101 84.70492802 -140.55771255 85.7179985 C-143.41061746 87.12862132 -146.25693869 88.55176681 -149.10205078 89.97802734 C-149.93527863 90.3864386 -150.76850647 90.79484985 -151.62698364 91.21563721 C-157.96438787 94.41807847 -164.73749471 98.28290068 -167.6875 105.0625 C-167.98398438 105.71605469 -168.28046875 106.36960937 -168.5859375 107.04296875 C-170.22167943 111.16750083 -170.44482258 114.38419935 -170.45967102 118.81646729 C-170.46334771 119.52715229 -170.4670244 120.23783729 -170.4708125 120.9700582 C-170.48184899 123.35797577 -170.48569325 125.74584981 -170.48950195 128.13378906 C-170.49576707 129.8438633 -170.50241391 131.55393618 -170.50941467 133.26400757 C-170.53046718 138.88953705 -170.54082419 144.51506682 -170.55078125 150.140625 C-170.55482959 152.08027918 -170.55894654 154.01993321 -170.56313133 155.9595871 C-170.58219253 165.08083339 -170.59641666 174.20207159 -170.6047433 183.32333398 C-170.61449311 193.82908352 -170.64074954 204.33462109 -170.68124419 214.84029603 C-170.71150463 222.97216024 -170.7262219 231.10396409 -170.72952431 239.23588347 C-170.73186523 244.08610546 -170.74069863 248.93610128 -170.76598549 253.78626251 C-170.78944272 258.35982109 -170.79342931 262.93300749 -170.78322411 267.50661087 C-170.78273275 269.17415996 -170.7889333 270.84172846 -170.80278015 272.50922012 C-170.95427338 291.85511205 -166.36764761 308.99376703 -153.3125 323.875 C-152.72597656 324.57882812 -152.13945312 325.28265625 -151.53515625 326.0078125 C-144.87631801 333.36549911 -136.46573263 338.10001549 -128.06347656 343.19775391 C-123.22255089 346.1492235 -118.42821179 349.17520393 -113.625 352.1875 C-111.57974616 353.46535459 -109.53417044 354.74269413 -107.48828125 356.01953125 C-101.42825044 359.80239005 -95.3701868 363.58838911 -89.3125 367.375 C-87.31250915 368.62501464 -85.31250914 369.87501462 -83.3125 371.125 C-71.3125 378.625 -71.3125 378.625 -68.30859375 380.50292969 C-66.32220026 381.74410189 -64.33522717 382.98434699 -62.34765625 384.22363281 C-57.13417471 387.4760643 -51.93377711 390.74727219 -46.75 394.046875 C-45.67234375 394.72943359 -44.5946875 395.41199219 -43.484375 396.11523438 C-41.42850733 397.41787467 -39.37618273 398.7261304 -37.328125 400.04101562 C-28.85942435 405.39243903 -21.53826794 409.09654884 -11.3125 407.875 C-4.51286233 405.79083587 1.40824756 402.45327269 7.3125 398.5625 C8.97733075 397.48875517 10.64272255 396.41587989 12.30859375 395.34375 C13.18112793 394.77914063 14.05366211 394.21453125 14.95263672 393.6328125 C19.73037404 390.56195831 24.55460144 387.56576243 29.375 384.5625 C31.42066692 383.2853068 33.46623904 382.00796175 35.51171875 380.73046875 C36.53313965 380.09286621 37.55456055 379.45526367 38.60693359 378.79833984 C43.63496484 375.65910778 48.66117658 372.51696553 53.6875 369.375 C60.77190057 364.94652604 67.85738669 360.51980358 74.94482422 356.09619141 C77.95327469 354.21669118 80.95911768 352.33307184 83.96484375 350.44921875 C87.65300716 348.13937825 91.35307908 345.85117245 95.06640625 343.58203125 C103.62161085 338.32555476 111.66871186 333.15425098 118.6875 325.875 C119.326875 325.22144531 119.96625 324.56789063 120.625 323.89453125 C131.87971241 311.74235255 137.77919486 296.09956144 137.83467102 279.57035828 C137.84018605 278.5002611 137.84018605 278.5002611 137.8458125 277.40854579 C137.85678247 275.02976201 137.86068169 272.65102201 137.86450195 270.2722168 C137.87077151 268.56181705 137.87741875 266.85141866 137.88441467 265.14102173 C137.90539368 259.53543027 137.91580925 253.92983873 137.92578125 248.32421875 C137.92983069 246.39092304 137.93394767 244.45762747 137.93813133 242.52433205 C137.95716711 233.44261968 137.9714032 224.36091537 137.9797433 215.2791869 C137.98951898 204.80849793 138.01585395 194.33802015 138.05624419 183.86740559 C138.08642536 175.76444913 138.10121396 167.66155317 138.10452431 159.5585416 C138.10687188 154.72308736 138.11579478 149.8878592 138.14098549 145.05246544 C138.16430723 140.50268745 138.168483 135.95328378 138.15822411 131.40346146 C138.15772968 129.73822724 138.16402242 128.07297432 138.17778015 126.40779686 C138.25740964 116.19458498 137.69396868 108.02865922 131.39453125 99.5859375 C128.28536459 96.47228431 125.23830023 94.53853145 121.375 92.5 C120.6735083 92.1184375 119.9720166 91.736875 119.24926758 91.34375 C109.61523674 86.14651465 99.8033294 81.32376568 89.89227295 76.68055725 C82.81305833 73.36052867 75.81954385 69.94538247 68.921875 66.26171875 C59.33675839 61.18265838 49.67136611 56.27384382 39.96899414 51.4230957 C37.22517516 50.05007755 34.48464429 48.67063691 31.74414062 47.29101562 C12.82688548 37.79998418 -3.80966749 30.38392925 -25.51171875 32.1328125 Z " fill="#2B0519" transform="translate(272.3125,37.125)"/>
<path d="M0 0 C3.72955532 3.11804265 6.45794739 6.37384218 8 11 C8.43343038 17.60981335 7.82380006 21.71438893 3.30099869 26.97686005 C1.06314403 29.32753652 -1.219495 31.6246767 -3.52294922 33.91113281 C-4.82829117 35.2243602 -4.82829117 35.2243602 -6.16000366 36.56411743 C-8.53880547 38.95383382 -10.92412852 41.33663667 -13.3131423 43.71611881 C-15.816385 46.21174374 -18.31227445 48.71470563 -20.80935669 51.2164917 C-25.00212708 55.41471247 -29.20116631 59.60658505 -33.40380859 63.79492188 C-38.25881071 68.63358823 -43.10289664 73.48298154 -47.9414748 78.33806729 C-52.10166163 82.51187675 -56.26767713 86.67980067 -60.43860257 90.84287906 C-62.92732531 93.32693094 -65.41399137 95.8129506 -67.89541245 98.3042984 C-70.66113699 101.08031387 -73.43903713 103.84394239 -76.21826172 106.60644531 C-77.03713867 107.43139496 -77.85601562 108.2563446 -78.69970703 109.10629272 C-79.45951874 109.85764496 -80.21933044 110.60899719 -81.00216675 111.38311768 C-81.65735228 112.03717213 -82.3125378 112.69122658 -82.98757744 113.36510086 C-86.47309448 116.19674711 -89.98772466 117.28870441 -94.4375 117.3125 C-95.15808594 117.32925781 -95.87867188 117.34601563 -96.62109375 117.36328125 C-102.14470425 116.51977423 -106.01797322 113.35868048 -109.87207031 109.51611328 C-110.78611633 108.61152374 -111.70016235 107.7069342 -112.64190674 106.77493286 C-113.62102958 105.79044059 -114.59975969 104.80555759 -115.578125 103.8203125 C-116.59565228 102.80480853 -117.61362434 101.78975005 -118.63201904 100.77511597 C-120.75828753 98.65325669 -122.87906991 96.52610128 -124.99609375 94.39501953 C-127.70501138 91.66898909 -130.42720571 88.95667917 -133.15364456 86.24818611 C-135.25577385 84.15691393 -137.35068519 82.05852849 -139.44350433 79.95794296 C-140.44440528 78.95504647 -141.44752382 77.95435795 -142.45291901 76.95596695 C-143.85772199 75.55881188 -145.25185267 74.15095099 -146.64550781 72.74267578 C-147.44015442 71.9456424 -148.23480103 71.14860901 -149.05352783 70.3274231 C-152.75157447 65.90561872 -153.40372519 61.79831125 -153.24609375 56.20703125 C-152.70729859 51.37497942 -150.56449775 48.29978535 -147 45.1875 C-143.45478572 42.60244792 -140.97494076 41.83885888 -136.6875 41.75 C-135.57955078 41.71132812 -135.57955078 41.71132812 -134.44921875 41.671875 C-127.54188595 42.5972593 -123.26080355 47.33549212 -118.6328125 52.07421875 C-117.95322479 52.7580513 -117.27363708 53.44188385 -116.57345581 54.1464386 C-114.41679106 56.31981867 -112.2708266 58.5034238 -110.125 60.6875 C-108.6595496 62.1680064 -107.19341094 63.64783186 -105.7265625 65.12695312 C-102.1430241 68.74346602 -98.56904196 72.3691825 -95 76 C-90.10609968 71.9272005 -85.51816409 67.64997263 -81.04248047 63.12426758 C-80.38624695 62.4649675 -79.73001343 61.80566742 -79.05389404 61.12638855 C-77.64129528 59.70668206 -76.22982737 58.28584963 -74.81939316 56.86399269 C-72.58549479 54.6125902 -70.34797263 52.36484765 -68.10940552 50.11808777 C-61.74946544 43.73378641 -55.39525009 37.34380955 -49.04541016 30.94946289 C-45.15125494 27.02852036 -41.25223845 23.11246671 -37.35019302 19.19937706 C-35.86754987 17.71053226 -34.38680613 16.21979342 -32.9080162 14.72712135 C-30.84280212 12.64268021 -28.77149066 10.56448243 -26.69873047 8.48754883 C-25.78841568 7.56409164 -25.78841568 7.56409164 -24.85971069 6.62197876 C-17.44704051 -0.77369891 -10.24867242 -4.08034236 0 0 Z " fill="#2C051A" transform="translate(329,198)"/>
</svg>
