<?xml version="1.0" encoding="UTF-8"?>
<svg version="1.1" xmlns="http://www.w3.org/2000/svg" viewBox="0 0 512 512">
<path d="M0 0 C1.43416008 -0.00855011 1.43416008 -0.00855011 2.89729309 -0.01727295 C4.91678786 -0.0266721 6.93629762 -0.03323656 8.95581055 -0.03710938 C11.96627626 -0.04670525 14.97602527 -0.07773184 17.98632812 -0.109375 C31.50376355 -0.18332219 44.50455381 0.97042306 57.83203125 3.203125 C59.00467529 3.39664551 60.17731934 3.59016602 61.38549805 3.78955078 C91.79620868 9.17507105 121.61810282 19.68291265 148.88037109 34.17431641 C151.02585706 35.30529938 153.18731934 36.40145552 155.3515625 37.49609375 C184.57997541 52.39702989 211.02346189 71.85231294 235.83203125 93.203125 C236.54746094 93.81671875 237.26289063 94.4303125 238 95.0625 C268.94875028 121.86347963 268.94875028 121.86347963 269.51953125 129.765625 C269.34282563 136.94818873 264.76537284 140.4924448 259.83203125 145.203125 C258.83210851 146.21628736 257.83612582 147.23335067 256.84375 148.25390625 C251.3943635 153.83548342 245.78497286 159.16038712 239.83203125 164.203125 C238.84074219 165.07195312 237.84945313 165.94078125 236.828125 166.8359375 C211.80234197 188.71480945 184.1900319 207.6303848 154.83203125 223.203125 C154.18234375 223.54794922 153.53265625 223.89277344 152.86328125 224.24804688 C119.08546573 242.00216507 82.72765734 254.30206617 44.83203125 259.203125 C44.16636642 259.29045395 43.5007016 259.3777829 42.81486511 259.46775818 C37.08545366 260.16549744 31.43261234 260.37872683 25.6640625 260.40625 C24.70795578 260.41195007 23.75184906 260.41765015 22.76676941 260.42352295 C20.74727464 260.4329221 18.72776488 260.43948656 16.70825195 260.44335938 C13.69778624 260.45295525 10.68803723 260.48398184 7.67773438 260.515625 C-5.83970105 260.58957219 -18.84049131 259.43582694 -32.16796875 257.203125 C-33.34061279 257.00960449 -34.51325684 256.81608398 -35.72143555 256.61669922 C-66.13214618 251.23117895 -95.95404032 240.72333735 -123.21630859 226.23193359 C-125.36179456 225.10095062 -127.52325684 224.00479448 -129.6875 222.91015625 C-158.91591291 208.00922011 -185.35939939 188.55393706 -210.16796875 167.203125 C-210.88339844 166.58953125 -211.59882813 165.9759375 -212.3359375 165.34375 C-243.28468778 138.54277037 -243.28468778 138.54277037 -243.85546875 130.640625 C-243.67876313 123.45806127 -239.10131034 119.9138052 -234.16796875 115.203125 C-233.16804601 114.18996264 -232.17206332 113.17289933 -231.1796875 112.15234375 C-225.730301 106.57076658 -220.12091036 101.24586288 -214.16796875 96.203125 C-213.17667969 95.33429688 -212.18539062 94.46546875 -211.1640625 93.5703125 C-186.13827947 71.69144055 -158.5259694 52.7758652 -129.16796875 37.203125 C-128.1934375 36.68588867 -128.1934375 36.68588867 -127.19921875 36.15820312 C-93.42140323 18.40408493 -57.06359484 6.10418383 -19.16796875 1.203125 C-18.50230392 1.11579605 -17.8366391 1.0284671 -17.15080261 0.93849182 C-11.42139116 0.24075256 -5.76854984 0.02752317 0 0 Z M-22.16796875 26.203125 C-22.82861328 26.43628418 -23.48925781 26.66944336 -24.16992188 26.90966797 C-40.60107023 32.82198803 -53.86408126 41.89923751 -66.16796875 54.203125 C-66.98007813 55.01523438 -67.7921875 55.82734375 -68.62890625 56.6640625 C-74.53948476 62.89740298 -78.96523769 69.73259245 -83.16796875 77.203125 C-83.9878125 78.65525391 -83.9878125 78.65525391 -84.82421875 80.13671875 C-93.121701 95.73683206 -96.56415002 112.38005878 -96.48046875 129.953125 C-96.4748291 131.1915918 -96.46918945 132.43005859 -96.46337891 133.70605469 C-96.06288553 163.88184239 -82.70416832 189.61032635 -61.609375 210.76953125 C-55.03694463 217.01763269 -48.06976741 221.7834749 -40.16796875 226.203125 C-39.24757812 226.73679687 -38.3271875 227.27046875 -37.37890625 227.8203125 C-12.57706671 241.30412949 17.20725947 243.38753575 44.08203125 235.578125 C71.63771761 226.98120079 94.73637589 208.47179444 108.83203125 183.203125 C109.37730469 182.23632812 109.92257812 181.26953125 110.484375 180.2734375 C122.3734893 157.94731446 126.04285594 129.35655921 119.9296875 104.76171875 C114.23528945 86.30052079 106.88078174 70.67214765 93.83203125 56.203125 C93.0740625 55.36265625 92.31609375 54.5221875 91.53515625 53.65625 C76.80072184 38.15138765 58.32106834 28.66983121 37.83203125 23.203125 C36.95289063 22.96851563 36.07375 22.73390625 35.16796875 22.4921875 C16.50498265 18.18534455 -4.22112237 19.78491424 -22.16796875 26.203125 Z M-169.47314453 87.88916016 C-172.06384674 89.89768209 -174.71387093 91.82478915 -177.35546875 93.765625 C-186.56596242 100.67661957 -195.23593354 108.24943251 -203.7421875 116.00390625 C-205.45863418 117.56004068 -207.19222454 119.09736242 -208.9375 120.62109375 C-209.83855469 121.41128906 -210.73960937 122.20148438 -211.66796875 123.015625 C-212.48265625 123.72332031 -213.29734375 124.43101562 -214.13671875 125.16015625 C-216.07501145 127.10963141 -217.12589741 128.68289812 -218.16796875 131.203125 C-213.69155078 135.78669127 -209.13880748 140.19739523 -204.27734375 144.37109375 C-201.99167329 146.35624087 -199.77095497 148.4035233 -197.54296875 150.453125 C-191.34236581 156.03933893 -184.78967332 161.13118108 -178.16796875 166.203125 C-177.52520996 166.69748047 -176.88245117 167.19183594 -176.22021484 167.70117188 C-150.054899 187.7756724 -121.60639529 205.12321075 -91.23046875 218.078125 C-90.43761475 218.41811523 -89.64476074 218.75810547 -88.82788086 219.10839844 C-86.96733922 219.87346545 -85.07014047 220.54838423 -83.16796875 221.203125 C-82.50796875 220.873125 -81.84796875 220.543125 -81.16796875 220.203125 C-81.70164063 219.65527344 -82.2353125 219.10742188 -82.78515625 218.54296875 C-105.25968054 194.62976383 -116.63867243 163.35113193 -116.54296875 130.703125 C-116.54242493 130.00202606 -116.5418811 129.30092712 -116.5413208 128.57858276 C-116.49931036 116.75533136 -115.49938653 105.58866009 -112.16796875 94.203125 C-111.95897949 93.47673828 -111.74999023 92.75035156 -111.53466797 92.00195312 C-106.16448228 73.96456539 -96.84966704 58.81504429 -85.16796875 44.203125 C-84.39066406 43.22859375 -83.61335937 42.2540625 -82.8125 41.25 C-81.99845703 40.23679688 -81.99845703 40.23679688 -81.16796875 39.203125 C-108.20422207 39.203125 -149.00143409 71.86757602 -169.47314453 87.88916016 Z M106.83203125 39.203125 C110.64797883 44.39130191 110.64797883 44.39130191 114.6953125 49.3984375 C138.03170999 76.9905708 143.40586649 111.16550799 141.83203125 146.203125 C139.29397642 174.26127749 125.56935155 199.71859477 106.83203125 220.203125 C108.81615451 221.48818633 108.81615451 221.48818633 110.98901367 220.49731445 C111.87951416 220.10761475 112.77001465 219.71791504 113.6875 219.31640625 C115.19195679 218.66043457 115.19195679 218.66043457 116.72680664 217.99121094 C117.81340576 217.50426758 118.90000488 217.01732422 120.01953125 216.515625 C121.70453735 215.76394043 121.70453735 215.76394043 123.42358398 214.99707031 C150.74934461 202.65454835 176.06680981 187.48277415 199.83203125 169.203125 C200.46786133 168.7189209 201.10369141 168.2347168 201.75878906 167.73583984 C216.57056156 156.44334449 230.31099089 143.9953717 243.83203125 131.203125 C240.64639242 124.56594994 234.80172341 120.05782247 229.28515625 115.3203125 C227.40340301 113.69625159 225.54355413 112.0556804 223.69140625 110.3984375 C213.52953399 101.3658192 202.80800401 93.21673212 191.83203125 85.203125 C191.10757813 84.66800293 190.383125 84.13288086 189.63671875 83.58154297 C151.00911901 54.04974876 151.00911901 54.04974876 106.83203125 39.203125 Z " fill="#2B0519" transform="translate(243.16796875,185.796875)"/>
<path d="M0 0 C8.64822802 6.87119486 15.44311132 18.01837448 17 29 C18.40895106 46.55709566 15.56638733 59.95954698 4.4140625 73.99609375 C-3.81286908 83.00558711 -15.56118495 88.6401856 -27.6484375 89.3125 C-44.13318085 89.87527929 -57.29779856 86.1831071 -69.75 74.8125 C-80.88341536 62.87619411 -83.80272194 49.59143924 -83.34375 33.85546875 C-82.66010765 21.18611097 -76.33281061 9.26446012 -67.0703125 0.625 C-46.64754218 -15.40494803 -20.73790664 -15.44661826 0 0 Z " fill="#2C051A" transform="translate(289,277)"/>
<path d="M0 0 C4.33472803 2.32217573 4.33472803 2.32217573 6 5 C7.83596911 12.53961647 4.76532158 18.23481103 1.02075195 24.61889648 C0.30602766 25.78791963 -0.40923496 26.9566138 -1.125 28.125 C-1.85332327 29.34784782 -2.57961489 30.57190778 -3.30395508 31.79711914 C-4.78894505 34.30359644 -6.28486345 36.80305359 -7.78857422 39.29833984 C-9.91150196 42.83369609 -11.96424146 46.40420412 -14.00390625 49.98828125 C-14.62571777 51.0767334 -15.2475293 52.16518555 -15.88818359 53.28662109 C-17.05985923 55.33840478 -18.22832167 57.3920278 -19.39306641 59.44775391 C-26.17900851 71.17934793 -26.17900851 71.17934793 -32.4375 73 C-36.53094236 73 -38.59065251 72.22004022 -42 70 C-44.88816066 65.66775901 -44.80202416 62.08332664 -44 57 C-42.39451933 53.06370155 -40.21257022 49.58220475 -37.9375 46 C-36.65476249 43.8993451 -35.37356896 41.79774679 -34.09375 39.6953125 C-33.4234375 38.60766602 -32.753125 37.52001953 -32.0625 36.39941406 C-29.95127778 32.919696 -27.91474199 29.40669538 -25.90625 25.8671875 C-25.57266983 25.28052307 -25.23908966 24.69385864 -24.895401 24.0894165 C-23.28056475 21.24699739 -21.67058062 18.40189905 -20.06420898 15.5546875 C-10.25770371 -1.5956428 -10.25770371 -1.5956428 0 0 Z " fill="#2B0519" transform="translate(380,98)"/>
<path d="M0 0 C8.02623877 2.50819962 11.21205421 10.54910181 14.875 17.4140625 C16.10794146 19.67135651 17.34232269 21.9278647 18.578125 24.18359375 C19.17947266 25.28783691 19.78082031 26.39208008 20.40039062 27.52978516 C22.73183475 31.76691421 25.15938229 35.94149245 27.625 40.1015625 C28.02477051 40.78387939 28.42454102 41.46619629 28.83642578 42.16918945 C30.51671121 45.02397097 32.22680515 47.81615695 34.0703125 50.5703125 C37.38180639 55.56065678 39.06166797 59.37495274 38.640625 65.4609375 C37.78124919 69.13281596 36.2244066 70.61977304 33.125 72.6640625 C29.36090068 73.75907321 27.06257274 73.9432566 23.3046875 72.82421875 C18.50749171 69.56519016 16.44112546 65.11750595 13.6875 60.1015625 C12.46360629 57.93746345 11.23964548 55.77340235 10.015625 53.609375 C9.38333984 52.47790039 8.75105469 51.34642578 8.09960938 50.18066406 C5.42541067 45.40254436 2.67836045 40.66677116 -0.06469727 35.92797852 C-2.5106989 31.70225138 -4.94522525 27.46995955 -7.37963867 23.23754883 C-8.40559676 21.4718959 -9.45942457 19.7222319 -10.53613281 17.98706055 C-12.82138136 14.02204597 -12.75261018 10.08837826 -11.875 5.6640625 C-9.15143819 1.1746749 -4.95335213 0.10319484 0 0 Z " fill="#2B0519" transform="translate(137.875,97.3359375)"/>
<path d="M0 0 C0.825 -0.01289062 1.65 -0.02578125 2.5 -0.0390625 C6.14904237 0.93021438 7.61702585 2.73584401 10 5.625 C10.63491821 8.85009766 10.63491821 8.85009766 10.64697266 12.5390625 C10.66011505 13.55223541 10.66011505 13.55223541 10.67352295 14.58587646 C10.69544369 16.80791382 10.68099347 19.02794416 10.6640625 21.25 C10.66743282 22.80029684 10.67228724 24.35059109 10.67855835 25.90087891 C10.68591963 29.1457644 10.67524926 32.38996045 10.65185547 35.63476562 C10.62336682 39.7880033 10.63977498 43.93962551 10.66971779 48.09280396 C10.68781168 51.29284777 10.68202345 54.49251043 10.66907883 57.69256592 C10.66575053 59.22353305 10.66981169 60.75453512 10.68147659 62.28546143 C10.69422147 64.4282149 10.67476493 66.56837649 10.64697266 68.7109375 C10.64299469 69.9282959 10.63901672 71.1456543 10.63491821 72.39990234 C9.82245793 76.52683352 8.23078004 78.01972069 5 80.625 C2.5 81.2890625 2.5 81.2890625 0 81.25 C-1.2375 81.26933594 -1.2375 81.26933594 -2.5 81.2890625 C-6.14904237 80.31978562 -7.61702585 78.51415599 -10 75.625 C-10.63491821 72.39990234 -10.63491821 72.39990234 -10.64697266 68.7109375 C-10.66011505 67.69776459 -10.66011505 67.69776459 -10.67352295 66.66412354 C-10.69544369 64.44208618 -10.68099347 62.22205584 -10.6640625 60 C-10.66743282 58.44970316 -10.67228724 56.89940891 -10.67855835 55.34912109 C-10.68591963 52.1042356 -10.67524926 48.86003955 -10.65185547 45.61523438 C-10.62336682 41.4619967 -10.63977498 37.31037449 -10.66971779 33.15719604 C-10.68781168 29.95715223 -10.68202345 26.75748957 -10.66907883 23.55743408 C-10.66575053 22.02646695 -10.66981169 20.49546488 -10.68147659 18.96453857 C-10.69422147 16.8217851 -10.67476493 14.68162351 -10.64697266 12.5390625 C-10.64299469 11.3217041 -10.63901672 10.1043457 -10.63491821 8.85009766 C-9.50781136 3.12490409 -5.82978271 -0.09109035 0 0 Z " fill="#2B051A" transform="translate(256,65.375)"/>
</svg>
