<?xml version="1.0" encoding="UTF-8"?>
<svg version="1.1" xmlns="http://www.w3.org/2000/svg" viewBox="0 0 512 512">
<path d="M0 0 C0.80717097 -0.00453111 1.61434193 -0.00906223 2.44597262 -0.01373065 C5.1480967 -0.02638122 7.8500194 -0.02475385 10.5521698 -0.02310181 C12.49064391 -0.02908666 14.42911564 -0.03589211 16.36758423 -0.04345703 C21.63213295 -0.06112903 26.89661666 -0.06581293 32.16119218 -0.0670886 C35.4510117 -0.06851013 38.74081469 -0.07277978 42.03063011 -0.07808304 C53.50982589 -0.0965876 64.98897522 -0.10475315 76.46818542 -0.10317993 C87.16492397 -0.10197856 97.86146072 -0.123079 108.55814821 -0.15466726 C117.74471956 -0.18082831 126.931225 -0.19154729 136.11783332 -0.19026911 C141.60326364 -0.18975941 147.08851466 -0.19544722 152.57390785 -0.21662521 C157.73432934 -0.23600448 162.89440044 -0.23613406 168.05483437 -0.22159195 C169.94623832 -0.21950235 171.83766419 -0.22421377 173.72903061 -0.23631287 C176.31658981 -0.25179023 178.90294454 -0.24244125 181.49047852 -0.22705078 C182.60602016 -0.24248147 182.60602016 -0.24248147 183.74409801 -0.25822389 C190.19083244 -0.17382588 195.3246683 1.97934827 200.17790222 6.23226929 C200.71673035 6.88324585 201.25555847 7.53422241 201.81071472 8.20492554 C202.3650116 8.85332397 202.91930847 9.50172241 203.49040222 10.16976929 C206.97852716 15.23226413 207.23295634 19.96188474 207.22624207 25.96981812 C207.23295929 26.83551926 207.23967651 27.7012204 207.24659729 28.59315491 C207.26556423 31.44948092 207.26950094 34.30557175 207.27165222 37.16195679 C207.27808145 39.15346879 207.28480991 41.14497984 207.29182434 43.13648987 C207.30379413 47.31012155 207.30750551 51.48367048 207.30632019 55.65731812 C207.30611711 60.99370083 207.33340926 66.32955032 207.36786461 71.66580677 C207.39015209 75.77946895 207.39415715 79.89300323 207.39310074 84.00671959 C207.39545429 85.97342451 207.40426391 87.94013309 207.41976547 89.90677834 C207.43946117 92.66384336 207.43357329 95.41976413 207.42155457 98.17684937 C207.43279358 98.9817984 207.44403259 99.78674744 207.45561218 100.61608887 C207.38201612 107.29270071 205.38813793 112.46883524 200.97087097 117.50961304 C200.31989441 118.04844116 199.66891785 118.58726929 198.99821472 119.14242554 C198.34981628 119.69672241 197.70141785 120.25101929 197.03337097 120.82211304 C192.15625861 124.18250703 187.66639548 124.55876967 181.87142944 124.53485107 C181.06425848 124.53938219 180.25708751 124.5439133 179.42545682 124.54858172 C176.72333274 124.56123229 174.02141005 124.55960493 171.31925964 124.55795288 C169.38078553 124.56393774 167.4423138 124.57074319 165.50384521 124.57830811 C160.23929649 124.5959801 154.97481278 124.60066401 149.71023726 124.60193968 C146.42041774 124.60336121 143.13061475 124.60763085 139.84079933 124.61293411 C128.36160355 124.63143867 116.88245422 124.63960423 105.40324402 124.63803101 C94.70650547 124.63682964 84.00996872 124.65793007 73.31328124 124.68951833 C64.12670989 124.71567938 54.94020444 124.72639836 45.75359613 124.72512019 C40.2681658 124.72461049 34.78291478 124.73029829 29.29752159 124.75147629 C24.1371001 124.77085555 18.977029 124.77098513 13.81659508 124.75644302 C11.92519112 124.75435342 10.03376525 124.75906484 8.14239883 124.77116394 C5.55483963 124.78664131 2.9684849 124.77729232 0.38095093 124.76190186 C-0.3627435 124.77218898 -1.10643794 124.78247611 -1.87266856 124.79307497 C-8.31940299 124.70867696 -13.45323886 122.5555028 -18.30647278 118.30258179 C-18.8453009 117.65160522 -19.38412903 117.00062866 -19.93928528 116.32992554 C-20.49358215 115.6815271 -21.04787903 115.03312866 -21.61897278 114.36508179 C-25.10709771 109.30258695 -25.3615269 104.57296634 -25.35481262 98.56503296 C-25.36152985 97.69933182 -25.36824707 96.83363068 -25.37516785 95.94169617 C-25.39413478 93.08537016 -25.3980715 90.22927932 -25.40022278 87.37289429 C-25.40665201 85.38138229 -25.41338046 83.38987123 -25.4203949 81.39836121 C-25.43236469 77.22472952 -25.43607606 73.05118059 -25.43489075 68.87753296 C-25.43468767 63.54115025 -25.46197981 58.20530075 -25.49643517 52.8690443 C-25.51872265 48.75538213 -25.5227277 44.64184785 -25.5216713 40.52813148 C-25.52402485 38.56142656 -25.53283447 36.59471798 -25.54833603 34.62807274 C-25.56803173 31.87100771 -25.56214384 29.11508695 -25.55012512 26.35800171 C-25.56136414 25.55305267 -25.57260315 24.74810364 -25.58418274 23.91876221 C-25.51058668 17.24215036 -23.51670849 12.06601584 -19.09944153 7.02523804 C-18.44846497 6.48640991 -17.7974884 5.94758179 -17.12678528 5.39242554 C-16.47838684 4.83812866 -15.8299884 4.28383179 -15.16194153 3.71273804 C-10.28482917 0.35234404 -5.79496603 -0.02391859 0 0 Z M-7.06428528 19.26742554 C-9.45322014 23.17664292 -9.35512678 27.25316524 -9.33894348 31.71640015 C-9.34405441 32.44876389 -9.34916534 33.18112762 -9.35443115 33.9356842 C-9.36828641 36.34712994 -9.36737353 38.75828857 -9.36506653 41.16976929 C-9.36895561 42.85218918 -9.37329071 44.5346081 -9.37805176 46.21702576 C-9.38550515 49.73996161 -9.38522903 53.26279722 -9.37995911 56.78573608 C-9.37416464 61.29271354 -9.39109904 65.79928002 -9.41430378 70.30618954 C-9.42905941 73.77982468 -9.42991035 77.25336124 -9.42679405 80.72702217 C-9.42730631 82.38835019 -9.43252614 84.04968385 -9.44260597 85.71098137 C-9.45498928 88.03727553 -9.44816803 90.36277428 -9.43659973 92.6890564 C-9.44424347 93.37028564 -9.45188721 94.05151489 -9.45976257 94.75338745 C-9.40998258 99.29894758 -8.61469227 102.48813211 -6.06428528 106.26742554 C-1.97140707 108.46556107 1.94107345 108.55273409 6.48196411 108.52812195 C7.60908266 108.53386027 7.60908266 108.53386027 8.75897127 108.53971452 C11.27230299 108.55001849 13.78540515 108.54605735 16.29875183 108.54208374 C18.10254121 108.54643164 19.90632874 108.55161505 21.71011353 108.55757141 C26.60677916 108.57096388 31.50336763 108.57153983 36.40004802 108.56900811 C40.48810465 108.56793862 44.57614565 108.57282118 48.66419894 108.57761353 C58.30834564 108.58870947 67.95245339 108.58914556 77.59660339 108.58309937 C87.54581561 108.57705784 97.49488647 108.58937494 107.44407457 108.61066943 C115.98688278 108.62828151 124.52964598 108.63428743 133.07247168 108.63103169 C138.17439051 108.62921815 143.27620849 108.63186222 148.37811089 108.64574623 C153.17570521 108.65831359 157.97307903 108.65639079 162.77066994 108.64333534 C164.53067982 108.64096768 166.29070517 108.64371105 168.05069733 108.65195847 C170.45488161 108.66241163 172.85832403 108.65433718 175.26248169 108.64164734 C175.95752853 108.64902162 176.65257537 108.65639591 177.36868423 108.66399366 C181.93172128 108.61338833 185.06152057 107.66972934 188.93571472 105.26742554 C191.32464958 101.35820815 191.22655622 97.28168584 191.21037292 92.81845093 C191.21548386 92.08608719 191.22059479 91.35372345 191.2258606 90.59916687 C191.23971585 88.18772114 191.23880297 85.7765625 191.23649597 83.36508179 C191.24038505 81.68266189 191.24472016 80.00024297 191.2494812 78.31782532 C191.25693459 74.79488947 191.25665847 71.27205385 191.25138855 67.74911499 C191.24559408 63.24213754 191.26252848 58.73557106 191.28573322 54.22866154 C191.30048885 50.7550264 191.3013398 47.28148983 191.2982235 43.8078289 C191.29873575 42.14650089 191.30395559 40.48516722 191.31403542 38.82386971 C191.32641872 36.49757555 191.31959748 34.1720768 191.30802917 31.84579468 C191.31567291 31.16456543 191.32331665 30.48333618 191.33119202 29.78146362 C191.28141202 25.2359035 190.48612171 22.04671897 187.93571472 18.26742554 C183.84283652 16.06929001 179.93035599 15.98211698 175.38946533 16.00672913 C174.63805297 16.00290358 173.8866406 15.99907803 173.11245817 15.99513656 C170.59912645 15.98483258 168.0860243 15.98879372 165.57267761 15.99276733 C163.76888823 15.98841943 161.9651007 15.98323602 160.16131592 15.97727966 C155.26465028 15.96388719 150.36806181 15.96331125 145.47138143 15.96584296 C141.3833248 15.96691245 137.29528379 15.96202989 133.20723051 15.95723754 C123.5630838 15.94614161 113.91897605 15.94570551 104.27482605 15.95175171 C94.32561383 15.95779323 84.37654297 15.94547613 74.42735487 15.92418164 C65.88454666 15.90656957 57.34178346 15.90056364 48.79895777 15.90381938 C43.69703894 15.90563293 38.59522095 15.90298886 33.49331856 15.88910484 C28.69572423 15.87653748 23.89835041 15.87846029 19.10075951 15.89151573 C17.34074962 15.8938834 15.58072427 15.89114002 13.82073212 15.88289261 C11.41654784 15.87243944 9.01310541 15.8805139 6.60894775 15.89320374 C5.91390091 15.88582945 5.21885408 15.87845517 4.50274521 15.87085742 C-0.06029183 15.92146274 -3.19009113 16.86512173 -7.06428528 19.26742554 Z " fill="#2C0519" transform="translate(273.0642852783203,355.7325744628906)"/>
<path d="M0 0 C0.80717097 -0.00453111 1.61434193 -0.00906223 2.44597262 -0.01373065 C5.1480967 -0.02638122 7.8500194 -0.02475385 10.5521698 -0.02310181 C12.49064391 -0.02908666 14.42911564 -0.03589211 16.36758423 -0.04345703 C21.63213295 -0.06112903 26.89661666 -0.06581293 32.16119218 -0.0670886 C35.4510117 -0.06851013 38.74081469 -0.07277978 42.03063011 -0.07808304 C53.50982589 -0.0965876 64.98897522 -0.10475315 76.46818542 -0.10317993 C87.16492397 -0.10197856 97.86146072 -0.123079 108.55814821 -0.15466726 C117.74471956 -0.18082831 126.931225 -0.19154729 136.11783332 -0.19026911 C141.60326364 -0.18975941 147.08851466 -0.19544722 152.57390785 -0.21662521 C157.73432934 -0.23600448 162.89440044 -0.23613406 168.05483437 -0.22159195 C169.94623832 -0.21950235 171.83766419 -0.22421377 173.72903061 -0.23631287 C176.31658981 -0.25179023 178.90294454 -0.24244125 181.49047852 -0.22705078 C182.60602016 -0.24248147 182.60602016 -0.24248147 183.74409801 -0.25822389 C190.19083244 -0.17382588 195.3246683 1.97934827 200.17790222 6.23226929 C200.71673035 6.88324585 201.25555847 7.53422241 201.81071472 8.20492554 C202.3650116 8.85332397 202.91930847 9.50172241 203.49040222 10.16976929 C206.97852716 15.23226413 207.23295634 19.96188474 207.22624207 25.96981812 C207.23295929 26.83551926 207.23967651 27.7012204 207.24659729 28.59315491 C207.26556423 31.44948092 207.26950094 34.30557175 207.27165222 37.16195679 C207.27808145 39.15346879 207.28480991 41.14497984 207.29182434 43.13648987 C207.30379413 47.31012155 207.30750551 51.48367048 207.30632019 55.65731812 C207.30611711 60.99370083 207.33340926 66.32955032 207.36786461 71.66580677 C207.39015209 75.77946895 207.39415715 79.89300323 207.39310074 84.00671959 C207.39545429 85.97342451 207.40426391 87.94013309 207.41976547 89.90677834 C207.43946117 92.66384336 207.43357329 95.41976413 207.42155457 98.17684937 C207.43279358 98.9817984 207.44403259 99.78674744 207.45561218 100.61608887 C207.38201612 107.29270071 205.38813793 112.46883524 200.97087097 117.50961304 C200.31989441 118.04844116 199.66891785 118.58726929 198.99821472 119.14242554 C198.34981628 119.69672241 197.70141785 120.25101929 197.03337097 120.82211304 C192.15625861 124.18250703 187.66639548 124.55876967 181.87142944 124.53485107 C181.06425848 124.53938219 180.25708751 124.5439133 179.42545682 124.54858172 C176.72333274 124.56123229 174.02141005 124.55960493 171.31925964 124.55795288 C169.38078553 124.56393774 167.4423138 124.57074319 165.50384521 124.57830811 C160.23929649 124.5959801 154.97481278 124.60066401 149.71023726 124.60193968 C146.42041774 124.60336121 143.13061475 124.60763085 139.84079933 124.61293411 C128.36160355 124.63143867 116.88245422 124.63960423 105.40324402 124.63803101 C94.70650547 124.63682964 84.00996872 124.65793007 73.31328124 124.68951833 C64.12670989 124.71567938 54.94020444 124.72639836 45.75359613 124.72512019 C40.2681658 124.72461049 34.78291478 124.73029829 29.29752159 124.75147629 C24.1371001 124.77085555 18.977029 124.77098513 13.81659508 124.75644302 C11.92519112 124.75435342 10.03376525 124.75906484 8.14239883 124.77116394 C5.55483963 124.78664131 2.9684849 124.77729232 0.38095093 124.76190186 C-0.3627435 124.77218898 -1.10643794 124.78247611 -1.87266856 124.79307497 C-8.31940299 124.70867696 -13.45323886 122.5555028 -18.30647278 118.30258179 C-18.8453009 117.65160522 -19.38412903 117.00062866 -19.93928528 116.32992554 C-20.49358215 115.6815271 -21.04787903 115.03312866 -21.61897278 114.36508179 C-25.10709771 109.30258695 -25.3615269 104.57296634 -25.35481262 98.56503296 C-25.36152985 97.69933182 -25.36824707 96.83363068 -25.37516785 95.94169617 C-25.39413478 93.08537016 -25.3980715 90.22927932 -25.40022278 87.37289429 C-25.40665201 85.38138229 -25.41338046 83.38987123 -25.4203949 81.39836121 C-25.43236469 77.22472952 -25.43607606 73.05118059 -25.43489075 68.87753296 C-25.43468767 63.54115025 -25.46197981 58.20530075 -25.49643517 52.8690443 C-25.51872265 48.75538213 -25.5227277 44.64184785 -25.5216713 40.52813148 C-25.52402485 38.56142656 -25.53283447 36.59471798 -25.54833603 34.62807274 C-25.56803173 31.87100771 -25.56214384 29.11508695 -25.55012512 26.35800171 C-25.56136414 25.55305267 -25.57260315 24.74810364 -25.58418274 23.91876221 C-25.51058668 17.24215036 -23.51670849 12.06601584 -19.09944153 7.02523804 C-18.44846497 6.48640991 -17.7974884 5.94758179 -17.12678528 5.39242554 C-16.47838684 4.83812866 -15.8299884 4.28383179 -15.16194153 3.71273804 C-10.28482917 0.35234404 -5.79496603 -0.02391859 0 0 Z M-7.06428528 19.26742554 C-9.45322014 23.17664292 -9.35512678 27.25316524 -9.33894348 31.71640015 C-9.34405441 32.44876389 -9.34916534 33.18112762 -9.35443115 33.9356842 C-9.36828641 36.34712994 -9.36737353 38.75828857 -9.36506653 41.16976929 C-9.36895561 42.85218918 -9.37329071 44.5346081 -9.37805176 46.21702576 C-9.38550515 49.73996161 -9.38522903 53.26279722 -9.37995911 56.78573608 C-9.37416464 61.29271354 -9.39109904 65.79928002 -9.41430378 70.30618954 C-9.42905941 73.77982468 -9.42991035 77.25336124 -9.42679405 80.72702217 C-9.42730631 82.38835019 -9.43252614 84.04968385 -9.44260597 85.71098137 C-9.45498928 88.03727553 -9.44816803 90.36277428 -9.43659973 92.6890564 C-9.44424347 93.37028564 -9.45188721 94.05151489 -9.45976257 94.75338745 C-9.40998258 99.29894758 -8.61469227 102.48813211 -6.06428528 106.26742554 C-1.97140707 108.46556107 1.94107345 108.55273409 6.48196411 108.52812195 C7.60908266 108.53386027 7.60908266 108.53386027 8.75897127 108.53971452 C11.27230299 108.55001849 13.78540515 108.54605735 16.29875183 108.54208374 C18.10254121 108.54643164 19.90632874 108.55161505 21.71011353 108.55757141 C26.60677916 108.57096388 31.50336763 108.57153983 36.40004802 108.56900811 C40.48810465 108.56793862 44.57614565 108.57282118 48.66419894 108.57761353 C58.30834564 108.58870947 67.95245339 108.58914556 77.59660339 108.58309937 C87.54581561 108.57705784 97.49488647 108.58937494 107.44407457 108.61066943 C115.98688278 108.62828151 124.52964598 108.63428743 133.07247168 108.63103169 C138.17439051 108.62921815 143.27620849 108.63186222 148.37811089 108.64574623 C153.17570521 108.65831359 157.97307903 108.65639079 162.77066994 108.64333534 C164.53067982 108.64096768 166.29070517 108.64371105 168.05069733 108.65195847 C170.45488161 108.66241163 172.85832403 108.65433718 175.26248169 108.64164734 C175.95752853 108.64902162 176.65257537 108.65639591 177.36868423 108.66399366 C181.93172128 108.61338833 185.06152057 107.66972934 188.93571472 105.26742554 C191.32464958 101.35820815 191.22655622 97.28168584 191.21037292 92.81845093 C191.21548386 92.08608719 191.22059479 91.35372345 191.2258606 90.59916687 C191.23971585 88.18772114 191.23880297 85.7765625 191.23649597 83.36508179 C191.24038505 81.68266189 191.24472016 80.00024297 191.2494812 78.31782532 C191.25693459 74.79488947 191.25665847 71.27205385 191.25138855 67.74911499 C191.24559408 63.24213754 191.26252848 58.73557106 191.28573322 54.22866154 C191.30048885 50.7550264 191.3013398 47.28148983 191.2982235 43.8078289 C191.29873575 42.14650089 191.30395559 40.48516722 191.31403542 38.82386971 C191.32641872 36.49757555 191.31959748 34.1720768 191.30802917 31.84579468 C191.31567291 31.16456543 191.32331665 30.48333618 191.33119202 29.78146362 C191.28141202 25.2359035 190.48612171 22.04671897 187.93571472 18.26742554 C183.84283652 16.06929001 179.93035599 15.98211698 175.38946533 16.00672913 C174.63805297 16.00290358 173.8866406 15.99907803 173.11245817 15.99513656 C170.59912645 15.98483258 168.0860243 15.98879372 165.57267761 15.99276733 C163.76888823 15.98841943 161.9651007 15.98323602 160.16131592 15.97727966 C155.26465028 15.96388719 150.36806181 15.96331125 145.47138143 15.96584296 C141.3833248 15.96691245 137.29528379 15.96202989 133.20723051 15.95723754 C123.5630838 15.94614161 113.91897605 15.94570551 104.27482605 15.95175171 C94.32561383 15.95779323 84.37654297 15.94547613 74.42735487 15.92418164 C65.88454666 15.90656957 57.34178346 15.90056364 48.79895777 15.90381938 C43.69703894 15.90563293 38.59522095 15.90298886 33.49331856 15.88910484 C28.69572423 15.87653748 23.89835041 15.87846029 19.10075951 15.89151573 C17.34074962 15.8938834 15.58072427 15.89114002 13.82073212 15.88289261 C11.41654784 15.87243944 9.01310541 15.8805139 6.60894775 15.89320374 C5.91390091 15.88582945 5.21885408 15.87845517 4.50274521 15.87085742 C-0.06029183 15.92146274 -3.19009113 16.86512173 -7.06428528 19.26742554 Z " fill="#2C0519" transform="translate(165.0642852783203,193.73257446289063)"/>
<path d="M0 0 C0.80717097 -0.00453111 1.61434193 -0.00906223 2.44597262 -0.01373065 C5.1480967 -0.02638122 7.8500194 -0.02475385 10.5521698 -0.02310181 C12.49064391 -0.02908666 14.42911564 -0.03589211 16.36758423 -0.04345703 C21.63213295 -0.06112903 26.89661666 -0.06581293 32.16119218 -0.0670886 C35.4510117 -0.06851013 38.74081469 -0.07277978 42.03063011 -0.07808304 C53.50982589 -0.0965876 64.98897522 -0.10475315 76.46818542 -0.10317993 C87.16492397 -0.10197856 97.86146072 -0.123079 108.55814821 -0.15466726 C117.74471956 -0.18082831 126.931225 -0.19154729 136.11783332 -0.19026911 C141.60326364 -0.18975941 147.08851466 -0.19544722 152.57390785 -0.21662521 C157.73432934 -0.23600448 162.89440044 -0.23613406 168.05483437 -0.22159195 C169.94623832 -0.21950235 171.83766419 -0.22421377 173.72903061 -0.23631287 C176.31658981 -0.25179023 178.90294454 -0.24244125 181.49047852 -0.22705078 C182.60602016 -0.24248147 182.60602016 -0.24248147 183.74409801 -0.25822389 C190.19083244 -0.17382588 195.3246683 1.97934827 200.17790222 6.23226929 C200.71673035 6.88324585 201.25555847 7.53422241 201.81071472 8.20492554 C202.3650116 8.85332397 202.91930847 9.50172241 203.49040222 10.16976929 C206.97852716 15.23226413 207.23295634 19.96188474 207.22624207 25.96981812 C207.23295929 26.83551926 207.23967651 27.7012204 207.24659729 28.59315491 C207.26556423 31.44948092 207.26950094 34.30557175 207.27165222 37.16195679 C207.27808145 39.15346879 207.28480991 41.14497984 207.29182434 43.13648987 C207.30379413 47.31012155 207.30750551 51.48367048 207.30632019 55.65731812 C207.30611711 60.99370083 207.33340926 66.32955032 207.36786461 71.66580677 C207.39015209 75.77946895 207.39415715 79.89300323 207.39310074 84.00671959 C207.39545429 85.97342451 207.40426391 87.94013309 207.41976547 89.90677834 C207.43946117 92.66384336 207.43357329 95.41976413 207.42155457 98.17684937 C207.43279358 98.9817984 207.44403259 99.78674744 207.45561218 100.61608887 C207.38201612 107.29270071 205.38813793 112.46883524 200.97087097 117.50961304 C200.31989441 118.04844116 199.66891785 118.58726929 198.99821472 119.14242554 C198.34981628 119.69672241 197.70141785 120.25101929 197.03337097 120.82211304 C192.15625861 124.18250703 187.66639548 124.55876967 181.87142944 124.53485107 C181.06425848 124.53938219 180.25708751 124.5439133 179.42545682 124.54858172 C176.72333274 124.56123229 174.02141005 124.55960493 171.31925964 124.55795288 C169.38078553 124.56393774 167.4423138 124.57074319 165.50384521 124.57830811 C160.23929649 124.5959801 154.97481278 124.60066401 149.71023726 124.60193968 C146.42041774 124.60336121 143.13061475 124.60763085 139.84079933 124.61293411 C128.36160355 124.63143867 116.88245422 124.63960423 105.40324402 124.63803101 C94.70650547 124.63682964 84.00996872 124.65793007 73.31328124 124.68951833 C64.12670989 124.71567938 54.94020444 124.72639836 45.75359613 124.72512019 C40.2681658 124.72461049 34.78291478 124.73029829 29.29752159 124.75147629 C24.1371001 124.77085555 18.977029 124.77098513 13.81659508 124.75644302 C11.92519112 124.75435342 10.03376525 124.75906484 8.14239883 124.77116394 C5.55483963 124.78664131 2.9684849 124.77729232 0.38095093 124.76190186 C-0.3627435 124.77218898 -1.10643794 124.78247611 -1.87266856 124.79307497 C-8.31940299 124.70867696 -13.45323886 122.5555028 -18.30647278 118.30258179 C-18.8453009 117.65160522 -19.38412903 117.00062866 -19.93928528 116.32992554 C-20.49358215 115.6815271 -21.04787903 115.03312866 -21.61897278 114.36508179 C-25.10709771 109.30258695 -25.3615269 104.57296634 -25.35481262 98.56503296 C-25.36152985 97.69933182 -25.36824707 96.83363068 -25.37516785 95.94169617 C-25.39413478 93.08537016 -25.3980715 90.22927932 -25.40022278 87.37289429 C-25.40665201 85.38138229 -25.41338046 83.38987123 -25.4203949 81.39836121 C-25.43236469 77.22472952 -25.43607606 73.05118059 -25.43489075 68.87753296 C-25.43468767 63.54115025 -25.46197981 58.20530075 -25.49643517 52.8690443 C-25.51872265 48.75538213 -25.5227277 44.64184785 -25.5216713 40.52813148 C-25.52402485 38.56142656 -25.53283447 36.59471798 -25.54833603 34.62807274 C-25.56803173 31.87100771 -25.56214384 29.11508695 -25.55012512 26.35800171 C-25.56136414 25.55305267 -25.57260315 24.74810364 -25.58418274 23.91876221 C-25.51058668 17.24215036 -23.51670849 12.06601584 -19.09944153 7.02523804 C-18.44846497 6.48640991 -17.7974884 5.94758179 -17.12678528 5.39242554 C-16.47838684 4.83812866 -15.8299884 4.28383179 -15.16194153 3.71273804 C-10.28482917 0.35234404 -5.79496603 -0.02391859 0 0 Z M-7.06428528 19.26742554 C-9.45322014 23.17664292 -9.35512678 27.25316524 -9.33894348 31.71640015 C-9.34405441 32.44876389 -9.34916534 33.18112762 -9.35443115 33.9356842 C-9.36828641 36.34712994 -9.36737353 38.75828857 -9.36506653 41.16976929 C-9.36895561 42.85218918 -9.37329071 44.5346081 -9.37805176 46.21702576 C-9.38550515 49.73996161 -9.38522903 53.26279722 -9.37995911 56.78573608 C-9.37416464 61.29271354 -9.39109904 65.79928002 -9.41430378 70.30618954 C-9.42905941 73.77982468 -9.42991035 77.25336124 -9.42679405 80.72702217 C-9.42730631 82.38835019 -9.43252614 84.04968385 -9.44260597 85.71098137 C-9.45498928 88.03727553 -9.44816803 90.36277428 -9.43659973 92.6890564 C-9.44424347 93.37028564 -9.45188721 94.05151489 -9.45976257 94.75338745 C-9.40998258 99.29894758 -8.61469227 102.48813211 -6.06428528 106.26742554 C-1.97140707 108.46556107 1.94107345 108.55273409 6.48196411 108.52812195 C7.60908266 108.53386027 7.60908266 108.53386027 8.75897127 108.53971452 C11.27230299 108.55001849 13.78540515 108.54605735 16.29875183 108.54208374 C18.10254121 108.54643164 19.90632874 108.55161505 21.71011353 108.55757141 C26.60677916 108.57096388 31.50336763 108.57153983 36.40004802 108.56900811 C40.48810465 108.56793862 44.57614565 108.57282118 48.66419894 108.57761353 C58.30834564 108.58870947 67.95245339 108.58914556 77.59660339 108.58309937 C87.54581561 108.57705784 97.49488647 108.58937494 107.44407457 108.61066943 C115.98688278 108.62828151 124.52964598 108.63428743 133.07247168 108.63103169 C138.17439051 108.62921815 143.27620849 108.63186222 148.37811089 108.64574623 C153.17570521 108.65831359 157.97307903 108.65639079 162.77066994 108.64333534 C164.53067982 108.64096768 166.29070517 108.64371105 168.05069733 108.65195847 C170.45488161 108.66241163 172.85832403 108.65433718 175.26248169 108.64164734 C175.95752853 108.64902162 176.65257537 108.65639591 177.36868423 108.66399366 C181.93172128 108.61338833 185.06152057 107.66972934 188.93571472 105.26742554 C191.32464958 101.35820815 191.22655622 97.28168584 191.21037292 92.81845093 C191.21548386 92.08608719 191.22059479 91.35372345 191.2258606 90.59916687 C191.23971585 88.18772114 191.23880297 85.7765625 191.23649597 83.36508179 C191.24038505 81.68266189 191.24472016 80.00024297 191.2494812 78.31782532 C191.25693459 74.79488947 191.25665847 71.27205385 191.25138855 67.74911499 C191.24559408 63.24213754 191.26252848 58.73557106 191.28573322 54.22866154 C191.30048885 50.7550264 191.3013398 47.28148983 191.2982235 43.8078289 C191.29873575 42.14650089 191.30395559 40.48516722 191.31403542 38.82386971 C191.32641872 36.49757555 191.31959748 34.1720768 191.30802917 31.84579468 C191.31567291 31.16456543 191.32331665 30.48333618 191.33119202 29.78146362 C191.28141202 25.2359035 190.48612171 22.04671897 187.93571472 18.26742554 C183.84283652 16.06929001 179.93035599 15.98211698 175.38946533 16.00672913 C174.63805297 16.00290358 173.8866406 15.99907803 173.11245817 15.99513656 C170.59912645 15.98483258 168.0860243 15.98879372 165.57267761 15.99276733 C163.76888823 15.98841943 161.9651007 15.98323602 160.16131592 15.97727966 C155.26465028 15.96388719 150.36806181 15.96331125 145.47138143 15.96584296 C141.3833248 15.96691245 137.29528379 15.96202989 133.20723051 15.95723754 C123.5630838 15.94614161 113.91897605 15.94570551 104.27482605 15.95175171 C94.32561383 15.95779323 84.37654297 15.94547613 74.42735487 15.92418164 C65.88454666 15.90656957 57.34178346 15.90056364 48.79895777 15.90381938 C43.69703894 15.90563293 38.59522095 15.90298886 33.49331856 15.88910484 C28.69572423 15.87653748 23.89835041 15.87846029 19.10075951 15.89151573 C17.34074962 15.8938834 15.58072427 15.89114002 13.82073212 15.88289261 C11.41654784 15.87243944 9.01310541 15.8805139 6.60894775 15.89320374 C5.91390091 15.88582945 5.21885408 15.87845517 4.50274521 15.87085742 C-0.06029183 15.92146274 -3.19009113 16.86512173 -7.06428528 19.26742554 Z " fill="#2C0519" transform="translate(57.06428527832031,31.732574462890625)"/>
<path d="M0 0 C1.08475113 -0.0038269 2.16950226 -0.00765381 3.28712463 -0.01159668 C5.5585321 -0.01429841 7.82997161 -0.00706036 10.10131836 0.00976562 C13.5819141 0.03134615 17.06048002 0.0098286 20.54101562 -0.015625 C22.75651496 -0.01298427 24.97201305 -0.00786459 27.1875 0 C28.22603622 -0.00809692 29.26457245 -0.01619385 30.33457947 -0.02453613 C37.48665438 0.06889018 37.48665438 0.06889018 40.77954102 2.43945312 C42.23366083 4.69364139 42.67050109 5.86918024 42.62890625 8.53125 C42.644375 9.52125 42.644375 9.52125 42.66015625 10.53125 C41.85147933 13.57568075 40.64424436 14.62314663 38.12890625 16.53125 C35.20320499 17.12737898 32.31764094 17.08856957 29.33984375 17.0703125 C28.48137848 17.08210541 27.62291321 17.09389832 26.73843384 17.10604858 C23.99340805 17.14131185 21.24913982 17.15046955 18.50390625 17.15625 C-2.96816335 16.41570761 -2.96816335 16.41570761 -21.37109375 25.9453125 C-28.52032784 33.90309093 -29.02209279 43.29570537 -29.01635742 53.42895508 C-29.01971603 54.29173569 -29.02307465 55.1545163 -29.02653503 56.04344177 C-29.03598863 58.87923648 -29.03798534 61.71497179 -29.0390625 64.55078125 C-29.042279 66.53464278 -29.04564337 68.51850407 -29.04914856 70.50236511 C-29.05512588 74.65563507 -29.0569899 78.80888425 -29.05639648 82.9621582 C-29.05629495 88.26449171 -29.06994433 93.56669105 -29.08716869 98.86899281 C-29.09832806 102.96555687 -29.10031448 107.0620889 -29.09978676 111.15866661 C-29.10096105 113.11254018 -29.10535164 115.06641473 -29.11311913 117.02027321 C-29.12299863 119.76206284 -29.12000981 122.50356636 -29.11401367 125.24536133 C-29.12244293 126.43728592 -29.12244293 126.43728592 -29.13104248 127.65328979 C-29.08107919 136.71691822 -27.92310628 145.44522528 -21.87109375 152.53125 C-12.16070765 161.37674341 -2.45413325 161.6853066 10.12280273 161.64477539 C11.90923943 161.64499443 11.90923943 161.64499443 13.73176575 161.6452179 C16.97919899 161.64464278 20.22658851 161.63964571 23.47401309 161.63264394 C26.87460561 161.62637028 30.27519909 161.62580343 33.67579651 161.62461853 C40.10711126 161.62151701 46.5384089 161.61331958 52.96971613 161.60326904 C60.29500878 161.5920712 67.62030226 161.58658822 74.94560134 161.58157361 C90.00671249 161.57113593 105.06780766 161.55355942 120.12890625 161.53125 C119.27425781 160.68820312 118.41960937 159.84515625 117.5390625 158.9765625 C116.42304578 157.86992407 115.30716753 156.76314598 114.19140625 155.65625 C113.62744141 155.10066406 113.06347656 154.54507813 112.48242188 153.97265625 C107.22709569 148.74879909 107.22709569 148.74879909 106.81640625 143.65625 C106.87549998 140.70156347 107.06325661 139.64066607 108.62890625 137.03125 C111.45559453 135.33523703 113.71004459 134.776195 117.01635742 134.96728516 C124.72622018 137.02550577 131.50164181 146.74959511 137.0769043 152.34887695 C138.58462721 153.86203666 140.09772384 155.36967885 141.61132812 156.87695312 C142.57454017 157.84082474 143.53744265 158.80500584 144.5 159.76953125 C145.3655249 160.63618408 146.2310498 161.50283691 147.12280273 162.39575195 C150.09003029 165.55436695 150.66977818 167.97252093 150.58789062 172.34765625 C150.02775545 175.01246957 149.12711408 176.10138378 147.28515625 178.09375 C146.64900391 178.78549316 146.01285156 179.47723633 145.35742188 180.18994141 C144.62201172 180.96257324 143.88660156 181.73520508 143.12890625 182.53125 C141.87883789 183.85455322 141.87883789 183.85455322 140.60351562 185.20458984 C138.2834672 187.63149354 135.94511814 190.03572549 133.5859375 192.42431641 C132.60919874 193.41774876 131.63787585 194.41653327 130.671875 195.42041016 C129.25300175 196.89425996 127.81816543 198.35077083 126.37890625 199.8046875 C125.5384375 200.66497559 124.69796875 201.52526367 123.83203125 202.41162109 C120.65057499 204.90632876 118.08260261 205.77536268 114.12890625 206.53125 C110.81640625 205.59375 110.81640625 205.59375 108.12890625 203.53125 C106.56640625 200.21875 106.56640625 200.21875 106.12890625 196.53125 C108.09090194 191.50277854 110.98678003 188.29315955 114.81640625 184.65625 C115.32751953 184.15867187 115.83863281 183.66109375 116.36523438 183.1484375 C117.61298737 181.93566824 118.87000489 180.73244281 120.12890625 179.53125 C119.12367684 179.52905016 119.12367684 179.52905016 118.09813976 179.52680588 C101.75423962 179.48967365 85.41057919 179.4305744 69.06685162 179.34734726 C61.16297271 179.30762216 53.25919243 179.27519666 45.35522461 179.26025391 C38.46211294 179.24720337 31.56921886 179.22015257 24.67622977 179.17663693 C21.03002215 179.15409803 17.38408215 179.13833473 13.73779869 179.13936615 C9.65651874 179.14025728 5.57602204 179.10987696 1.49487305 179.07714844 C0.3001236 179.0821788 -0.89462585 179.08720917 -2.12557983 179.09239197 C-14.77771315 178.9360335 -24.36681475 174.85128977 -33.87109375 166.53125 C-38.23415867 161.86041701 -41.41021528 156.4149867 -43.87109375 150.53125 C-44.21282623 149.71758469 -44.55455872 148.90391937 -44.90664673 148.06559753 C-46.20524741 143.30669837 -46.16611897 138.83853485 -46.16162109 133.92700195 C-46.16833832 132.87090225 -46.17505554 131.81480255 -46.18197632 130.72669983 C-46.20094788 127.24092886 -46.20488043 123.75535061 -46.20703125 120.26953125 C-46.21346082 117.83823061 -46.2201893 115.40693074 -46.22720337 112.97563171 C-46.23917481 107.87899991 -46.24288443 102.78243588 -46.24169922 97.68579102 C-46.24149629 91.17384004 -46.26877292 84.66232673 -46.30324364 78.15047932 C-46.32554903 73.12739592 -46.3295356 68.10441713 -46.32847977 63.08128929 C-46.33083121 60.68165774 -46.33962884 58.28202311 -46.3551445 55.88244057 C-46.37487303 52.51547814 -46.36893833 49.14945013 -46.35693359 45.7824707 C-46.36817261 44.80286377 -46.37941162 43.82325684 -46.39099121 42.81396484 C-46.28460385 30.99443152 -41.74314067 21.2486174 -33.87109375 12.53125 C-23.85962803 3.49059308 -13.357343 -0.10558074 0 0 Z " fill="#2B0519" transform="translate(77.87109375,247.46875)"/>
<path d="M0 0 C1.31903824 -0.0112793 2.63807648 -0.02255859 3.99708557 -0.03417969 C5.45744543 -0.0264023 6.91780312 -0.01820961 8.37815857 -0.00964355 C9.91753807 -0.01506446 11.45691238 -0.02218695 12.99627686 -0.03088379 C17.17859249 -0.04913473 21.36051381 -0.04203963 25.54283643 -0.02936745 C29.92593777 -0.01923614 34.30900547 -0.02863467 38.69210815 -0.03491211 C46.06050158 -0.04219353 53.42873478 -0.03259353 60.79710388 -0.0135498 C69.29607293 0.00816344 77.7946573 0.00121013 86.29361683 -0.02085543 C93.6008486 -0.03906303 100.90796513 -0.04153996 108.21521229 -0.03110075 C112.57453414 -0.02488789 116.93367588 -0.02396785 121.29298592 -0.0372467 C125.39959558 -0.04888078 129.50571504 -0.04064307 133.61227226 -0.01766968 C135.11216293 -0.01242018 136.61209548 -0.01383123 138.11196899 -0.02272034 C152.32818342 -0.09914339 162.76887574 3.03100503 173.5947113 12.50793457 C177.95777622 17.17876756 181.13383284 22.62419788 183.5947113 28.50793457 C183.93644379 29.32159988 184.27817627 30.1352652 184.63026428 30.97358704 C185.92886497 35.7324862 185.88973653 40.20064972 185.88523865 45.11218262 C185.89195587 46.16828232 185.8986731 47.22438202 185.90559387 48.31248474 C185.92456543 51.79825571 185.92849798 55.28383396 185.9306488 58.76965332 C185.93707837 61.20095396 185.94380685 63.63225383 185.95082092 66.06355286 C185.96279236 71.16018466 185.96650198 76.25674869 185.96531677 81.35339355 C185.96511384 87.86534454 185.99239048 94.37685784 186.02686119 100.88870525 C186.04916658 105.91178865 186.05315315 110.93476744 186.05209732 115.95789528 C186.05444877 118.35752683 186.06324639 120.75716146 186.07876205 123.156744 C186.09849058 126.52370643 186.09255589 129.88973444 186.08055115 133.25671387 C186.09179016 134.2363208 186.10302917 135.21592773 186.11460876 136.22521973 C186.00734334 148.14230513 181.3708279 157.62499846 173.5947113 166.50793457 C168.92387832 170.87099949 163.478448 174.0470561 157.5947113 176.50793457 C156.37268005 177.03773926 156.37268005 177.03773926 155.1259613 177.57824707 C149.86480507 178.96337449 144.63943516 178.97972683 139.2197113 179.13293457 C138.10209412 179.17160645 136.98447693 179.21027832 135.83299255 179.25012207 C133.08705969 179.34400012 130.34112654 179.42968368 127.5947113 179.50793457 C128.44935974 180.35098145 129.30400818 181.19402832 130.18455505 182.06262207 C131.30057178 183.1692605 132.41645002 184.27603859 133.5322113 185.38293457 C134.09617615 185.93852051 134.66014099 186.49410645 135.24119568 187.06652832 C140.49652186 192.29038548 140.49652186 192.29038548 140.9072113 197.38293457 C140.84811757 200.3376211 140.66036094 201.3985185 139.0947113 204.00793457 C136.26802302 205.70394754 134.01357296 206.26298957 130.70726013 206.07189941 C122.99739737 204.0136788 116.22197574 194.28958946 110.64671326 188.69030762 C109.13899035 187.17714791 107.62589372 185.66950572 106.11228943 184.16223145 C105.14907738 183.19835983 104.18617491 182.23417873 103.22361755 181.26965332 C102.35809265 180.40300049 101.49256775 179.53634766 100.60081482 178.64343262 C97.63358726 175.48481762 97.05383937 173.06666364 97.13572693 168.69152832 C97.69586211 166.026715 98.59650348 164.93780079 100.4384613 162.94543457 C101.07461365 162.25369141 101.71076599 161.56194824 102.36619568 160.84924316 C103.10160583 160.07661133 103.83701599 159.30397949 104.5947113 158.50793457 C105.42809021 157.62573242 106.26146912 156.74353027 107.12010193 155.83459473 C109.44015035 153.40769103 111.77849941 151.00345908 114.13768005 148.61486816 C115.11441881 147.62143581 116.0857417 146.6226513 117.05174255 145.61877441 C118.4706158 144.14492461 119.90545213 142.68841374 121.3447113 141.23449707 C122.18518005 140.37420898 123.0256488 139.5139209 123.8915863 138.62756348 C127.07304256 136.13285581 129.64101494 135.2638219 133.5947113 134.50793457 C136.9072113 135.44543457 136.9072113 135.44543457 139.5947113 137.50793457 C141.1572113 140.82043457 141.1572113 140.82043457 141.5947113 144.50793457 C139.63271562 149.53640603 136.73683753 152.74602502 132.9072113 156.38293457 C132.39609802 156.8805127 131.88498474 157.37809082 131.35838318 157.89074707 C130.11063019 159.10351633 128.85361267 160.30674176 127.5947113 161.50793457 C145.4466869 161.99718281 145.4466869 161.99718281 160.5947113 153.50793457 C170.46592078 142.45302546 168.89380339 128.09618759 168.8603363 114.19543457 C168.86168585 112.21586052 168.86362879 110.23628679 168.86613464 108.25671387 C168.86907227 104.12134627 168.86483223 99.98606546 168.85545349 95.85070801 C168.84405984 90.57198679 168.85062662 85.29346902 168.86259842 80.01475525 C168.86985388 75.9310556 168.86751221 71.84740353 168.86234283 67.76370239 C168.86101652 65.81820654 168.86261803 63.87270625 168.86730194 61.92721558 C169.23534948 42.4308957 169.23534948 42.4308957 160.5947113 25.50793457 C153.4812031 18.57682401 144.7211307 17.38776437 135.16119385 17.37663269 C133.28748863 17.37062042 133.28748863 17.37062042 131.37593079 17.36448669 C130.00981138 17.36496166 128.64369199 17.36549774 127.27757263 17.36608887 C125.82491959 17.36305364 124.37226749 17.35953118 122.9196167 17.3555603 C119.8023652 17.34770206 116.68512498 17.34253819 113.56786537 17.33926964 C108.63884638 17.33333903 103.70989878 17.31678191 98.78091431 17.29792786 C97.091157 17.29159161 95.40139965 17.28526597 93.71164227 17.27895069 C92.86580464 17.27578488 92.01996701 17.27261907 91.14849794 17.26935732 C79.68046738 17.22731533 68.21247211 17.19427441 56.74436951 17.18200684 C48.99724027 17.17363475 41.25029 17.15118327 33.5032503 17.11265117 C29.40631836 17.09287588 25.30965402 17.0804911 21.21267128 17.08548546 C17.3637444 17.0901212 13.51532627 17.0763863 9.666502 17.04847336 C8.25398046 17.04154568 6.84140648 17.04145199 5.42888641 17.04867363 C3.50168052 17.05753249 1.57440678 17.03955323 -0.35272217 17.02018738 C-1.43134616 17.01779902 -2.50997015 17.01541067 -3.62127972 17.01294994 C-7.0755428 16.38635141 -8.25571084 15.22651837 -10.4052887 12.50793457 C-10.9365387 10.50793457 -10.9365387 10.50793457 -10.9052887 8.50793457 C-10.92075745 7.51793457 -10.92075745 7.51793457 -10.9365387 6.50793457 C-9.42329729 0.81102574 -5.28919543 0.00695331 0 0 Z " fill="#2B0519" transform="translate(294.40528869628906,85.4920654296875)"/>
</svg>
