<?xml version="1.0" encoding="UTF-8"?>
<svg version="1.1" xmlns="http://www.w3.org/2000/svg" width="2000" height="2000">
<path d="M0 0 C660 0 1320 0 2000 0 C2000 660 2000 1320 2000 2000 C1340 2000 680 2000 0 2000 C0 1340 0 680 0 0 Z " fill="#FEFEFE" transform="translate(0,0)"/>
<path d="M0 0 C1 2 1 2 0.40858459 3.91372681 C0.07016037 4.69968231 -0.26826385 5.48563782 -0.61694336 6.29541016 C-1.00100342 7.1978949 -1.38506348 8.10037964 -1.78076172 9.0302124 C-2.21275879 10.02313293 -2.64475586 11.01605347 -3.08984375 12.0390625 C-3.53610107 13.08161194 -3.9823584 14.12416138 -4.44213867 15.19830322 C-5.93327991 18.67705867 -7.43543306 22.15094969 -8.9375 25.625 C-9.98910067 28.07276654 -11.0400588 30.52079827 -12.09008789 32.96923828 C-14.2874131 38.09012451 -16.48969382 43.20885265 -18.6953125 48.32617188 C-21.81803889 55.57222763 -24.92689484 62.82417856 -28.03125 70.078125 C-32.004469 79.36081172 -35.98047103 88.64229346 -39.9609375 97.921875 C-40.70801468 99.66355957 -40.70801468 99.66355957 -41.47018433 101.44042969 C-43.48348524 106.13391176 -45.49693367 110.82733054 -47.51037598 115.52075195 C-51.02850243 123.72184569 -54.5459101 131.92324727 -58.0625 140.125 C-58.55436798 141.27207428 -59.04623596 142.41914856 -59.55300903 143.60098267 C-65.14019586 156.63255131 -70.71605563 169.66887436 -76.26953125 182.71484375 C-76.78445633 183.92442749 -77.29938141 185.13401123 -77.82991028 186.38024902 C-80.27646006 192.12857035 -82.7214653 197.87754317 -85.16430664 203.62744141 C-85.61525192 204.68790176 -86.0661972 205.74836212 -86.5308075 206.84095764 C-87.34564367 208.75716066 -88.15981367 210.67364727 -88.97297668 212.59056091 C-93.58120241 223.42361819 -98.30553004 234.20271908 -103 245 C-206.95 245 -310.9 245 -418 245 C-414.52666086 242.22132869 -411.62689632 240.0758324 -407.84375 237.92578125 C-406.83618652 237.34948975 -405.82862305 236.77319824 -404.79052734 236.17944336 C-403.70465332 235.56335205 -402.6187793 234.94726074 -401.5 234.3125 C-399.14789197 232.96708624 -396.796292 231.62081891 -394.4453125 230.2734375 C-393.83676422 229.92516403 -393.22821594 229.57689056 -392.60122681 229.21806335 C-385.83086356 225.33941632 -379.10209345 221.3905586 -372.375 217.4375 C-369.93110532 216.00240701 -367.48703183 214.56761867 -365.04296875 213.1328125 C-364.44758804 212.78321472 -363.85220734 212.43361694 -363.23878479 212.07342529 C-357.39450009 208.64258227 -351.5420967 205.22571398 -345.6875 201.8125 C-344.71304932 201.2443457 -343.73859863 200.67619141 -342.73461914 200.09082031 C-338.85749699 197.83064644 -334.98001192 195.57109559 -331.10253906 193.31152344 C-319.22592181 186.38981335 -307.35728042 179.45476975 -295.5 172.5 C-283.65008551 165.54955067 -271.78874751 158.61894228 -259.91943359 151.70166016 C-254.94548821 148.80247975 -249.97280372 145.90113805 -245 143 C-239.05919266 139.5341278 -233.11817575 136.06861915 -227.17578125 132.60546875 C-216.27520956 126.25165958 -205.38323043 119.88345043 -194.5 113.5 C-182.65008551 106.54955067 -170.78874751 99.61894228 -158.91943359 92.70166016 C-153.94548821 89.80247975 -148.97280372 86.90113805 -144 84 C-138.05919266 80.5341278 -132.11817575 77.06861915 -126.17578125 73.60546875 C-115.27520956 67.25165958 -104.38323043 60.88345043 -93.5 54.5 C-81.65008551 47.54955067 -69.78874751 40.61894228 -57.91943359 33.70166016 C-52.94548819 30.80247973 -47.97283277 27.9010883 -43 25 C-41.53288574 24.14426392 -41.53288574 24.14426392 -40.03613281 23.27124023 C-34.82429612 20.2312878 -29.61297305 17.19045907 -24.40234375 14.1484375 C-23.32017578 13.51679687 -22.23800781 12.88515625 -21.12304688 12.234375 C-19.05779185 11.02890425 -16.99267886 9.82319012 -14.92773438 8.6171875 C-9.96512017 5.72090612 -4.99485269 2.84034619 0 0 Z " fill="#2C061A" transform="translate(1796,587)"/>
<path d="M0 0 C7.05794244 3.35153691 13.79050532 6.98858683 20.4609375 11.05737305 C26.76832973 14.89297042 33.16161445 18.57303442 39.5625 22.25 C48.68206749 27.49427482 57.76619306 32.79245864 66.81518555 38.1574707 C76.51119144 43.90354417 86.24998508 49.57557947 95.98974609 55.24707031 C110.46023085 63.67351643 124.91873038 72.12012374 139.36239624 80.59243774 C148.53589819 85.97317544 157.71760948 91.33958147 166.90673828 96.69360352 C172.28379331 99.82791573 177.65647221 102.96953625 183.0234375 106.12109375 C183.62407516 106.47376312 184.22471283 106.8264325 184.84355164 107.18978882 C185.44875137 107.54513702 186.05395111 107.90048523 186.67749023 108.26660156 C197.24092709 114.46886477 207.81944001 120.64152241 218.4375 126.75 C227.26957829 131.83130566 236.06484357 136.96951323 244.82958984 142.16601562 C252.38324584 146.6428621 259.96391283 151.07212296 267.55175781 155.49072266 C273.0565899 158.69732695 278.55732617 161.910674 284.05078125 165.13671875 C284.64969177 165.48840118 285.24860229 165.84008362 285.86566162 166.2024231 C286.46864075 166.55650238 287.07161987 166.91058167 287.69287109 167.27539062 C298.2508871 173.4752231 308.82456098 179.64446845 319.4375 185.75 C328.26587644 190.8291759 337.05742019 195.96528804 345.81860352 201.15942383 C355.49585955 206.89464563 365.21596304 212.55573335 374.93701172 218.21630859 C383.03650383 222.93294253 391.13265423 227.65527971 399.22607422 232.38232422 C401.91017207 233.94761487 404.5973348 235.50752057 407.28515625 237.06640625 C408.85683837 237.98165487 410.42845724 238.89701211 412 239.8125 C412.71857178 240.22725586 413.43714355 240.64201172 414.17749023 241.06933594 C415.80170942 242.01817152 417.40389262 243.00460151 419 244 C419 244.33 419 244.66 419 245 C315.05 245 211.1 245 104 245 C79.48151408 188.50088028 79.48151408 188.50088028 71.5859375 169.5390625 C66.70500999 157.84419008 61.68387378 146.20835614 56.6875 134.5625 C55.91788437 132.76842712 55.91788437 132.76842712 55.13272095 130.93811035 C52.48756251 124.77252119 49.84150094 118.60732033 47.19482422 112.44238281 C38.60696042 92.43849631 30.03013845 72.42988189 21.46313477 52.41705322 C19.97807547 48.94879673 18.49204042 45.48095953 17.00585938 42.01318359 C14.61433573 36.4319409 12.22667444 30.84906088 9.84191895 25.2649231 C8.95344198 23.18599773 8.06372926 21.10760002 7.17272949 19.02975464 C5.95552817 16.19053499 4.74279902 13.34944771 3.53125 10.5078125 C3.17005066 9.66804367 2.80885132 8.82827484 2.43670654 7.96305847 C0 2.22835909 0 2.22835909 0 0 Z " fill="#2C061A" transform="translate(203,587)"/>
<path d="M0 0 C2.31975771 0.82800091 3.92635754 1.86952081 5.89819336 3.34350586 C7.00227539 4.16238281 7.00227539 4.16238281 8.12866211 4.99780273 C8.92014648 5.5952832 9.71163086 6.19276367 10.52709961 6.80834961 C11.36112305 7.43032227 12.19514648 8.05229492 13.05444336 8.69311523 C20.15582165 14.00329766 27.20179139 19.38716571 34.24291992 24.77685547 C40.04020913 29.20822123 45.88765187 33.56291749 51.77709961 37.87084961 C58.7280545 42.95747554 65.54991987 48.18582146 72.32739258 53.50073242 C78.38795889 58.23781778 84.5589545 62.80902449 90.76660156 67.35083008 C97.7318543 72.45664526 104.60331749 77.67973623 111.46386719 82.92504883 C116.65307221 86.89176688 121.85705582 90.83649319 127.08959961 94.74584961 C133.22532849 99.32999683 139.31758146 103.96899109 145.40209961 108.62084961 C152.16760178 113.79074922 158.97231198 118.89945495 165.83959961 123.93334961 C173.15615423 129.2977682 180.3921367 134.75572279 187.58178711 140.28881836 C190.96864928 142.89380184 194.3733783 145.47404543 197.78491211 148.04663086 C199.23051514 149.13935303 199.23051514 149.13935303 200.70532227 150.25415039 C202.60115409 151.68653527 204.49920518 153.11598844 206.3996582 154.54223633 C207.68477295 155.51507568 207.68477295 155.51507568 208.99584961 156.50756836 C209.76219727 157.08466553 210.52854492 157.6617627 211.31811523 158.25634766 C213.08959961 159.74584961 213.08959961 159.74584961 214.08959961 161.74584961 C72.51959961 161.74584961 -69.05040039 161.74584961 -214.91040039 161.74584961 C-214.91040039 161.08584961 -214.91040039 160.42584961 -214.91040039 159.74584961 C-213.49951172 158.48754883 -213.49951172 158.48754883 -211.49243164 157.05053711 C-210.74348633 156.5078418 -209.99454102 155.96514648 -209.22290039 155.40600586 C-208.39790039 154.8169043 -207.57290039 154.22780273 -206.72290039 153.62084961 C-204.96782812 152.34901962 -203.21396443 151.07552051 -201.46118164 149.80053711 C-200.54546387 149.13505859 -199.62974609 148.46958008 -198.6862793 147.78393555 C-194.21346791 144.49994 -189.81285376 141.12325413 -185.41040039 137.74584961 C-178.7324975 132.63169718 -172.01178546 127.58668976 -165.22290039 122.62084961 C-159.03783968 118.09469591 -152.94135992 113.47534308 -146.91040039 108.74584961 C-140.11295444 103.41527559 -133.21371971 98.24768333 -126.2421875 93.14746094 C-118.29214147 87.32013819 -110.46355809 81.33776187 -102.63305664 75.35131836 C-98.16528995 71.93592392 -93.67015941 68.56003664 -89.16430664 65.19506836 C-85.61376535 62.53245068 -82.09228345 59.83192879 -78.56665039 57.13647461 C-70.13357176 50.69050071 -61.65416604 44.31987797 -53.09155273 38.04711914 C-44.3678894 31.64127584 -35.78364911 25.05411483 -27.18530273 18.48168945 C-23.32750692 15.53803972 -19.45564702 12.61431344 -15.55883789 9.72241211 C-13.65290399 8.29998946 -11.76420614 6.85436519 -9.88696289 5.39428711 C-8.90469727 4.64405273 -7.92243164 3.89381836 -6.91040039 3.12084961 C-6.04415039 2.44795898 -5.17790039 1.77506836 -4.28540039 1.08178711 C-1.91040039 -0.25415039 -1.91040039 -0.25415039 0 0 Z " fill="#2C061A" transform="translate(999.910400390625,671.254150390625)"/>
<path d="M0 0 C99.91089109 0 99.91089109 0 121 20 C132.67699974 32.15066992 138.36888731 46.5791113 138.25 63.3125 C138.25773438 64.38951172 138.26546875 65.46652344 138.2734375 66.57617188 C138.24937167 76.50934244 137.01371581 85.12681026 132.4375 94 C131.91240845 95.02963867 131.91240845 95.02963867 131.37670898 96.08007812 C128.09948553 102.24726295 124.04712357 107.17042486 119 112 C118.31421875 112.70511719 117.6284375 113.41023437 116.921875 114.13671875 C108.8555108 121.97901728 97.52419341 127.66301538 86.5625 130.125 C85.48162109 130.37636719 85.48162109 130.37636719 84.37890625 130.6328125 C81.56132154 131.06771063 78.84646546 131.05733887 76 131 C82.79158638 139.9557019 89.63690251 148.85673477 96.6862793 157.61132812 C100.28292505 162.08440747 103.80361926 166.60947701 107.29077148 171.16821289 C110.24794441 175.03139826 113.23934904 178.86586992 116.25 182.6875 C117.64848946 184.46565158 119.04668247 186.24403594 120.44482422 188.02246094 C121.54747607 189.42457711 122.65072699 190.82622225 123.75439453 192.22753906 C125.61045358 194.58657783 127.4618212 196.94923896 129.3125 199.3125 C129.88709961 200.04106201 130.46169922 200.76962402 131.05371094 201.52026367 C134.96175983 206.5208671 138.54995277 211.67365243 142 217 C117.19386307 220.30667743 117.19386307 220.30667743 109.21826172 215.22900391 C104.35278052 210.45584683 100.96678847 204.72483516 97.63232422 198.82128906 C95.2202429 194.65227743 92.37459824 190.85701155 89.5 187 C88.44615521 185.53251335 87.394093 184.06374506 86.34375 182.59375 C82.65746992 177.48966989 78.83177203 172.49527293 75 167.5 C67.81412468 158.12981864 60.85475547 148.61420264 54 139 C51.525 135.535 51.525 135.535 49 132 C40.09 131.67 31.18 131.34 22 131 C22 159.38 22 187.76 22 217 C14.74 217 7.48 217 0 217 C0 145.39 0 73.78 0 0 Z " fill="#2D071B" transform="translate(784,894)"/>
<path d="M0 0 C300.3 0 600.6 0 910 0 C910 5.61 910 11.22 910 17 C609.7 17 309.4 17 0 17 C0 11.39 0 5.78 0 0 Z " fill="#2C061A" transform="translate(545,1397)"/>
<path d="M0 0 C0.66 0 1.32 0 2 0 C10.93120826 21.05327271 19.73391543 42.15065574 28.29330444 63.35787964 C28.60256866 64.12407623 28.91183289 64.89027283 29.23046875 65.6796875 C29.5396524 66.44580353 29.84883606 67.21191956 30.16738892 68.00125122 C33.68210557 76.70213569 37.24596514 85.38275671 40.8125 94.0625 C42.15241509 97.32418945 43.4922426 100.58591487 44.83203125 103.84765625 C45.16965485 104.66952927 45.50727844 105.49140228 45.85513306 106.33818054 C49.91397026 116.22113708 53.95661042 126.11071601 58 136 C63.09069705 148.45042399 68.18713856 160.89844139 73.296875 173.34106445 C76.21719024 180.45238727 79.13314222 187.56549712 82.04840088 194.67889404 C83.01650398 197.0402559 83.98548783 199.40125497 84.95458984 201.76220703 C86.51555177 205.5660401 88.07280266 209.3713726 89.62728882 213.17785645 C90.20404476 214.58859619 90.78200612 215.99884379 91.36123657 217.40856934 C92.15033637 219.32965935 92.93510464 221.25246116 93.71875 223.17578125 C94.16154297 224.25770752 94.60433594 225.33963379 95.06054688 226.4543457 C96 229 96 229 96 231 C88.08 231 80.16 231 72 231 C66.33973245 217.16131437 60.6979662 203.31492966 55.11975098 189.44293213 C54.5816501 188.10614243 54.04234331 186.76983751 53.50183105 185.434021 C52.74399228 183.56021877 51.99102134 181.68445002 51.23828125 179.80859375 C50.80555908 178.73407959 50.37283691 177.65956543 49.92700195 176.55249023 C49 174 49 174 49 172 C17.32 172.33 -14.36 172.66 -47 173 C-54.19620236 191.33920265 -54.19620236 191.33920265 -61.39038086 209.67919922 C-62.29012818 211.97105756 -63.18994437 214.26288886 -64.08984375 216.5546875 C-64.55974731 217.75359619 -65.02965088 218.95250488 -65.51379395 220.18774414 C-66.18360291 221.89281128 -66.18360291 221.89281128 -66.86694336 223.63232422 C-67.25555038 224.62271698 -67.64415741 225.61310974 -68.04454041 226.6335144 C-69 229 -69 229 -70 231 C-77.92 231 -85.84 231 -94 231 C-93.09309706 226.4654853 -91.73157125 222.57848377 -89.96484375 218.3515625 C-89.65500549 217.59994339 -89.34516724 216.84832428 -89.02593994 216.07392883 C-88.00060874 213.58921548 -86.96901552 211.10715159 -85.9375 208.625 C-85.21022052 206.86551113 -84.48342201 205.10582338 -83.75708008 203.34594727 C-82.24938982 199.69390106 -80.73963477 196.04271851 -79.22851562 192.39208984 C-77.15797263 187.38656445 -75.09945626 182.37619544 -73.046875 177.36328125 C-72.72876358 176.58639954 -72.41065216 175.80951782 -72.082901 175.00909424 C-71.44066217 173.44046314 -70.79845533 171.87181893 -70.15628052 170.30316162 C-63.56457588 154.20690205 -56.92782867 138.12935058 -50.28256226 122.05514526 C-44.83534443 108.87812197 -39.40566258 95.69412363 -34 82.5 C-26.09864952 63.21460735 -18.14056443 43.95277896 -10.17807007 24.69256592 C-6.77736758 16.46500705 -3.38692057 8.23324042 0 0 Z " fill="#2E091C" transform="translate(1345,880)"/>
<path d="M0 0 C9.26748171 7.86331782 16.23335237 19.16676184 18.625 31.125 C10.375 31.125 2.125 31.125 -6.375 31.125 C-7.695 27.825 -9.015 24.525 -10.375 21.125 C-16.52663016 11.71662446 -26.25347634 8.51711206 -36.6640625 5.88671875 C-54.94740371 2.1338224 -74.63806043 2.65758937 -91.03515625 12.421875 C-98.14395714 17.59622757 -102.91715518 24.40285149 -104.375 33.125 C-105.36673733 43.18046328 -104.23262581 50.75870284 -98.375 59.125 C-85.0039452 75.06635981 -60.29770211 79.42166188 -41.13793945 84.35864258 C-17.83130777 90.37618753 9.73505736 97.82670848 23.1484375 119.59765625 C30.04772322 132.49892174 31.04048569 149.26330385 26.9375 163.25 C26.20958555 165.22468834 25.44133533 167.18519328 24.625 169.125 C24.11646484 170.424375 24.11646484 170.424375 23.59765625 171.75 C17.16854798 186.39280887 3.95417149 195.55531904 -10.1875 201.9375 C-22.16699041 206.54745037 -34.56766225 208.7753116 -47.375 209.125 C-48.51839844 209.1765625 -49.66179687 209.228125 -50.83984375 209.28125 C-72.99475784 209.85857675 -96.11744261 205.80906199 -113.375 191.125 C-114.21160156 190.49464844 -115.04820313 189.86429688 -115.91015625 189.21484375 C-126.71452846 180.05424291 -130.83686402 167.26664793 -134.375 154.125 C-125.795 154.125 -117.215 154.125 -108.375 154.125 C-107.529375 156.27 -106.68375 158.415 -105.8125 160.625 C-101.11189913 171.78940935 -94.50940945 178.05222983 -83.375 183.125 C-63.6590873 190.76350789 -37.08774554 189.6679769 -17.64819336 181.64770508 C-8.69993296 177.67792707 -1.13349886 171.9709911 2.58984375 162.73046875 C5.66494252 153.05170164 6.51543465 142.35781546 1.890625 133.08984375 C-11.23975941 112.70532722 -45.13473413 106.72622727 -67 101.5 C-87.79437548 96.48366759 -109.51398696 88.18056744 -121.8359375 69.75390625 C-129.30505976 56.99573549 -130.45629759 41.9590363 -127.25 27.625 C-122.0379429 10.18652857 -110.00145965 -0.18564046 -94.5625 -8.6875 C-66.50499461 -21.95856229 -24.51334141 -18.63160077 0 0 Z " fill="#2E081C" transform="translate(1619.375,906.875)"/>
<path d="M0 0 C73.36102941 0 73.36102941 0 89.6875 15.25 C98.48364868 24.49514003 102.5860706 35.09831258 102.5 47.6875 C102.49427979 48.65776123 102.48855957 49.62802246 102.48266602 50.62768555 C102.12360611 65.12185798 96.16776477 75.26292436 85.8125 85.1875 C78.6600087 91.33225198 69.83325753 96.20343026 60.25 96.0625 C59.45078125 96.05347656 58.6515625 96.04445313 57.828125 96.03515625 C57.22484375 96.02355469 56.6215625 96.01195312 56 96 C62.40271909 104.63912984 68.88495321 113.18974035 75.63549805 121.56054688 C79.66212639 126.55812124 83.58367248 131.62736222 87.48046875 136.7265625 C89.27639617 139.07019422 91.09428125 141.39499944 92.92578125 143.7109375 C93.66332642 144.64377563 93.66332642 144.64377563 94.41577148 145.59545898 C95.3573319 146.78402738 96.30072216 147.97114958 97.24633789 149.15649414 C100.02357038 152.66340443 102.56548953 156.24632456 105 160 C85.93626311 161.77319785 85.93626311 161.77319785 79.9921875 158.18359375 C78.10657731 155.83554304 76.53608936 153.47121085 75.07421875 150.83984375 C72.97645465 147.24694597 70.40068856 143.97245711 67.9375 140.625 C66.82709162 139.07495852 65.71774787 137.5241539 64.609375 135.97265625 C60.73383026 130.59366743 56.71856368 125.32544698 52.6875 120.0625 C43.6414176 108.23646999 43.6414176 108.23646999 40 103.3125 C39.401875 102.50425781 38.80375 101.69601562 38.1875 100.86328125 C37 99 37 99 37 97 C30.4 97 23.8 97 17 97 C17 117.79 17 138.58 17 160 C11.39 160 5.78 160 0 160 C0 107.2 0 54.4 0 0 Z " fill="#300B1E" transform="translate(655,1174)"/>
<path d="M0 0 C42.57 0 85.14 0 129 0 C129 6.6 129 13.2 129 20 C93.69 20 58.38 20 22 20 C22 45.74 22 71.48 22 98 C56.32 98 90.64 98 126 98 C126 104.93 126 111.86 126 119 C91.68 119 57.36 119 22 119 C22 144.74 22 170.48 22 197 C57.31 197 92.62 197 129 197 C129 203.6 129 210.2 129 217 C86.43 217 43.86 217 0 217 C0 145.39 0 73.78 0 0 Z " fill="#2C061A" transform="translate(591,894)"/>
<path d="M0 0 C7.92 0 15.84 0 24 0 C29.0612343 10.64857058 33.77780591 21.39574615 38.33068848 32.27023315 C40.40651605 37.22722228 42.49302517 42.17971824 44.578125 47.1328125 C45.01767517 48.17757248 45.45722534 49.22233246 45.91009521 50.29875183 C50.9875709 62.36025364 56.11762629 74.39928048 61.25 86.4375 C62.2072897 88.68358765 63.16456504 90.92968142 64.12182617 93.17578125 C66.5693949 98.91813718 69.01763935 104.66020482 71.46600342 110.40222168 C75.73549337 120.41572403 80.00356463 130.42983065 84.27062988 140.44436646 C85.78509278 143.99818655 87.30024002 147.55171433 88.81542969 151.10522461 C89.73766221 153.26935485 90.65986438 155.43349803 91.58203125 157.59765625 C92.00174698 158.58150299 92.42146271 159.56534973 92.85389709 160.57901001 C93.24089279 161.48758759 93.62788849 162.39616516 94.02661133 163.33227539 C94.36138992 164.11760147 94.69616852 164.90292755 95.04109192 165.71205139 C96.05484039 168.13084882 97.03231358 170.56245025 98 173 C99.87746298 170.18380553 101.13625475 167.57846299 102.4765625 164.48046875 C102.97365723 163.33376709 103.47075195 162.18706543 103.98291016 161.00561523 C104.53048081 159.73299936 105.07783672 158.46029108 105.625 157.1875 C106.20488317 155.84381749 106.78479936 154.50014922 107.36474609 153.15649414 C113.58855705 138.71167916 119.67385608 124.20833897 125.76254272 109.70620728 C129.9137811 99.82022676 134.08039358 89.94074509 138.25 80.0625 C138.64005219 79.13818176 139.03010437 78.21386353 139.43197632 77.26153564 C144.10797382 66.18261863 148.79951442 55.11044365 153.51171875 44.046875 C153.96715057 42.97751205 154.4225824 41.90814911 154.89181519 40.80638123 C157.09357684 35.63774905 159.29705797 30.46985791 161.50292969 25.30297852 C162.30274603 23.42725106 163.10255128 21.55151888 163.90234375 19.67578125 C164.25882492 18.84226135 164.61530609 18.00874146 164.98258972 17.14996338 C167.40656698 11.46189039 169.70224598 5.74438505 172 0 C180.25 0 188.5 0 197 0 C195.78494949 3.64515154 194.63246778 7.02027812 193.1184082 10.50585938 C192.75141815 11.35433441 192.3844281 12.20280945 192.00631714 13.07699585 C191.40957687 14.44653915 191.40957687 14.44653915 190.80078125 15.84375 C190.37813995 16.81970123 189.95549866 17.79565247 189.52005005 18.80117798 C188.60216902 20.92047874 187.683244 23.03932758 186.76339722 25.15777588 C184.26069962 30.9228819 181.76697467 36.6918647 179.2734375 42.4609375 C178.75492722 43.66031952 178.23641693 44.85970154 177.70219421 46.09542847 C172.23495651 58.7525328 166.83192323 71.43672979 161.4375 84.125 C159.50939769 88.65897462 157.58103284 93.19283745 155.65234375 97.7265625 C155.17922256 98.83872131 154.70610138 99.95088013 154.21864319 101.09674072 C148.91088551 113.56785577 143.56668712 126.02329753 138.22183228 138.47854614 C133.07221144 150.48030145 127.93542485 162.48739804 122.8203125 174.50390625 C122.56089119 175.11329922 122.30146988 175.72269218 122.03418732 176.35055161 C119.26245726 182.86181279 116.49255571 189.37384827 113.72460938 195.88671875 C108.87777114 207.28524547 104.00098588 218.66815832 99 230 C96.82363612 227.27296064 95.28305525 224.68881209 93.92895508 221.47753906 C93.54519714 220.57520538 93.16143921 219.6728717 92.76605225 218.74319458 C92.35470032 217.76059662 91.94334839 216.77799866 91.51953125 215.765625 C91.07893372 214.72590546 90.63833618 213.68618591 90.18438721 212.61495972 C89.22665093 210.35322995 88.27142147 208.09043741 87.31838989 205.82672119 C85.78868488 202.1934354 84.2528333 198.56278547 82.71459961 194.93310547 C82.18512665 193.68356672 81.65566199 192.43402446 81.12620544 191.18447876 C80.86142332 190.55960194 80.5966412 189.93472511 80.32383537 189.29091263 C79.50884699 187.36681032 78.69458201 185.44240333 77.88050842 183.51791382 C72.31719676 170.36863504 66.69315988 157.24556438 61.0625 144.125 C60.06022993 141.78811716 59.05803304 139.45120294 58.0559082 137.11425781 C56.04292054 132.42012839 54.0296321 127.72612817 52.01611328 123.03222656 C49.00808685 116.01946001 46.00182886 109.00593639 42.99609375 101.9921875 C42.50029816 100.8353244 42.00450256 99.6784613 41.49368286 98.48654175 C39.0121943 92.69616641 36.5311515 86.90560057 34.05078125 81.11474609 C29.34456497 70.12858652 24.6339437 59.1443641 19.90982056 48.16589355 C17.939737 43.58749336 15.97160642 39.00825444 14.00391579 34.42882538 C12.6570205 31.29460613 11.30897256 28.16089311 9.95825195 25.02832031 C8.47076356 21.5773286 6.98694225 18.12478192 5.50390625 14.671875 C5.06035294 13.64551941 4.61679962 12.61916382 4.1598053 11.56170654 C3.75588058 10.61934143 3.35195587 9.67697632 2.93579102 8.70605469 C2.58404312 7.88901062 2.23229523 7.07196655 1.86988831 6.23016357 C1 4 1 4 0 0 Z " fill="#2E081C" transform="translate(331,894)"/>
<path d="M0 0 C12.82365289 10.11496402 24.26203418 24.57220507 27 41 C21.39 41 15.78 41 10 41 C8.865625 38.89625 7.73125 36.7925 6.5625 34.625 C-2.21148413 18.94282696 -15.80213613 6.94730485 -33.05810547 1.49438477 C-49.71864491 -2.98497375 -67.79849858 -1.41095837 -82.99609375 6.57421875 C-99.03571832 16.1179066 -110.17473029 30.31126872 -115.38037109 48.22119141 C-116.45367944 53.03458604 -116.48768112 57.77330671 -116.4375 62.6875 C-116.42920166 63.74042236 -116.42090332 64.79334473 -116.41235352 65.87817383 C-116.02705983 83.76210791 -109.82718756 99.42373627 -97.08203125 112.203125 C-82.72714494 125.7081426 -65.44292071 129.56779897 -46.1875 129.2734375 C-29.52230278 128.6573376 -13.53897704 120.7938352 -1.953125 108.8984375 C4.4858856 101.43617328 7.36599083 94.26801834 12 85 C-9.45 85 -30.9 85 -53 85 C-53 80.05 -53 75.1 -53 70 C-25.28 70 2.44 70 31 70 C28.06190661 90.56665375 22.78960469 105.40112094 9 121 C8.45859375 121.63679688 7.9171875 122.27359375 7.359375 122.9296875 C1.91719421 128.89409776 -5.1132321 132.91980613 -12 137 C-12.97066406 137.58265625 -13.94132812 138.1653125 -14.94140625 138.765625 C-32.79564436 148.59911359 -55.46317798 149.91793647 -74.8984375 144.390625 C-96.46090635 137.49475191 -114.1711051 122.78376276 -125 103 C-135.04132632 83.26813604 -137.59356152 60.2816223 -130.73632812 39.03955078 C-122.72563534 16.85078171 -107.41340624 -0.22624856 -86.44921875 -10.7890625 C-57.2373241 -23.98153105 -25.29310874 -19.26750367 0 0 Z " fill="#310C1F" transform="translate(1095,1189)"/>
<path d="M0 0 C9.6525 -0.0825 19.305 -0.165 29.25 -0.25 C32.27317383 -0.28641602 35.29634766 -0.32283203 38.41113281 -0.36035156 C40.84178968 -0.37204805 43.27245446 -0.38223759 45.703125 -0.390625 C47.55429932 -0.4213208 47.55429932 -0.4213208 49.44287109 -0.45263672 C62.58626604 -0.45785857 72.76578649 2.83227742 82.125 12.10546875 C90.60261309 21.1596842 94.37596115 30.49883599 94.25 42.9375 C94.26160156 44.07735352 94.26160156 44.07735352 94.2734375 45.24023438 C94.22936967 58.14109195 89.20445052 68.52895744 80.375 77.80859375 C70.06283957 87.32359704 56.04244617 89.63351182 42.48046875 89.390625 C41.39270142 89.38659668 40.30493408 89.38256836 39.1842041 89.37841797 C35.18512703 89.35775163 31.18629355 89.30191001 27.1875 89.25 C13.7296875 89.12625 13.7296875 89.12625 0 89 C0 59.63 0 30.26 0 0 Z " fill="#FCFCFC" transform="translate(806,915)"/>
<path d="M0 0 C42.24 0 84.48 0 128 0 C128 6.93 128 13.86 128 21 C110.84 21 93.68 21 76 21 C76 85.68 76 150.36 76 217 C68.41 217 60.82 217 53 217 C53 152.32 53 87.64 53 21 C35.51 21 18.02 21 0 21 C0 14.07 0 7.14 0 0 Z " fill="#310C1F" transform="translate(1086,893)"/>
<path d="M0 0 C31.35 0 62.7 0 95 0 C95 4.95 95 9.9 95 15 C68.93 15 42.86 15 16 15 C16 33.81 16 52.62 16 72 C41.08 72 66.16 72 92 72 C92 77.28 92 82.56 92 88 C66.92 88 41.84 88 16 88 C16 106.81 16 125.62 16 145 C42.07 145 68.14 145 95 145 C95 149.95 95 154.9 95 160 C63.65 160 32.3 160 0 160 C0 107.2 0 54.4 0 0 Z " fill="#2D081C" transform="translate(811,1174)"/>
<path d="M0 0 C7.26 0 14.52 0 22 0 C22 71.61 22 143.22 22 217 C14.74 217 7.48 217 0 217 C0 145.39 0 73.78 0 0 Z " fill="#2C061A" transform="translate(989,894)"/>
<path d="M0 0 C10.5496875 -0.12375 10.5496875 -0.12375 21.3125 -0.25 C24.607948 -0.30462402 24.607948 -0.30462402 27.9699707 -0.36035156 C39.27950009 -0.46965815 48.59762648 -0.22798251 58.3125 6.1875 C66.49442318 14.74997774 69.46579307 22.65101609 69.2421875 34.46484375 C68.61153245 43.67037308 65.52065983 50.4290846 59 57 C50.97912425 63.51434604 43.96147981 65.30852756 33.7890625 65.1953125 C32.93014404 65.19329834 32.07122559 65.19128418 31.1862793 65.18920898 C27.99913133 65.1787999 24.81205991 65.15087754 21.625 65.125 C14.48875 65.08375 7.3525 65.0425 0 65 C0 43.55 0 22.1 0 0 Z " fill="#FEFEFE" transform="translate(672,1190)"/>
<path d="M0 0 C0.66 0 1.32 0 2 0 C11.54468547 24.00789644 21.05397424 48.02952381 30.41708374 72.10891724 C31.26442369 74.28732325 32.1129154 76.46528161 32.96255493 78.64279175 C34.14905582 81.68501437 35.33107961 84.72893607 36.51171875 87.7734375 C36.86704681 88.68266464 37.22237488 89.59189178 37.58847046 90.52867126 C38.06807724 91.77010643 38.06807724 91.77010643 38.55737305 93.03662109 C38.83759811 93.75788177 39.11782318 94.47914246 39.40653992 95.22225952 C40 97 40 97 40 99 C14.26 99 -11.48 99 -38 99 C-37.10633985 94.53169927 -35.80426217 90.60952068 -34.140625 86.40625 C-33.8435968 85.64634262 -33.5465686 84.88643524 -33.24053955 84.10350037 C-32.24782358 81.56735923 -31.24899724 79.03367283 -30.25 76.5 C-29.54986753 74.71567922 -28.85000384 72.93125296 -28.15039062 71.14672852 C-18.83226263 47.4054851 -9.41436939 23.70320393 0 0 Z " fill="#FDFCFC" transform="translate(1345,932)"/>
<path d="M0 0 C31.02 0 62.04 0 94 0 C94 4.95 94 9.9 94 15 C81.13 15 68.26 15 55 15 C55 62.52 55 110.04 55 159 C49.72 159 44.44 159 39 159 C39 111.48 39 63.96 39 15 C26.13 15 13.26 15 0 15 C0 10.05 0 5.1 0 0 Z " fill="#2D071B" transform="translate(1248,1174)"/>
<path d="M0 0 C5.28 0 10.56 0 16 0 C16 52.8 16 105.6 16 160 C10.72 160 5.44 160 0 160 C0 107.2 0 54.4 0 0 Z " fill="#2C061A" transform="translate(1182,1174)"/>
</svg>
