<svg xmlns="http://www.w3.org/2000/svg" xmlns:xlink="http://www.w3.org/1999/xlink" width="1600" zoomAndPan="magnify" viewBox="0 0 1200 622.499981" height="830" preserveAspectRatio="xMidYMid meet" version="1.0"><defs><g/><clipPath id="0ff4e6adff"><path d="M 259.023438 608.546875 L 940.976562 608.546875 L 940.976562 621.285156 L 259.023438 621.285156 Z M 259.023438 608.546875 " clip-rule="nonzero"/></clipPath><clipPath id="3e34a05f5c"><path d="M 0.0234375 0.546875 L 681.976562 0.546875 L 681.976562 13.285156 L 0.0234375 13.285156 Z M 0.0234375 0.546875 " clip-rule="nonzero"/></clipPath><clipPath id="b45a46ab6f"><rect x="0" width="682" y="0" height="14"/></clipPath><clipPath id="1b050c3910"><path d="M 2 0.714844 L 318 0.714844 L 318 185.816406 L 2 185.816406 Z M 2 0.714844 " clip-rule="nonzero"/></clipPath><clipPath id="687a1dc602"><path d="M 1.933594 0.714844 L 318.179688 0.714844 L 318.179688 185.816406 L 1.933594 185.816406 Z M 1.933594 0.714844 " clip-rule="nonzero"/></clipPath><clipPath id="b1c6dbba1a"><path d="M 881.742188 0.714844 L 1197.988281 0.714844 L 1197.988281 185.816406 L 881.742188 185.816406 Z M 881.742188 0.714844 " clip-rule="nonzero"/></clipPath><clipPath id="54f3e1a769"><path d="M 1 0.714844 L 316.988281 0.714844 L 316.988281 185.816406 L 1 185.816406 Z M 1 0.714844 " clip-rule="nonzero"/></clipPath><clipPath id="13afabf137"><path d="M 0.8125 0.714844 L 316.988281 0.714844 L 316.988281 185.816406 L 0.8125 185.816406 Z M 0.8125 0.714844 " clip-rule="nonzero"/></clipPath><clipPath id="5f4a7e177e"><rect x="0" width="317" y="0" height="186"/></clipPath><clipPath id="b3037fc339"><path d="M 438.488281 64.363281 L 761 64.363281 L 761 186 L 438.488281 186 Z M 438.488281 64.363281 " clip-rule="nonzero"/></clipPath><clipPath id="e741e85d92"><path d="M 438.488281 64.363281 L 761.476562 64.363281 L 761.476562 186.515625 L 438.488281 186.515625 Z M 438.488281 64.363281 " clip-rule="nonzero"/></clipPath></defs><g clip-path="url(#0ff4e6adff)"><g transform="matrix(1, 0, 0, 1, 259, 608)"><g clip-path="url(#b45a46ab6f)"><g clip-path="url(#3e34a05f5c)"><path fill="#2c061a" d="M 0.0234375 0.546875 L 682 0.546875 L 682 13.285156 L 0.0234375 13.285156 Z M 0.0234375 0.546875 " fill-opacity="1" fill-rule="nonzero"/></g></g></g></g><g clip-path="url(#1b050c3910)"><path fill="#2c061a" d="M 80.996094 185.242188 L 2.109375 0.945312 L 317.65625 185.242188 Z M 80.996094 185.242188 " fill-opacity="1" fill-rule="nonzero"/></g><g clip-path="url(#687a1dc602)"><path stroke-linecap="butt" transform="matrix(0.348289, 0, 0, 0.347728, 2.107717, 0.944471)" fill="none" stroke-linejoin="miter" d="M 226.502947 530.005465 L 0.00475978 0.00241979 L 905.997509 530.005465 Z M 226.502947 530.005465 " stroke="#000000" stroke-width="1" stroke-opacity="1" stroke-miterlimit="10"/></g><g fill="#2c061a" fill-opacity="1"><g transform="translate(328.482885, 560.975706)"><g><path d="M 25.5625 -59.234375 L 53.40625 -59.234375 C 60.34375 -59.234375 66.046875 -61.582031 70.515625 -66.28125 C 75.097656 -71.101562 77.390625 -77.039062 77.390625 -84.09375 C 77.390625 -91.019531 75.210938 -96.773438 70.859375 -101.359375 C 66.515625 -105.828125 60.695312 -108.0625 53.40625 -108.0625 L 25.5625 -108.0625 Z M 89.734375 -83.734375 C 89.734375 -73.273438 86.03125 -64.578125 78.625 -57.640625 C 72.039062 -51.535156 64.109375 -48.1875 54.828125 -47.59375 L 91.671875 0 L 75.09375 0 L 40.015625 -47.421875 L 25.5625 -47.421875 L 25.5625 0 L 13.21875 0 L 13.21875 -119.875 L 51.65625 -119.875 C 62.34375 -119.875 71.332031 -116.523438 78.625 -109.828125 C 86.03125 -102.773438 89.734375 -94.078125 89.734375 -83.734375 Z M 89.734375 -83.734375 "/></g></g></g><g fill="#2c061a" fill-opacity="1"><g transform="translate(444.823955, 560.975706)"><g><path d="M 84.4375 0 L 13.21875 0 L 13.21875 -119.875 L 84.4375 -119.875 L 84.4375 -108.40625 L 25.5625 -108.40625 L 25.5625 -65.75 L 82.671875 -65.75 L 82.671875 -54.125 L 25.5625 -54.125 L 25.5625 -11.453125 L 84.4375 -11.453125 Z M 84.4375 0 "/></g></g></g><g fill="#2c061a" fill-opacity="1"><g transform="translate(562.927739, 560.975706)"><g><path d="M 131.5 -56.0625 L 130.265625 -48.65625 C 127.679688 -34.082031 120.570312 -22.09375 108.9375 -12.6875 C 97.300781 -3.289062 84.195312 1.40625 69.625 1.40625 C 61.164062 1.40625 53.175781 -0.238281 45.65625 -3.53125 C 38.132812 -6.695312 31.613281 -11.101562 26.09375 -16.75 C 20.445312 -22.269531 16.039062 -28.789062 12.875 -36.3125 C 9.582031 -43.832031 7.9375 -51.882812 7.9375 -60.46875 C 7.9375 -68.925781 9.582031 -76.914062 12.875 -84.4375 C 16.039062 -91.957031 20.445312 -98.539062 26.09375 -104.1875 C 31.613281 -109.707031 38.132812 -114.113281 45.65625 -117.40625 C 53.175781 -120.570312 60.753906 -122.15625 68.390625 -122.15625 C 82.734375 -122.15625 95.367188 -118.101562 106.296875 -110 C 117.347656 -101.894531 124.867188 -91.203125 128.859375 -77.921875 L 115.8125 -77.921875 C 112.050781 -87.671875 106 -95.425781 97.65625 -101.1875 C 89.195312 -106.945312 79.851562 -109.828125 69.625 -109.828125 C 56 -109.828125 44.367188 -105.007812 34.734375 -95.375 C 25.085938 -85.726562 20.265625 -74.09375 20.265625 -60.46875 C 20.265625 -46.945312 25.085938 -35.3125 34.734375 -25.5625 C 44.242188 -15.800781 55.875 -10.921875 69.625 -10.921875 C 80.4375 -10.921875 90.3125 -14.035156 99.25 -20.265625 C 108.0625 -26.617188 114.226562 -34.960938 117.75 -45.296875 L 69.109375 -45.296875 L 69.109375 -56.0625 Z M 131.5 -56.0625 "/></g></g></g><g fill="#2c061a" fill-opacity="1"><g transform="translate(722.808127, 560.975706)"><g><path d="M 25.5625 0 L 13.21875 0 L 13.21875 -119.875 L 25.5625 -119.875 Z M 25.5625 0 "/></g></g></g><g fill="#2c061a" fill-opacity="1"><g transform="translate(782.03687, 560.975706)"><g><path d="M 3.53125 -108.765625 L 3.53125 -120.21875 L 74.03125 -120.21875 L 74.03125 -108.765625 L 44.953125 -108.765625 L 44.953125 -0.359375 L 32.609375 -0.359375 L 32.609375 -108.765625 Z M 3.53125 -108.765625 "/></g></g></g><g clip-path="url(#b1c6dbba1a)"><g transform="matrix(1, 0, 0, 1, 881, 0)"><g clip-path="url(#5f4a7e177e)"><g clip-path="url(#54f3e1a769)"><path fill="#2c061a" d="M 237.996094 185.242188 L 316.882812 0.945312 L 1.335938 185.242188 Z M 237.996094 185.242188 " fill-opacity="1" fill-rule="nonzero"/></g><g clip-path="url(#13afabf137)"><path stroke-linecap="butt" transform="matrix(-0.348289, 0, 0, 0.347728, 316.883651, 0.944471)" fill="none" stroke-linejoin="miter" d="M 226.500594 530.005465 L 0.00240679 0.00241979 L 905.995156 530.005465 Z M 226.500594 530.005465 " stroke="#000000" stroke-width="1" stroke-opacity="1" stroke-miterlimit="10"/></g></g></g></g><g clip-path="url(#b3037fc339)"><path fill="#2c061a" d="M 438.496094 185.757812 L 599.601562 64.363281 L 760.710938 185.757812 Z M 438.496094 185.757812 " fill-opacity="1" fill-rule="nonzero"/></g><g clip-path="url(#e741e85d92)"><path stroke-linecap="butt" transform="matrix(0.75637, 0, 0, 0.758707, 438.496524, 64.363909)" fill="none" stroke-linejoin="miter" d="M -0.000569141 160.000971 L 212.997533 -0.000826963 L 426.000799 160.000971 Z M -0.000569141 160.000971 " stroke="#2c061a" stroke-width="1" stroke-opacity="1" stroke-miterlimit="10"/></g><g fill="#2c061a" fill-opacity="1"><g transform="translate(275.180897, 394.414984)"><g><path d="M 114.875 0 L 17.984375 0 L 17.984375 -163.078125 L 114.875 -163.078125 L 114.875 -147.484375 L 34.765625 -147.484375 L 34.765625 -89.453125 L 112.46875 -89.453125 L 112.46875 -73.625 L 34.765625 -73.625 L 34.765625 -15.59375 L 114.875 -15.59375 Z M 114.875 0 "/></g></g></g><g fill="#2c061a" fill-opacity="1"><g transform="translate(420.206968, 394.040285)"><g><path d="M 34.71875 -80.4375 L 72.546875 -80.4375 C 81.960938 -80.4375 89.703125 -83.628906 95.765625 -90.015625 C 101.984375 -96.554688 105.09375 -104.617188 105.09375 -114.203125 C 105.09375 -123.617188 102.140625 -131.4375 96.234375 -137.65625 C 90.335938 -143.71875 82.441406 -146.75 72.546875 -146.75 L 34.71875 -146.75 Z M 121.859375 -113.71875 C 121.859375 -99.507812 116.832031 -87.695312 106.78125 -78.28125 C 97.84375 -69.988281 87.066406 -65.441406 74.453125 -64.640625 L 124.484375 0 L 101.984375 0 L 54.34375 -64.40625 L 34.71875 -64.40625 L 34.71875 0 L 17.953125 0 L 17.953125 -162.796875 L 70.140625 -162.796875 C 84.671875 -162.796875 96.882812 -158.25 106.78125 -149.15625 C 116.832031 -139.570312 121.859375 -127.757812 121.859375 -113.71875 Z M 121.859375 -113.71875 "/></g></g></g><g fill="#2c061a" fill-opacity="1"><g transform="translate(573.663731, 394.040285)"><g><path d="M 34.71875 0 L 17.953125 0 L 17.953125 -162.796875 L 34.71875 -162.796875 Z M 34.71875 0 "/></g></g></g><g fill="#2c061a" fill-opacity="1"><g transform="translate(660.102104, 394.040285)"><g><path d="M 4.78125 -147.71875 L 4.78125 -163.28125 L 100.546875 -163.28125 L 100.546875 -147.71875 L 61.046875 -147.71875 L 61.046875 -0.484375 L 44.296875 -0.484375 L 44.296875 -147.71875 Z M 4.78125 -147.71875 "/></g></g></g><g fill="#2c061a" fill-opacity="1"><g transform="translate(785.368671, 394.040285)"><g><path d="M 44.296875 -59.859375 L 103.421875 -59.859375 L 73.96875 -134.78125 Z M 145.3125 0 L 127.125 0 L 109.640625 -44.296875 L 38.0625 -44.296875 L 20.59375 0 L 2.390625 0 L 73.96875 -174.046875 Z M 145.3125 0 "/></g></g></g><g fill="#2c061a" fill-opacity="1"><g transform="translate(96.092231, 394.558058)"><g><path d="M 76.375 9.8125 L 2.390625 -162.796875 L 20.59375 -162.796875 L 76.375 -31.609375 L 131.90625 -162.796875 L 150.109375 -162.796875 Z M 76.375 9.8125 "/></g></g></g><g fill="#2c061a" fill-opacity="1"><g transform="translate(954.592121, 394.558058)"><g><path d="M 63.203125 -76.84375 C 30.003906 -84.507812 13.40625 -98.71875 13.40625 -119.46875 C 13.40625 -134.789062 18.753906 -146.28125 29.453125 -153.9375 C 40.140625 -161.4375 52.664062 -165.1875 67.03125 -165.1875 C 98.789062 -165.1875 117.625 -153.378906 123.53125 -129.765625 L 105.34375 -129.765625 C 102.144531 -143.804688 89.375 -150.828125 67.03125 -150.828125 C 51.394531 -150.828125 40.460938 -146.195312 34.234375 -136.9375 C 31.835938 -133.425781 30.640625 -129.035156 30.640625 -123.765625 C 30.640625 -113.710938 36.066406 -105.972656 46.921875 -100.546875 C 52.023438 -97.835938 62.878906 -94.328125 79.484375 -90.015625 C 96.078125 -85.703125 108.128906 -80.914062 115.640625 -75.65625 C 126.003906 -68.3125 131.1875 -58.015625 131.1875 -44.765625 C 131.1875 -28.328125 124.722656 -15.878906 111.796875 -7.421875 C 100.941406 -0.398438 87.535156 3.109375 71.578125 3.109375 C 35.515625 3.109375 14.609375 -10.613281 8.859375 -38.0625 L 28.734375 -38.0625 C 31.765625 -20.820312 46.046875 -12.203125 71.578125 -12.203125 C 89.773438 -12.203125 102.460938 -17.234375 109.640625 -27.296875 C 112.515625 -31.285156 113.953125 -36.710938 113.953125 -43.578125 C 113.953125 -50.273438 111.320312 -55.78125 106.0625 -60.09375 C 98.5625 -66.15625 84.273438 -71.738281 63.203125 -76.84375 Z M 63.203125 -76.84375 "/></g></g></g></svg>